  0
SECTION
  2
HEADER
  9
$ACADVER
  1
AC1024
  9
$ACADMAINTVER
 70
     6
  9
$DWGCODEPAGE
  3
ANSI_1252
  9
$INSBASE
 10
0.0
 20
0.0
 30
0.0
  9
$EXTMIN
 10
1.000000000000000E+20
 20
1.000000000000000E+20
 30
1.000000000000000E+20
  9
$EXTMAX
 10
-1.000000000000000E+20
 20
-1.000000000000000E+20
 30
-1.000000000000000E+20
  9
$LIMMIN
 10
0.0
 20
0.0
  9
$LIMMAX
 10
12.0
 20
9.0
  9
$ORTHOMODE
 70
     0
  9
$REGENMODE
 70
     1
  9
$FILLMODE
 70
     1
  9
$QTEXTMODE
 70
     0
  9
$MIRRTEXT
 70
     1
  9
$LTSCALE
 40
1.0
  9
$ATTMODE
 70
     1
  9
$TEXTSIZE
 40
0.2
  9
$TRACEWID
 40
0.05
  9
$TEXTSTYLE
  7
Standard
  9
$CLAYER
  8
0
  9
$CELTYPE
  6
ByLayer
  9
$CECOLOR
 62
   256
  9
$CELTSCALE
 40
1.0
  9
$DISPSILH
 70
     0
  9
$DIMSCALE
 40
1.0
  9
$DIMASZ
 40
0.18
  9
$DIMEXO
 40
0.0625
  9
$DIMDLI
 40
0.38
  9
$DIMRND
 40
0.0
  9
$DIMDLE
 40
0.0
  9
$DIMEXE
 40
0.18
  9
$DIMTP
 40
0.0
  9
$DIMTM
 40
0.0
  9
$DIMTXT
 40
0.18
  9
$DIMCEN
 40
0.09
  9
$DIMTSZ
 40
0.0
  9
$DIMTOL
 70
     0
  9
$DIMLIM
 70
     0
  9
$DIMTIH
 70
     1
  9
$DIMTOH
 70
     1
  9
$DIMSE1
 70
     0
  9
$DIMSE2
 70
     0
  9
$DIMTAD
 70
     0
  9
$DIMZIN
 70
     0
  9
$DIMBLK
  1

  9
$DIMASO
 70
     1
  9
$DIMSHO
 70
     1
  9
$DIMPOST
  1

  9
$DIMAPOST
  1

  9
$DIMALT
 70
     0
  9
$DIMALTD
 70
     2
  9
$DIMALTF
 40
25.4
  9
$DIMLFAC
 40
1.0
  9
$DIMTOFL
 70
     0
  9
$DIMTVP
 40
0.0
  9
$DIMTIX
 70
     0
  9
$DIMSOXD
 70
     0
  9
$DIMSAH
 70
     0
  9
$DIMBLK1
  1

  9
$DIMBLK2
  1

  9
$DIMSTYLE
  2
Standard
  9
$DIMCLRD
 70
     0
  9
$DIMCLRE
 70
     0
  9
$DIMCLRT
 70
     0
  9
$DIMTFAC
 40
1.0
  9
$DIMGAP
 40
0.09
  9
$DIMJUST
 70
     0
  9
$DIMSD1
 70
     0
  9
$DIMSD2
 70
     0
  9
$DIMTOLJ
 70
     1
  9
$DIMTZIN
 70
     0
  9
$DIMALTZ
 70
     0
  9
$DIMALTTZ
 70
     0
  9
$DIMUPT
 70
     0
  9
$DIMDEC
 70
     4
  9
$DIMTDEC
 70
     4
  9
$DIMALTU
 70
     2
  9
$DIMALTTD
 70
     2
  9
$DIMTXSTY
  7
Standard
  9
$DIMAUNIT
 70
     0
  9
$DIMADEC
 70
     0
  9
$DIMALTRND
 40
0.0
  9
$DIMAZIN
 70
     0
  9
$DIMDSEP
 70
    46
  9
$DIMATFIT
 70
     3
  9
$DIMFRAC
 70
     0
  9
$DIMLDRBLK
  1

  9
$DIMLUNIT
 70
     2
  9
$DIMLWD
 70
    -2
  9
$DIMLWE
 70
    -2
  9
$DIMTMOVE
 70
     0
  9
$DIMFXL
 40
1.0
  9
$DIMFXLON
 70
     0
  9
$DIMJOGANG
 40
0.7853981633974483
  9
$DIMTFILL
 70
     0
  9
$DIMTFILLCLR
 70
     0
  9
$DIMARCSYM
 70
     0
  9
$DIMLTYPE
  6

  9
$DIMLTEX1
  6

  9
$DIMLTEX2
  6

  9
$DIMTXTDIRECTION
 70
     0
  9
$LUNITS
 70
     2
  9
$LUPREC
 70
     4
  9
$SKETCHINC
 40
0.1
  9
$FILLETRAD
 40
0.5
  9
$AUNITS
 70
     0
  9
$AUPREC
 70
     0
  9
$MENU
  1
.
  9
$ELEVATION
 40
0.0
  9
$PELEVATION
 40
0.0
  9
$THICKNESS
 40
0.0
  9
$LIMCHECK
 70
     0
  9
$CHAMFERA
 40
0.5
  9
$CHAMFERB
 40
0.5
  9
$CHAMFERC
 40
1.0
  9
$CHAMFERD
 40
0.0
  9
$SKPOLY
 70
     0
  9
$TDCREATE
 40
2460227.738397095
  9
$TDUCREATE
 40
2460227.863397095
  9
$TDUPDATE
 40
2460227.738397211
  9
$TDUUPDATE
 40
2460227.863397211
  9
$TDINDWG
 40
0.0000000116
  9
$TDUSRTIMER
 40
0.0000000116
  9
$USRTIMER
 70
     1
  9
$ANGBASE
 50
0.0
  9
$ANGDIR
 70
     0
  9
$PDMODE
 70
     0
  9
$PDSIZE
 40
0.0
  9
$PLINEWID
 40
0.0
  9
$SPLFRAME
 70
     0
  9
$SPLINETYPE
 70
     6
  9
$SPLINESEGS
 70
     8
  9
$HANDSEED
  5
168
  9
$SURFTAB1
 70
     6
  9
$SURFTAB2
 70
     6
  9
$SURFTYPE
 70
     6
  9
$SURFU
 70
     6
  9
$SURFV
 70
     6
  9
$UCSBASE
  2

  9
$UCSNAME
  2

  9
$UCSORG
 10
0.0
 20
0.0
 30
0.0
  9
$UCSXDIR
 10
1.0
 20
0.0
 30
0.0
  9
$UCSYDIR
 10
0.0
 20
1.0
 30
0.0
  9
$UCSORTHOREF
  2

  9
$UCSORTHOVIEW
 70
     0
  9
$UCSORGTOP
 10
0.0
 20
0.0
 30
0.0
  9
$UCSORGBOTTOM
 10
0.0
 20
0.0
 30
0.0
  9
$UCSORGLEFT
 10
0.0
 20
0.0
 30
0.0
  9
$UCSORGRIGHT
 10
0.0
 20
0.0
 30
0.0
  9
$UCSORGFRONT
 10
0.0
 20
0.0
 30
0.0
  9
$UCSORGBACK
 10
0.0
 20
0.0
 30
0.0
  9
$PUCSBASE
  2

  9
$PUCSNAME
  2

  9
$PUCSORG
 10
0.0
 20
0.0
 30
0.0
  9
$PUCSXDIR
 10
1.0
 20
0.0
 30
0.0
  9
$PUCSYDIR
 10
0.0
 20
1.0
 30
0.0
  9
$PUCSORTHOREF
  2

  9
$PUCSORTHOVIEW
 70
     0
  9
$PUCSORGTOP
 10
0.0
 20
0.0
 30
0.0
  9
$PUCSORGBOTTOM
 10
0.0
 20
0.0
 30
0.0
  9
$PUCSORGLEFT
 10
0.0
 20
0.0
 30
0.0
  9
$PUCSORGRIGHT
 10
0.0
 20
0.0
 30
0.0
  9
$PUCSORGFRONT
 10
0.0
 20
0.0
 30
0.0
  9
$PUCSORGBACK
 10
0.0
 20
0.0
 30
0.0
  9
$USERI1
 70
     0
  9
$USERI2
 70
     0
  9
$USERI3
 70
     0
  9
$USERI4
 70
     0
  9
$USERI5
 70
     0
  9
$USERR1
 40
0.0
  9
$USERR2
 40
0.0
  9
$USERR3
 40
0.0
  9
$USERR4
 40
0.0
  9
$USERR5
 40
0.0
  9
$WORLDVIEW
 70
     1
  9
$SHADEDGE
 70
     3
  9
$SHADEDIF
 70
    70
  9
$TILEMODE
 70
     1
  9
$MAXACTVP
 70
    64
  9
$PINSBASE
 10
0.0
 20
0.0
 30
0.0
  9
$PLIMCHECK
 70
     0
  9
$PEXTMIN
 10
1.000000000000000E+20
 20
1.000000000000000E+20
 30
1.000000000000000E+20
  9
$PEXTMAX
 10
-1.000000000000000E+20
 20
-1.000000000000000E+20
 30
-1.000000000000000E+20
  9
$PLIMMIN
 10
0.0
 20
0.0
  9
$PLIMMAX
 10
12.0
 20
9.0
  9
$UNITMODE
 70
     0
  9
$VISRETAIN
 70
     1
  9
$PLINEGEN
 70
     0
  9
$PSLTSCALE
 70
     1
  9
$TREEDEPTH
 70
  3020
  9
$CMLSTYLE
  2
Standard
  9
$CMLJUST
 70
     0
  9
$CMLSCALE
 40
1.0
  9
$PROXYGRAPHICS
 70
     1
  9
$MEASUREMENT
 70
     0
  9
$CELWEIGHT
370
    -1
  9
$ENDCAPS
280
     0
  9
$JOINSTYLE
280
     0
  9
$LWDISPLAY
290
     1
  9
$INSUNITS
 70
     4
  9
$HYPERLINKBASE
  1

  9
$STYLESHEET
  1

  9
$XEDIT
290
     1
  9
$CEPSNTYPE
380
     0
  9
$PSTYLEMODE
290
     1
  9
$FINGERPRINTGUID
  2
{018940CE-AFAF-4495-A12B-6E2141A76F25}
  9
$VERSIONGUID
  2
{FAEB1C32-E019-11D5-929B-00C0DF256EC4}
  9
$EXTNAMES
290
     1
  9
$PSVPSCALE
 40
0.0
  9
$OLESTARTUP
290
     0
  9
$SORTENTS
280
   127
  9
$INDEXCTL
280
     0
  9
$HIDETEXT
280
     1
  9
$XCLIPFRAME
280
     2
  9
$HALOGAP
280
     0
  9
$OBSCOLOR
 70
   257
  9
$OBSLTYPE
280
     0
  9
$INTERSECTIONDISPLAY
280
     0
  9
$INTERSECTIONCOLOR
 70
   257
  9
$DIMASSOC
280
     2
  9
$PROJECTNAME
  1

  9
$CAMERADISPLAY
290
     0
  9
$LENSLENGTH
 40
50.0
  9
$CAMERAHEIGHT
 40
0.0
  9
$STEPSPERSEC
 40
2.0
  9
$STEPSIZE
 40
6.0
  9
$3DDWFPREC
 40
2.0
  9
$PSOLWIDTH
 40
0.25
  9
$PSOLHEIGHT
 40
4.0
  9
$LOFTANG1
 40
1.570796326794897
  9
$LOFTANG2
 40
1.570796326794897
  9
$LOFTMAG1
 40
0.0
  9
$LOFTMAG2
 40
0.0
  9
$LOFTPARAM
 70
     7
  9
$LOFTNORMALS
280
     1
  9
$LATITUDE
 40
37.795
  9
$LONGITUDE
 40
-122.394
  9
$NORTHDIRECTION
 40
0.0
  9
$TIMEZONE
 70
 -8000
  9
$LIGHTGLYPHDISPLAY
280
     1
  9
$TILEMODELIGHTSYNCH
280
     1
  9
$CMATERIAL
347
3C
  9
$SOLIDHIST
280
     1
  9
$SHOWHIST
280
     1
  9
$DWFFRAME
280
     2
  9
$DGNFRAME
280
     2
  9
$REALWORLDSCALE
290
     1
  9
$INTERFERECOLOR
 62
   256
  9
$CSHADOW
280
     0
  9
$SHADOWPLANELOCATION
 40
0.0
  0
ENDSEC
  0
SECTION
  2
CLASSES
  0
CLASS
  1
ACDBDICTIONARYWDFLT
  2
AcDbDictionaryWithDefault
  3
ObjectDBX Classes
 90
        0
 91
        4
280
     0
281
     0
  0
CLASS
  1
VISUALSTYLE
  2
AcDbVisualStyle
  3
ObjectDBX Classes
 90
     4095
 91
        4
280
     0
281
     0
  0
CLASS
  1
MATERIAL
  2
AcDbMaterial
  3
ObjectDBX Classes
 90
     1153
 91
        4
280
     0
281
     0
  0
CLASS
  1
SUN
  2
AcDbSun
  3
SCENEOE
 90
     1024
 91
        4
280
     0
281
     0
  0
ENDSEC
  0
SECTION
  2
TABLES
  0
TABLE
  2
VPORT
  5
8
330
0
100
AcDbSymbolTable
 70
     1
  0
VPORT
  5
29
330
8
100
AcDbSymbolTableRecord
100
AcDbViewportTableRecord
  2
*Active
 70
     0
 10
0.0
 20
0.0
 11
1.0
 21
1.0
 12
0.0
 22
0.0
 13
0.0
 23
0.0
 14
0.5
 24
0.5
 15
0.5
 25
0.5
 16
0.0
 26
0.0
 36
1.0
 17
689.9999998274917
 27
439.9999998900039
 37
0.0
 40
879.9999997800079
 41
1.568181818181785
 42
50.0
 43
0.0
 44
0.0
 50
0.0
 51
0.0
 71
     0
 72
   100
 73
     1
 74
     3
 75
     0
 76
     0
 77
     0
 78
     0
281
     0
 65
     1
110
0.0
120
0.0
130
0.0
111
1.0
121
0.0
131
0.0
112
0.0
122
1.0
132
0.0
 79
     0
146
0.0
 60
     3
 61
     5
292
     1
282
     1
141
0.0
142
0.0
 63
   250
361
3F
  0
ENDTAB
  0
TABLE
  2
LTYPE
  5
5
330
0
100
AcDbSymbolTable
 70
     1
  0
LTYPE
  5
14
330
5
100
AcDbSymbolTableRecord
100
AcDbLinetypeTableRecord
  2
ByBlock
 70
     0
  3

 72
    65
 73
     0
 40
0.0
  0
LTYPE
  5
15
330
5
100
AcDbSymbolTableRecord
100
AcDbLinetypeTableRecord
  2
ByLayer
 70
     0
  3

 72
    65
 73
     0
 40
0.0
  0
LTYPE
  5
16
330
5
100
AcDbSymbolTableRecord
100
AcDbLinetypeTableRecord
  2
Continuous
 70
     0
  3
Solid line
 72
    65
 73
     0
 40
0.0
  0
ENDTAB
  0
TABLE
  2
LAYER
  5
2
330
0
100
AcDbSymbolTable
 70
     1
  0
LAYER
  5
10
330
2
100
AcDbSymbolTableRecord
100
AcDbLayerTableRecord
  2
0
 70
     0
 62
     7
  6
Continuous
370
    -3
390
F
347
3E
  0
ENDTAB
  0
TABLE
  2
STYLE
  5
3
330
0
100
AcDbSymbolTable
 70
     1
  0
STYLE
  5
11
330
3
100
AcDbSymbolTableRecord
100
AcDbTextStyleTableRecord
  2
Standard
 70
     0
 40
0.0
 41
1.0
 50
0.0
 71
     0
 42
0.2
  3
txt
  4

  0
ENDTAB
  0
TABLE
  2
VIEW
  5
6
330
0
100
AcDbSymbolTable
 70
     0
  0
ENDTAB
  0
TABLE
  2
UCS
  5
7
330
0
100
AcDbSymbolTable
 70
     0
  0
ENDTAB
  0
TABLE
  2
APPID
  5
9
330
0
100
AcDbSymbolTable
 70
     1
  0
APPID
  5
12
330
9
100
AcDbSymbolTableRecord
100
AcDbRegAppTableRecord
  2
ACAD
 70
     0
  0
ENDTAB
  0
TABLE
  2
DIMSTYLE
  5
A
330
0
100
AcDbSymbolTable
 70
     1
100
AcDbDimStyleTable
  0
DIMSTYLE
105
27
330
A
100
AcDbSymbolTableRecord
100
AcDbDimStyleTableRecord
  2
Standard
 70
     0
178
     0
340
11
  0
ENDTAB
  0
TABLE
  2
BLOCK_RECORD
  5
1
330
0
100
AcDbSymbolTable
 70
    24
  0
BLOCK_RECORD
  5
1F
330
1
100
AcDbSymbolTableRecord
100
AcDbBlockTableRecord
  2
*Model_Space
340
22
 70
     0
280
     1
281
     0
  0
BLOCK_RECORD
  5
1B
330
1
100
AcDbSymbolTableRecord
100
AcDbBlockTableRecord
  2
*Paper_Space
340
1E
 70
     0
280
     1
281
     0
  0
BLOCK_RECORD
  5
23
330
1
100
AcDbSymbolTableRecord
100
AcDbBlockTableRecord
  2
*Paper_Space0
340
26
 70
     0
280
     1
281
     0
  0
BLOCK_RECORD
  5
40
330
1
100
AcDbSymbolTableRecord
100
AcDbBlockTableRecord
  2
block 2
340
0
102
{BLKREFS
331
41
102
}
 70
     0
280
     1
281
     0
  0
BLOCK_RECORD
  5
45
330
1
100
AcDbSymbolTableRecord
100
AcDbBlockTableRecord
  2
block 3
340
0
102
{BLKREFS
331
46
102
}
 70
     0
280
     1
281
     0
  0
BLOCK_RECORD
  5
4A
330
1
100
AcDbSymbolTableRecord
100
AcDbBlockTableRecord
  2
block 4
340
0
102
{BLKREFS
331
4B
102
}
 70
     0
280
     1
281
     0
  0
BLOCK_RECORD
  5
4F
330
1
100
AcDbSymbolTableRecord
100
AcDbBlockTableRecord
  2
block 5
340
0
102
{BLKREFS
331
50
102
}
 70
     0
280
     1
281
     0
  0
BLOCK_RECORD
  5
54
330
1
100
AcDbSymbolTableRecord
100
AcDbBlockTableRecord
  2
block 6
340
0
102
{BLKREFS
331
55
102
}
 70
     0
280
     1
281
     0
  0
BLOCK_RECORD
  5
59
330
1
100
AcDbSymbolTableRecord
100
AcDbBlockTableRecord
  2
block 7
340
0
102
{BLKREFS
331
5A
102
}
 70
     0
280
     1
281
     0
  0
BLOCK_RECORD
  5
5E
330
1
100
AcDbSymbolTableRecord
100
AcDbBlockTableRecord
  2
block 8
340
0
102
{BLKREFS
331
5F
102
}
 70
     0
280
     1
281
     0
  0
BLOCK_RECORD
  5
63
330
1
100
AcDbSymbolTableRecord
100
AcDbBlockTableRecord
  2
block 9
340
0
102
{BLKREFS
331
64
102
}
 70
     0
280
     1
281
     0
  0
BLOCK_RECORD
  5
68
330
1
100
AcDbSymbolTableRecord
100
AcDbBlockTableRecord
  2
block 10
340
0
102
{BLKREFS
331
69
102
}
 70
     0
280
     1
281
     0
  0
BLOCK_RECORD
  5
6D
330
1
100
AcDbSymbolTableRecord
100
AcDbBlockTableRecord
  2
block 11
340
0
102
{BLKREFS
331
6E
102
}
 70
     0
280
     1
281
     0
  0
BLOCK_RECORD
  5
72
330
1
100
AcDbSymbolTableRecord
100
AcDbBlockTableRecord
  2
block 12
340
0
102
{BLKREFS
331
73
102
}
 70
     0
280
     1
281
     0
  0
BLOCK_RECORD
  5
77
330
1
100
AcDbSymbolTableRecord
100
AcDbBlockTableRecord
  2
block 13
340
0
102
{BLKREFS
331
78
102
}
 70
     0
280
     1
281
     0
  0
BLOCK_RECORD
  5
7C
330
1
100
AcDbSymbolTableRecord
100
AcDbBlockTableRecord
  2
block 14
340
0
102
{BLKREFS
331
7D
102
}
 70
     0
280
     1
281
     0
  0
BLOCK_RECORD
  5
81
330
1
100
AcDbSymbolTableRecord
100
AcDbBlockTableRecord
  2
block 15
340
0
102
{BLKREFS
331
82
102
}
 70
     0
280
     1
281
     0
  0
BLOCK_RECORD
  5
86
330
1
100
AcDbSymbolTableRecord
100
AcDbBlockTableRecord
  2
block 16
340
0
102
{BLKREFS
331
87
102
}
 70
     0
280
     1
281
     0
  0
BLOCK_RECORD
  5
8B
330
1
100
AcDbSymbolTableRecord
100
AcDbBlockTableRecord
  2
block 17
340
0
102
{BLKREFS
331
8C
102
}
 70
     0
280
     1
281
     0
  0
BLOCK_RECORD
  5
90
330
1
100
AcDbSymbolTableRecord
100
AcDbBlockTableRecord
  2
block 18
340
0
102
{BLKREFS
331
91
102
}
 70
     0
280
     1
281
     0
  0
BLOCK_RECORD
  5
95
330
1
100
AcDbSymbolTableRecord
100
AcDbBlockTableRecord
  2
block 19
340
0
102
{BLKREFS
331
96
102
}
 70
     0
280
     1
281
     0
  0
BLOCK_RECORD
  5
9A
330
1
100
AcDbSymbolTableRecord
100
AcDbBlockTableRecord
  2
block 20
340
0
102
{BLKREFS
331
9B
102
}
 70
     0
280
     1
281
     0
  0
BLOCK_RECORD
  5
152
330
1
100
AcDbSymbolTableRecord
100
AcDbBlockTableRecord
  2
block 21
340
0
102
{BLKREFS
331
153
102
}
 70
     0
280
     1
281
     0
  0
BLOCK_RECORD
  5
157
330
1
100
AcDbSymbolTableRecord
100
AcDbBlockTableRecord
  2
block 22
340
0
102
{BLKREFS
331
158
102
}
 70
     0
280
     1
281
     0
  0
BLOCK_RECORD
  5
15C
330
1
100
AcDbSymbolTableRecord
100
AcDbBlockTableRecord
  2
block 23
340
0
102
{BLKREFS
331
15D
102
}
 70
     0
280
     1
281
     0
  0
BLOCK_RECORD
  5
161
330
1
100
AcDbSymbolTableRecord
100
AcDbBlockTableRecord
  2
block 24
340
0
102
{BLKREFS
331
162
102
}
 70
     0
280
     1
281
     0
  0
ENDTAB
  0
ENDSEC
  0
SECTION
  2
BLOCKS
  0
BLOCK
  5
20
330
1F
100
AcDbEntity
  8
0
100
AcDbBlockBegin
  2
*Model_Space
 70
     0
 10
0.0
 20
0.0
 30
0.0
  3
*Model_Space
  1

  0
ENDBLK
  5
21
330
1F
100
AcDbEntity
  8
0
100
AcDbBlockEnd
  0
BLOCK
  5
1C
330
1B
100
AcDbEntity
 67
     1
  8
0
100
AcDbBlockBegin
  2
*Paper_Space
 70
     0
 10
0.0
 20
0.0
 30
0.0
  3
*Paper_Space
  1

  0
ENDBLK
  5
1D
330
1B
100
AcDbEntity
 67
     1
  8
0
100
AcDbBlockEnd
  0
BLOCK
  5
24
330
23
100
AcDbEntity
  8
0
100
AcDbBlockBegin
  2
*Paper_Space0
 70
     0
 10
0.0
 20
0.0
 30
0.0
  3
*Paper_Space0
  1

  0
ENDBLK
  5
25
330
23
100
AcDbEntity
  8
0
100
AcDbBlockEnd
  0
BLOCK
  5
42
330
40
100
AcDbEntity
  8
0
100
AcDbBlockBegin
  2
block 2
 70
     0
 10
0.0
 20
0.0
 30
0.0
  3
block 2
  1

  0
SPLINE
  5
44
330
40
100
AcDbEntity
  8
0
 62
     7
370
    25
100
AcDbSpline
210
0.0
220
0.0
230
1.0
 70
    11
 71
     3
 72
    29
 73
    25
 74
     0
 42
0.0000000001
 43
0.0000000001
 12
1.0
 22
0.0
 32
0.0
 13
1.0
 23
0.0
 33
0.0
 40
0.0
 40
0.0
 40
0.0
 40
0.0
 40
1.0
 40
1.0
 40
1.0
 40
2.0
 40
2.0
 40
2.0
 40
3.0
 40
3.0
 40
3.0
 40
4.0
 40
4.0
 40
4.0
 40
5.0
 40
5.0
 40
5.0
 40
6.0
 40
6.0
 40
6.0
 40
7.0
 40
7.0
 40
7.0
 40
8.0
 40
8.0
 40
8.0
 40
8.0
 10
660.1248228330157
 20
450.5219406697046
 30
0.0
 10
660.1248228330157
 20
450.5219406697046
 30
0.0
 10
660.1248228330157
 20
432.7701387806964
 30
0.0
 10
660.1248228330157
 20
432.7701387806964
 30
0.0
 10
660.1248228330157
 20
432.2197847769277
 30
0.0
 10
659.676788165159
 20
431.771750109071
 30
0.0
 10
659.1229460022115
 20
431.771750109071
 30
0.0
 10
659.1229460022115
 20
431.771750109071
 30
0.0
 10
640.0023646132199
 20
431.771750109071
 30
0.0
 10
640.0023646132199
 20
431.771750109071
 30
0.0
 10
639.4520536731449
 20
431.771750109071
 30
0.0
 10
639.0040190052881
 20
432.2197847769277
 30
0.0
 10
639.0040190052881
 20
432.7701387806964
 30
0.0
 10
639.0040190052881
 20
432.7701387806964
 30
0.0
 10
639.0040190052881
 20
450.5219406697046
 30
0.0
 10
639.0040190052881
 20
450.5219406697046
 30
0.0
 10
639.0040190052881
 20
451.0722516097797
 30
0.0
 10
639.4520536731449
 20
451.5202862776364
 30
0.0
 10
640.0023646132199
 20
451.5202862776364
 30
0.0
 10
640.0023646132199
 20
451.5202862776364
 30
0.0
 10
659.1229460022115
 20
451.5202862776364
 30
0.0
 10
659.1229460022115
 20
451.5202862776364
 30
0.0
 10
659.676788165159
 20
451.5202862776364
 30
0.0
 10
660.1248228330157
 20
451.0722516097797
 30
0.0
 10
660.1248228330157
 20
450.5219406697046
 30
0.0
  0
ENDBLK
  5
43
330
40
100
AcDbEntity
  8
0
100
AcDbBlockEnd
  0
BLOCK
  5
47
330
45
100
AcDbEntity
  8
0
100
AcDbBlockBegin
  2
block 3
 70
     0
 10
0.0
 20
0.0
 30
0.0
  3
block 3
  1

  0
SPLINE
  5
49
330
45
100
AcDbEntity
  8
0
 62
     7
370
    25
100
AcDbSpline
210
0.0
220
0.0
230
1.0
 70
    11
 71
     3
 72
    29
 73
    25
 74
     0
 42
0.0000000001
 43
0.0000000001
 12
1.0
 22
0.0
 32
0.0
 13
1.0
 23
0.0
 33
0.0
 40
0.0
 40
0.0
 40
0.0
 40
0.0
 40
1.0
 40
1.0
 40
1.0
 40
2.0
 40
2.0
 40
2.0
 40
3.0
 40
3.0
 40
3.0
 40
4.0
 40
4.0
 40
4.0
 40
5.0
 40
5.0
 40
5.0
 40
6.0
 40
6.0
 40
6.0
 40
7.0
 40
7.0
 40
7.0
 40
8.0
 40
8.0
 40
8.0
 40
8.0
 10
689.4089096041236
 20
446.4296839975506
 30
0.0
 10
689.4089096041236
 20
446.4296839975506
 30
0.0
 10
689.4089096041236
 20
431.9305259472474
 30
0.0
 10
689.4089096041236
 20
431.9305259472474
 30
0.0
 10
689.4089096041236
 20
431.3802150071724
 30
0.0
 10
688.9608749362668
 20
430.9321803393156
 30
0.0
 10
688.4070327733193
 20
430.9321803393156
 30
0.0
 10
688.4070327733193
 20
430.9321803393156
 30
0.0
 10
671.4101804962099
 20
430.9321803393156
 30
0.0
 10
671.4101804962099
 20
430.9321803393156
 30
0.0
 10
670.8563383332626
 20
430.9321803393156
 30
0.0
 10
670.4083036654058
 20
431.3802150071724
 30
0.0
 10
670.4083036654058
 20
431.9305259472474
 30
0.0
 10
670.4083036654058
 20
431.9305259472474
 30
0.0
 10
670.4083036654058
 20
446.4296839975506
 30
0.0
 10
670.4083036654058
 20
446.4296839975506
 30
0.0
 10
670.4083036654058
 20
449.4671385595082
 30
0.0
 10
672.8706856634881
 20
451.9295205575905
 30
0.0
 10
675.9080971617522
 20
451.9295205575905
 30
0.0
 10
675.9080971617522
 20
451.9295205575905
 30
0.0
 10
683.9091161077771
 20
451.9295205575905
 30
0.0
 10
683.9091161077771
 20
451.9295205575905
 30
0.0
 10
686.9465276060412
 20
451.9295205575905
 30
0.0
 10
689.4089096041236
 20
449.4671385595082
 30
0.0
 10
689.4089096041236
 20
446.4296839975506
 30
0.0
  0
ENDBLK
  5
48
330
45
100
AcDbEntity
  8
0
100
AcDbBlockEnd
  0
BLOCK
  5
4C
330
4A
100
AcDbEntity
  8
0
100
AcDbBlockBegin
  2
block 4
 70
     0
 10
0.0
 20
0.0
 30
0.0
  3
block 4
  1

  0
SPLINE
  5
4E
330
4A
100
AcDbEntity
  8
0
 62
     7
370
    25
100
AcDbSpline
210
0.0
220
0.0
230
1.0
 70
     8
 71
     3
 72
     8
 73
     4
 74
     0
 42
0.0000000001
 43
0.0000000001
 12
1.0
 22
0.0
 32
0.0
 13
1.0
 23
0.0
 33
0.0
 40
0.0
 40
0.0
 40
0.0
 40
0.0
 40
1.0
 40
1.0
 40
1.0
 40
1.0
 10
704.7371109349269
 20
433.4333610027525
 30
0.0
 10
704.5113331572059
 20
433.602694336044
 30
0.0
 10
704.292610935038
 20
433.7826110026651
 30
0.0
 10
704.0844720462011
 20
433.9695832248408
 30
0.0
  0
ENDBLK
  5
4D
330
4A
100
AcDbEntity
  8
0
100
AcDbBlockEnd
  0
BLOCK
  5
51
330
4F
100
AcDbEntity
  8
0
100
AcDbBlockBegin
  2
block 5
 70
     0
 10
0.0
 20
0.0
 30
0.0
  3
block 5
  1

  0
SPLINE
  5
53
330
4F
100
AcDbEntity
  8
0
 62
     7
370
    25
100
AcDbSpline
210
0.0
220
0.0
230
1.0
 70
     8
 71
     3
 72
     8
 73
     4
 74
     0
 42
0.0000000001
 43
0.0000000001
 12
1.0
 22
0.0
 32
0.0
 13
1.0
 23
0.0
 33
0.0
 40
0.0
 40
0.0
 40
0.0
 40
0.0
 40
1.0
 40
1.0
 40
1.0
 40
1.0
 10
703.65408315742
 20
434.3752776691837
 30
0.0
 10
703.5623609352207
 20
434.4669998913831
 30
0.0
 10
703.4706387130213
 20
434.5622498913594
 30
0.0
 10
703.3824442685989
 20
434.6574998913358
 30
0.0
  0
ENDBLK
  5
52
330
4F
100
AcDbEntity
  8
0
100
AcDbBlockEnd
  0
BLOCK
  5
56
330
54
100
AcDbEntity
  8
0
100
AcDbBlockBegin
  2
block 6
 70
     0
 10
0.0
 20
0.0
 30
0.0
  3
block 6
  1

  0
SPLINE
  5
58
330
54
100
AcDbEntity
  8
0
 62
     7
370
    25
100
AcDbSpline
210
0.0
220
0.0
230
1.0
 70
     8
 71
     3
 72
    11
 73
     7
 74
     0
 42
0.0000000001
 43
0.0000000001
 12
1.0
 22
0.0
 32
0.0
 13
1.0
 23
0.0
 33
0.0
 40
0.0
 40
0.0
 40
0.0
 40
0.0
 40
1.0
 40
1.0
 40
1.0
 40
2.0
 40
2.0
 40
2.0
 40
2.0
 10
703.2836664908456
 20
434.7633332246424
 30
0.0
 10
703.184888713093
 20
434.8762221135029
 30
0.0
 10
703.0861109353397
 20
434.9891110023635
 30
0.0
 10
702.9908609353632
 20
435.105527669001
 30
0.0
 10
702.9026664909409
 20
435.2113610023083
 30
0.0
 10
702.8144720465185
 20
435.3207221133919
 30
0.0
 10
702.729805379873
 20
435.4336110022525
 30
0.0
  0
ENDBLK
  5
57
330
54
100
AcDbEntity
  8
0
100
AcDbBlockEnd
  0
BLOCK
  5
5B
330
59
100
AcDbEntity
  8
0
100
AcDbBlockBegin
  2
block 7
 70
     0
 10
0.0
 20
0.0
 30
0.0
  3
block 7
  1

  0
SPLINE
  5
5D
330
59
100
AcDbEntity
  8
0
 62
     7
370
    25
100
AcDbSpline
210
0.0
220
0.0
230
1.0
 70
     8
 71
     3
 72
     8
 73
     4
 74
     0
 42
0.0000000001
 43
0.0000000001
 12
1.0
 22
0.0
 32
0.0
 13
1.0
 23
0.0
 33
0.0
 40
0.0
 40
0.0
 40
0.0
 40
0.0
 40
1.0
 40
1.0
 40
1.0
 40
1.0
 10
702.6557220465586
 20
435.5323887800058
 30
0.0
 10
702.5675276021361
 20
435.6523332244203
 30
0.0
 10
702.4793331577138
 20
435.7722776688348
 30
0.0
 10
702.3981942688447
 20
435.8957498910263
 30
0.0
  0
ENDBLK
  5
5C
330
59
100
AcDbEntity
  8
0
100
AcDbBlockEnd
  0
BLOCK
  5
60
330
5E
100
AcDbEntity
  8
0
100
AcDbBlockBegin
  2
block 8
 70
     0
 10
0.0
 20
0.0
 30
0.0
  3
block 8
  1

  0
SPLINE
  5
62
330
5E
100
AcDbEntity
  8
0
 62
     7
370
    25
100
AcDbSpline
210
0.0
220
0.0
230
1.0
 70
     8
 71
     3
 72
     8
 73
     4
 74
     0
 42
0.0000000001
 43
0.0000000001
 12
1.0
 22
0.0
 32
0.0
 13
1.0
 23
0.0
 33
0.0
 40
0.0
 40
0.0
 40
0.0
 40
0.0
 40
1.0
 40
1.0
 40
1.0
 40
1.0
 10
702.6557220465586
 20
447.7596665547267
 30
0.0
 10
702.5675276021361
 20
447.6397221103122
 30
0.0
 10
702.4793331577138
 20
447.5197776658977
 30
0.0
 10
702.3981942688447
 20
447.3963054437065
 30
0.0
  0
ENDBLK
  5
61
330
5E
100
AcDbEntity
  8
0
100
AcDbBlockEnd
  0
BLOCK
  5
65
330
63
100
AcDbEntity
  8
0
100
AcDbBlockBegin
  2
block 9
 70
     0
 10
0.0
 20
0.0
 30
0.0
  3
block 9
  1

  0
SPLINE
  5
67
330
63
100
AcDbEntity
  8
0
 62
     7
370
    25
100
AcDbSpline
210
0.0
220
0.0
230
1.0
 70
     8
 71
     3
 72
    11
 73
     7
 74
     0
 42
0.0000000001
 43
0.0000000001
 12
1.0
 22
0.0
 32
0.0
 13
1.0
 23
0.0
 33
0.0
 40
0.0
 40
0.0
 40
0.0
 40
0.0
 40
1.0
 40
1.0
 40
1.0
 40
2.0
 40
2.0
 40
2.0
 40
2.0
 10
702.729805379873
 20
447.8584443324797
 30
0.0
 10
702.8144720465185
 20
447.9713332213406
 30
0.0
 10
702.9026664909409
 20
448.0806943324242
 30
0.0
 10
702.9908609353632
 20
448.1865276657311
 30
0.0
 10
703.0861109353397
 20
448.3029443323686
 30
0.0
 10
703.184888713093
 20
448.4158332212292
 30
0.0
 10
703.2836664908456
 20
448.5287221100901
 30
0.0
  0
ENDBLK
  5
66
330
63
100
AcDbEntity
  8
0
100
AcDbBlockEnd
  0
BLOCK
  5
6A
330
68
100
AcDbEntity
  8
0
100
AcDbBlockBegin
  2
block 10
 70
     0
 10
0.0
 20
0.0
 30
0.0
  3
block 10
  1

  0
SPLINE
  5
6C
330
68
100
AcDbEntity
  8
0
 62
     7
370
    25
100
AcDbSpline
210
0.0
220
0.0
230
1.0
 70
     8
 71
     3
 72
     8
 73
     4
 74
     0
 42
0.0000000001
 43
0.0000000001
 12
1.0
 22
0.0
 32
0.0
 13
1.0
 23
0.0
 33
0.0
 40
0.0
 40
0.0
 40
0.0
 40
0.0
 40
1.0
 40
1.0
 40
1.0
 40
1.0
 10
703.65408315742
 20
448.9167776655484
 30
0.0
 10
703.5623609352207
 20
448.8250554433494
 30
0.0
 10
703.4706387130213
 20
448.729805443373
 30
0.0
 10
703.3824442685989
 20
448.634555443397
 30
0.0
  0
ENDBLK
  5
6B
330
68
100
AcDbEntity
  8
0
100
AcDbBlockEnd
  0
BLOCK
  5
6F
330
6D
100
AcDbEntity
  8
0
100
AcDbBlockBegin
  2
block 11
 70
     0
 10
0.0
 20
0.0
 30
0.0
  3
block 11
  1

  0
SPLINE
  5
71
330
6D
100
AcDbEntity
  8
0
 62
     7
370
    25
100
AcDbSpline
210
0.0
220
0.0
230
1.0
 70
     8
 71
     3
 72
     8
 73
     4
 74
     0
 42
0.0000000001
 43
0.0000000001
 12
1.0
 22
0.0
 32
0.0
 13
1.0
 23
0.0
 33
0.0
 40
0.0
 40
0.0
 40
0.0
 40
0.0
 40
1.0
 40
1.0
 40
1.0
 40
1.0
 10
704.7371109349269
 20
449.8586943319797
 30
0.0
 10
704.5113331572059
 20
449.6893609986888
 30
0.0
 10
704.292610935038
 20
449.5094443320671
 30
0.0
 10
704.0844720462011
 20
449.3224721098916
 30
0.0
  0
ENDBLK
  5
70
330
6D
100
AcDbEntity
  8
0
100
AcDbBlockEnd
  0
BLOCK
  5
74
330
72
100
AcDbEntity
  8
0
100
AcDbBlockBegin
  2
block 12
 70
     0
 10
0.0
 20
0.0
 30
0.0
  3
block 12
  1

  0
SPLINE
  5
76
330
72
100
AcDbEntity
  8
0
 62
     7
370
    25
100
AcDbSpline
210
0.0
220
0.0
230
1.0
 70
    11
 71
     3
 72
    23
 73
    19
 74
     0
 42
0.0000000001
 43
0.0000000001
 12
1.0
 22
0.0
 32
0.0
 13
1.0
 23
0.0
 33
0.0
 40
0.0
 40
0.0
 40
0.0
 40
0.0
 40
1.0
 40
1.0
 40
1.0
 40
2.0
 40
2.0
 40
2.0
 40
3.0
 40
3.0
 40
3.0
 40
4.0
 40
4.0
 40
4.0
 40
5.0
 40
5.0
 40
5.0
 40
6.0
 40
6.0
 40
6.0
 40
6.0
 10
578.8448573042906
 20
441.6459966615069
 30
0.0
 10
578.8448573042906
 20
435.9663261171369
 30
0.0
 10
574.241090079964
 20
431.3625588928104
 30
0.0
 10
568.5613334082069
 20
431.3625588928104
 30
0.0
 10
568.5613334082069
 20
431.3625588928104
 30
0.0
 10
477.6752358831854
 20
431.3625588928104
 30
0.0
 10
477.6752358831854
 20
431.3625588928104
 30
0.0
 10
471.9954792114282
 20
431.3625588928104
 30
0.0
 10
467.388223827923
 20
435.9663261171369
 30
0.0
 10
467.388223827923
 20
441.6459966615069
 30
0.0
 10
467.388223827923
 20
447.3257533332641
 30
0.0
 10
471.9954792114282
 20
451.9295205575905
 30
0.0
 10
477.6752358831854
 20
451.9295205575905
 30
0.0
 10
477.6752358831854
 20
451.9295205575905
 30
0.0
 10
568.5613334082069
 20
451.9295205575905
 30
0.0
 10
568.5613334082069
 20
451.9295205575905
 30
0.0
 10
574.241090079964
 20
451.9295205575905
 30
0.0
 10
578.8448573042906
 20
447.3257533332641
 30
0.0
 10
578.8448573042906
 20
441.6459966615069
 30
0.0
  0
ENDBLK
  5
75
330
72
100
AcDbEntity
  8
0
100
AcDbBlockEnd
  0
BLOCK
  5
79
330
77
100
AcDbEntity
  8
0
100
AcDbBlockBegin
  2
block 13
 70
     0
 10
0.0
 20
0.0
 30
0.0
  3
block 13
  1

  0
SPLINE
  5
7B
330
77
100
AcDbEntity
  8
0
 62
     7
370
    25
100
AcDbSpline
210
0.0
220
0.0
230
1.0
 70
    11
 71
     3
 72
    29
 73
    25
 74
     0
 42
0.0000000001
 43
0.0000000001
 12
1.0
 22
0.0
 32
0.0
 13
1.0
 23
0.0
 33
0.0
 40
0.0
 40
0.0
 40
0.0
 40
0.0
 40
1.0
 40
1.0
 40
1.0
 40
2.0
 40
2.0
 40
2.0
 40
3.0
 40
3.0
 40
3.0
 40
4.0
 40
4.0
 40
4.0
 40
5.0
 40
5.0
 40
5.0
 40
6.0
 40
6.0
 40
6.0
 40
7.0
 40
7.0
 40
7.0
 40
8.0
 40
8.0
 40
8.0
 40
8.0
 10
660.1248228330157
 20
450.5219406697046
 30
0.0
 10
660.1248228330157
 20
450.5219406697046
 30
0.0
 10
660.1248228330157
 20
432.7701387806964
 30
0.0
 10
660.1248228330157
 20
432.7701387806964
 30
0.0
 10
660.1248228330157
 20
432.2197847769277
 30
0.0
 10
659.676788165159
 20
431.771750109071
 30
0.0
 10
659.1229460022115
 20
431.771750109071
 30
0.0
 10
659.1229460022115
 20
431.771750109071
 30
0.0
 10
640.0023646132199
 20
431.771750109071
 30
0.0
 10
640.0023646132199
 20
431.771750109071
 30
0.0
 10
639.4520536731449
 20
431.771750109071
 30
0.0
 10
639.0040190052881
 20
432.2197847769277
 30
0.0
 10
639.0040190052881
 20
432.7701387806964
 30
0.0
 10
639.0040190052881
 20
432.7701387806964
 30
0.0
 10
639.0040190052881
 20
450.5219406697046
 30
0.0
 10
639.0040190052881
 20
450.5219406697046
 30
0.0
 10
639.0040190052881
 20
451.0722516097797
 30
0.0
 10
639.4520536731449
 20
451.5202862776364
 30
0.0
 10
640.0023646132199
 20
451.5202862776364
 30
0.0
 10
640.0023646132199
 20
451.5202862776364
 30
0.0
 10
659.1229460022115
 20
451.5202862776364
 30
0.0
 10
659.1229460022115
 20
451.5202862776364
 30
0.0
 10
659.676788165159
 20
451.5202862776364
 30
0.0
 10
660.1248228330157
 20
451.0722516097797
 30
0.0
 10
660.1248228330157
 20
450.5219406697046
 30
0.0
  0
ENDBLK
  5
7A
330
77
100
AcDbEntity
  8
0
100
AcDbBlockEnd
  0
BLOCK
  5
7E
330
7C
100
AcDbEntity
  8
0
100
AcDbBlockBegin
  2
block 14
 70
     0
 10
0.0
 20
0.0
 30
0.0
  3
block 14
  1

  0
SPLINE
  5
80
330
7C
100
AcDbEntity
  8
0
 62
     7
370
    25
100
AcDbSpline
210
0.0
220
0.0
230
1.0
 70
    11
 71
     3
 72
    29
 73
    25
 74
     0
 42
0.0000000001
 43
0.0000000001
 12
1.0
 22
0.0
 32
0.0
 13
1.0
 23
0.0
 33
0.0
 40
0.0
 40
0.0
 40
0.0
 40
0.0
 40
1.0
 40
1.0
 40
1.0
 40
2.0
 40
2.0
 40
2.0
 40
3.0
 40
3.0
 40
3.0
 40
4.0
 40
4.0
 40
4.0
 40
5.0
 40
5.0
 40
5.0
 40
6.0
 40
6.0
 40
6.0
 40
7.0
 40
7.0
 40
7.0
 40
8.0
 40
8.0
 40
8.0
 40
8.0
 10
689.4089096041236
 20
446.4296839975506
 30
0.0
 10
689.4089096041236
 20
446.4296839975506
 30
0.0
 10
689.4089096041236
 20
431.9305259472474
 30
0.0
 10
689.4089096041236
 20
431.9305259472474
 30
0.0
 10
689.4089096041236
 20
431.3802150071724
 30
0.0
 10
688.9608749362668
 20
430.9321803393156
 30
0.0
 10
688.4070327733193
 20
430.9321803393156
 30
0.0
 10
688.4070327733193
 20
430.9321803393156
 30
0.0
 10
671.4101804962099
 20
430.9321803393156
 30
0.0
 10
671.4101804962099
 20
430.9321803393156
 30
0.0
 10
670.8563383332626
 20
430.9321803393156
 30
0.0
 10
670.4083036654058
 20
431.3802150071724
 30
0.0
 10
670.4083036654058
 20
431.9305259472474
 30
0.0
 10
670.4083036654058
 20
431.9305259472474
 30
0.0
 10
670.4083036654058
 20
446.4296839975506
 30
0.0
 10
670.4083036654058
 20
446.4296839975506
 30
0.0
 10
670.4083036654058
 20
449.4671385595082
 30
0.0
 10
672.8706856634881
 20
451.9295205575905
 30
0.0
 10
675.9080971617522
 20
451.9295205575905
 30
0.0
 10
675.9080971617522
 20
451.9295205575905
 30
0.0
 10
683.9091161077771
 20
451.9295205575905
 30
0.0
 10
683.9091161077771
 20
451.9295205575905
 30
0.0
 10
686.9465276060412
 20
451.9295205575905
 30
0.0
 10
689.4089096041236
 20
449.4671385595082
 30
0.0
 10
689.4089096041236
 20
446.4296839975506
 30
0.0
  0
ENDBLK
  5
7F
330
7C
100
AcDbEntity
  8
0
100
AcDbBlockEnd
  0
BLOCK
  5
83
330
81
100
AcDbEntity
  8
0
100
AcDbBlockBegin
  2
block 15
 70
     0
 10
0.0
 20
0.0
 30
0.0
  3
block 15
  1

  0
SPLINE
  5
85
330
81
100
AcDbEntity
  8
0
 62
     7
370
    25
100
AcDbSpline
210
0.0
220
0.0
230
1.0
 70
    11
 71
     3
 72
   290
 73
   286
 74
     0
 42
0.0000000001
 43
0.0000000001
 12
1.0
 22
0.0
 32
0.0
 13
1.0
 23
0.0
 33
0.0
 40
0.0
 40
0.0
 40
0.0
 40
0.0
 40
1.0
 40
1.0
 40
1.0
 40
2.0
 40
2.0
 40
2.0
 40
3.0
 40
3.0
 40
3.0
 40
4.0
 40
4.0
 40
4.0
 40
5.0
 40
5.0
 40
5.0
 40
6.0
 40
6.0
 40
6.0
 40
7.0
 40
7.0
 40
7.0
 40
8.0
 40
8.0
 40
8.0
 40
9.0
 40
9.0
 40
9.0
 40
10.0
 40
10.0
 40
10.0
 40
11.0
 40
11.0
 40
11.0
 40
12.0
 40
12.0
 40
12.0
 40
13.0
 40
13.0
 40
13.0
 40
14.0
 40
14.0
 40
14.0
 40
15.0
 40
15.0
 40
15.0
 40
16.0
 40
16.0
 40
16.0
 40
17.0
 40
17.0
 40
17.0
 40
18.0
 40
18.0
 40
18.0
 40
19.0
 40
19.0
 40
19.0
 40
20.0
 40
20.0
 40
20.0
 40
21.0
 40
21.0
 40
21.0
 40
22.0
 40
22.0
 40
22.0
 40
23.0
 40
23.0
 40
23.0
 40
24.0
 40
24.0
 40
24.0
 40
25.0
 40
25.0
 40
25.0
 40
26.0
 40
26.0
 40
26.0
 40
27.0
 40
27.0
 40
27.0
 40
28.0
 40
28.0
 40
28.0
 40
29.0
 40
29.0
 40
29.0
 40
30.0
 40
30.0
 40
30.0
 40
31.0
 40
31.0
 40
31.0
 40
32.0
 40
32.0
 40
32.0
 40
33.0
 40
33.0
 40
33.0
 40
34.0
 40
34.0
 40
34.0
 40
35.0
 40
35.0
 40
35.0
 40
36.0
 40
36.0
 40
36.0
 40
37.0
 40
37.0
 40
37.0
 40
38.0
 40
38.0
 40
38.0
 40
39.0
 40
39.0
 40
39.0
 40
40.0
 40
40.0
 40
40.0
 40
41.0
 40
41.0
 40
41.0
 40
42.0
 40
42.0
 40
42.0
 40
43.0
 40
43.0
 40
43.0
 40
44.0
 40
44.0
 40
44.0
 40
45.0
 40
45.0
 40
45.0
 40
46.0
 40
46.0
 40
46.0
 40
47.0
 40
47.0
 40
47.0
 40
48.0
 40
48.0
 40
48.0
 40
49.0
 40
49.0
 40
49.0
 40
50.0
 40
50.0
 40
50.0
 40
51.0
 40
51.0
 40
51.0
 40
52.0
 40
52.0
 40
52.0
 40
53.0
 40
53.0
 40
53.0
 40
54.0
 40
54.0
 40
54.0
 40
55.0
 40
55.0
 40
55.0
 40
56.0
 40
56.0
 40
56.0
 40
57.0
 40
57.0
 40
57.0
 40
58.0
 40
58.0
 40
58.0
 40
59.0
 40
59.0
 40
59.0
 40
60.0
 40
60.0
 40
60.0
 40
61.0
 40
61.0
 40
61.0
 40
62.0
 40
62.0
 40
62.0
 40
63.0
 40
63.0
 40
63.0
 40
64.0
 40
64.0
 40
64.0
 40
65.0
 40
65.0
 40
65.0
 40
66.0
 40
66.0
 40
66.0
 40
67.0
 40
67.0
 40
67.0
 40
68.0
 40
68.0
 40
68.0
 40
69.0
 40
69.0
 40
69.0
 40
70.0
 40
70.0
 40
70.0
 40
71.0
 40
71.0
 40
71.0
 40
72.0
 40
72.0
 40
72.0
 40
73.0
 40
73.0
 40
73.0
 40
74.0
 40
74.0
 40
74.0
 40
75.0
 40
75.0
 40
75.0
 40
76.0
 40
76.0
 40
76.0
 40
77.0
 40
77.0
 40
77.0
 40
78.0
 40
78.0
 40
78.0
 40
79.0
 40
79.0
 40
79.0
 40
80.0
 40
80.0
 40
80.0
 40
81.0
 40
81.0
 40
81.0
 40
82.0
 40
82.0
 40
82.0
 40
83.0
 40
83.0
 40
83.0
 40
84.0
 40
84.0
 40
84.0
 40
85.0
 40
85.0
 40
85.0
 40
86.0
 40
86.0
 40
86.0
 40
87.0
 40
87.0
 40
87.0
 40
88.0
 40
88.0
 40
88.0
 40
89.0
 40
89.0
 40
89.0
 40
90.0
 40
90.0
 40
90.0
 40
91.0
 40
91.0
 40
91.0
 40
92.0
 40
92.0
 40
92.0
 40
93.0
 40
93.0
 40
93.0
 40
94.0
 40
94.0
 40
94.0
 40
95.0
 40
95.0
 40
95.0
 40
95.0
 10
913.7368188904894
 20
441.6459966615069
 30
0.0
 10
913.7368188904894
 20
435.9663261171369
 30
0.0
 10
909.1295204432906
 20
431.3625588928104
 30
0.0
 10
903.4497637715334
 20
431.3625588928104
 30
0.0
 10
903.4497637715334
 20
431.3625588928104
 30
0.0
 10
710.9248228203157
 20
431.3625588928104
 30
0.0
 10
710.9248228203157
 20
431.3625588928104
 30
0.0
 10
710.7484339314709
 20
431.3625588928104
 30
0.0
 10
710.5720450426261
 20
431.3660901156828
 30
0.0
 10
710.3956561537814
 20
431.3766837842999
 30
0.0
 10
710.3956561537814
 20
431.3766837842999
 30
0.0
 10
710.3709806573682
 20
431.3766837842999
 30
0.0
 10
710.3709806573682
 20
431.3766837842999
 30
0.0
 10
710.2263297106813
 20
431.3837462300447
 30
0.0
 10
710.0852530505604
 20
431.3942968349683
 30
0.0
 10
709.9440902630522
 20
431.4119529493302
 30
0.0
 10
709.9053329388431
 20
431.4119529493302
 30
0.0
 10
709.8629582643746
 20
431.415441108509
 30
0.0
 10
709.824157876472
 20
431.4225035542538
 30
0.0
 10
709.810076048676
 20
431.4225035542538
 30
0.0
 10
709.7924199343141
 20
431.4260347771262
 30
0.0
 10
709.7782950428245
 20
431.4295659999985
 30
0.0
 10
709.6372183827036
 20
431.4436908914881
 30
0.0
 10
709.4995868180679
 20
431.46134700585
 30
0.0
 10
709.3585101579469
 20
431.4824912793907
 30
0.0
 10
709.2420659305454
 20
431.5001473937526
 30
0.0
 10
709.12919598971
 20
431.5177604444209
 30
0.0
 10
709.012794826002
 20
431.5424790045276
 30
0.0
 10
709.012794826002
 20
431.5424790045276
 30
0.0
 10
709.0092636031296
 20
431.5424790045276
 30
0.0
 10
709.0092636031296
 20
431.5424790045276
 30
0.0
 10
708.9210691587073
 20
431.5601351188895
 30
0.0
 10
708.8364059371572
 20
431.5777481695578
 30
0.0
 10
708.7482114927349
 20
431.5953612202262
 30
0.0
 10
708.4836281594677
 20
431.6518607861843
 30
0.0
 10
708.2190448262005
 20
431.7223991162448
 30
0.0
 10
707.9544614929333
 20
431.79999989205
 30
0.0
 10
707.8874113220517
 20
431.8211872292843
 30
0.0
 10
707.8168299282976
 20
431.842331502825
 30
0.0
 10
707.7462915982371
 20
431.8670069992381
 30
0.0
 10
707.4711145963528
 20
431.9552014436605
 30
0.0
 10
707.2030000402132
 20
432.0539895567001
 30
0.0
 10
706.9348854840736
 20
432.1669025612291
 30
0.0
 10
706.8537534853959
 20
432.2021717262594
 30
0.0
 10
706.769090263846
 20
432.2374408912896
 30
0.0
 10
706.6879582651683
 20
432.2762412791922
 30
0.0
 10
706.5221630449407
 20
432.3503538958187
 30
0.0
 10
706.3598990475854
 20
432.4279546716239
 30
0.0
 10
706.2011662731026
 20
432.512617893174
 30
0.0
 10
706.0494528806709
 20
432.5902186689792
 30
0.0
 10
705.9012707111115
 20
432.6713506676568
 30
0.0
 10
705.7531316052458
 20
432.7595451120793
 30
0.0
 10
705.7390067137562
 20
432.7630763349516
 30
0.0
 10
705.7248818222668
 20
432.7736700035688
 30
0.0
 10
705.7107569307772
 20
432.7807324493135
 30
0.0
 10
705.576742716401
 20
432.8618644479911
 30
0.0
 10
705.4426423746377
 20
432.9429964466688
 30
0.0
 10
705.3086281602614
 20
433.0311908910912
 30
0.0
 10
705.2874408230272
 20
433.0417845597083
 30
0.0
 10
705.2697847086653
 20
433.0559094511979
 30
0.0
 10
705.2486404351245
 20
433.0735225018662
 30
0.0
 10
705.1533835449574
 20
433.1335102270031
 30
0.0
 10
705.0616578776626
 20
433.1969861113188
 30
0.0
 10
704.9699752740613
 20
433.2640362822005
 30
0.0
 10
704.8923314345625
 20
433.3169615615927
 30
0.0
 10
704.8111994358849
 20
433.3733750001636
 30
0.0
 10
704.7370868192585
 20
433.4333627253005
 30
0.0
 10
704.5113469375875
 20
433.5991579455282
 30
0.0
 10
704.2961145971465
 20
433.775546834373
 30
0.0
 10
704.084499606965
 20
433.9695918375797
 30
0.0
 10
703.9362743737122
 20
434.0965866699047
 30
0.0
 10
703.7951977135912
 20
434.2306439479745
 30
0.0
 10
703.6540779897766
 20
434.3752948946614
 30
0.0
 10
703.5623523224818
 20
434.4670205619562
 30
0.0
 10
703.4706697188806
 20
434.5622774521233
 30
0.0
 10
703.3824752744582
 20
434.6574912785969
 30
0.0
 10
703.343631822862
 20
434.6927604436272
 30
0.0
 10
703.3118938807041
 20
434.728072672351
 30
0.0
 10
703.2836871614187
 20
434.7633418373812
 30
0.0
 10
703.2554373784396
 20
434.7915485566667
 30
0.0
 10
703.2272306591542
 20
434.8233295625182
 30
0.0
 10
703.2025551627411
 20
434.8515362818036
 30
0.0
 10
703.1284425461146
 20
434.9361995033536
 30
0.0
 10
703.0578611523606
 20
435.0173315020313
 30
0.0
 10
702.9908540451725
 20
435.1055259464537
 30
0.0
 10
702.9026596007501
 20
435.2113334415444
 30
0.0
 10
702.8144651563276
 20
435.3207152232011
 30
0.0
 10
702.7298019347777
 20
435.4336282277301
 30
0.0
 10
702.7015521517986
 20
435.465366169888
 30
0.0
 10
702.676919719079
 20
435.4971041120459
 30
0.0
 10
702.6557323818448
 20
435.5324163407697
 30
0.0
 10
702.5675379374223
 20
435.6523056636564
 30
0.0
 10
702.479343493
 20
435.7722811139302
 30
0.0
 10
702.3982114943224
 20
435.8957447233828
 30
0.0
 10
702.3170794956447
 20
436.0156771099631
 30
0.0
 10
702.2394356561459
 20
436.135652560237
 30
0.0
 10
702.165366103213
 20
436.2591161696896
 30
0.0
 10
702.1477530525447
 20
436.2837916661027
 30
0.0
 10
702.1300969381828
 20
436.3085102262094
 30
0.0
 10
702.1159720466933
 20
436.3367169454949
 30
0.0
 10
702.038371270888
 20
436.4637117778199
 30
0.0
 10
701.9643017179551
 20
436.5942808967108
 30
0.0
 10
701.8937203242011
 20
436.7247638882147
 30
0.0
 10
701.8478574905537
 20
436.8023646640199
 30
0.0
 10
701.8055258797787
 20
436.8834966626976
 30
0.0
 10
701.7702567147485
 20
436.9646717250687
 30
0.0
 10
701.724393881101
 20
437.0493349466188
 30
0.0
 10
701.682062270326
 20
437.1304669452964
 30
0.0
 10
701.6432188187299
 20
437.2151301668464
 30
0.0
 10
701.4386662742932
 20
437.6384893382901
 30
0.0
 10
701.2692967674996
 20
438.0723991146573
 30
0.0
 10
701.128177043685
 20
438.5169025596416
 30
0.0
 10
701.0964391015272
 20
438.6192218955536
 30
0.0
 10
701.0647011593693
 20
438.7214981677719
 30
0.0
 10
701.0364513763902
 20
438.8237744399902
 30
0.0
 10
701.0188383257218
 20
438.876742783076
 30
0.0
 10
701.0047134342324
 20
438.9331562216469
 30
0.0
 10
700.9906316064364
 20
438.9896127239115
 30
0.0
 10
700.9623818234573
 20
439.0848696140786
 30
0.0
 10
700.9376632633507
 20
439.1836146634246
 30
0.0
 10
700.91651898981
 20
439.2824027764642
 30
0.0
 10
700.902437162014
 20
439.3317968329839
 30
0.0
 10
700.8918434933969
 20
439.384722112376
 30
0.0
 10
700.8812498247797
 20
439.4341161688959
 30
0.0
 10
700.8600624875454
 20
439.5258418361906
 30
0.0
 10
700.8424494368771
 20
439.614036280613
 30
0.0
 10
700.8283245453875
 20
439.7022307250354
 30
0.0
 10
700.8071802718468
 20
439.8009757743814
 30
0.0
 10
700.789524157485
 20
439.8962326645485
 30
0.0
 10
700.7753992659955
 20
439.9950207775881
 30
0.0
 10
700.7648055973783
 20
440.0620278847762
 30
0.0
 10
700.7542549924547
 20
440.1290780556578
 30
0.0
 10
700.7471925467099
 20
440.1961282265395
 30
0.0
 10
700.733110718914
 20
440.2666665566
 30
0.0
 10
700.7225170502968
 20
440.3372048866605
 30
0.0
 10
700.7189858274245
 20
440.4077862804145
 30
0.0
 10
700.7048609359349
 20
440.4889182790922
 30
0.0
 10
700.6977984901902
 20
440.5700502777698
 30
0.0
 10
700.6907360444454
 20
440.651225340141
 30
0.0
 10
700.6766111529558
 20
440.7746458859001
 30
0.0
 10
700.6660605480323
 20
440.9016837819187
 30
0.0
 10
700.6625293251599
 20
441.0286355505502
 30
0.0
 10
700.6343226058744
 20
441.4414441170702
 30
0.0
 10
700.6343226058744
 20
441.8541665562032
 30
0.0
 10
700.6625293251599
 20
442.2668889953361
 30
0.0
 10
700.6660605480323
 20
442.3903956684823
 30
0.0
 10
700.6766111529558
 20
442.5138592779349
 30
0.0
 10
700.6907360444454
 20
442.6337916645152
 30
0.0
 10
700.6977984901902
 20
442.7219861089376
 30
0.0
 10
700.7048609359349
 20
442.8066493304876
 30
0.0
 10
700.7189858274245
 20
442.8913125520376
 30
0.0
 10
700.7260482731692
 20
442.9548315000469
 30
0.0
 10
700.733110718914
 20
443.0218816709286
 30
0.0
 10
700.7436613238375
 20
443.0888887781167
 30
0.0
 10
700.7542549924547
 20
443.1629583310495
 30
0.0
 10
700.7648055973783
 20
443.2370278839824
 30
0.0
 10
700.7789304888678
 20
443.3111405006089
 30
0.0
 10
700.789524157485
 20
443.3958037221589
 30
0.0
 10
700.8036490489744
 20
443.4804669437089
 30
0.0
 10
700.8213051633363
 20
443.5651301652589
 30
0.0
 10
700.8424494368771
 20
443.6709807240432
 30
0.0
 10
700.8635937104178
 20
443.7767882191339
 30
0.0
 10
700.8883122705245
 20
443.8826387779183
 30
0.0
 10
700.8918434933969
 20
443.9073573380249
 30
0.0
 10
700.8989059391416
 20
443.932032834438
 30
0.0
 10
700.902437162014
 20
443.9531771079787
 30
0.0
 10
700.9306438812995
 20
444.0731525582526
 30
0.0
 10
700.9588506005849
 20
444.1895537219605
 30
0.0
 10
700.9906316064364
 20
444.3059548856683
 30
0.0
 10
701.0047134342324
 20
444.3588801650605
 30
0.0
 10
701.0188383257218
 20
444.415336667325
 30
0.0
 10
701.0364513763902
 20
444.4682188830236
 30
0.0
 10
701.0647011593693
 20
444.5705382189355
 30
0.0
 10
701.0964391015272
 20
444.6728575548474
 30
0.0
 10
701.128177043685
 20
444.7751768907593
 30
0.0
 10
701.2692967674996
 20
445.2161491128713
 30
0.0
 10
701.4386662742932
 20
445.6500588892386
 30
0.0
 10
701.6432188187299
 20
446.076906219861
 30
0.0
 10
701.682062270326
 20
446.1580382185386
 30
0.0
 10
701.724393881101
 20
446.2427014400886
 30
0.0
 10
701.7702567147485
 20
446.3273646616387
 30
0.0
 10
701.8055258797787
 20
446.4084966603163
 30
0.0
 10
701.8478574905537
 20
446.4861404998151
 30
0.0
 10
701.8937203242011
 20
446.5672724984927
 30
0.0
 10
701.9643017179551
 20
446.6977985536902
 30
0.0
 10
702.038371270888
 20
446.8283246088876
 30
0.0
 10
702.1159720466933
 20
446.9553194412126
 30
0.0
 10
702.1300969381828
 20
446.9835692241916
 30
0.0
 10
702.1477530525447
 20
447.0082447206048
 30
0.0
 10
702.165366103213
 20
447.0329202170178
 30
0.0
 10
702.2394356561459
 20
447.156426890164
 30
0.0
 10
702.3170794956447
 20
447.2763592767443
 30
0.0
 10
702.3982114943224
 20
447.3962916633246
 30
0.0
 10
702.479343493
 20
447.5197983364708
 30
0.0
 10
702.5675379374223
 20
447.639730723051
 30
0.0
 10
702.6557323818448
 20
447.7596631096313
 30
0.0
 10
702.676919719079
 20
447.7949753383551
 30
0.0
 10
702.7015521517986
 20
447.8266702168194
 30
0.0
 10
702.7298019347777
 20
447.8584512226709
 30
0.0
 10
702.8144651563276
 20
447.9713642271999
 30
0.0
 10
702.9026596007501
 20
448.080702945163
 30
0.0
 10
702.9908540451725
 20
448.1865104402538
 30
0.0
 10
703.0578611523606
 20
448.2747048846761
 30
0.0
 10
703.1284425461146
 20
448.3558368833538
 30
0.0
 10
703.2025551627411
 20
448.4405001049038
 30
0.0
 10
703.2272306591542
 20
448.4687498878828
 30
0.0
 10
703.2554373784396
 20
448.5005308937343
 30
0.0
 10
703.2836871614187
 20
448.5286945493262
 30
0.0
 10
703.3118938807041
 20
448.56400677805
 30
0.0
 10
703.343631822862
 20
448.5992759430802
 30
0.0
 10
703.3824752744582
 20
448.6345451081105
 30
0.0
 10
703.4706697188806
 20
448.7298019982777
 30
0.0
 10
703.5623523224818
 20
448.8250588884448
 30
0.0
 10
703.6540779897766
 20
448.9167845557396
 30
0.0
 10
703.7951977135912
 20
449.0613924387329
 30
0.0
 10
703.9362743737122
 20
449.1954927804963
 30
0.0
 10
704.084499606965
 20
449.3224445491277
 30
0.0
 10
704.2961145971465
 20
449.5164895523345
 30
0.0
 10
704.5113469375875
 20
449.6928784411792
 30
0.0
 10
704.7370868192585
 20
449.8586736614069
 30
0.0
 10
704.8111994358849
 20
449.9186613865438
 30
0.0
 10
704.8923314345625
 20
449.9751178888083
 30
0.0
 10
704.9699752740613
 20
450.0280001045069
 30
0.0
 10
705.0616578776626
 20
450.0950502753886
 30
0.0
 10
705.1533835449574
 20
450.1585692233979
 30
0.0
 10
705.2486404351245
 20
450.2185138848412
 30
0.0
 10
705.2697847086653
 20
450.2361699992031
 30
0.0
 10
705.2874408230272
 20
450.2502948906927
 30
0.0
 10
705.3086281602614
 20
450.2608885593098
 30
0.0
 10
705.4426423746377
 20
450.3490830037322
 30
0.0
 10
705.576742716401
 20
450.4302150024099
 30
0.0
 10
705.7107569307772
 20
450.5113470010875
 30
0.0
 10
705.7248818222668
 20
450.5184094468322
 30
0.0
 10
705.7390067137562
 20
450.5290031154494
 30
0.0
 10
705.7531316052458
 20
450.5324912746282
 30
0.0
 10
705.9012707111115
 20
450.6206857190506
 30
0.0
 10
706.0494528806709
 20
450.7018607814218
 30
0.0
 10
706.2011662731026
 20
450.779461557227
 30
0.0
 10
706.3598990475854
 20
450.8641247787771
 30
0.0
 10
706.5221630449407
 20
450.9417255545823
 30
0.0
 10
706.6879582651683
 20
451.0157951075151
 30
0.0
 10
706.769090263846
 20
451.0546385591114
 30
0.0
 10
706.8537534853959
 20
451.089864660448
 30
0.0
 10
706.9348854840736
 20
451.1251768891718
 30
0.0
 10
707.2030000402132
 20
451.2380468300074
 30
0.0
 10
707.4711145963528
 20
451.3368349430469
 30
0.0
 10
707.7462915982371
 20
451.4250293874693
 30
0.0
 10
707.8168299282976
 20
451.4497048838824
 30
0.0
 10
707.8874113220517
 20
451.4708922211167
 30
0.0
 10
707.9544614929333
 20
451.492079558351
 30
0.0
 10
708.2190448262005
 20
451.5696803341562
 30
0.0
 10
708.4836281594677
 20
451.6402186642167
 30
0.0
 10
708.7482114927349
 20
451.6966751664812
 30
0.0
 10
708.8364059371572
 20
451.7142882171496
 30
0.0
 10
708.9210691587073
 20
451.7319443315115
 30
0.0
 10
709.0092636031296
 20
451.7496004458734
 30
0.0
 10
709.0092636031296
 20
451.7496004458734
 30
0.0
 10
709.012794826002
 20
451.7496004458734
 30
0.0
 10
709.012794826002
 20
451.7496004458734
 30
0.0
 10
709.12919598971
 20
451.7742759422865
 30
0.0
 10
709.2420659305454
 20
451.7918889929549
 30
0.0
 10
709.3585101579469
 20
451.8095451073168
 30
0.0
 10
709.4995868180679
 20
451.830732444551
 30
0.0
 10
709.6372183827036
 20
451.8483885589129
 30
0.0
 10
709.7782950428245
 20
451.8624703867089
 30
0.0
 10
709.7924199343141
 20
451.8660016095812
 30
0.0
 10
709.810076048676
 20
451.8695328324537
 30
0.0
 10
709.824157876472
 20
451.8695328324537
 30
0.0
 10
709.8629582643746
 20
451.8765522145048
 30
0.0
 10
709.9053329388431
 20
451.8800834373772
 30
0.0
 10
709.9440902630522
 20
451.8800834373772
 30
0.0
 10
710.0852530505604
 20
451.8977395517391
 30
0.0
 10
710.2263297106813
 20
451.9083332203563
 30
0.0
 10
710.3709806573682
 20
451.915395666101
 30
0.0
 10
710.3709806573682
 20
451.915395666101
 30
0.0
 10
710.3956561537814
 20
451.915395666101
 30
0.0
 10
710.3956561537814
 20
451.915395666101
 30
0.0
 10
710.5720450426261
 20
451.9259893347182
 30
0.0
 10
710.7484339314709
 20
451.9295205575905
 30
0.0
 10
710.9248228203157
 20
451.9295205575905
 30
0.0
 10
710.9248228203157
 20
451.9295205575905
 30
0.0
 10
903.4497637715334
 20
451.9295205575905
 30
0.0
 10
903.4497637715334
 20
451.9295205575905
 30
0.0
 10
909.1295204432906
 20
451.9295205575905
 30
0.0
 10
913.7368188904894
 20
447.3257533332641
 30
0.0
 10
913.7368188904894
 20
441.6459966615069
 30
0.0
  0
ENDBLK
  5
84
330
81
100
AcDbEntity
  8
0
100
AcDbBlockEnd
  0
BLOCK
  5
88
330
86
100
AcDbEntity
  8
0
100
AcDbBlockBegin
  2
block 16
 70
     0
 10
0.0
 20
0.0
 30
0.0
  3
block 16
  1

  0
SPLINE
  5
8A
330
86
100
AcDbEntity
  8
0
 62
     7
370
    25
100
AcDbSpline
210
0.0
220
0.0
230
1.0
 70
    11
 71
     3
 72
    23
 73
    19
 74
     0
 42
0.0000000001
 43
0.0000000001
 12
1.0
 22
0.0
 32
0.0
 13
1.0
 23
0.0
 33
0.0
 40
0.0
 40
0.0
 40
0.0
 40
0.0
 40
1.0
 40
1.0
 40
1.0
 40
2.0
 40
2.0
 40
2.0
 40
3.0
 40
3.0
 40
3.0
 40
4.0
 40
4.0
 40
4.0
 40
5.0
 40
5.0
 40
5.0
 40
6.0
 40
6.0
 40
6.0
 40
6.0
 10
578.8448573042906
 20
441.6459966615069
 30
0.0
 10
578.8448573042906
 20
435.9663261171369
 30
0.0
 10
574.241090079964
 20
431.3625588928104
 30
0.0
 10
568.5613334082069
 20
431.3625588928104
 30
0.0
 10
568.5613334082069
 20
431.3625588928104
 30
0.0
 10
477.6752358831854
 20
431.3625588928104
 30
0.0
 10
477.6752358831854
 20
431.3625588928104
 30
0.0
 10
471.9954792114282
 20
431.3625588928104
 30
0.0
 10
467.388223827923
 20
435.9663261171369
 30
0.0
 10
467.388223827923
 20
441.6459966615069
 30
0.0
 10
467.388223827923
 20
447.3257533332641
 30
0.0
 10
471.9954792114282
 20
451.9295205575905
 30
0.0
 10
477.6752358831854
 20
451.9295205575905
 30
0.0
 10
477.6752358831854
 20
451.9295205575905
 30
0.0
 10
568.5613334082069
 20
451.9295205575905
 30
0.0
 10
568.5613334082069
 20
451.9295205575905
 30
0.0
 10
574.241090079964
 20
451.9295205575905
 30
0.0
 10
578.8448573042906
 20
447.3257533332641
 30
0.0
 10
578.8448573042906
 20
441.6459966615069
 30
0.0
  0
ENDBLK
  5
89
330
86
100
AcDbEntity
  8
0
100
AcDbBlockEnd
  0
BLOCK
  5
8D
330
8B
100
AcDbEntity
  8
0
100
AcDbBlockBegin
  2
block 17
 70
     0
 10
0.0
 20
0.0
 30
0.0
  3
block 17
  1

  0
SPLINE
  5
8F
330
8B
100
AcDbEntity
  8
0
 62
     7
370
    25
100
AcDbSpline
210
0.0
220
0.0
230
1.0
 70
    11
 71
     3
 72
    29
 73
    25
 74
     0
 42
0.0000000001
 43
0.0000000001
 12
1.0
 22
0.0
 32
0.0
 13
1.0
 23
0.0
 33
0.0
 40
0.0
 40
0.0
 40
0.0
 40
0.0
 40
1.0
 40
1.0
 40
1.0
 40
2.0
 40
2.0
 40
2.0
 40
3.0
 40
3.0
 40
3.0
 40
4.0
 40
4.0
 40
4.0
 40
5.0
 40
5.0
 40
5.0
 40
6.0
 40
6.0
 40
6.0
 40
7.0
 40
7.0
 40
7.0
 40
8.0
 40
8.0
 40
8.0
 40
8.0
 10
660.1248228330157
 20
450.5219406697046
 30
0.0
 10
660.1248228330157
 20
450.5219406697046
 30
0.0
 10
660.1248228330157
 20
432.7701387806964
 30
0.0
 10
660.1248228330157
 20
432.7701387806964
 30
0.0
 10
660.1248228330157
 20
432.2197847769277
 30
0.0
 10
659.676788165159
 20
431.771750109071
 30
0.0
 10
659.1229460022115
 20
431.771750109071
 30
0.0
 10
659.1229460022115
 20
431.771750109071
 30
0.0
 10
640.0023646132199
 20
431.771750109071
 30
0.0
 10
640.0023646132199
 20
431.771750109071
 30
0.0
 10
639.4520536731449
 20
431.771750109071
 30
0.0
 10
639.0040190052881
 20
432.2197847769277
 30
0.0
 10
639.0040190052881
 20
432.7701387806964
 30
0.0
 10
639.0040190052881
 20
432.7701387806964
 30
0.0
 10
639.0040190052881
 20
450.5219406697046
 30
0.0
 10
639.0040190052881
 20
450.5219406697046
 30
0.0
 10
639.0040190052881
 20
451.0722516097797
 30
0.0
 10
639.4520536731449
 20
451.5202862776364
 30
0.0
 10
640.0023646132199
 20
451.5202862776364
 30
0.0
 10
640.0023646132199
 20
451.5202862776364
 30
0.0
 10
659.1229460022115
 20
451.5202862776364
 30
0.0
 10
659.1229460022115
 20
451.5202862776364
 30
0.0
 10
659.676788165159
 20
451.5202862776364
 30
0.0
 10
660.1248228330157
 20
451.0722516097797
 30
0.0
 10
660.1248228330157
 20
450.5219406697046
 30
0.0
  0
ENDBLK
  5
8E
330
8B
100
AcDbEntity
  8
0
100
AcDbBlockEnd
  0
BLOCK
  5
92
330
90
100
AcDbEntity
  8
0
100
AcDbBlockBegin
  2
block 18
 70
     0
 10
0.0
 20
0.0
 30
0.0
  3
block 18
  1

  0
SPLINE
  5
94
330
90
100
AcDbEntity
  8
0
 62
     7
370
    25
100
AcDbSpline
210
0.0
220
0.0
230
1.0
 70
    11
 71
     3
 72
   290
 73
   286
 74
     0
 42
0.0000000001
 43
0.0000000001
 12
1.0
 22
0.0
 32
0.0
 13
1.0
 23
0.0
 33
0.0
 40
0.0
 40
0.0
 40
0.0
 40
0.0
 40
1.0
 40
1.0
 40
1.0
 40
2.0
 40
2.0
 40
2.0
 40
3.0
 40
3.0
 40
3.0
 40
4.0
 40
4.0
 40
4.0
 40
5.0
 40
5.0
 40
5.0
 40
6.0
 40
6.0
 40
6.0
 40
7.0
 40
7.0
 40
7.0
 40
8.0
 40
8.0
 40
8.0
 40
9.0
 40
9.0
 40
9.0
 40
10.0
 40
10.0
 40
10.0
 40
11.0
 40
11.0
 40
11.0
 40
12.0
 40
12.0
 40
12.0
 40
13.0
 40
13.0
 40
13.0
 40
14.0
 40
14.0
 40
14.0
 40
15.0
 40
15.0
 40
15.0
 40
16.0
 40
16.0
 40
16.0
 40
17.0
 40
17.0
 40
17.0
 40
18.0
 40
18.0
 40
18.0
 40
19.0
 40
19.0
 40
19.0
 40
20.0
 40
20.0
 40
20.0
 40
21.0
 40
21.0
 40
21.0
 40
22.0
 40
22.0
 40
22.0
 40
23.0
 40
23.0
 40
23.0
 40
24.0
 40
24.0
 40
24.0
 40
25.0
 40
25.0
 40
25.0
 40
26.0
 40
26.0
 40
26.0
 40
27.0
 40
27.0
 40
27.0
 40
28.0
 40
28.0
 40
28.0
 40
29.0
 40
29.0
 40
29.0
 40
30.0
 40
30.0
 40
30.0
 40
31.0
 40
31.0
 40
31.0
 40
32.0
 40
32.0
 40
32.0
 40
33.0
 40
33.0
 40
33.0
 40
34.0
 40
34.0
 40
34.0
 40
35.0
 40
35.0
 40
35.0
 40
36.0
 40
36.0
 40
36.0
 40
37.0
 40
37.0
 40
37.0
 40
38.0
 40
38.0
 40
38.0
 40
39.0
 40
39.0
 40
39.0
 40
40.0
 40
40.0
 40
40.0
 40
41.0
 40
41.0
 40
41.0
 40
42.0
 40
42.0
 40
42.0
 40
43.0
 40
43.0
 40
43.0
 40
44.0
 40
44.0
 40
44.0
 40
45.0
 40
45.0
 40
45.0
 40
46.0
 40
46.0
 40
46.0
 40
47.0
 40
47.0
 40
47.0
 40
48.0
 40
48.0
 40
48.0
 40
49.0
 40
49.0
 40
49.0
 40
50.0
 40
50.0
 40
50.0
 40
51.0
 40
51.0
 40
51.0
 40
52.0
 40
52.0
 40
52.0
 40
53.0
 40
53.0
 40
53.0
 40
54.0
 40
54.0
 40
54.0
 40
55.0
 40
55.0
 40
55.0
 40
56.0
 40
56.0
 40
56.0
 40
57.0
 40
57.0
 40
57.0
 40
58.0
 40
58.0
 40
58.0
 40
59.0
 40
59.0
 40
59.0
 40
60.0
 40
60.0
 40
60.0
 40
61.0
 40
61.0
 40
61.0
 40
62.0
 40
62.0
 40
62.0
 40
63.0
 40
63.0
 40
63.0
 40
64.0
 40
64.0
 40
64.0
 40
65.0
 40
65.0
 40
65.0
 40
66.0
 40
66.0
 40
66.0
 40
67.0
 40
67.0
 40
67.0
 40
68.0
 40
68.0
 40
68.0
 40
69.0
 40
69.0
 40
69.0
 40
70.0
 40
70.0
 40
70.0
 40
71.0
 40
71.0
 40
71.0
 40
72.0
 40
72.0
 40
72.0
 40
73.0
 40
73.0
 40
73.0
 40
74.0
 40
74.0
 40
74.0
 40
75.0
 40
75.0
 40
75.0
 40
76.0
 40
76.0
 40
76.0
 40
77.0
 40
77.0
 40
77.0
 40
78.0
 40
78.0
 40
78.0
 40
79.0
 40
79.0
 40
79.0
 40
80.0
 40
80.0
 40
80.0
 40
81.0
 40
81.0
 40
81.0
 40
82.0
 40
82.0
 40
82.0
 40
83.0
 40
83.0
 40
83.0
 40
84.0
 40
84.0
 40
84.0
 40
85.0
 40
85.0
 40
85.0
 40
86.0
 40
86.0
 40
86.0
 40
87.0
 40
87.0
 40
87.0
 40
88.0
 40
88.0
 40
88.0
 40
89.0
 40
89.0
 40
89.0
 40
90.0
 40
90.0
 40
90.0
 40
91.0
 40
91.0
 40
91.0
 40
92.0
 40
92.0
 40
92.0
 40
93.0
 40
93.0
 40
93.0
 40
94.0
 40
94.0
 40
94.0
 40
95.0
 40
95.0
 40
95.0
 40
95.0
 10
913.7368188904894
 20
441.6459966615069
 30
0.0
 10
913.7368188904894
 20
435.9663261171369
 30
0.0
 10
909.1295204432906
 20
431.3625588928104
 30
0.0
 10
903.4497637715334
 20
431.3625588928104
 30
0.0
 10
903.4497637715334
 20
431.3625588928104
 30
0.0
 10
710.9248228203157
 20
431.3625588928104
 30
0.0
 10
710.9248228203157
 20
431.3625588928104
 30
0.0
 10
710.7484339314709
 20
431.3625588928104
 30
0.0
 10
710.5720450426261
 20
431.3660901156828
 30
0.0
 10
710.3956561537814
 20
431.3766837842999
 30
0.0
 10
710.3956561537814
 20
431.3766837842999
 30
0.0
 10
710.3709806573682
 20
431.3766837842999
 30
0.0
 10
710.3709806573682
 20
431.3766837842999
 30
0.0
 10
710.2263297106813
 20
431.3837462300447
 30
0.0
 10
710.0852530505604
 20
431.3942968349683
 30
0.0
 10
709.9440902630522
 20
431.4119529493302
 30
0.0
 10
709.9053329388431
 20
431.4119529493302
 30
0.0
 10
709.8629582643746
 20
431.415441108509
 30
0.0
 10
709.824157876472
 20
431.4225035542538
 30
0.0
 10
709.810076048676
 20
431.4225035542538
 30
0.0
 10
709.7924199343141
 20
431.4260347771262
 30
0.0
 10
709.7782950428245
 20
431.4295659999985
 30
0.0
 10
709.6372183827036
 20
431.4436908914881
 30
0.0
 10
709.4995868180679
 20
431.46134700585
 30
0.0
 10
709.3585101579469
 20
431.4824912793907
 30
0.0
 10
709.2420659305454
 20
431.5001473937526
 30
0.0
 10
709.12919598971
 20
431.5177604444209
 30
0.0
 10
709.012794826002
 20
431.5424790045276
 30
0.0
 10
709.012794826002
 20
431.5424790045276
 30
0.0
 10
709.0092636031296
 20
431.5424790045276
 30
0.0
 10
709.0092636031296
 20
431.5424790045276
 30
0.0
 10
708.9210691587073
 20
431.5601351188895
 30
0.0
 10
708.8364059371572
 20
431.5777481695578
 30
0.0
 10
708.7482114927349
 20
431.5953612202262
 30
0.0
 10
708.4836281594677
 20
431.6518607861843
 30
0.0
 10
708.2190448262005
 20
431.7223991162448
 30
0.0
 10
707.9544614929333
 20
431.79999989205
 30
0.0
 10
707.8874113220517
 20
431.8211872292843
 30
0.0
 10
707.8168299282976
 20
431.842331502825
 30
0.0
 10
707.7462915982371
 20
431.8670069992381
 30
0.0
 10
707.4711145963528
 20
431.9552014436605
 30
0.0
 10
707.2030000402132
 20
432.0539895567001
 30
0.0
 10
706.9348854840736
 20
432.1669025612291
 30
0.0
 10
706.8537534853959
 20
432.2021717262594
 30
0.0
 10
706.769090263846
 20
432.2374408912896
 30
0.0
 10
706.6879582651683
 20
432.2762412791922
 30
0.0
 10
706.5221630449407
 20
432.3503538958187
 30
0.0
 10
706.3598990475854
 20
432.4279546716239
 30
0.0
 10
706.2011662731026
 20
432.512617893174
 30
0.0
 10
706.0494528806709
 20
432.5902186689792
 30
0.0
 10
705.9012707111115
 20
432.6713506676568
 30
0.0
 10
705.7531316052458
 20
432.7595451120793
 30
0.0
 10
705.7390067137562
 20
432.7630763349516
 30
0.0
 10
705.7248818222668
 20
432.7736700035688
 30
0.0
 10
705.7107569307772
 20
432.7807324493135
 30
0.0
 10
705.576742716401
 20
432.8618644479911
 30
0.0
 10
705.4426423746377
 20
432.9429964466688
 30
0.0
 10
705.3086281602614
 20
433.0311908910912
 30
0.0
 10
705.2874408230272
 20
433.0417845597083
 30
0.0
 10
705.2697847086653
 20
433.0559094511979
 30
0.0
 10
705.2486404351245
 20
433.0735225018662
 30
0.0
 10
705.1533835449574
 20
433.1335102270031
 30
0.0
 10
705.0616578776626
 20
433.1969861113188
 30
0.0
 10
704.9699752740613
 20
433.2640362822005
 30
0.0
 10
704.8923314345625
 20
433.3169615615927
 30
0.0
 10
704.8111994358849
 20
433.3733750001636
 30
0.0
 10
704.7370868192585
 20
433.4333627253005
 30
0.0
 10
704.5113469375875
 20
433.5991579455282
 30
0.0
 10
704.2961145971465
 20
433.775546834373
 30
0.0
 10
704.084499606965
 20
433.9695918375797
 30
0.0
 10
703.9362743737122
 20
434.0965866699047
 30
0.0
 10
703.7951977135912
 20
434.2306439479745
 30
0.0
 10
703.6540779897766
 20
434.3752948946614
 30
0.0
 10
703.5623523224818
 20
434.4670205619562
 30
0.0
 10
703.4706697188806
 20
434.5622774521233
 30
0.0
 10
703.3824752744582
 20
434.6574912785969
 30
0.0
 10
703.343631822862
 20
434.6927604436272
 30
0.0
 10
703.3118938807041
 20
434.728072672351
 30
0.0
 10
703.2836871614187
 20
434.7633418373812
 30
0.0
 10
703.2554373784396
 20
434.7915485566667
 30
0.0
 10
703.2272306591542
 20
434.8233295625182
 30
0.0
 10
703.2025551627411
 20
434.8515362818036
 30
0.0
 10
703.1284425461146
 20
434.9361995033536
 30
0.0
 10
703.0578611523606
 20
435.0173315020313
 30
0.0
 10
702.9908540451725
 20
435.1055259464537
 30
0.0
 10
702.9026596007501
 20
435.2113334415444
 30
0.0
 10
702.8144651563276
 20
435.3207152232011
 30
0.0
 10
702.7298019347777
 20
435.4336282277301
 30
0.0
 10
702.7015521517986
 20
435.465366169888
 30
0.0
 10
702.676919719079
 20
435.4971041120459
 30
0.0
 10
702.6557323818448
 20
435.5324163407697
 30
0.0
 10
702.5675379374223
 20
435.6523056636564
 30
0.0
 10
702.479343493
 20
435.7722811139302
 30
0.0
 10
702.3982114943224
 20
435.8957447233828
 30
0.0
 10
702.3170794956447
 20
436.0156771099631
 30
0.0
 10
702.2394356561459
 20
436.135652560237
 30
0.0
 10
702.165366103213
 20
436.2591161696896
 30
0.0
 10
702.1477530525447
 20
436.2837916661027
 30
0.0
 10
702.1300969381828
 20
436.3085102262094
 30
0.0
 10
702.1159720466933
 20
436.3367169454949
 30
0.0
 10
702.038371270888
 20
436.4637117778199
 30
0.0
 10
701.9643017179551
 20
436.5942808967108
 30
0.0
 10
701.8937203242011
 20
436.7247638882147
 30
0.0
 10
701.8478574905537
 20
436.8023646640199
 30
0.0
 10
701.8055258797787
 20
436.8834966626976
 30
0.0
 10
701.7702567147485
 20
436.9646717250687
 30
0.0
 10
701.724393881101
 20
437.0493349466188
 30
0.0
 10
701.682062270326
 20
437.1304669452964
 30
0.0
 10
701.6432188187299
 20
437.2151301668464
 30
0.0
 10
701.4386662742932
 20
437.6384893382901
 30
0.0
 10
701.2692967674996
 20
438.0723991146573
 30
0.0
 10
701.128177043685
 20
438.5169025596416
 30
0.0
 10
701.0964391015272
 20
438.6192218955536
 30
0.0
 10
701.0647011593693
 20
438.7214981677719
 30
0.0
 10
701.0364513763902
 20
438.8237744399902
 30
0.0
 10
701.0188383257218
 20
438.876742783076
 30
0.0
 10
701.0047134342324
 20
438.9331562216469
 30
0.0
 10
700.9906316064364
 20
438.9896127239115
 30
0.0
 10
700.9623818234573
 20
439.0848696140786
 30
0.0
 10
700.9376632633507
 20
439.1836146634246
 30
0.0
 10
700.91651898981
 20
439.2824027764642
 30
0.0
 10
700.902437162014
 20
439.3317968329839
 30
0.0
 10
700.8918434933969
 20
439.384722112376
 30
0.0
 10
700.8812498247797
 20
439.4341161688959
 30
0.0
 10
700.8600624875454
 20
439.5258418361906
 30
0.0
 10
700.8424494368771
 20
439.614036280613
 30
0.0
 10
700.8283245453875
 20
439.7022307250354
 30
0.0
 10
700.8071802718468
 20
439.8009757743814
 30
0.0
 10
700.789524157485
 20
439.8962326645485
 30
0.0
 10
700.7753992659955
 20
439.9950207775881
 30
0.0
 10
700.7648055973783
 20
440.0620278847762
 30
0.0
 10
700.7542549924547
 20
440.1290780556578
 30
0.0
 10
700.7471925467099
 20
440.1961282265395
 30
0.0
 10
700.733110718914
 20
440.2666665566
 30
0.0
 10
700.7225170502968
 20
440.3372048866605
 30
0.0
 10
700.7189858274245
 20
440.4077862804145
 30
0.0
 10
700.7048609359349
 20
440.4889182790922
 30
0.0
 10
700.6977984901902
 20
440.5700502777698
 30
0.0
 10
700.6907360444454
 20
440.651225340141
 30
0.0
 10
700.6766111529558
 20
440.7746458859001
 30
0.0
 10
700.6660605480323
 20
440.9016837819187
 30
0.0
 10
700.6625293251599
 20
441.0286355505502
 30
0.0
 10
700.6343226058744
 20
441.4414441170702
 30
0.0
 10
700.6343226058744
 20
441.8541665562032
 30
0.0
 10
700.6625293251599
 20
442.2668889953361
 30
0.0
 10
700.6660605480323
 20
442.3903956684823
 30
0.0
 10
700.6766111529558
 20
442.5138592779349
 30
0.0
 10
700.6907360444454
 20
442.6337916645152
 30
0.0
 10
700.6977984901902
 20
442.7219861089376
 30
0.0
 10
700.7048609359349
 20
442.8066493304876
 30
0.0
 10
700.7189858274245
 20
442.8913125520376
 30
0.0
 10
700.7260482731692
 20
442.9548315000469
 30
0.0
 10
700.733110718914
 20
443.0218816709286
 30
0.0
 10
700.7436613238375
 20
443.0888887781167
 30
0.0
 10
700.7542549924547
 20
443.1629583310495
 30
0.0
 10
700.7648055973783
 20
443.2370278839824
 30
0.0
 10
700.7789304888678
 20
443.3111405006089
 30
0.0
 10
700.789524157485
 20
443.3958037221589
 30
0.0
 10
700.8036490489744
 20
443.4804669437089
 30
0.0
 10
700.8213051633363
 20
443.5651301652589
 30
0.0
 10
700.8424494368771
 20
443.6709807240432
 30
0.0
 10
700.8635937104178
 20
443.7767882191339
 30
0.0
 10
700.8883122705245
 20
443.8826387779183
 30
0.0
 10
700.8918434933969
 20
443.9073573380249
 30
0.0
 10
700.8989059391416
 20
443.932032834438
 30
0.0
 10
700.902437162014
 20
443.9531771079787
 30
0.0
 10
700.9306438812995
 20
444.0731525582526
 30
0.0
 10
700.9588506005849
 20
444.1895537219605
 30
0.0
 10
700.9906316064364
 20
444.3059548856683
 30
0.0
 10
701.0047134342324
 20
444.3588801650605
 30
0.0
 10
701.0188383257218
 20
444.415336667325
 30
0.0
 10
701.0364513763902
 20
444.4682188830236
 30
0.0
 10
701.0647011593693
 20
444.5705382189355
 30
0.0
 10
701.0964391015272
 20
444.6728575548474
 30
0.0
 10
701.128177043685
 20
444.7751768907593
 30
0.0
 10
701.2692967674996
 20
445.2161491128713
 30
0.0
 10
701.4386662742932
 20
445.6500588892386
 30
0.0
 10
701.6432188187299
 20
446.076906219861
 30
0.0
 10
701.682062270326
 20
446.1580382185386
 30
0.0
 10
701.724393881101
 20
446.2427014400886
 30
0.0
 10
701.7702567147485
 20
446.3273646616387
 30
0.0
 10
701.8055258797787
 20
446.4084966603163
 30
0.0
 10
701.8478574905537
 20
446.4861404998151
 30
0.0
 10
701.8937203242011
 20
446.5672724984927
 30
0.0
 10
701.9643017179551
 20
446.6977985536902
 30
0.0
 10
702.038371270888
 20
446.8283246088876
 30
0.0
 10
702.1159720466933
 20
446.9553194412126
 30
0.0
 10
702.1300969381828
 20
446.9835692241916
 30
0.0
 10
702.1477530525447
 20
447.0082447206048
 30
0.0
 10
702.165366103213
 20
447.0329202170178
 30
0.0
 10
702.2394356561459
 20
447.156426890164
 30
0.0
 10
702.3170794956447
 20
447.2763592767443
 30
0.0
 10
702.3982114943224
 20
447.3962916633246
 30
0.0
 10
702.479343493
 20
447.5197983364708
 30
0.0
 10
702.5675379374223
 20
447.639730723051
 30
0.0
 10
702.6557323818448
 20
447.7596631096313
 30
0.0
 10
702.676919719079
 20
447.7949753383551
 30
0.0
 10
702.7015521517986
 20
447.8266702168194
 30
0.0
 10
702.7298019347777
 20
447.8584512226709
 30
0.0
 10
702.8144651563276
 20
447.9713642271999
 30
0.0
 10
702.9026596007501
 20
448.080702945163
 30
0.0
 10
702.9908540451725
 20
448.1865104402538
 30
0.0
 10
703.0578611523606
 20
448.2747048846761
 30
0.0
 10
703.1284425461146
 20
448.3558368833538
 30
0.0
 10
703.2025551627411
 20
448.4405001049038
 30
0.0
 10
703.2272306591542
 20
448.4687498878828
 30
0.0
 10
703.2554373784396
 20
448.5005308937343
 30
0.0
 10
703.2836871614187
 20
448.5286945493262
 30
0.0
 10
703.3118938807041
 20
448.56400677805
 30
0.0
 10
703.343631822862
 20
448.5992759430802
 30
0.0
 10
703.3824752744582
 20
448.6345451081105
 30
0.0
 10
703.4706697188806
 20
448.7298019982777
 30
0.0
 10
703.5623523224818
 20
448.8250588884448
 30
0.0
 10
703.6540779897766
 20
448.9167845557396
 30
0.0
 10
703.7951977135912
 20
449.0613924387329
 30
0.0
 10
703.9362743737122
 20
449.1954927804963
 30
0.0
 10
704.084499606965
 20
449.3224445491277
 30
0.0
 10
704.2961145971465
 20
449.5164895523345
 30
0.0
 10
704.5113469375875
 20
449.6928784411792
 30
0.0
 10
704.7370868192585
 20
449.8586736614069
 30
0.0
 10
704.8111994358849
 20
449.9186613865438
 30
0.0
 10
704.8923314345625
 20
449.9751178888083
 30
0.0
 10
704.9699752740613
 20
450.0280001045069
 30
0.0
 10
705.0616578776626
 20
450.0950502753886
 30
0.0
 10
705.1533835449574
 20
450.1585692233979
 30
0.0
 10
705.2486404351245
 20
450.2185138848412
 30
0.0
 10
705.2697847086653
 20
450.2361699992031
 30
0.0
 10
705.2874408230272
 20
450.2502948906927
 30
0.0
 10
705.3086281602614
 20
450.2608885593098
 30
0.0
 10
705.4426423746377
 20
450.3490830037322
 30
0.0
 10
705.576742716401
 20
450.4302150024099
 30
0.0
 10
705.7107569307772
 20
450.5113470010875
 30
0.0
 10
705.7248818222668
 20
450.5184094468322
 30
0.0
 10
705.7390067137562
 20
450.5290031154494
 30
0.0
 10
705.7531316052458
 20
450.5324912746282
 30
0.0
 10
705.9012707111115
 20
450.6206857190506
 30
0.0
 10
706.0494528806709
 20
450.7018607814218
 30
0.0
 10
706.2011662731026
 20
450.779461557227
 30
0.0
 10
706.3598990475854
 20
450.8641247787771
 30
0.0
 10
706.5221630449407
 20
450.9417255545823
 30
0.0
 10
706.6879582651683
 20
451.0157951075151
 30
0.0
 10
706.769090263846
 20
451.0546385591114
 30
0.0
 10
706.8537534853959
 20
451.089864660448
 30
0.0
 10
706.9348854840736
 20
451.1251768891718
 30
0.0
 10
707.2030000402132
 20
451.2380468300074
 30
0.0
 10
707.4711145963528
 20
451.3368349430469
 30
0.0
 10
707.7462915982371
 20
451.4250293874693
 30
0.0
 10
707.8168299282976
 20
451.4497048838824
 30
0.0
 10
707.8874113220517
 20
451.4708922211167
 30
0.0
 10
707.9544614929333
 20
451.492079558351
 30
0.0
 10
708.2190448262005
 20
451.5696803341562
 30
0.0
 10
708.4836281594677
 20
451.6402186642167
 30
0.0
 10
708.7482114927349
 20
451.6966751664812
 30
0.0
 10
708.8364059371572
 20
451.7142882171496
 30
0.0
 10
708.9210691587073
 20
451.7319443315115
 30
0.0
 10
709.0092636031296
 20
451.7496004458734
 30
0.0
 10
709.0092636031296
 20
451.7496004458734
 30
0.0
 10
709.012794826002
 20
451.7496004458734
 30
0.0
 10
709.012794826002
 20
451.7496004458734
 30
0.0
 10
709.12919598971
 20
451.7742759422865
 30
0.0
 10
709.2420659305454
 20
451.7918889929549
 30
0.0
 10
709.3585101579469
 20
451.8095451073168
 30
0.0
 10
709.4995868180679
 20
451.830732444551
 30
0.0
 10
709.6372183827036
 20
451.8483885589129
 30
0.0
 10
709.7782950428245
 20
451.8624703867089
 30
0.0
 10
709.7924199343141
 20
451.8660016095812
 30
0.0
 10
709.810076048676
 20
451.8695328324537
 30
0.0
 10
709.824157876472
 20
451.8695328324537
 30
0.0
 10
709.8629582643746
 20
451.8765522145048
 30
0.0
 10
709.9053329388431
 20
451.8800834373772
 30
0.0
 10
709.9440902630522
 20
451.8800834373772
 30
0.0
 10
710.0852530505604
 20
451.8977395517391
 30
0.0
 10
710.2263297106813
 20
451.9083332203563
 30
0.0
 10
710.3709806573682
 20
451.915395666101
 30
0.0
 10
710.3709806573682
 20
451.915395666101
 30
0.0
 10
710.3956561537814
 20
451.915395666101
 30
0.0
 10
710.3956561537814
 20
451.915395666101
 30
0.0
 10
710.5720450426261
 20
451.9259893347182
 30
0.0
 10
710.7484339314709
 20
451.9295205575905
 30
0.0
 10
710.9248228203157
 20
451.9295205575905
 30
0.0
 10
710.9248228203157
 20
451.9295205575905
 30
0.0
 10
903.4497637715334
 20
451.9295205575905
 30
0.0
 10
903.4497637715334
 20
451.9295205575905
 30
0.0
 10
909.1295204432906
 20
451.9295205575905
 30
0.0
 10
913.7368188904894
 20
447.3257533332641
 30
0.0
 10
913.7368188904894
 20
441.6459966615069
 30
0.0
  0
ENDBLK
  5
93
330
90
100
AcDbEntity
  8
0
100
AcDbBlockEnd
  0
BLOCK
  5
97
330
95
100
AcDbEntity
  8
0
100
AcDbBlockBegin
  2
block 19
 70
     0
 10
0.0
 20
0.0
 30
0.0
  3
block 19
  1

  0
SPLINE
  5
99
330
95
100
AcDbEntity
  8
0
 62
     7
370
    25
100
AcDbSpline
210
0.0
220
0.0
230
1.0
 70
    11
 71
     3
 72
    29
 73
    25
 74
     0
 42
0.0000000001
 43
0.0000000001
 12
1.0
 22
0.0
 32
0.0
 13
1.0
 23
0.0
 33
0.0
 40
0.0
 40
0.0
 40
0.0
 40
0.0
 40
1.0
 40
1.0
 40
1.0
 40
2.0
 40
2.0
 40
2.0
 40
3.0
 40
3.0
 40
3.0
 40
4.0
 40
4.0
 40
4.0
 40
5.0
 40
5.0
 40
5.0
 40
6.0
 40
6.0
 40
6.0
 40
7.0
 40
7.0
 40
7.0
 40
8.0
 40
8.0
 40
8.0
 40
8.0
 10
689.4089096041236
 20
446.4296839975506
 30
0.0
 10
689.4089096041236
 20
446.4296839975506
 30
0.0
 10
689.4089096041236
 20
431.9305259472474
 30
0.0
 10
689.4089096041236
 20
431.9305259472474
 30
0.0
 10
689.4089096041236
 20
431.3802150071724
 30
0.0
 10
688.9608749362668
 20
430.9321803393156
 30
0.0
 10
688.4070327733193
 20
430.9321803393156
 30
0.0
 10
688.4070327733193
 20
430.9321803393156
 30
0.0
 10
671.4101804962099
 20
430.9321803393156
 30
0.0
 10
671.4101804962099
 20
430.9321803393156
 30
0.0
 10
670.8563383332626
 20
430.9321803393156
 30
0.0
 10
670.4083036654058
 20
431.3802150071724
 30
0.0
 10
670.4083036654058
 20
431.9305259472474
 30
0.0
 10
670.4083036654058
 20
431.9305259472474
 30
0.0
 10
670.4083036654058
 20
446.4296839975506
 30
0.0
 10
670.4083036654058
 20
446.4296839975506
 30
0.0
 10
670.4083036654058
 20
449.4671385595082
 30
0.0
 10
672.8706856634881
 20
451.9295205575905
 30
0.0
 10
675.9080971617522
 20
451.9295205575905
 30
0.0
 10
675.9080971617522
 20
451.9295205575905
 30
0.0
 10
683.9091161077771
 20
451.9295205575905
 30
0.0
 10
683.9091161077771
 20
451.9295205575905
 30
0.0
 10
686.9465276060412
 20
451.9295205575905
 30
0.0
 10
689.4089096041236
 20
449.4671385595082
 30
0.0
 10
689.4089096041236
 20
446.4296839975506
 30
0.0
  0
ENDBLK
  5
98
330
95
100
AcDbEntity
  8
0
100
AcDbBlockEnd
  0
BLOCK
  5
9C
330
9A
100
AcDbEntity
  8
0
100
AcDbBlockBegin
  2
block 20
 70
     0
 10
0.0
 20
0.0
 30
0.0
  3
block 20
  1

  0
POLYLINE
  5
9E
330
9A
100
AcDbEntity
  8
0
 62
     7
370
    25
100
AcDb2dPolyline
 66
     1
 10
0.0
 20
0.0
 30
0.0
  0
VERTEX
  5
9F
330
9E
100
AcDbEntity
  8
0
 62
     7
370
    25
100
AcDbVertex
100
AcDb2dVertex
 10
939.8987878780896
 20
470.9124703819464
 30
0.0
  0
VERTEX
  5
A0
330
9E
100
AcDbEntity
  8
0
 62
     7
370
    25
100
AcDbVertex
100
AcDb2dVertex
 10
939.8987878780896
 20
490.9149962151619
 30
0.0
  0
VERTEX
  5
A1
330
9E
100
AcDbEntity
  8
0
 62
     7
370
    25
100
AcDbVertex
100
AcDb2dVertex
 10
916.8976939982061
 20
490.9149962151619
 30
0.0
  0
VERTEX
  5
A2
330
9E
100
AcDbEntity
  8
0
 62
     7
370
    25
100
AcDbVertex
100
AcDb2dVertex
 10
916.8976939982061
 20
493.9136073255233
 30
0.0
  0
VERTEX
  5
A3
330
9E
100
AcDbEntity
  8
0
 62
     7
370
    25
100
AcDbVertex
100
AcDb2dVertex
 10
893.8330381066199
 20
493.9136073255233
 30
0.0
  0
VERTEX
  5
A4
330
9E
100
AcDbEntity
  8
0
 62
     7
370
    25
100
AcDbVertex
100
AcDb2dVertex
 10
893.8330381066199
 20
490.9149962151619
 30
0.0
  0
VERTEX
  5
A5
330
9E
100
AcDbEntity
  8
0
 62
     7
370
    25
100
AcDbVertex
100
AcDb2dVertex
 10
873.830555337098
 20
490.9149962151619
 30
0.0
  0
VERTEX
  5
A6
330
9E
100
AcDbEntity
  8
0
 62
     7
370
    25
100
AcDbVertex
100
AcDb2dVertex
 10
873.830555337098
 20
493.9136073255233
 30
0.0
  0
VERTEX
  5
A7
330
9E
100
AcDbEntity
  8
0
 62
     7
370
    25
100
AcDbVertex
100
AcDb2dVertex
 10
850.7659855728988
 20
493.9136073255233
 30
0.0
  0
VERTEX
  5
A8
330
9E
100
AcDbEntity
  8
0
 62
     7
370
    25
100
AcDbVertex
100
AcDb2dVertex
 10
850.7659855728988
 20
490.9149962151619
 30
0.0
  0
VERTEX
  5
A9
330
9E
100
AcDbEntity
  8
0
 62
     7
370
    25
100
AcDbVertex
100
AcDb2dVertex
 10
830.7669478988621
 20
490.9149962151619
 30
0.0
  0
VERTEX
  5
AA
330
9E
100
AcDbEntity
  8
0
 62
     7
370
    25
100
AcDbVertex
100
AcDb2dVertex
 10
830.7669478988621
 20
493.9136073255233
 30
0.0
  0
VERTEX
  5
AB
330
9E
100
AcDbEntity
  8
0
 62
     7
370
    25
100
AcDbVertex
100
AcDb2dVertex
 10
807.6988469117906
 20
493.9136073255233
 30
0.0
  0
VERTEX
  5
AC
330
9E
100
AcDbEntity
  8
0
 62
     7
370
    25
100
AcDbVertex
100
AcDb2dVertex
 10
807.6988469117906
 20
490.9149962151619
 30
0.0
  0
VERTEX
  5
AD
330
9E
100
AcDbEntity
  8
0
 62
     7
370
    25
100
AcDbVertex
100
AcDb2dVertex
 10
787.6998953651411
 20
490.9149962151619
 30
0.0
  0
VERTEX
  5
AE
330
9E
100
AcDbEntity
  8
0
 62
     7
370
    25
100
AcDbVertex
100
AcDb2dVertex
 10
787.6998953651411
 20
493.9136073255233
 30
0.0
  0
VERTEX
  5
AF
330
9E
100
AcDbEntity
  8
0
 62
     7
370
    25
100
AcDbVertex
100
AcDb2dVertex
 10
766.5402911495108
 20
493.9136073255233
 30
0.0
  0
VERTEX
  5
B0
330
9E
100
AcDbEntity
  8
0
 62
     7
370
    25
100
AcDbVertex
100
AcDb2dVertex
 10
766.5402911495108
 20
496.9086872130125
 30
0.0
  0
VERTEX
  5
B1
330
9E
100
AcDbEntity
  8
0
 62
     7
370
    25
100
AcDbVertex
100
AcDb2dVertex
 10
763.5416800391494
 20
496.9086872130125
 30
0.0
  0
VERTEX
  5
B2
330
9E
100
AcDbEntity
  8
0
 62
     7
370
    25
100
AcDbVertex
100
AcDb2dVertex
 10
763.5416800391494
 20
506.906397374901
 30
0.0
  0
VERTEX
  5
B3
330
9E
100
AcDbEntity
  8
0
 62
     7
370
    25
100
AcDbVertex
100
AcDb2dVertex
 10
766.5402911495108
 20
506.906397374901
 30
0.0
  0
VERTEX
  5
B4
330
9E
100
AcDbEntity
  8
0
 62
     7
370
    25
100
AcDbVertex
100
AcDb2dVertex
 10
766.5402911495108
 20
508.9137253230754
 30
0.0
  0
VERTEX
  5
B5
330
9E
100
AcDbEntity
  8
0
 62
     7
370
    25
100
AcDbVertex
100
AcDb2dVertex
 10
743.5426423651127
 20
508.9137253230754
 30
0.0
  0
VERTEX
  5
B6
330
9E
100
AcDbEntity
  8
0
 62
     7
370
    25
100
AcDbVertex
100
AcDb2dVertex
 10
743.5426423651127
 20
505.9151142127139
 30
0.0
  0
VERTEX
  5
B7
330
9E
100
AcDbEntity
  8
0
 62
     7
370
    25
100
AcDbVertex
100
AcDb2dVertex
 10
718.8764477098208
 20
505.9151142127139
 30
0.0
  0
VERTEX
  5
B8
330
9E
100
AcDbEntity
  8
0
 62
     7
370
    25
100
AcDbVertex
100
AcDb2dVertex
 10
718.8764477098208
 20
508.9137253230754
 30
0.0
  0
VERTEX
  5
B9
330
9E
100
AcDbEntity
  8
0
 62
     7
370
    25
100
AcDbVertex
100
AcDb2dVertex
 10
654.2087326109704
 20
508.9137253230754
 30
0.0
  0
VERTEX
  5
BA
330
9E
100
AcDbEntity
  8
0
 62
     7
370
    25
100
AcDbVertex
100
AcDb2dVertex
 10
654.2087326109704
 20
505.9151142127139
 30
0.0
  0
VERTEX
  5
BB
330
9E
100
AcDbEntity
  8
0
 62
     7
370
    25
100
AcDbVertex
100
AcDb2dVertex
 10
629.5425379556787
 20
505.9151142127139
 30
0.0
  0
VERTEX
  5
BC
330
9E
100
AcDbEntity
  8
0
 62
     7
370
    25
100
AcDbVertex
100
AcDb2dVertex
 10
629.5425379556787
 20
508.9137253230754
 30
0.0
  0
VERTEX
  5
BD
330
9E
100
AcDbEntity
  8
0
 62
     7
370
    25
100
AcDbVertex
100
AcDb2dVertex
 10
606.5414440757952
 20
508.9137253230754
 30
0.0
  0
VERTEX
  5
BE
330
9E
100
AcDbEntity
  8
0
 62
     7
370
    25
100
AcDbVertex
100
AcDb2dVertex
 10
606.5414440757952
 20
506.906397374901
 30
0.0
  0
VERTEX
  5
BF
330
9E
100
AcDbEntity
  8
0
 62
     7
370
    25
100
AcDbVertex
100
AcDb2dVertex
 10
609.5435864090291
 20
506.906397374901
 30
0.0
  0
VERTEX
  5
C0
330
9E
100
AcDbEntity
  8
0
 62
     7
370
    25
100
AcDbVertex
100
AcDb2dVertex
 10
609.5435864090291
 20
496.9086872130125
 30
0.0
  0
VERTEX
  5
C1
330
9E
100
AcDbEntity
  8
0
 62
     7
370
    25
100
AcDbVertex
100
AcDb2dVertex
 10
606.5414440757952
 20
496.9086872130125
 30
0.0
  0
VERTEX
  5
C2
330
9E
100
AcDbEntity
  8
0
 62
     7
370
    25
100
AcDbVertex
100
AcDb2dVertex
 10
606.5414440757952
 20
493.9136073255233
 30
0.0
  0
VERTEX
  5
C3
330
9E
100
AcDbEntity
  8
0
 62
     7
370
    25
100
AcDbVertex
100
AcDb2dVertex
 10
592.3668140202026
 20
493.9136073255233
 30
0.0
  0
VERTEX
  5
C4
330
9E
100
AcDbEntity
  8
0
 62
     7
370
    25
100
AcDbVertex
100
AcDb2dVertex
 10
592.3668140202026
 20
490.9149962151619
 30
0.0
  0
VERTEX
  5
C5
330
9E
100
AcDbEntity
  8
0
 62
     7
370
    25
100
AcDbVertex
100
AcDb2dVertex
 10
572.3678194098594
 20
490.9149962151619
 30
0.0
  0
VERTEX
  5
C6
330
9E
100
AcDbEntity
  8
0
 62
     7
370
    25
100
AcDbVertex
100
AcDb2dVertex
 10
572.3678194098594
 20
493.9136073255233
 30
0.0
  0
VERTEX
  5
C7
330
9E
100
AcDbEntity
  8
0
 62
     7
370
    25
100
AcDbVertex
100
AcDb2dVertex
 10
549.2997184227879
 20
493.9136073255233
 30
0.0
  0
VERTEX
  5
C8
330
9E
100
AcDbEntity
  8
0
 62
     7
370
    25
100
AcDbVertex
100
AcDb2dVertex
 10
549.2997184227879
 20
490.9149962151619
 30
0.0
  0
VERTEX
  5
C9
330
9E
100
AcDbEntity
  8
0
 62
     7
370
    25
100
AcDbVertex
100
AcDb2dVertex
 10
529.3007238124449
 20
490.9149962151619
 30
0.0
  0
VERTEX
  5
CA
330
9E
100
AcDbEntity
  8
0
 62
     7
370
    25
100
AcDbVertex
100
AcDb2dVertex
 10
529.3007238124449
 20
493.9136073255233
 30
0.0
  0
VERTEX
  5
CB
330
9E
100
AcDbEntity
  8
0
 62
     7
370
    25
100
AcDbVertex
100
AcDb2dVertex
 10
506.2361109845521
 20
493.9136073255233
 30
0.0
  0
VERTEX
  5
CC
330
9E
100
AcDbEntity
  8
0
 62
     7
370
    25
100
AcDbVertex
100
AcDb2dVertex
 10
506.2361109845521
 20
490.9149962151619
 30
0.0
  0
VERTEX
  5
CD
330
9E
100
AcDbEntity
  8
0
 62
     7
370
    25
100
AcDbVertex
100
AcDb2dVertex
 10
486.2336282150301
 20
490.9149962151619
 30
0.0
  0
VERTEX
  5
CE
330
9E
100
AcDbEntity
  8
0
 62
     7
370
    25
100
AcDbVertex
100
AcDb2dVertex
 10
486.2336282150301
 20
493.9136073255233
 30
0.0
  0
VERTEX
  5
CF
330
9E
100
AcDbEntity
  8
0
 62
     7
370
    25
100
AcDbVertex
100
AcDb2dVertex
 10
443.1700207767943
 20
493.9136073255233
 30
0.0
  0
VERTEX
  5
D0
330
9E
100
AcDbEntity
  8
0
 62
     7
370
    25
100
AcDbVertex
100
AcDb2dVertex
 10
443.1700207767943
 20
490.9149962151619
 30
0.0
  0
VERTEX
  5
D1
330
9E
100
AcDbEntity
  8
0
 62
     7
370
    25
100
AcDbVertex
100
AcDb2dVertex
 10
440.1678784435605
 20
490.9149962151619
 30
0.0
  0
VERTEX
  5
D2
330
9E
100
AcDbEntity
  8
0
 62
     7
370
    25
100
AcDbVertex
100
AcDb2dVertex
 10
440.1678784435605
 20
470.9124703819464
 30
0.0
  0
VERTEX
  5
D3
330
9E
100
AcDbEntity
  8
0
 62
     7
370
    25
100
AcDbVertex
100
AcDb2dVertex
 10
443.1700207767943
 20
470.9124703819464
 30
0.0
  0
VERTEX
  5
D4
330
9E
100
AcDbEntity
  8
0
 62
     7
370
    25
100
AcDbVertex
100
AcDb2dVertex
 10
443.1700207767943
 20
442.4151142285889
 30
0.0
  0
VERTEX
  5
D5
330
9E
100
AcDbEntity
  8
0
 62
     7
370
    25
100
AcDbVertex
100
AcDb2dVertex
 10
440.1678784435605
 20
442.4151142285889
 30
0.0
  0
VERTEX
  5
D6
330
9E
100
AcDbEntity
  8
0
 62
     7
370
    25
100
AcDbVertex
100
AcDb2dVertex
 10
440.1678784435605
 20
422.4125883953735
 30
0.0
  0
VERTEX
  5
D7
330
9E
100
AcDbEntity
  8
0
 62
     7
370
    25
100
AcDbVertex
100
AcDb2dVertex
 10
443.1700207767943
 20
422.4125883953735
 30
0.0
  0
VERTEX
  5
D8
330
9E
100
AcDbEntity
  8
0
 62
     7
370
    25
100
AcDbVertex
100
AcDb2dVertex
 10
443.1700207767943
 20
393.9151891783225
 30
0.0
  0
VERTEX
  5
D9
330
9E
100
AcDbEntity
  8
0
 62
     7
370
    25
100
AcDbVertex
100
AcDb2dVertex
 10
440.1678784435605
 20
393.9151891783225
 30
0.0
  0
VERTEX
  5
DA
330
9E
100
AcDbEntity
  8
0
 62
     7
370
    25
100
AcDbVertex
100
AcDb2dVertex
 10
440.1678784435605
 20
373.9126633451069
 30
0.0
  0
VERTEX
  5
DB
330
9E
100
AcDbEntity
  8
0
 62
     7
370
    25
100
AcDbVertex
100
AcDb2dVertex
 10
443.1700207767943
 20
373.9126633451069
 30
0.0
  0
VERTEX
  5
DC
330
9E
100
AcDbEntity
  8
0
 62
     7
370
    25
100
AcDbVertex
100
AcDb2dVertex
 10
443.1700207767943
 20
370.9140522347454
 30
0.0
  0
VERTEX
  5
DD
330
9E
100
AcDbEntity
  8
0
 62
     7
370
    25
100
AcDbVertex
100
AcDb2dVertex
 10
463.1689723234439
 20
370.9140522347454
 30
0.0
  0
VERTEX
  5
DE
330
9E
100
AcDbEntity
  8
0
 62
     7
370
    25
100
AcDbVertex
100
AcDb2dVertex
 10
463.1689723234439
 20
373.9126633451069
 30
0.0
  0
VERTEX
  5
DF
330
9E
100
AcDbEntity
  8
0
 62
     7
370
    25
100
AcDbVertex
100
AcDb2dVertex
 10
486.5088052169145
 20
373.9126633451069
 30
0.0
  0
VERTEX
  5
E0
330
9E
100
AcDbEntity
  8
0
 62
     7
370
    25
100
AcDbVertex
100
AcDb2dVertex
 10
486.5088052169145
 20
370.9140522347454
 30
0.0
  0
VERTEX
  5
E1
330
9E
100
AcDbEntity
  8
0
 62
     7
370
    25
100
AcDbVertex
100
AcDb2dVertex
 10
506.507756763564
 20
370.9140522347454
 30
0.0
  0
VERTEX
  5
E2
330
9E
100
AcDbEntity
  8
0
 62
     7
370
    25
100
AcDbVertex
100
AcDb2dVertex
 10
506.507756763564
 20
373.9126633451069
 30
0.0
  0
VERTEX
  5
E3
330
9E
100
AcDbEntity
  8
0
 62
     7
370
    25
100
AcDbVertex
100
AcDb2dVertex
 10
529.8475035296475
 20
373.9126633451069
 30
0.0
  0
VERTEX
  5
E4
330
9E
100
AcDbEntity
  8
0
 62
     7
370
    25
100
AcDbVertex
100
AcDb2dVertex
 10
529.8475035296475
 20
370.9140522347454
 30
0.0
  0
VERTEX
  5
E5
330
9E
100
AcDbEntity
  8
0
 62
     7
370
    25
100
AcDbVertex
100
AcDb2dVertex
 10
549.8464981399907
 20
370.9140522347454
 30
0.0
  0
VERTEX
  5
E6
330
9E
100
AcDbEntity
  8
0
 62
     7
370
    25
100
AcDbVertex
100
AcDb2dVertex
 10
549.8464981399907
 20
373.9126633451069
 30
0.0
  0
VERTEX
  5
E7
330
9E
100
AcDbEntity
  8
0
 62
     7
370
    25
100
AcDbVertex
100
AcDb2dVertex
 10
573.1862879697677
 20
373.9126633451069
 30
0.0
  0
VERTEX
  5
E8
330
9E
100
AcDbEntity
  8
0
 62
     7
370
    25
100
AcDbVertex
100
AcDb2dVertex
 10
573.1862879697677
 20
370.9140522347454
 30
0.0
  0
VERTEX
  5
E9
330
9E
100
AcDbEntity
  8
0
 62
     7
370
    25
100
AcDbVertex
100
AcDb2dVertex
 10
593.1852395164173
 20
370.9140522347454
 30
0.0
  0
VERTEX
  5
EA
330
9E
100
AcDbEntity
  8
0
 62
     7
370
    25
100
AcDbVertex
100
AcDb2dVertex
 10
593.1852395164173
 20
373.9126633451069
 30
0.0
  0
VERTEX
  5
EB
330
9E
100
AcDbEntity
  8
0
 62
     7
370
    25
100
AcDbVertex
100
AcDb2dVertex
 10
616.5250293461943
 20
373.9126633451069
 30
0.0
  0
VERTEX
  5
EC
330
9E
100
AcDbEntity
  8
0
 62
     7
370
    25
100
AcDbVertex
100
AcDb2dVertex
 10
616.5250293461943
 20
370.9140522347454
 30
0.0
  0
VERTEX
  5
ED
330
9E
100
AcDbEntity
  8
0
 62
     7
370
    25
100
AcDbVertex
100
AcDb2dVertex
 10
636.5240239565375
 20
370.9140522347454
 30
0.0
  0
VERTEX
  5
EE
330
9E
100
AcDbEntity
  8
0
 62
     7
370
    25
100
AcDbVertex
100
AcDb2dVertex
 10
636.5240239565375
 20
373.9126633451069
 30
0.0
  0
VERTEX
  5
EF
330
9E
100
AcDbEntity
  8
0
 62
     7
370
    25
100
AcDbVertex
100
AcDb2dVertex
 10
659.8637707226209
 20
373.9126633451069
 30
0.0
  0
VERTEX
  5
F0
330
9E
100
AcDbEntity
  8
0
 62
     7
370
    25
100
AcDbVertex
100
AcDb2dVertex
 10
659.8637707226209
 20
370.9140522347454
 30
0.0
  0
VERTEX
  5
F1
330
9E
100
AcDbEntity
  8
0
 62
     7
370
    25
100
AcDbVertex
100
AcDb2dVertex
 10
679.8627222692704
 20
370.9140522347454
 30
0.0
  0
VERTEX
  5
F2
330
9E
100
AcDbEntity
  8
0
 62
     7
370
    25
100
AcDbVertex
100
AcDb2dVertex
 10
679.8627222692704
 20
373.9126633451069
 30
0.0
  0
VERTEX
  5
F3
330
9E
100
AcDbEntity
  8
0
 62
     7
370
    25
100
AcDbVertex
100
AcDb2dVertex
 10
703.2025551627411
 20
373.9126633451069
 30
0.0
  0
VERTEX
  5
F4
330
9E
100
AcDbEntity
  8
0
 62
     7
370
    25
100
AcDbVertex
100
AcDb2dVertex
 10
703.2025551627411
 20
370.9140522347454
 30
0.0
  0
VERTEX
  5
F5
330
9E
100
AcDbEntity
  8
0
 62
     7
370
    25
100
AcDbVertex
100
AcDb2dVertex
 10
723.2015067093906
 20
370.9140522347454
 30
0.0
  0
VERTEX
  5
F6
330
9E
100
AcDbEntity
  8
0
 62
     7
370
    25
100
AcDbVertex
100
AcDb2dVertex
 10
723.2015067093906
 20
373.9126633451069
 30
0.0
  0
VERTEX
  5
F7
330
9E
100
AcDbEntity
  8
0
 62
     7
370
    25
100
AcDbVertex
100
AcDb2dVertex
 10
746.5412534754742
 20
373.9126633451069
 30
0.0
  0
VERTEX
  5
F8
330
9E
100
AcDbEntity
  8
0
 62
     7
370
    25
100
AcDbVertex
100
AcDb2dVertex
 10
746.5412534754742
 20
370.9140522347454
 30
0.0
  0
VERTEX
  5
F9
330
9E
100
AcDbEntity
  8
0
 62
     7
370
    25
100
AcDbVertex
100
AcDb2dVertex
 10
766.5402911495108
 20
370.9140522347454
 30
0.0
  0
VERTEX
  5
FA
330
9E
100
AcDbEntity
  8
0
 62
     7
370
    25
100
AcDbVertex
100
AcDb2dVertex
 10
766.5402911495108
 20
373.9126633451069
 30
0.0
  0
VERTEX
  5
FB
330
9E
100
AcDbEntity
  8
0
 62
     7
370
    25
100
AcDbVertex
100
AcDb2dVertex
 10
789.8800379155942
 20
373.9126633451069
 30
0.0
  0
VERTEX
  5
FC
330
9E
100
AcDbEntity
  8
0
 62
     7
370
    25
100
AcDbVertex
100
AcDb2dVertex
 10
789.8800379155942
 20
370.9140522347454
 30
0.0
  0
VERTEX
  5
FD
330
9E
100
AcDbEntity
  8
0
 62
     7
370
    25
100
AcDbVertex
100
AcDb2dVertex
 10
809.8825206851162
 20
370.9140522347454
 30
0.0
  0
VERTEX
  5
FE
330
9E
100
AcDbEntity
  8
0
 62
     7
370
    25
100
AcDbVertex
100
AcDb2dVertex
 10
809.8825206851162
 20
373.9126633451069
 30
0.0
  0
VERTEX
  5
FF
330
9E
100
AcDbEntity
  8
0
 62
     7
370
    25
100
AcDbVertex
100
AcDb2dVertex
 10
833.2187362283273
 20
373.9126633451069
 30
0.0
  0
VERTEX
  5
100
330
9E
100
AcDbEntity
  8
0
 62
     7
370
    25
100
AcDbVertex
100
AcDb2dVertex
 10
833.2187362283273
 20
370.9140522347454
 30
0.0
  0
VERTEX
  5
101
330
9E
100
AcDbEntity
  8
0
 62
     7
370
    25
100
AcDbVertex
100
AcDb2dVertex
 10
853.2213051252364
 20
370.9140522347454
 30
0.0
  0
VERTEX
  5
102
330
9E
100
AcDbEntity
  8
0
 62
     7
370
    25
100
AcDbVertex
100
AcDb2dVertex
 10
853.2213051252364
 20
373.9126633451069
 30
0.0
  0
VERTEX
  5
103
330
9E
100
AcDbEntity
  8
0
 62
     7
370
    25
100
AcDbVertex
100
AcDb2dVertex
 10
876.5575206684474
 20
373.9126633451069
 30
0.0
  0
VERTEX
  5
104
330
9E
100
AcDbEntity
  8
0
 62
     7
370
    25
100
AcDbVertex
100
AcDb2dVertex
 10
876.5575206684474
 20
370.9140522347454
 30
0.0
  0
VERTEX
  5
105
330
9E
100
AcDbEntity
  8
0
 62
     7
370
    25
100
AcDbVertex
100
AcDb2dVertex
 10
896.5600034379694
 20
370.9140522347454
 30
0.0
  0
VERTEX
  5
106
330
9E
100
AcDbEntity
  8
0
 62
     7
370
    25
100
AcDbVertex
100
AcDb2dVertex
 10
896.5600034379694
 20
373.9126633451069
 30
0.0
  0
VERTEX
  5
107
330
9E
100
AcDbEntity
  8
0
 62
     7
370
    25
100
AcDbVertex
100
AcDb2dVertex
 10
919.89983633144
 20
373.9126633451069
 30
0.0
  0
VERTEX
  5
108
330
9E
100
AcDbEntity
  8
0
 62
     7
370
    25
100
AcDbVertex
100
AcDb2dVertex
 10
919.89983633144
 20
370.9140522347454
 30
0.0
  0
VERTEX
  5
109
330
9E
100
AcDbEntity
  8
0
 62
     7
370
    25
100
AcDbVertex
100
AcDb2dVertex
 10
936.8966455448557
 20
370.9140522347454
 30
0.0
  0
VERTEX
  5
10A
330
9E
100
AcDbEntity
  8
0
 62
     7
370
    25
100
AcDbVertex
100
AcDb2dVertex
 10
936.8966455448557
 20
373.9126633451069
 30
0.0
  0
VERTEX
  5
10B
330
9E
100
AcDbEntity
  8
0
 62
     7
370
    25
100
AcDbVertex
100
AcDb2dVertex
 10
939.8987878780896
 20
373.9126633451069
 30
0.0
  0
VERTEX
  5
10C
330
9E
100
AcDbEntity
  8
0
 62
     7
370
    25
100
AcDbVertex
100
AcDb2dVertex
 10
939.8987878780896
 20
393.9151891783225
 30
0.0
  0
VERTEX
  5
10D
330
9E
100
AcDbEntity
  8
0
 62
     7
370
    25
100
AcDbVertex
100
AcDb2dVertex
 10
936.8966455448557
 20
393.9151891783225
 30
0.0
  0
VERTEX
  5
10E
330
9E
100
AcDbEntity
  8
0
 62
     7
370
    25
100
AcDbVertex
100
AcDb2dVertex
 10
936.8966455448557
 20
422.4125883953735
 30
0.0
  0
VERTEX
  5
10F
330
9E
100
AcDbEntity
  8
0
 62
     7
370
    25
100
AcDbVertex
100
AcDb2dVertex
 10
939.8987878780896
 20
422.4125883953735
 30
0.0
  0
VERTEX
  5
110
330
9E
100
AcDbEntity
  8
0
 62
     7
370
    25
100
AcDbVertex
100
AcDb2dVertex
 10
939.8987878780896
 20
442.4151142285889
 30
0.0
  0
VERTEX
  5
111
330
9E
100
AcDbEntity
  8
0
 62
     7
370
    25
100
AcDbVertex
100
AcDb2dVertex
 10
936.8966455448557
 20
442.4151142285889
 30
0.0
  0
VERTEX
  5
112
330
9E
100
AcDbEntity
  8
0
 62
     7
370
    25
100
AcDbVertex
100
AcDb2dVertex
 10
936.8966455448557
 20
470.9124703819464
 30
0.0
  0
VERTEX
  5
113
330
9E
100
AcDbEntity
  8
0
 62
     7
370
    25
100
AcDbVertex
100
AcDb2dVertex
 10
939.8987878780896
 20
470.9124703819464
 30
0.0
  0
SEQEND
  5
114
330
9E
100
AcDbEntity
  8
0
 62
     7
370
    25
  0
POLYLINE
  5
115
330
9A
100
AcDbEntity
  8
0
 62
     7
370
    25
100
AcDb2dPolyline
 66
     1
 10
0.0
 20
0.0
 30
0.0
  0
VERTEX
  5
116
330
115
100
AcDbEntity
  8
0
 62
     7
370
    25
100
AcDbVertex
100
AcDb2dVertex
 10
603.1935864106166
 20
448.1159721101932
 30
0.0
  0
VERTEX
  5
117
330
115
100
AcDbEntity
  8
0
 62
     7
370
    25
100
AcDbVertex
100
AcDb2dVertex
 10
606.2238923994423
 20
451.7531316687458
 30
0.0
  0
VERTEX
  5
118
330
115
100
AcDbEntity
  8
0
 62
     7
370
    25
100
AcDbVertex
100
AcDb2dVertex
 10
610.2596925693318
 20
451.7531316687458
 30
0.0
  0
VERTEX
  5
119
330
115
100
AcDbEntity
  8
0
 62
     7
370
    25
100
AcDbVertex
100
AcDb2dVertex
 10
613.2935728447235
 20
448.1159721101932
 30
0.0
  0
VERTEX
  5
11A
330
115
100
AcDbEntity
  8
0
 62
     7
370
    25
100
AcDbVertex
100
AcDb2dVertex
 10
613.2935728447235
 20
434.2517882215152
 30
0.0
  0
VERTEX
  5
11B
330
115
100
AcDbEntity
  8
0
 62
     7
370
    25
100
AcDbVertex
100
AcDb2dVertex
 10
603.1935864106166
 20
434.2517882215152
 30
0.0
  0
VERTEX
  5
11C
330
115
100
AcDbEntity
  8
0
 62
     7
370
    25
100
AcDbVertex
100
AcDb2dVertex
 10
603.1935864106166
 20
448.1159721101932
 30
0.0
  0
SEQEND
  5
11D
330
115
100
AcDbEntity
  8
0
 62
     7
370
    25
  0
POLYLINE
  5
11E
330
9A
100
AcDbEntity
  8
0
 62
     7
370
    25
100
AcDb2dPolyline
 66
     1
 10
0.0
 20
0.0
 30
0.0
  0
VERTEX
  5
11F
330
11E
100
AcDbEntity
  8
0
 62
     7
370
    25
100
AcDbVertex
100
AcDb2dVertex
 10
573.1862879697677
 20
424.3317218991254
 30
0.0
  0
VERTEX
  5
120
330
11E
100
AcDbEntity
  8
0
 62
     7
370
    25
100
AcDbVertex
100
AcDb2dVertex
 10
549.8464981399907
 20
424.3317218991254
 30
0.0
  0
VERTEX
  5
121
330
11E
100
AcDbEntity
  8
0
 62
     7
370
    25
100
AcDbVertex
100
AcDb2dVertex
 10
549.8464981399907
 20
427.3303330094869
 30
0.0
  0
VERTEX
  5
122
330
11E
100
AcDbEntity
  8
0
 62
     7
370
    25
100
AcDbVertex
100
AcDb2dVertex
 10
573.1862879697677
 20
427.3303330094869
 30
0.0
  0
VERTEX
  5
123
330
11E
100
AcDbEntity
  8
0
 62
     7
370
    25
100
AcDbVertex
100
AcDb2dVertex
 10
573.1862879697677
 20
424.3317218991254
 30
0.0
  0
SEQEND
  5
124
330
11E
100
AcDbEntity
  8
0
 62
     7
370
    25
  0
SPLINE
  5
125
330
9A
100
AcDbEntity
  8
0
 62
     7
370
    25
100
AcDbSpline
210
0.0
220
0.0
230
1.0
 70
    11
 71
     3
 72
    23
 73
    19
 74
     0
 42
0.0000000001
 43
0.0000000001
 12
1.0
 22
0.0
 32
0.0
 13
1.0
 23
0.0
 33
0.0
 40
0.0
 40
0.0
 40
0.0
 40
0.0
 40
1.0
 40
1.0
 40
1.0
 40
2.0
 40
2.0
 40
2.0
 40
3.0
 40
3.0
 40
3.0
 40
4.0
 40
4.0
 40
4.0
 40
5.0
 40
5.0
 40
5.0
 40
6.0
 40
6.0
 40
6.0
 40
6.0
 10
568.5613334082069
 20
431.3625588928104
 30
0.0
 10
568.5613334082069
 20
431.3625588928104
 30
0.0
 10
477.6752358831854
 20
431.3625588928104
 30
0.0
 10
477.6752358831854
 20
431.3625588928104
 30
0.0
 10
471.9954792114282
 20
431.3625588928104
 30
0.0
 10
467.388223827923
 20
435.9663261171369
 30
0.0
 10
467.388223827923
 20
441.6459966615069
 30
0.0
 10
467.388223827923
 20
447.3257533332641
 30
0.0
 10
471.9954792114282
 20
451.9295205575905
 30
0.0
 10
477.6752358831854
 20
451.9295205575905
 30
0.0
 10
477.6752358831854
 20
451.9295205575905
 30
0.0
 10
568.5613334082069
 20
451.9295205575905
 30
0.0
 10
568.5613334082069
 20
451.9295205575905
 30
0.0
 10
574.241090079964
 20
451.9295205575905
 30
0.0
 10
578.8448573042906
 20
447.3257533332641
 30
0.0
 10
578.8448573042906
 20
441.6459966615069
 30
0.0
 10
578.8448573042906
 20
435.9663261171369
 30
0.0
 10
574.241090079964
 20
431.3625588928104
 30
0.0
 10
568.5613334082069
 20
431.3625588928104
 30
0.0
  0
POLYLINE
  5
126
330
9A
100
AcDbEntity
  8
0
 62
     7
370
    25
100
AcDb2dPolyline
 66
     1
 10
0.0
 20
0.0
 30
0.0
  0
VERTEX
  5
127
330
126
100
AcDbEntity
  8
0
 62
     7
370
    25
100
AcDbVertex
100
AcDb2dVertex
 10
588.1934684130645
 20
434.2517882215152
 30
0.0
  0
VERTEX
  5
128
330
126
100
AcDbEntity
  8
0
 62
     7
370
    25
100
AcDbVertex
100
AcDb2dVertex
 10
588.1934684130645
 20
448.1159721101932
 30
0.0
  0
VERTEX
  5
129
330
126
100
AcDbEntity
  8
0
 62
     7
370
    25
100
AcDbVertex
100
AcDb2dVertex
 10
591.2237744018903
 20
451.7531316687458
 30
0.0
  0
VERTEX
  5
12A
330
126
100
AcDbEntity
  8
0
 62
     7
370
    25
100
AcDbVertex
100
AcDb2dVertex
 10
595.2595745717798
 20
451.7531316687458
 30
0.0
  0
VERTEX
  5
12B
330
126
100
AcDbEntity
  8
0
 62
     7
370
    25
100
AcDbVertex
100
AcDb2dVertex
 10
598.2934548471715
 20
448.1159721101932
 30
0.0
  0
VERTEX
  5
12C
330
126
100
AcDbEntity
  8
0
 62
     7
370
    25
100
AcDbVertex
100
AcDb2dVertex
 10
598.2934548471715
 20
434.2517882215152
 30
0.0
  0
VERTEX
  5
12D
330
126
100
AcDbEntity
  8
0
 62
     7
370
    25
100
AcDbVertex
100
AcDb2dVertex
 10
588.1934684130645
 20
434.2517882215152
 30
0.0
  0
SEQEND
  5
12E
330
126
100
AcDbEntity
  8
0
 62
     7
370
    25
  0
POLYLINE
  5
12F
330
9A
100
AcDbEntity
  8
0
 62
     7
370
    25
100
AcDb2dPolyline
 66
     1
 10
0.0
 20
0.0
 30
0.0
  0
VERTEX
  5
130
330
12F
100
AcDbEntity
  8
0
 62
     7
370
    25
100
AcDbVertex
100
AcDb2dVertex
 10
636.5240239565375
 20
424.3317218991254
 30
0.0
  0
VERTEX
  5
131
330
12F
100
AcDbEntity
  8
0
 62
     7
370
    25
100
AcDbVertex
100
AcDb2dVertex
 10
593.1852395164173
 20
424.3317218991254
 30
0.0
  0
VERTEX
  5
132
330
12F
100
AcDbEntity
  8
0
 62
     7
370
    25
100
AcDbVertex
100
AcDb2dVertex
 10
593.1852395164173
 20
427.3303330094869
 30
0.0
  0
VERTEX
  5
133
330
12F
100
AcDbEntity
  8
0
 62
     7
370
    25
100
AcDbVertex
100
AcDb2dVertex
 10
636.5240239565375
 20
427.3303330094869
 30
0.0
  0
VERTEX
  5
134
330
12F
100
AcDbEntity
  8
0
 62
     7
370
    25
100
AcDbVertex
100
AcDb2dVertex
 10
636.5240239565375
 20
424.3317218991254
 30
0.0
  0
SEQEND
  5
135
330
12F
100
AcDbEntity
  8
0
 62
     7
370
    25
  0
SPLINE
  5
136
330
9A
100
AcDbEntity
  8
0
 62
     7
370
    25
100
AcDbSpline
210
0.0
220
0.0
230
1.0
 70
    11
 71
     3
 72
    29
 73
    25
 74
     0
 42
0.0000000001
 43
0.0000000001
 12
1.0
 22
0.0
 32
0.0
 13
1.0
 23
0.0
 33
0.0
 40
0.0
 40
0.0
 40
0.0
 40
0.0
 40
1.0
 40
1.0
 40
1.0
 40
2.0
 40
2.0
 40
2.0
 40
3.0
 40
3.0
 40
3.0
 40
4.0
 40
4.0
 40
4.0
 40
5.0
 40
5.0
 40
5.0
 40
6.0
 40
6.0
 40
6.0
 40
7.0
 40
7.0
 40
7.0
 40
8.0
 40
8.0
 40
8.0
 40
8.0
 10
659.1229460022115
 20
431.771750109071
 30
0.0
 10
659.1229460022115
 20
431.771750109071
 30
0.0
 10
640.0023646132199
 20
431.771750109071
 30
0.0
 10
640.0023646132199
 20
431.771750109071
 30
0.0
 10
639.4520536731449
 20
431.771750109071
 30
0.0
 10
639.0040190052881
 20
432.2197847769277
 30
0.0
 10
639.0040190052881
 20
432.7701387806964
 30
0.0
 10
639.0040190052881
 20
432.7701387806964
 30
0.0
 10
639.0040190052881
 20
450.5219406697046
 30
0.0
 10
639.0040190052881
 20
450.5219406697046
 30
0.0
 10
639.0040190052881
 20
451.0722516097797
 30
0.0
 10
639.4520536731449
 20
451.5202862776364
 30
0.0
 10
640.0023646132199
 20
451.5202862776364
 30
0.0
 10
640.0023646132199
 20
451.5202862776364
 30
0.0
 10
659.1229460022115
 20
451.5202862776364
 30
0.0
 10
659.1229460022115
 20
451.5202862776364
 30
0.0
 10
659.676788165159
 20
451.5202862776364
 30
0.0
 10
660.1248228330157
 20
451.0722516097797
 30
0.0
 10
660.1248228330157
 20
450.5219406697046
 30
0.0
 10
660.1248228330157
 20
450.5219406697046
 30
0.0
 10
660.1248228330157
 20
432.7701387806964
 30
0.0
 10
660.1248228330157
 20
432.7701387806964
 30
0.0
 10
660.1248228330157
 20
432.2197847769277
 30
0.0
 10
659.676788165159
 20
431.771750109071
 30
0.0
 10
659.1229460022115
 20
431.771750109071
 30
0.0
  0
POLYLINE
  5
137
330
9A
100
AcDbEntity
  8
0
 62
     7
370
    25
100
AcDb2dPolyline
 66
     1
 10
0.0
 20
0.0
 30
0.0
  0
VERTEX
  5
138
330
137
100
AcDbEntity
  8
0
 62
     7
370
    25
100
AcDbVertex
100
AcDb2dVertex
 10
679.8627222692704
 20
424.3317218991254
 30
0.0
  0
VERTEX
  5
139
330
137
100
AcDbEntity
  8
0
 62
     7
370
    25
100
AcDbVertex
100
AcDb2dVertex
 10
659.8637707226209
 20
424.3317218991254
 30
0.0
  0
VERTEX
  5
13A
330
137
100
AcDbEntity
  8
0
 62
     7
370
    25
100
AcDbVertex
100
AcDb2dVertex
 10
659.8637707226209
 20
427.3303330094869
 30
0.0
  0
VERTEX
  5
13B
330
137
100
AcDbEntity
  8
0
 62
     7
370
    25
100
AcDbVertex
100
AcDb2dVertex
 10
679.8627222692704
 20
427.3303330094869
 30
0.0
  0
VERTEX
  5
13C
330
137
100
AcDbEntity
  8
0
 62
     7
370
    25
100
AcDbVertex
100
AcDb2dVertex
 10
679.8627222692704
 20
424.3317218991254
 30
0.0
  0
SEQEND
  5
13D
330
137
100
AcDbEntity
  8
0
 62
     7
370
    25
  0
SPLINE
  5
13E
330
9A
100
AcDbEntity
  8
0
 62
     7
370
    25
100
AcDbSpline
210
0.0
220
0.0
230
1.0
 70
    11
 71
     3
 72
    29
 73
    25
 74
     0
 42
0.0000000001
 43
0.0000000001
 12
1.0
 22
0.0
 32
0.0
 13
1.0
 23
0.0
 33
0.0
 40
0.0
 40
0.0
 40
0.0
 40
0.0
 40
1.0
 40
1.0
 40
1.0
 40
2.0
 40
2.0
 40
2.0
 40
3.0
 40
3.0
 40
3.0
 40
4.0
 40
4.0
 40
4.0
 40
5.0
 40
5.0
 40
5.0
 40
6.0
 40
6.0
 40
6.0
 40
7.0
 40
7.0
 40
7.0
 40
8.0
 40
8.0
 40
8.0
 40
8.0
 10
689.4089096041236
 20
431.9305259472474
 30
0.0
 10
689.4089096041236
 20
431.3802150071724
 30
0.0
 10
688.9608749362668
 20
430.9321803393156
 30
0.0
 10
688.4070327733193
 20
430.9321803393156
 30
0.0
 10
688.4070327733193
 20
430.9321803393156
 30
0.0
 10
671.4101804962099
 20
430.9321803393156
 30
0.0
 10
671.4101804962099
 20
430.9321803393156
 30
0.0
 10
670.8563383332626
 20
430.9321803393156
 30
0.0
 10
670.4083036654058
 20
431.3802150071724
 30
0.0
 10
670.4083036654058
 20
431.9305259472474
 30
0.0
 10
670.4083036654058
 20
431.9305259472474
 30
0.0
 10
670.4083036654058
 20
446.4296839975506
 30
0.0
 10
670.4083036654058
 20
446.4296839975506
 30
0.0
 10
670.4083036654058
 20
449.4671385595082
 30
0.0
 10
672.8706856634881
 20
451.9295205575905
 30
0.0
 10
675.9080971617522
 20
451.9295205575905
 30
0.0
 10
675.9080971617522
 20
451.9295205575905
 30
0.0
 10
683.9091161077771
 20
451.9295205575905
 30
0.0
 10
683.9091161077771
 20
451.9295205575905
 30
0.0
 10
686.9465276060412
 20
451.9295205575905
 30
0.0
 10
689.4089096041236
 20
449.4671385595082
 30
0.0
 10
689.4089096041236
 20
446.4296839975506
 30
0.0
 10
689.4089096041236
 20
446.4296839975506
 30
0.0
 10
689.4089096041236
 20
431.9305259472474
 30
0.0
 10
689.4089096041236
 20
431.9305259472474
 30
0.0
  0
POLYLINE
  5
13F
330
9A
100
AcDbEntity
  8
0
 62
     7
370
    25
100
AcDb2dPolyline
 66
     1
 10
0.0
 20
0.0
 30
0.0
  0
VERTEX
  5
140
330
13F
100
AcDbEntity
  8
0
 62
     7
370
    25
100
AcDbVertex
100
AcDb2dVertex
 10
723.2015067093906
 20
396.3317083427574
 30
0.0
  0
VERTEX
  5
141
330
13F
100
AcDbEntity
  8
0
 62
     7
370
    25
100
AcDbVertex
100
AcDb2dVertex
 10
703.2025551627411
 20
396.3317083427574
 30
0.0
  0
VERTEX
  5
142
330
13F
100
AcDbEntity
  8
0
 62
     7
370
    25
100
AcDbVertex
100
AcDb2dVertex
 10
703.2025551627411
 20
399.3303194531188
 30
0.0
  0
VERTEX
  5
143
330
13F
100
AcDbEntity
  8
0
 62
     7
370
    25
100
AcDbVertex
100
AcDb2dVertex
 10
700.2039440523796
 20
399.3303194531188
 30
0.0
  0
VERTEX
  5
144
330
13F
100
AcDbEntity
  8
0
 62
     7
370
    25
100
AcDbVertex
100
AcDb2dVertex
 10
700.2039440523796
 20
419.3293140634619
 30
0.0
  0
VERTEX
  5
145
330
13F
100
AcDbEntity
  8
0
 62
     7
370
    25
100
AcDbVertex
100
AcDb2dVertex
 10
703.2025551627411
 20
419.3293140634619
 30
0.0
  0
VERTEX
  5
146
330
13F
100
AcDbEntity
  8
0
 62
     7
370
    25
100
AcDbVertex
100
AcDb2dVertex
 10
703.2025551627411
 20
399.3303194531188
 30
0.0
  0
VERTEX
  5
147
330
13F
100
AcDbEntity
  8
0
 62
     7
370
    25
100
AcDbVertex
100
AcDb2dVertex
 10
723.2015067093906
 20
399.3303194531188
 30
0.0
  0
VERTEX
  5
148
330
13F
100
AcDbEntity
  8
0
 62
     7
370
    25
100
AcDbVertex
100
AcDb2dVertex
 10
723.2015067093906
 20
396.3317083427574
 30
0.0
  0
SEQEND
  5
149
330
13F
100
AcDbEntity
  8
0
 62
     7
370
    25
  0
POLYLINE
  5
14A
330
9A
100
AcDbEntity
  8
0
 62
     7
370
    25
100
AcDb2dPolyline
 66
     1
 10
0.0
 20
0.0
 30
0.0
  0
VERTEX
  5
14B
330
14A
100
AcDbEntity
  8
0
 62
     7
370
    25
100
AcDbVertex
100
AcDb2dVertex
 10
739.0835691511667
 20
396.3317083427574
 30
0.0
  0
VERTEX
  5
14C
330
14A
100
AcDbEntity
  8
0
 62
     7
370
    25
100
AcDbVertex
100
AcDb2dVertex
 10
739.0835691511667
 20
399.3303194531188
 30
0.0
  0
VERTEX
  5
14D
330
14A
100
AcDbEntity
  8
0
 62
     7
370
    25
100
AcDbVertex
100
AcDb2dVertex
 10
759.0825206978162
 20
399.3303194531188
 30
0.0
  0
VERTEX
  5
14E
330
14A
100
AcDbEntity
  8
0
 62
     7
370
    25
100
AcDbVertex
100
AcDb2dVertex
 10
759.0825206978162
 20
396.3317083427574
 30
0.0
  0
VERTEX
  5
14F
330
14A
100
AcDbEntity
  8
0
 62
     7
370
    25
100
AcDbVertex
100
AcDb2dVertex
 10
739.0835691511667
 20
396.3317083427574
 30
0.0
  0
SEQEND
  5
150
330
14A
100
AcDbEntity
  8
0
 62
     7
370
    25
  0
SPLINE
  5
151
330
9A
100
AcDbEntity
  8
0
 62
     7
370
    25
100
AcDbSpline
210
0.0
220
0.0
230
1.0
 70
    11
 71
     3
 72
   290
 73
   286
 74
     0
 42
0.0000000001
 43
0.0000000001
 12
1.0
 22
0.0
 32
0.0
 13
1.0
 23
0.0
 33
0.0
 40
0.0
 40
0.0
 40
0.0
 40
0.0
 40
1.0
 40
1.0
 40
1.0
 40
2.0
 40
2.0
 40
2.0
 40
3.0
 40
3.0
 40
3.0
 40
4.0
 40
4.0
 40
4.0
 40
5.0
 40
5.0
 40
5.0
 40
6.0
 40
6.0
 40
6.0
 40
7.0
 40
7.0
 40
7.0
 40
8.0
 40
8.0
 40
8.0
 40
9.0
 40
9.0
 40
9.0
 40
10.0
 40
10.0
 40
10.0
 40
11.0
 40
11.0
 40
11.0
 40
12.0
 40
12.0
 40
12.0
 40
13.0
 40
13.0
 40
13.0
 40
14.0
 40
14.0
 40
14.0
 40
15.0
 40
15.0
 40
15.0
 40
16.0
 40
16.0
 40
16.0
 40
17.0
 40
17.0
 40
17.0
 40
18.0
 40
18.0
 40
18.0
 40
19.0
 40
19.0
 40
19.0
 40
20.0
 40
20.0
 40
20.0
 40
21.0
 40
21.0
 40
21.0
 40
22.0
 40
22.0
 40
22.0
 40
23.0
 40
23.0
 40
23.0
 40
24.0
 40
24.0
 40
24.0
 40
25.0
 40
25.0
 40
25.0
 40
26.0
 40
26.0
 40
26.0
 40
27.0
 40
27.0
 40
27.0
 40
28.0
 40
28.0
 40
28.0
 40
29.0
 40
29.0
 40
29.0
 40
30.0
 40
30.0
 40
30.0
 40
31.0
 40
31.0
 40
31.0
 40
32.0
 40
32.0
 40
32.0
 40
33.0
 40
33.0
 40
33.0
 40
34.0
 40
34.0
 40
34.0
 40
35.0
 40
35.0
 40
35.0
 40
36.0
 40
36.0
 40
36.0
 40
37.0
 40
37.0
 40
37.0
 40
38.0
 40
38.0
 40
38.0
 40
39.0
 40
39.0
 40
39.0
 40
40.0
 40
40.0
 40
40.0
 40
41.0
 40
41.0
 40
41.0
 40
42.0
 40
42.0
 40
42.0
 40
43.0
 40
43.0
 40
43.0
 40
44.0
 40
44.0
 40
44.0
 40
45.0
 40
45.0
 40
45.0
 40
46.0
 40
46.0
 40
46.0
 40
47.0
 40
47.0
 40
47.0
 40
48.0
 40
48.0
 40
48.0
 40
49.0
 40
49.0
 40
49.0
 40
50.0
 40
50.0
 40
50.0
 40
51.0
 40
51.0
 40
51.0
 40
52.0
 40
52.0
 40
52.0
 40
53.0
 40
53.0
 40
53.0
 40
54.0
 40
54.0
 40
54.0
 40
55.0
 40
55.0
 40
55.0
 40
56.0
 40
56.0
 40
56.0
 40
57.0
 40
57.0
 40
57.0
 40
58.0
 40
58.0
 40
58.0
 40
59.0
 40
59.0
 40
59.0
 40
60.0
 40
60.0
 40
60.0
 40
61.0
 40
61.0
 40
61.0
 40
62.0
 40
62.0
 40
62.0
 40
63.0
 40
63.0
 40
63.0
 40
64.0
 40
64.0
 40
64.0
 40
65.0
 40
65.0
 40
65.0
 40
66.0
 40
66.0
 40
66.0
 40
67.0
 40
67.0
 40
67.0
 40
68.0
 40
68.0
 40
68.0
 40
69.0
 40
69.0
 40
69.0
 40
70.0
 40
70.0
 40
70.0
 40
71.0
 40
71.0
 40
71.0
 40
72.0
 40
72.0
 40
72.0
 40
73.0
 40
73.0
 40
73.0
 40
74.0
 40
74.0
 40
74.0
 40
75.0
 40
75.0
 40
75.0
 40
76.0
 40
76.0
 40
76.0
 40
77.0
 40
77.0
 40
77.0
 40
78.0
 40
78.0
 40
78.0
 40
79.0
 40
79.0
 40
79.0
 40
80.0
 40
80.0
 40
80.0
 40
81.0
 40
81.0
 40
81.0
 40
82.0
 40
82.0
 40
82.0
 40
83.0
 40
83.0
 40
83.0
 40
84.0
 40
84.0
 40
84.0
 40
85.0
 40
85.0
 40
85.0
 40
86.0
 40
86.0
 40
86.0
 40
87.0
 40
87.0
 40
87.0
 40
88.0
 40
88.0
 40
88.0
 40
89.0
 40
89.0
 40
89.0
 40
90.0
 40
90.0
 40
90.0
 40
91.0
 40
91.0
 40
91.0
 40
92.0
 40
92.0
 40
92.0
 40
93.0
 40
93.0
 40
93.0
 40
94.0
 40
94.0
 40
94.0
 40
95.0
 40
95.0
 40
95.0
 40
95.0
 10
903.4497637715334
 20
431.3625588928104
 30
0.0
 10
903.4497637715334
 20
431.3625588928104
 30
0.0
 10
710.9248228203157
 20
431.3625588928104
 30
0.0
 10
710.9248228203157
 20
431.3625588928104
 30
0.0
 10
710.7484339314709
 20
431.3625588928104
 30
0.0
 10
710.5720450426261
 20
431.3660901156828
 30
0.0
 10
710.3956561537814
 20
431.3766837842999
 30
0.0
 10
710.3956561537814
 20
431.3766837842999
 30
0.0
 10
710.3709806573682
 20
431.3766837842999
 30
0.0
 10
710.3709806573682
 20
431.3766837842999
 30
0.0
 10
710.2263297106813
 20
431.3837462300447
 30
0.0
 10
710.0852530505604
 20
431.3942968349683
 30
0.0
 10
709.9440902630522
 20
431.4119529493302
 30
0.0
 10
709.9053329388431
 20
431.4119529493302
 30
0.0
 10
709.8629582643746
 20
431.415441108509
 30
0.0
 10
709.824157876472
 20
431.4225035542538
 30
0.0
 10
709.810076048676
 20
431.4225035542538
 30
0.0
 10
709.7924199343141
 20
431.4260347771262
 30
0.0
 10
709.7782950428245
 20
431.4295659999985
 30
0.0
 10
709.6372183827036
 20
431.4401596686156
 30
0.0
 10
709.4960555951955
 20
431.46134700585
 30
0.0
 10
709.3585101579469
 20
431.4824912793907
 30
0.0
 10
709.2420659305454
 20
431.5001473937526
 30
0.0
 10
709.12919598971
 20
431.5177604444209
 30
0.0
 10
709.012794826002
 20
431.5424790045276
 30
0.0
 10
709.012794826002
 20
431.5424790045276
 30
0.0
 10
709.0092636031296
 20
431.5424790045276
 30
0.0
 10
709.0092636031296
 20
431.5424790045276
 30
0.0
 10
708.9210691587073
 20
431.5601351188895
 30
0.0
 10
708.8364059371572
 20
431.5777481695578
 30
0.0
 10
708.7482114927349
 20
431.5953612202262
 30
0.0
 10
708.4836281594677
 20
431.6518607861843
 30
0.0
 10
708.2190448262005
 20
431.7223991162448
 30
0.0
 10
707.9544614929333
 20
431.79999989205
 30
0.0
 10
707.8874113220517
 20
431.8211872292843
 30
0.0
 10
707.8168299282976
 20
431.842331502825
 30
0.0
 10
707.7462915982371
 20
431.8670069992381
 30
0.0
 10
707.4711145963528
 20
431.9552014436605
 30
0.0
 10
707.2030000402132
 20
432.0539895567001
 30
0.0
 10
706.9348854840736
 20
432.1669025612291
 30
0.0
 10
706.8537534853959
 20
432.2021717262594
 30
0.0
 10
706.769090263846
 20
432.2374408912896
 30
0.0
 10
706.6879582651683
 20
432.2762412791922
 30
0.0
 10
706.5221630449407
 20
432.3503538958187
 30
0.0
 10
706.3598990475854
 20
432.4279546716239
 30
0.0
 10
706.2011662731026
 20
432.512617893174
 30
0.0
 10
706.0494528806709
 20
432.5902186689792
 30
0.0
 10
705.9012707111115
 20
432.6713506676568
 30
0.0
 10
705.7531316052458
 20
432.7595451120793
 30
0.0
 10
705.7390067137562
 20
432.7630763349516
 30
0.0
 10
705.7248818222668
 20
432.7736700035688
 30
0.0
 10
705.7107569307772
 20
432.7807324493135
 30
0.0
 10
705.576742716401
 20
432.8618644479911
 30
0.0
 10
705.4426423746377
 20
432.9429964466688
 30
0.0
 10
705.3086281602614
 20
433.0311908910912
 30
0.0
 10
705.2874408230272
 20
433.0417845597083
 30
0.0
 10
705.2697847086653
 20
433.0559094511979
 30
0.0
 10
705.2486404351245
 20
433.0735225018662
 30
0.0
 10
705.1533835449574
 20
433.1299790041307
 30
0.0
 10
705.0616578776626
 20
433.1934548884465
 30
0.0
 10
704.9699752740613
 20
433.2640362822005
 30
0.0
 10
704.8923314345625
 20
433.3169615615927
 30
0.0
 10
704.8111994358849
 20
433.3733750001636
 30
0.0
 10
704.7370868192585
 20
433.4333627253005
 30
0.0
 10
704.5113469375875
 20
433.5991579455282
 30
0.0
 10
704.2961145971465
 20
433.775546834373
 30
0.0
 10
704.084499606965
 20
433.9695918375797
 30
0.0
 10
703.9362743737122
 20
434.0965866699047
 30
0.0
 10
703.7951977135912
 20
434.2306439479745
 30
0.0
 10
703.6540779897766
 20
434.3752948946614
 30
0.0
 10
703.558864163303
 20
434.4634893390838
 30
0.0
 10
703.4671384960083
 20
434.558746229251
 30
0.0
 10
703.3824752744582
 20
434.6574912785969
 30
0.0
 10
703.343631822862
 20
434.6927604436272
 30
0.0
 10
703.3118938807041
 20
434.728072672351
 30
0.0
 10
703.2836871614187
 20
434.7633418373812
 30
0.0
 10
703.2554373784396
 20
434.7915485566667
 30
0.0
 10
703.2272306591542
 20
434.8233295625182
 30
0.0
 10
703.2025551627411
 20
434.8515362818036
 30
0.0
 10
703.1284425461146
 20
434.9361995033536
 30
0.0
 10
703.0578611523606
 20
435.0173315020313
 30
0.0
 10
702.9908540451725
 20
435.1055259464537
 30
0.0
 10
702.8991283778777
 20
435.2113334415444
 30
0.0
 10
702.8109339334553
 20
435.3207152232011
 30
0.0
 10
702.7298019347777
 20
435.4336282277301
 30
0.0
 10
702.7015521517986
 20
435.465366169888
 30
0.0
 10
702.676919719079
 20
435.4971041120459
 30
0.0
 10
702.6557323818448
 20
435.5324163407697
 30
0.0
 10
702.56400671455
 20
435.6523056636564
 30
0.0
 10
702.479343493
 20
435.7722811139302
 30
0.0
 10
702.3982114943224
 20
435.8957447233828
 30
0.0
 10
702.3170794956447
 20
436.0156771099631
 30
0.0
 10
702.2394356561459
 20
436.135652560237
 30
0.0
 10
702.165366103213
 20
436.2591161696896
 30
0.0
 10
702.1477530525447
 20
436.2837916661027
 30
0.0
 10
702.1300969381828
 20
436.3085102262094
 30
0.0
 10
702.1159720466933
 20
436.3367169454949
 30
0.0
 10
702.038371270888
 20
436.4637117778199
 30
0.0
 10
701.9643017179551
 20
436.5942808967108
 30
0.0
 10
701.8937203242011
 20
436.7247638882147
 30
0.0
 10
701.8478574905537
 20
436.8023646640199
 30
0.0
 10
701.8055258797787
 20
436.8834966626976
 30
0.0
 10
701.7702567147485
 20
436.9646717250687
 30
0.0
 10
701.724393881101
 20
437.0493349466188
 30
0.0
 10
701.682062270326
 20
437.1304669452964
 30
0.0
 10
701.6432188187299
 20
437.2151301668464
 30
0.0
 10
701.4386662742932
 20
437.6384893382901
 30
0.0
 10
701.2692967674996
 20
438.0723991146573
 30
0.0
 10
701.128177043685
 20
438.5169025596416
 30
0.0
 10
701.0929078786547
 20
438.6192218955536
 30
0.0
 10
701.0611699364969
 20
438.7214981677719
 30
0.0
 10
701.0364513763902
 20
438.8237744399902
 30
0.0
 10
701.0188383257218
 20
438.876742783076
 30
0.0
 10
701.0047134342324
 20
438.9331562216469
 30
0.0
 10
700.9906316064364
 20
438.9896127239115
 30
0.0
 10
700.9623818234573
 20
439.0848696140786
 30
0.0
 10
700.9376632633507
 20
439.1836146634246
 30
0.0
 10
700.91651898981
 20
439.2824027764642
 30
0.0
 10
700.902437162014
 20
439.3317968329839
 30
0.0
 10
700.8918434933969
 20
439.384722112376
 30
0.0
 10
700.8812498247797
 20
439.4341161688959
 30
0.0
 10
700.8600624875454
 20
439.5258418361906
 30
0.0
 10
700.8424494368771
 20
439.614036280613
 30
0.0
 10
700.8283245453875
 20
439.7022307250354
 30
0.0
 10
700.8071802718468
 20
439.8009757743814
 30
0.0
 10
700.789524157485
 20
439.8962326645485
 30
0.0
 10
700.7753992659955
 20
439.9950207775881
 30
0.0
 10
700.7612743745059
 20
440.0620278847762
 30
0.0
 10
700.7507237695824
 20
440.1290780556578
 30
0.0
 10
700.7471925467099
 20
440.1961282265395
 30
0.0
 10
700.733110718914
 20
440.2666665566
 30
0.0
 10
700.7225170502968
 20
440.3372048866605
 30
0.0
 10
700.7189858274245
 20
440.4077862804145
 30
0.0
 10
700.7048609359349
 20
440.4889182790922
 30
0.0
 10
700.6977984901902
 20
440.5700502777698
 30
0.0
 10
700.6907360444454
 20
440.651225340141
 30
0.0
 10
700.6766111529558
 20
440.7746458859001
 30
0.0
 10
700.6660605480323
 20
440.9016837819187
 30
0.0
 10
700.6625293251599
 20
441.0286355505502
 30
0.0
 10
700.6343226058744
 20
441.4414441170702
 30
0.0
 10
700.6343226058744
 20
441.8541665562032
 30
0.0
 10
700.6625293251599
 20
442.2668889953361
 30
0.0
 10
700.6660605480323
 20
442.3903956684823
 30
0.0
 10
700.6766111529558
 20
442.5138592779349
 30
0.0
 10
700.6907360444454
 20
442.6337916645152
 30
0.0
 10
700.6977984901902
 20
442.7219861089376
 30
0.0
 10
700.7048609359349
 20
442.8066493304876
 30
0.0
 10
700.7189858274245
 20
442.8913125520376
 30
0.0
 10
700.7260482731692
 20
442.9548315000469
 30
0.0
 10
700.733110718914
 20
443.0218816709286
 30
0.0
 10
700.7436613238375
 20
443.0888887781167
 30
0.0
 10
700.7507237695824
 20
443.1629583310495
 30
0.0
 10
700.7648055973783
 20
443.2370278839824
 30
0.0
 10
700.7789304888678
 20
443.3111405006089
 30
0.0
 10
700.789524157485
 20
443.3958037221589
 30
0.0
 10
700.8036490489744
 20
443.4804669437089
 30
0.0
 10
700.8213051633363
 20
443.5651301652589
 30
0.0
 10
700.8389182140047
 20
443.6709807240432
 30
0.0
 10
700.8600624875454
 20
443.7767882191339
 30
0.0
 10
700.8883122705245
 20
443.8826387779183
 30
0.0
 10
700.8918434933969
 20
443.9073573380249
 30
0.0
 10
700.8989059391416
 20
443.932032834438
 30
0.0
 10
700.902437162014
 20
443.9531771079787
 30
0.0
 10
700.9306438812995
 20
444.0731525582526
 30
0.0
 10
700.9588506005849
 20
444.1895537219605
 30
0.0
 10
700.9906316064364
 20
444.3059548856683
 30
0.0
 10
701.0047134342324
 20
444.3588801650605
 30
0.0
 10
701.0188383257218
 20
444.415336667325
 30
0.0
 10
701.0364513763902
 20
444.4682188830236
 30
0.0
 10
701.0611699364969
 20
444.5705382189355
 30
0.0
 10
701.0929078786547
 20
444.6728575548474
 30
0.0
 10
701.128177043685
 20
444.7751768907593
 30
0.0
 10
701.2692967674996
 20
445.2161491128713
 30
0.0
 10
701.4386662742932
 20
445.6500588892386
 30
0.0
 10
701.6432188187299
 20
446.076906219861
 30
0.0
 10
701.682062270326
 20
446.1580382185386
 30
0.0
 10
701.724393881101
 20
446.2427014400886
 30
0.0
 10
701.7702567147485
 20
446.3273646616387
 30
0.0
 10
701.8055258797787
 20
446.4084966603163
 30
0.0
 10
701.8478574905537
 20
446.4861404998151
 30
0.0
 10
701.8937203242011
 20
446.5672724984927
 30
0.0
 10
701.9643017179551
 20
446.6977985536902
 30
0.0
 10
702.038371270888
 20
446.8283246088876
 30
0.0
 10
702.1159720466933
 20
446.9553194412126
 30
0.0
 10
702.1300969381828
 20
446.9835692241916
 30
0.0
 10
702.1477530525447
 20
447.0082447206048
 30
0.0
 10
702.165366103213
 20
447.0329202170178
 30
0.0
 10
702.2394356561459
 20
447.156426890164
 30
0.0
 10
702.3170794956447
 20
447.2763592767443
 30
0.0
 10
702.3982114943224
 20
447.3962916633246
 30
0.0
 10
702.479343493
 20
447.5197983364708
 30
0.0
 10
702.56400671455
 20
447.639730723051
 30
0.0
 10
702.6557323818448
 20
447.7596631096313
 30
0.0
 10
702.676919719079
 20
447.7949753383551
 30
0.0
 10
702.7015521517986
 20
447.8266702168194
 30
0.0
 10
702.7298019347777
 20
447.8584512226709
 30
0.0
 10
702.8109339334553
 20
447.9713642271999
 30
0.0
 10
702.8991283778777
 20
448.080702945163
 30
0.0
 10
702.9908540451725
 20
448.1865104402538
 30
0.0
 10
703.0578611523606
 20
448.2747048846761
 30
0.0
 10
703.1284425461146
 20
448.3558368833538
 30
0.0
 10
703.2025551627411
 20
448.4405001049038
 30
0.0
 10
703.2272306591542
 20
448.4687498878828
 30
0.0
 10
703.2554373784396
 20
448.5005308937343
 30
0.0
 10
703.2836871614187
 20
448.5286945493262
 30
0.0
 10
703.3118938807041
 20
448.56400677805
 30
0.0
 10
703.343631822862
 20
448.5992759430802
 30
0.0
 10
703.3824752744582
 20
448.6345451081105
 30
0.0
 10
703.4671384960083
 20
448.73333322115
 30
0.0
 10
703.558864163303
 20
448.8285901113172
 30
0.0
 10
703.6540779897766
 20
448.9167845557396
 30
0.0
 10
703.7951977135912
 20
449.0613924387329
 30
0.0
 10
703.9362743737122
 20
449.1954927804963
 30
0.0
 10
704.084499606965
 20
449.3224445491277
 30
0.0
 10
704.2961145971465
 20
449.5164895523345
 30
0.0
 10
704.5113469375875
 20
449.6928784411792
 30
0.0
 10
704.7370868192585
 20
449.8586736614069
 30
0.0
 10
704.8111994358849
 20
449.9186613865438
 30
0.0
 10
704.8923314345625
 20
449.9751178888083
 30
0.0
 10
704.9699752740613
 20
450.0280001045069
 30
0.0
 10
705.0616578776626
 20
450.098581498261
 30
0.0
 10
705.1533835449574
 20
450.1621004462702
 30
0.0
 10
705.2486404351245
 20
450.2185138848412
 30
0.0
 10
705.2697847086653
 20
450.2361699992031
 30
0.0
 10
705.2874408230272
 20
450.2502948906927
 30
0.0
 10
705.3086281602614
 20
450.2608885593098
 30
0.0
 10
705.4426423746377
 20
450.3490830037322
 30
0.0
 10
705.576742716401
 20
450.4302150024099
 30
0.0
 10
705.7107569307772
 20
450.5113470010875
 30
0.0
 10
705.7248818222668
 20
450.5184094468322
 30
0.0
 10
705.7390067137562
 20
450.5290031154494
 30
0.0
 10
705.7531316052458
 20
450.5324912746282
 30
0.0
 10
705.9012707111115
 20
450.6206857190506
 30
0.0
 10
706.0494528806709
 20
450.7018607814218
 30
0.0
 10
706.2011662731026
 20
450.779461557227
 30
0.0
 10
706.3598990475854
 20
450.8641247787771
 30
0.0
 10
706.5221630449407
 20
450.9417255545823
 30
0.0
 10
706.6879582651683
 20
451.0157951075151
 30
0.0
 10
706.769090263846
 20
451.0546385591114
 30
0.0
 10
706.8537534853959
 20
451.089864660448
 30
0.0
 10
706.9348854840736
 20
451.1251768891718
 30
0.0
 10
707.2030000402132
 20
451.2380468300074
 30
0.0
 10
707.4711145963528
 20
451.3368349430469
 30
0.0
 10
707.7462915982371
 20
451.4250293874693
 30
0.0
 10
707.8133417691188
 20
451.4497048838824
 30
0.0
 10
707.8838800991792
 20
451.4744234439891
 30
0.0
 10
707.9544614929333
 20
451.492079558351
 30
0.0
 10
708.2190448262005
 20
451.5696803341562
 30
0.0
 10
708.4836281594677
 20
451.6402186642167
 30
0.0
 10
708.7482114927349
 20
451.6966751664812
 30
0.0
 10
708.8364059371572
 20
451.7142882171496
 30
0.0
 10
708.9210691587073
 20
451.7319443315115
 30
0.0
 10
709.0092636031296
 20
451.7496004458734
 30
0.0
 10
709.0092636031296
 20
451.7496004458734
 30
0.0
 10
709.012794826002
 20
451.7496004458734
 30
0.0
 10
709.012794826002
 20
451.7496004458734
 30
0.0
 10
709.12919598971
 20
451.7742759422865
 30
0.0
 10
709.2420659305454
 20
451.7918889929549
 30
0.0
 10
709.3585101579469
 20
451.8095451073168
 30
0.0
 10
709.4960555951955
 20
451.830732444551
 30
0.0
 10
709.6372183827036
 20
451.8519197817853
 30
0.0
 10
709.7782950428245
 20
451.8624703867089
 30
0.0
 10
709.7924199343141
 20
451.8660016095812
 30
0.0
 10
709.810076048676
 20
451.8695328324537
 30
0.0
 10
709.824157876472
 20
451.8695328324537
 30
0.0
 10
709.8629582643746
 20
451.8765522145048
 30
0.0
 10
709.9053329388431
 20
451.8800834373772
 30
0.0
 10
709.9440902630522
 20
451.8800834373772
 30
0.0
 10
710.0852530505604
 20
451.8977395517391
 30
0.0
 10
710.2263297106813
 20
451.9083332203563
 30
0.0
 10
710.3709806573682
 20
451.915395666101
 30
0.0
 10
710.3709806573682
 20
451.915395666101
 30
0.0
 10
710.3956561537814
 20
451.915395666101
 30
0.0
 10
710.3956561537814
 20
451.915395666101
 30
0.0
 10
710.5720450426261
 20
451.9259893347182
 30
0.0
 10
710.7484339314709
 20
451.9295205575905
 30
0.0
 10
710.9248228203157
 20
451.9295205575905
 30
0.0
 10
710.9248228203157
 20
451.9295205575905
 30
0.0
 10
903.4497637715334
 20
451.9295205575905
 30
0.0
 10
903.4497637715334
 20
451.9295205575905
 30
0.0
 10
909.1295204432906
 20
451.9295205575905
 30
0.0
 10
913.7368188904894
 20
447.3257533332641
 30
0.0
 10
913.7368188904894
 20
441.6459966615069
 30
0.0
 10
913.7368188904894
 20
435.9663261171369
 30
0.0
 10
909.1295204432906
 20
431.3625588928104
 30
0.0
 10
903.4497637715334
 20
431.3625588928104
 30
0.0
  0
ENDBLK
  5
9D
330
9A
100
AcDbEntity
  8
0
100
AcDbBlockEnd
  0
BLOCK
  5
154
330
152
100
AcDbEntity
  8
0
100
AcDbBlockBegin
  2
block 21
 70
     0
 10
0.0
 20
0.0
 30
0.0
  3
block 21
  1

  0
SPLINE
  5
156
330
152
100
AcDbEntity
  8
0
 62
     7
370
    25
100
AcDbSpline
210
0.0
220
0.0
230
1.0
 70
    11
 71
     3
 72
    23
 73
    19
 74
     0
 42
0.0000000001
 43
0.0000000001
 12
1.0
 22
0.0
 32
0.0
 13
1.0
 23
0.0
 33
0.0
 40
0.0
 40
0.0
 40
0.0
 40
0.0
 40
1.0
 40
1.0
 40
1.0
 40
2.0
 40
2.0
 40
2.0
 40
3.0
 40
3.0
 40
3.0
 40
4.0
 40
4.0
 40
4.0
 40
5.0
 40
5.0
 40
5.0
 40
6.0
 40
6.0
 40
6.0
 40
6.0
 10
578.8448573042906
 20
441.6459966615069
 30
0.0
 10
578.8448573042906
 20
435.9663261171369
 30
0.0
 10
574.241090079964
 20
431.3625588928104
 30
0.0
 10
568.5613334082069
 20
431.3625588928104
 30
0.0
 10
568.5613334082069
 20
431.3625588928104
 30
0.0
 10
477.6752358831854
 20
431.3625588928104
 30
0.0
 10
477.6752358831854
 20
431.3625588928104
 30
0.0
 10
471.9954792114282
 20
431.3625588928104
 30
0.0
 10
467.388223827923
 20
435.9663261171369
 30
0.0
 10
467.388223827923
 20
441.6459966615069
 30
0.0
 10
467.388223827923
 20
447.3257533332641
 30
0.0
 10
471.9954792114282
 20
451.9295205575905
 30
0.0
 10
477.6752358831854
 20
451.9295205575905
 30
0.0
 10
477.6752358831854
 20
451.9295205575905
 30
0.0
 10
568.5613334082069
 20
451.9295205575905
 30
0.0
 10
568.5613334082069
 20
451.9295205575905
 30
0.0
 10
574.241090079964
 20
451.9295205575905
 30
0.0
 10
578.8448573042906
 20
447.3257533332641
 30
0.0
 10
578.8448573042906
 20
441.6459966615069
 30
0.0
  0
ENDBLK
  5
155
330
152
100
AcDbEntity
  8
0
100
AcDbBlockEnd
  0
BLOCK
  5
159
330
157
100
AcDbEntity
  8
0
100
AcDbBlockBegin
  2
block 22
 70
     0
 10
0.0
 20
0.0
 30
0.0
  3
block 22
  1

  0
SPLINE
  5
15B
330
157
100
AcDbEntity
  8
0
 62
     7
370
    25
100
AcDbSpline
210
0.0
220
0.0
230
1.0
 70
    11
 71
     3
 72
    29
 73
    25
 74
     0
 42
0.0000000001
 43
0.0000000001
 12
1.0
 22
0.0
 32
0.0
 13
1.0
 23
0.0
 33
0.0
 40
0.0
 40
0.0
 40
0.0
 40
0.0
 40
1.0
 40
1.0
 40
1.0
 40
2.0
 40
2.0
 40
2.0
 40
3.0
 40
3.0
 40
3.0
 40
4.0
 40
4.0
 40
4.0
 40
5.0
 40
5.0
 40
5.0
 40
6.0
 40
6.0
 40
6.0
 40
7.0
 40
7.0
 40
7.0
 40
8.0
 40
8.0
 40
8.0
 40
8.0
 10
660.1248228330157
 20
450.5219406697046
 30
0.0
 10
660.1248228330157
 20
450.5219406697046
 30
0.0
 10
660.1248228330157
 20
432.7701387806964
 30
0.0
 10
660.1248228330157
 20
432.7701387806964
 30
0.0
 10
660.1248228330157
 20
432.2197847769277
 30
0.0
 10
659.676788165159
 20
431.771750109071
 30
0.0
 10
659.1229460022115
 20
431.771750109071
 30
0.0
 10
659.1229460022115
 20
431.771750109071
 30
0.0
 10
640.0023646132199
 20
431.771750109071
 30
0.0
 10
640.0023646132199
 20
431.771750109071
 30
0.0
 10
639.4520536731449
 20
431.771750109071
 30
0.0
 10
639.0040190052881
 20
432.2197847769277
 30
0.0
 10
639.0040190052881
 20
432.7701387806964
 30
0.0
 10
639.0040190052881
 20
432.7701387806964
 30
0.0
 10
639.0040190052881
 20
450.5219406697046
 30
0.0
 10
639.0040190052881
 20
450.5219406697046
 30
0.0
 10
639.0040190052881
 20
451.0722516097797
 30
0.0
 10
639.4520536731449
 20
451.5202862776364
 30
0.0
 10
640.0023646132199
 20
451.5202862776364
 30
0.0
 10
640.0023646132199
 20
451.5202862776364
 30
0.0
 10
659.1229460022115
 20
451.5202862776364
 30
0.0
 10
659.1229460022115
 20
451.5202862776364
 30
0.0
 10
659.676788165159
 20
451.5202862776364
 30
0.0
 10
660.1248228330157
 20
451.0722516097797
 30
0.0
 10
660.1248228330157
 20
450.5219406697046
 30
0.0
  0
ENDBLK
  5
15A
330
157
100
AcDbEntity
  8
0
100
AcDbBlockEnd
  0
BLOCK
  5
15E
330
15C
100
AcDbEntity
  8
0
100
AcDbBlockBegin
  2
block 23
 70
     0
 10
0.0
 20
0.0
 30
0.0
  3
block 23
  1

  0
SPLINE
  5
160
330
15C
100
AcDbEntity
  8
0
 62
     7
370
    25
100
AcDbSpline
210
0.0
220
0.0
230
1.0
 70
    11
 71
     3
 72
    29
 73
    25
 74
     0
 42
0.0000000001
 43
0.0000000001
 12
1.0
 22
0.0
 32
0.0
 13
1.0
 23
0.0
 33
0.0
 40
0.0
 40
0.0
 40
0.0
 40
0.0
 40
1.0
 40
1.0
 40
1.0
 40
2.0
 40
2.0
 40
2.0
 40
3.0
 40
3.0
 40
3.0
 40
4.0
 40
4.0
 40
4.0
 40
5.0
 40
5.0
 40
5.0
 40
6.0
 40
6.0
 40
6.0
 40
7.0
 40
7.0
 40
7.0
 40
8.0
 40
8.0
 40
8.0
 40
8.0
 10
689.4089096041236
 20
446.4296839975506
 30
0.0
 10
689.4089096041236
 20
446.4296839975506
 30
0.0
 10
689.4089096041236
 20
431.9305259472474
 30
0.0
 10
689.4089096041236
 20
431.9305259472474
 30
0.0
 10
689.4089096041236
 20
431.3802150071724
 30
0.0
 10
688.9608749362668
 20
430.9321803393156
 30
0.0
 10
688.4070327733193
 20
430.9321803393156
 30
0.0
 10
688.4070327733193
 20
430.9321803393156
 30
0.0
 10
671.4101804962099
 20
430.9321803393156
 30
0.0
 10
671.4101804962099
 20
430.9321803393156
 30
0.0
 10
670.8563383332626
 20
430.9321803393156
 30
0.0
 10
670.4083036654058
 20
431.3802150071724
 30
0.0
 10
670.4083036654058
 20
431.9305259472474
 30
0.0
 10
670.4083036654058
 20
431.9305259472474
 30
0.0
 10
670.4083036654058
 20
446.4296839975506
 30
0.0
 10
670.4083036654058
 20
446.4296839975506
 30
0.0
 10
670.4083036654058
 20
449.4671385595082
 30
0.0
 10
672.8706856634881
 20
451.9295205575905
 30
0.0
 10
675.9080971617522
 20
451.9295205575905
 30
0.0
 10
675.9080971617522
 20
451.9295205575905
 30
0.0
 10
683.9091161077771
 20
451.9295205575905
 30
0.0
 10
683.9091161077771
 20
451.9295205575905
 30
0.0
 10
686.9465276060412
 20
451.9295205575905
 30
0.0
 10
689.4089096041236
 20
449.4671385595082
 30
0.0
 10
689.4089096041236
 20
446.4296839975506
 30
0.0
  0
ENDBLK
  5
15F
330
15C
100
AcDbEntity
  8
0
100
AcDbBlockEnd
  0
BLOCK
  5
163
330
161
100
AcDbEntity
  8
0
100
AcDbBlockBegin
  2
block 24
 70
     0
 10
0.0
 20
0.0
 30
0.0
  3
block 24
  1

  0
SPLINE
  5
165
330
161
100
AcDbEntity
  8
0
 62
     7
370
    25
100
AcDbSpline
210
0.0
220
0.0
230
1.0
 70
    11
 71
     3
 72
   290
 73
   286
 74
     0
 42
0.0000000001
 43
0.0000000001
 12
1.0
 22
0.0
 32
0.0
 13
1.0
 23
0.0
 33
0.0
 40
0.0
 40
0.0
 40
0.0
 40
0.0
 40
1.0
 40
1.0
 40
1.0
 40
2.0
 40
2.0
 40
2.0
 40
3.0
 40
3.0
 40
3.0
 40
4.0
 40
4.0
 40
4.0
 40
5.0
 40
5.0
 40
5.0
 40
6.0
 40
6.0
 40
6.0
 40
7.0
 40
7.0
 40
7.0
 40
8.0
 40
8.0
 40
8.0
 40
9.0
 40
9.0
 40
9.0
 40
10.0
 40
10.0
 40
10.0
 40
11.0
 40
11.0
 40
11.0
 40
12.0
 40
12.0
 40
12.0
 40
13.0
 40
13.0
 40
13.0
 40
14.0
 40
14.0
 40
14.0
 40
15.0
 40
15.0
 40
15.0
 40
16.0
 40
16.0
 40
16.0
 40
17.0
 40
17.0
 40
17.0
 40
18.0
 40
18.0
 40
18.0
 40
19.0
 40
19.0
 40
19.0
 40
20.0
 40
20.0
 40
20.0
 40
21.0
 40
21.0
 40
21.0
 40
22.0
 40
22.0
 40
22.0
 40
23.0
 40
23.0
 40
23.0
 40
24.0
 40
24.0
 40
24.0
 40
25.0
 40
25.0
 40
25.0
 40
26.0
 40
26.0
 40
26.0
 40
27.0
 40
27.0
 40
27.0
 40
28.0
 40
28.0
 40
28.0
 40
29.0
 40
29.0
 40
29.0
 40
30.0
 40
30.0
 40
30.0
 40
31.0
 40
31.0
 40
31.0
 40
32.0
 40
32.0
 40
32.0
 40
33.0
 40
33.0
 40
33.0
 40
34.0
 40
34.0
 40
34.0
 40
35.0
 40
35.0
 40
35.0
 40
36.0
 40
36.0
 40
36.0
 40
37.0
 40
37.0
 40
37.0
 40
38.0
 40
38.0
 40
38.0
 40
39.0
 40
39.0
 40
39.0
 40
40.0
 40
40.0
 40
40.0
 40
41.0
 40
41.0
 40
41.0
 40
42.0
 40
42.0
 40
42.0
 40
43.0
 40
43.0
 40
43.0
 40
44.0
 40
44.0
 40
44.0
 40
45.0
 40
45.0
 40
45.0
 40
46.0
 40
46.0
 40
46.0
 40
47.0
 40
47.0
 40
47.0
 40
48.0
 40
48.0
 40
48.0
 40
49.0
 40
49.0
 40
49.0
 40
50.0
 40
50.0
 40
50.0
 40
51.0
 40
51.0
 40
51.0
 40
52.0
 40
52.0
 40
52.0
 40
53.0
 40
53.0
 40
53.0
 40
54.0
 40
54.0
 40
54.0
 40
55.0
 40
55.0
 40
55.0
 40
56.0
 40
56.0
 40
56.0
 40
57.0
 40
57.0
 40
57.0
 40
58.0
 40
58.0
 40
58.0
 40
59.0
 40
59.0
 40
59.0
 40
60.0
 40
60.0
 40
60.0
 40
61.0
 40
61.0
 40
61.0
 40
62.0
 40
62.0
 40
62.0
 40
63.0
 40
63.0
 40
63.0
 40
64.0
 40
64.0
 40
64.0
 40
65.0
 40
65.0
 40
65.0
 40
66.0
 40
66.0
 40
66.0
 40
67.0
 40
67.0
 40
67.0
 40
68.0
 40
68.0
 40
68.0
 40
69.0
 40
69.0
 40
69.0
 40
70.0
 40
70.0
 40
70.0
 40
71.0
 40
71.0
 40
71.0
 40
72.0
 40
72.0
 40
72.0
 40
73.0
 40
73.0
 40
73.0
 40
74.0
 40
74.0
 40
74.0
 40
75.0
 40
75.0
 40
75.0
 40
76.0
 40
76.0
 40
76.0
 40
77.0
 40
77.0
 40
77.0
 40
78.0
 40
78.0
 40
78.0
 40
79.0
 40
79.0
 40
79.0
 40
80.0
 40
80.0
 40
80.0
 40
81.0
 40
81.0
 40
81.0
 40
82.0
 40
82.0
 40
82.0
 40
83.0
 40
83.0
 40
83.0
 40
84.0
 40
84.0
 40
84.0
 40
85.0
 40
85.0
 40
85.0
 40
86.0
 40
86.0
 40
86.0
 40
87.0
 40
87.0
 40
87.0
 40
88.0
 40
88.0
 40
88.0
 40
89.0
 40
89.0
 40
89.0
 40
90.0
 40
90.0
 40
90.0
 40
91.0
 40
91.0
 40
91.0
 40
92.0
 40
92.0
 40
92.0
 40
93.0
 40
93.0
 40
93.0
 40
94.0
 40
94.0
 40
94.0
 40
95.0
 40
95.0
 40
95.0
 40
95.0
 10
913.7368188904894
 20
441.6459966615069
 30
0.0
 10
913.7368188904894
 20
435.9663261171369
 30
0.0
 10
909.1295204432906
 20
431.3625588928104
 30
0.0
 10
903.4497637715334
 20
431.3625588928104
 30
0.0
 10
903.4497637715334
 20
431.3625588928104
 30
0.0
 10
710.9248228203157
 20
431.3625588928104
 30
0.0
 10
710.9248228203157
 20
431.3625588928104
 30
0.0
 10
710.7484339314709
 20
431.3625588928104
 30
0.0
 10
710.5720450426261
 20
431.3660901156828
 30
0.0
 10
710.3956561537814
 20
431.3766837842999
 30
0.0
 10
710.3956561537814
 20
431.3766837842999
 30
0.0
 10
710.3709806573682
 20
431.3766837842999
 30
0.0
 10
710.3709806573682
 20
431.3766837842999
 30
0.0
 10
710.2263297106813
 20
431.3837462300447
 30
0.0
 10
710.0852530505604
 20
431.3942968349683
 30
0.0
 10
709.9440902630522
 20
431.4119529493302
 30
0.0
 10
709.9053329388431
 20
431.4119529493302
 30
0.0
 10
709.8629582643746
 20
431.415441108509
 30
0.0
 10
709.824157876472
 20
431.4225035542538
 30
0.0
 10
709.810076048676
 20
431.4225035542538
 30
0.0
 10
709.7924199343141
 20
431.4260347771262
 30
0.0
 10
709.7782950428245
 20
431.4295659999985
 30
0.0
 10
709.6372183827036
 20
431.4436908914881
 30
0.0
 10
709.4995868180679
 20
431.46134700585
 30
0.0
 10
709.3585101579469
 20
431.4824912793907
 30
0.0
 10
709.2420659305454
 20
431.5001473937526
 30
0.0
 10
709.12919598971
 20
431.5177604444209
 30
0.0
 10
709.012794826002
 20
431.5424790045276
 30
0.0
 10
709.012794826002
 20
431.5424790045276
 30
0.0
 10
709.0092636031296
 20
431.5424790045276
 30
0.0
 10
709.0092636031296
 20
431.5424790045276
 30
0.0
 10
708.9210691587073
 20
431.5601351188895
 30
0.0
 10
708.8364059371572
 20
431.5777481695578
 30
0.0
 10
708.7482114927349
 20
431.5953612202262
 30
0.0
 10
708.4836281594677
 20
431.6518607861843
 30
0.0
 10
708.2190448262005
 20
431.7223991162448
 30
0.0
 10
707.9544614929333
 20
431.79999989205
 30
0.0
 10
707.8874113220517
 20
431.8211872292843
 30
0.0
 10
707.8168299282976
 20
431.842331502825
 30
0.0
 10
707.7462915982371
 20
431.8670069992381
 30
0.0
 10
707.4711145963528
 20
431.9552014436605
 30
0.0
 10
707.2030000402132
 20
432.0539895567001
 30
0.0
 10
706.9348854840736
 20
432.1669025612291
 30
0.0
 10
706.8537534853959
 20
432.2021717262594
 30
0.0
 10
706.769090263846
 20
432.2374408912896
 30
0.0
 10
706.6879582651683
 20
432.2762412791922
 30
0.0
 10
706.5221630449407
 20
432.3503538958187
 30
0.0
 10
706.3598990475854
 20
432.4279546716239
 30
0.0
 10
706.2011662731026
 20
432.512617893174
 30
0.0
 10
706.0494528806709
 20
432.5902186689792
 30
0.0
 10
705.9012707111115
 20
432.6713506676568
 30
0.0
 10
705.7531316052458
 20
432.7595451120793
 30
0.0
 10
705.7390067137562
 20
432.7630763349516
 30
0.0
 10
705.7248818222668
 20
432.7736700035688
 30
0.0
 10
705.7107569307772
 20
432.7807324493135
 30
0.0
 10
705.576742716401
 20
432.8618644479911
 30
0.0
 10
705.4426423746377
 20
432.9429964466688
 30
0.0
 10
705.3086281602614
 20
433.0311908910912
 30
0.0
 10
705.2874408230272
 20
433.0417845597083
 30
0.0
 10
705.2697847086653
 20
433.0559094511979
 30
0.0
 10
705.2486404351245
 20
433.0735225018662
 30
0.0
 10
705.1533835449574
 20
433.1335102270031
 30
0.0
 10
705.0616578776626
 20
433.1969861113188
 30
0.0
 10
704.9699752740613
 20
433.2640362822005
 30
0.0
 10
704.8923314345625
 20
433.3169615615927
 30
0.0
 10
704.8111994358849
 20
433.3733750001636
 30
0.0
 10
704.7370868192585
 20
433.4333627253005
 30
0.0
 10
704.5113469375875
 20
433.5991579455282
 30
0.0
 10
704.2961145971465
 20
433.775546834373
 30
0.0
 10
704.084499606965
 20
433.9695918375797
 30
0.0
 10
703.9362743737122
 20
434.0965866699047
 30
0.0
 10
703.7951977135912
 20
434.2306439479745
 30
0.0
 10
703.6540779897766
 20
434.3752948946614
 30
0.0
 10
703.5623523224818
 20
434.4670205619562
 30
0.0
 10
703.4706697188806
 20
434.5622774521233
 30
0.0
 10
703.3824752744582
 20
434.6574912785969
 30
0.0
 10
703.343631822862
 20
434.6927604436272
 30
0.0
 10
703.3118938807041
 20
434.728072672351
 30
0.0
 10
703.2836871614187
 20
434.7633418373812
 30
0.0
 10
703.2554373784396
 20
434.7915485566667
 30
0.0
 10
703.2272306591542
 20
434.8233295625182
 30
0.0
 10
703.2025551627411
 20
434.8515362818036
 30
0.0
 10
703.1284425461146
 20
434.9361995033536
 30
0.0
 10
703.0578611523606
 20
435.0173315020313
 30
0.0
 10
702.9908540451725
 20
435.1055259464537
 30
0.0
 10
702.9026596007501
 20
435.2113334415444
 30
0.0
 10
702.8144651563276
 20
435.3207152232011
 30
0.0
 10
702.7298019347777
 20
435.4336282277301
 30
0.0
 10
702.7015521517986
 20
435.465366169888
 30
0.0
 10
702.676919719079
 20
435.4971041120459
 30
0.0
 10
702.6557323818448
 20
435.5324163407697
 30
0.0
 10
702.5675379374223
 20
435.6523056636564
 30
0.0
 10
702.479343493
 20
435.7722811139302
 30
0.0
 10
702.3982114943224
 20
435.8957447233828
 30
0.0
 10
702.3170794956447
 20
436.0156771099631
 30
0.0
 10
702.2394356561459
 20
436.135652560237
 30
0.0
 10
702.165366103213
 20
436.2591161696896
 30
0.0
 10
702.1477530525447
 20
436.2837916661027
 30
0.0
 10
702.1300969381828
 20
436.3085102262094
 30
0.0
 10
702.1159720466933
 20
436.3367169454949
 30
0.0
 10
702.038371270888
 20
436.4637117778199
 30
0.0
 10
701.9643017179551
 20
436.5942808967108
 30
0.0
 10
701.8937203242011
 20
436.7247638882147
 30
0.0
 10
701.8478574905537
 20
436.8023646640199
 30
0.0
 10
701.8055258797787
 20
436.8834966626976
 30
0.0
 10
701.7702567147485
 20
436.9646717250687
 30
0.0
 10
701.724393881101
 20
437.0493349466188
 30
0.0
 10
701.682062270326
 20
437.1304669452964
 30
0.0
 10
701.6432188187299
 20
437.2151301668464
 30
0.0
 10
701.4386662742932
 20
437.6384893382901
 30
0.0
 10
701.2692967674996
 20
438.0723991146573
 30
0.0
 10
701.128177043685
 20
438.5169025596416
 30
0.0
 10
701.0964391015272
 20
438.6192218955536
 30
0.0
 10
701.0647011593693
 20
438.7214981677719
 30
0.0
 10
701.0364513763902
 20
438.8237744399902
 30
0.0
 10
701.0188383257218
 20
438.876742783076
 30
0.0
 10
701.0047134342324
 20
438.9331562216469
 30
0.0
 10
700.9906316064364
 20
438.9896127239115
 30
0.0
 10
700.9623818234573
 20
439.0848696140786
 30
0.0
 10
700.9376632633507
 20
439.1836146634246
 30
0.0
 10
700.91651898981
 20
439.2824027764642
 30
0.0
 10
700.902437162014
 20
439.3317968329839
 30
0.0
 10
700.8918434933969
 20
439.384722112376
 30
0.0
 10
700.8812498247797
 20
439.4341161688959
 30
0.0
 10
700.8600624875454
 20
439.5258418361906
 30
0.0
 10
700.8424494368771
 20
439.614036280613
 30
0.0
 10
700.8283245453875
 20
439.7022307250354
 30
0.0
 10
700.8071802718468
 20
439.8009757743814
 30
0.0
 10
700.789524157485
 20
439.8962326645485
 30
0.0
 10
700.7753992659955
 20
439.9950207775881
 30
0.0
 10
700.7648055973783
 20
440.0620278847762
 30
0.0
 10
700.7542549924547
 20
440.1290780556578
 30
0.0
 10
700.7471925467099
 20
440.1961282265395
 30
0.0
 10
700.733110718914
 20
440.2666665566
 30
0.0
 10
700.7225170502968
 20
440.3372048866605
 30
0.0
 10
700.7189858274245
 20
440.4077862804145
 30
0.0
 10
700.7048609359349
 20
440.4889182790922
 30
0.0
 10
700.6977984901902
 20
440.5700502777698
 30
0.0
 10
700.6907360444454
 20
440.651225340141
 30
0.0
 10
700.6766111529558
 20
440.7746458859001
 30
0.0
 10
700.6660605480323
 20
440.9016837819187
 30
0.0
 10
700.6625293251599
 20
441.0286355505502
 30
0.0
 10
700.6343226058744
 20
441.4414441170702
 30
0.0
 10
700.6343226058744
 20
441.8541665562032
 30
0.0
 10
700.6625293251599
 20
442.2668889953361
 30
0.0
 10
700.6660605480323
 20
442.3903956684823
 30
0.0
 10
700.6766111529558
 20
442.5138592779349
 30
0.0
 10
700.6907360444454
 20
442.6337916645152
 30
0.0
 10
700.6977984901902
 20
442.7219861089376
 30
0.0
 10
700.7048609359349
 20
442.8066493304876
 30
0.0
 10
700.7189858274245
 20
442.8913125520376
 30
0.0
 10
700.7260482731692
 20
442.9548315000469
 30
0.0
 10
700.733110718914
 20
443.0218816709286
 30
0.0
 10
700.7436613238375
 20
443.0888887781167
 30
0.0
 10
700.7542549924547
 20
443.1629583310495
 30
0.0
 10
700.7648055973783
 20
443.2370278839824
 30
0.0
 10
700.7789304888678
 20
443.3111405006089
 30
0.0
 10
700.789524157485
 20
443.3958037221589
 30
0.0
 10
700.8036490489744
 20
443.4804669437089
 30
0.0
 10
700.8213051633363
 20
443.5651301652589
 30
0.0
 10
700.8424494368771
 20
443.6709807240432
 30
0.0
 10
700.8635937104178
 20
443.7767882191339
 30
0.0
 10
700.8883122705245
 20
443.8826387779183
 30
0.0
 10
700.8918434933969
 20
443.9073573380249
 30
0.0
 10
700.8989059391416
 20
443.932032834438
 30
0.0
 10
700.902437162014
 20
443.9531771079787
 30
0.0
 10
700.9306438812995
 20
444.0731525582526
 30
0.0
 10
700.9588506005849
 20
444.1895537219605
 30
0.0
 10
700.9906316064364
 20
444.3059548856683
 30
0.0
 10
701.0047134342324
 20
444.3588801650605
 30
0.0
 10
701.0188383257218
 20
444.415336667325
 30
0.0
 10
701.0364513763902
 20
444.4682188830236
 30
0.0
 10
701.0647011593693
 20
444.5705382189355
 30
0.0
 10
701.0964391015272
 20
444.6728575548474
 30
0.0
 10
701.128177043685
 20
444.7751768907593
 30
0.0
 10
701.2692967674996
 20
445.2161491128713
 30
0.0
 10
701.4386662742932
 20
445.6500588892386
 30
0.0
 10
701.6432188187299
 20
446.076906219861
 30
0.0
 10
701.682062270326
 20
446.1580382185386
 30
0.0
 10
701.724393881101
 20
446.2427014400886
 30
0.0
 10
701.7702567147485
 20
446.3273646616387
 30
0.0
 10
701.8055258797787
 20
446.4084966603163
 30
0.0
 10
701.8478574905537
 20
446.4861404998151
 30
0.0
 10
701.8937203242011
 20
446.5672724984927
 30
0.0
 10
701.9643017179551
 20
446.6977985536902
 30
0.0
 10
702.038371270888
 20
446.8283246088876
 30
0.0
 10
702.1159720466933
 20
446.9553194412126
 30
0.0
 10
702.1300969381828
 20
446.9835692241916
 30
0.0
 10
702.1477530525447
 20
447.0082447206048
 30
0.0
 10
702.165366103213
 20
447.0329202170178
 30
0.0
 10
702.2394356561459
 20
447.156426890164
 30
0.0
 10
702.3170794956447
 20
447.2763592767443
 30
0.0
 10
702.3982114943224
 20
447.3962916633246
 30
0.0
 10
702.479343493
 20
447.5197983364708
 30
0.0
 10
702.5675379374223
 20
447.639730723051
 30
0.0
 10
702.6557323818448
 20
447.7596631096313
 30
0.0
 10
702.676919719079
 20
447.7949753383551
 30
0.0
 10
702.7015521517986
 20
447.8266702168194
 30
0.0
 10
702.7298019347777
 20
447.8584512226709
 30
0.0
 10
702.8144651563276
 20
447.9713642271999
 30
0.0
 10
702.9026596007501
 20
448.080702945163
 30
0.0
 10
702.9908540451725
 20
448.1865104402538
 30
0.0
 10
703.0578611523606
 20
448.2747048846761
 30
0.0
 10
703.1284425461146
 20
448.3558368833538
 30
0.0
 10
703.2025551627411
 20
448.4405001049038
 30
0.0
 10
703.2272306591542
 20
448.4687498878828
 30
0.0
 10
703.2554373784396
 20
448.5005308937343
 30
0.0
 10
703.2836871614187
 20
448.5286945493262
 30
0.0
 10
703.3118938807041
 20
448.56400677805
 30
0.0
 10
703.343631822862
 20
448.5992759430802
 30
0.0
 10
703.3824752744582
 20
448.6345451081105
 30
0.0
 10
703.4706697188806
 20
448.7298019982777
 30
0.0
 10
703.5623523224818
 20
448.8250588884448
 30
0.0
 10
703.6540779897766
 20
448.9167845557396
 30
0.0
 10
703.7951977135912
 20
449.0613924387329
 30
0.0
 10
703.9362743737122
 20
449.1954927804963
 30
0.0
 10
704.084499606965
 20
449.3224445491277
 30
0.0
 10
704.2961145971465
 20
449.5164895523345
 30
0.0
 10
704.5113469375875
 20
449.6928784411792
 30
0.0
 10
704.7370868192585
 20
449.8586736614069
 30
0.0
 10
704.8111994358849
 20
449.9186613865438
 30
0.0
 10
704.8923314345625
 20
449.9751178888083
 30
0.0
 10
704.9699752740613
 20
450.0280001045069
 30
0.0
 10
705.0616578776626
 20
450.0950502753886
 30
0.0
 10
705.1533835449574
 20
450.1585692233979
 30
0.0
 10
705.2486404351245
 20
450.2185138848412
 30
0.0
 10
705.2697847086653
 20
450.2361699992031
 30
0.0
 10
705.2874408230272
 20
450.2502948906927
 30
0.0
 10
705.3086281602614
 20
450.2608885593098
 30
0.0
 10
705.4426423746377
 20
450.3490830037322
 30
0.0
 10
705.576742716401
 20
450.4302150024099
 30
0.0
 10
705.7107569307772
 20
450.5113470010875
 30
0.0
 10
705.7248818222668
 20
450.5184094468322
 30
0.0
 10
705.7390067137562
 20
450.5290031154494
 30
0.0
 10
705.7531316052458
 20
450.5324912746282
 30
0.0
 10
705.9012707111115
 20
450.6206857190506
 30
0.0
 10
706.0494528806709
 20
450.7018607814218
 30
0.0
 10
706.2011662731026
 20
450.779461557227
 30
0.0
 10
706.3598990475854
 20
450.8641247787771
 30
0.0
 10
706.5221630449407
 20
450.9417255545823
 30
0.0
 10
706.6879582651683
 20
451.0157951075151
 30
0.0
 10
706.769090263846
 20
451.0546385591114
 30
0.0
 10
706.8537534853959
 20
451.089864660448
 30
0.0
 10
706.9348854840736
 20
451.1251768891718
 30
0.0
 10
707.2030000402132
 20
451.2380468300074
 30
0.0
 10
707.4711145963528
 20
451.3368349430469
 30
0.0
 10
707.7462915982371
 20
451.4250293874693
 30
0.0
 10
707.8168299282976
 20
451.4497048838824
 30
0.0
 10
707.8874113220517
 20
451.4708922211167
 30
0.0
 10
707.9544614929333
 20
451.492079558351
 30
0.0
 10
708.2190448262005
 20
451.5696803341562
 30
0.0
 10
708.4836281594677
 20
451.6402186642167
 30
0.0
 10
708.7482114927349
 20
451.6966751664812
 30
0.0
 10
708.8364059371572
 20
451.7142882171496
 30
0.0
 10
708.9210691587073
 20
451.7319443315115
 30
0.0
 10
709.0092636031296
 20
451.7496004458734
 30
0.0
 10
709.0092636031296
 20
451.7496004458734
 30
0.0
 10
709.012794826002
 20
451.7496004458734
 30
0.0
 10
709.012794826002
 20
451.7496004458734
 30
0.0
 10
709.12919598971
 20
451.7742759422865
 30
0.0
 10
709.2420659305454
 20
451.7918889929549
 30
0.0
 10
709.3585101579469
 20
451.8095451073168
 30
0.0
 10
709.4995868180679
 20
451.830732444551
 30
0.0
 10
709.6372183827036
 20
451.8483885589129
 30
0.0
 10
709.7782950428245
 20
451.8624703867089
 30
0.0
 10
709.7924199343141
 20
451.8660016095812
 30
0.0
 10
709.810076048676
 20
451.8695328324537
 30
0.0
 10
709.824157876472
 20
451.8695328324537
 30
0.0
 10
709.8629582643746
 20
451.8765522145048
 30
0.0
 10
709.9053329388431
 20
451.8800834373772
 30
0.0
 10
709.9440902630522
 20
451.8800834373772
 30
0.0
 10
710.0852530505604
 20
451.8977395517391
 30
0.0
 10
710.2263297106813
 20
451.9083332203563
 30
0.0
 10
710.3709806573682
 20
451.915395666101
 30
0.0
 10
710.3709806573682
 20
451.915395666101
 30
0.0
 10
710.3956561537814
 20
451.915395666101
 30
0.0
 10
710.3956561537814
 20
451.915395666101
 30
0.0
 10
710.5720450426261
 20
451.9259893347182
 30
0.0
 10
710.7484339314709
 20
451.9295205575905
 30
0.0
 10
710.9248228203157
 20
451.9295205575905
 30
0.0
 10
710.9248228203157
 20
451.9295205575905
 30
0.0
 10
903.4497637715334
 20
451.9295205575905
 30
0.0
 10
903.4497637715334
 20
451.9295205575905
 30
0.0
 10
909.1295204432906
 20
451.9295205575905
 30
0.0
 10
913.7368188904894
 20
447.3257533332641
 30
0.0
 10
913.7368188904894
 20
441.6459966615069
 30
0.0
  0
ENDBLK
  5
164
330
161
100
AcDbEntity
  8
0
100
AcDbBlockEnd
  0
ENDSEC
  0
SECTION
  2
ENTITIES
  0
INSERT
  5
41
330
1F
100
AcDbEntity
  8
0
100
AcDbBlockReference
  2
block 2
 10
0.0
 20
0.0
 30
0.0
  0
INSERT
  5
46
330
1F
100
AcDbEntity
  8
0
100
AcDbBlockReference
  2
block 3
 10
0.0
 20
0.0
 30
0.0
  0
INSERT
  5
4B
330
1F
100
AcDbEntity
  8
0
100
AcDbBlockReference
  2
block 4
 10
0.0
 20
0.0
 30
0.0
  0
INSERT
  5
50
330
1F
100
AcDbEntity
  8
0
100
AcDbBlockReference
  2
block 5
 10
0.0
 20
0.0
 30
0.0
  0
INSERT
  5
55
330
1F
100
AcDbEntity
  8
0
100
AcDbBlockReference
  2
block 6
 10
0.0
 20
0.0
 30
0.0
  0
INSERT
  5
5A
330
1F
100
AcDbEntity
  8
0
100
AcDbBlockReference
  2
block 7
 10
0.0
 20
0.0
 30
0.0
  0
INSERT
  5
5F
330
1F
100
AcDbEntity
  8
0
100
AcDbBlockReference
  2
block 8
 10
0.0
 20
0.0
 30
0.0
  0
INSERT
  5
64
330
1F
100
AcDbEntity
  8
0
100
AcDbBlockReference
  2
block 9
 10
0.0
 20
0.0
 30
0.0
  0
INSERT
  5
69
330
1F
100
AcDbEntity
  8
0
100
AcDbBlockReference
  2
block 10
 10
0.0
 20
0.0
 30
0.0
  0
INSERT
  5
6E
330
1F
100
AcDbEntity
  8
0
100
AcDbBlockReference
  2
block 11
 10
0.0
 20
0.0
 30
0.0
  0
INSERT
  5
73
330
1F
100
AcDbEntity
  8
0
100
AcDbBlockReference
  2
block 12
 10
0.0
 20
0.0
 30
0.0
  0
INSERT
  5
78
330
1F
100
AcDbEntity
  8
0
100
AcDbBlockReference
  2
block 13
 10
0.0
 20
0.0
 30
0.0
  0
INSERT
  5
7D
330
1F
100
AcDbEntity
  8
0
100
AcDbBlockReference
  2
block 14
 10
0.0
 20
0.0
 30
0.0
  0
INSERT
  5
82
330
1F
100
AcDbEntity
  8
0
100
AcDbBlockReference
  2
block 15
 10
0.0
 20
0.0
 30
0.0
  0
INSERT
  5
87
330
1F
100
AcDbEntity
  8
0
100
AcDbBlockReference
  2
block 16
 10
0.0
 20
0.0
 30
0.0
  0
INSERT
  5
8C
330
1F
100
AcDbEntity
  8
0
100
AcDbBlockReference
  2
block 17
 10
0.0
 20
0.0
 30
0.0
  0
INSERT
  5
91
330
1F
100
AcDbEntity
  8
0
100
AcDbBlockReference
  2
block 18
 10
0.0
 20
0.0
 30
0.0
  0
INSERT
  5
96
330
1F
100
AcDbEntity
  8
0
100
AcDbBlockReference
  2
block 19
 10
0.0
 20
0.0
 30
0.0
  0
INSERT
  5
9B
330
1F
100
AcDbEntity
  8
0
100
AcDbBlockReference
  2
block 20
 10
0.0
 20
0.0
 30
0.0
  0
INSERT
  5
153
330
1F
100
AcDbEntity
  8
0
100
AcDbBlockReference
  2
block 21
 10
0.0
 20
0.0
 30
0.0
  0
INSERT
  5
158
330
1F
100
AcDbEntity
  8
0
100
AcDbBlockReference
  2
block 22
 10
0.0
 20
0.0
 30
0.0
  0
INSERT
  5
15D
330
1F
100
AcDbEntity
  8
0
100
AcDbBlockReference
  2
block 23
 10
0.0
 20
0.0
 30
0.0
  0
INSERT
  5
162
330
1F
100
AcDbEntity
  8
0
100
AcDbBlockReference
  2
block 24
 10
0.0
 20
0.0
 30
0.0
  0
ENDSEC
  0
SECTION
  2
OBJECTS
  0
DICTIONARY
  5
C
330
0
100
AcDbDictionary
281
     1
  3
ACAD_GROUP
350
D
  3
ACAD_LAYOUT
350
1A
  3
ACAD_MATERIAL
350
3B
  3
ACAD_MLEADERSTYLE
350
167
  3
ACAD_MLINESTYLE
350
17
  3
ACAD_PLOTSETTINGS
350
19
  3
ACAD_PLOTSTYLENAME
350
E
  3
ACAD_TABLESTYLE
350
166
  3
ACAD_VISUALSTYLE
350
2A
  0
SUN
  5
3F
330
29
100
AcDbSun
 90
        1
290
     0
 63
     7
421
 16777215
 40
1.0
291
     1
 91
  2455826
 92
 54000000
292
     0
 70
     2
 71
   256
280
     1
  0
DICTIONARY
  5
D
102
{ACAD_REACTORS
330
C
102
}
330
C
100
AcDbDictionary
281
     1
  0
DICTIONARY
  5
1A
102
{ACAD_REACTORS
330
C
102
}
330
C
100
AcDbDictionary
281
     1
  3
Layout1
350
1E
  3
Layout2
350
26
  3
Model
350
22
  0
DICTIONARY
  5
3B
102
{ACAD_REACTORS
330
C
102
}
330
C
100
AcDbDictionary
281
     1
  3
ByBlock
350
3D
  3
ByLayer
350
3C
  3
Global
350
3E
  0
DICTIONARY
  5
167
102
{ACAD_REACTORS
330
C
102
}
330
C
100
AcDbDictionary
281
     1
  0
DICTIONARY
  5
17
102
{ACAD_REACTORS
330
C
102
}
330
C
100
AcDbDictionary
281
     1
  3
Standard
350
18
  0
DICTIONARY
  5
19
102
{ACAD_REACTORS
330
C
102
}
330
C
100
AcDbDictionary
281
     1
  0
ACDBDICTIONARYWDFLT
  5
E
102
{ACAD_REACTORS
330
C
102
}
330
C
100
AcDbDictionary
281
     1
  3
Normal
350
F
100
AcDbDictionaryWithDefault
340
F
  0
DICTIONARY
  5
166
102
{ACAD_REACTORS
330
C
102
}
330
C
100
AcDbDictionary
281
     1
  0
DICTIONARY
  5
2A
102
{ACAD_REACTORS
330
C
102
}
330
C
100
AcDbDictionary
281
     1
  3
2dWireframe
350
2F
  3
3D Hidden
350
31
  3
3dWireframe
350
30
  3
Basic
350
32
  3
Brighten
350
36
  3
ColorChange
350
3A
  3
Conceptual
350
34
  3
Dim
350
35
  3
Facepattern
350
39
  3
Flat
350
2B
  3
FlatWithEdges
350
2C
  3
Gouraud
350
2D
  3
GouraudWithEdges
350
2E
  3
Linepattern
350
38
  3
Realistic
350
33
  3
Thicken
350
37
  0
LAYOUT
  5
1E
102
{ACAD_REACTORS
330
1A
102
}
330
1A
100
AcDbPlotSettings
  1

  2
none_device
  4

  6

 40
0.0
 41
0.0
 42
0.0
 43
0.0
 44
0.0
 45
0.0
 46
0.0
 47
0.0
 48
0.0
 49
0.0
140
0.0
141
0.0
142
1.0
143
1.0
 70
   688
 72
     0
 73
     0
 74
     5
  7

 75
    16
 76
     0
 77
     2
 78
   300
147
1.0
148
0.0
149
0.0
100
AcDbLayout
  1
Layout1
 70
     1
 71
     1
 10
0.0
 20
0.0
 11
12.0
 21
9.0
 12
0.0
 22
0.0
 32
0.0
 14
1.000000000000000E+20
 24
1.000000000000000E+20
 34
1.000000000000000E+20
 15
-1.000000000000000E+20
 25
-1.000000000000000E+20
 35
-1.000000000000000E+20
146
0.0
 13
0.0
 23
0.0
 33
0.0
 16
1.0
 26
0.0
 36
0.0
 17
0.0
 27
1.0
 37
0.0
 76
     0
330
1B
  0
LAYOUT
  5
26
102
{ACAD_REACTORS
330
1A
102
}
330
1A
100
AcDbPlotSettings
  1

  2
none_device
  4

  6

 40
0.0
 41
0.0
 42
0.0
 43
0.0
 44
0.0
 45
0.0
 46
0.0
 47
0.0
 48
0.0
 49
0.0
140
0.0
141
0.0
142
1.0
143
1.0
 70
   688
 72
     0
 73
     0
 74
     5
  7

 75
    16
 76
     0
 77
     2
 78
   300
147
1.0
148
0.0
149
0.0
100
AcDbLayout
  1
Layout2
 70
     1
 71
     2
 10
0.0
 20
0.0
 11
0.0
 21
0.0
 12
0.0
 22
0.0
 32
0.0
 14
0.0
 24
0.0
 34
0.0
 15
0.0
 25
0.0
 35
0.0
146
0.0
 13
0.0
 23
0.0
 33
0.0
 16
1.0
 26
0.0
 36
0.0
 17
0.0
 27
1.0
 37
0.0
 76
     0
330
23
  0
LAYOUT
  5
22
102
{ACAD_REACTORS
330
1A
102
}
330
1A
100
AcDbPlotSettings
  1

  2
none_device
  4

  6

 40
0.0
 41
0.0
 42
0.0
 43
0.0
 44
0.0
 45
0.0
 46
0.0
 47
0.0
 48
0.0
 49
0.0
140
0.0
141
0.0
142
1.0
143
1.0
 70
  1712
 72
     0
 73
     0
 74
     0
  7

 75
     0
 76
     0
 77
     2
 78
   300
147
1.0
148
0.0
149
0.0
100
AcDbLayout
  1
Model
 70
     1
 71
     0
 10
0.0
 20
0.0
 11
12.0
 21
9.0
 12
0.0
 22
0.0
 32
0.0
 14
1.000000000000000E+20
 24
1.000000000000000E+20
 34
1.000000000000000E+20
 15
-1.000000000000000E+20
 25
-1.000000000000000E+20
 35
-1.000000000000000E+20
146
0.0
 13
0.0
 23
0.0
 33
0.0
 16
1.0
 26
0.0
 36
0.0
 17
0.0
 27
1.0
 37
0.0
 76
     0
330
1F
331
29
  0
MATERIAL
  5
3D
102
{ACAD_REACTORS
330
3B
102
}
330
3B
100
AcDbMaterial
  1
ByBlock
 72
     1
 94
      127
  0
MATERIAL
  5
3C
102
{ACAD_REACTORS
330
3B
102
}
330
3B
100
AcDbMaterial
  1
ByLayer
 72
     1
 94
      127
  0
MATERIAL
  5
3E
102
{ACAD_REACTORS
330
3B
102
}
330
3B
100
AcDbMaterial
  1
Global
 72
     1
 94
      127
  0
MLINESTYLE
  5
18
102
{ACAD_REACTORS
330
17
102
}
330
17
100
AcDbMlineStyle
  2
Standard
 70
     0
  3

 62
   256
 51
90.0
 52
90.0
 71
     2
 49
0.5
 62
   256
  6
BYLAYER
 49
-0.5
 62
   256
  6
BYLAYER
  0
ACDBPLACEHOLDER
  5
F
102
{ACAD_REACTORS
330
E
102
}
330
E
  0
VISUALSTYLE
  5
2F
102
{ACAD_REACTORS
330
2A
102
}
330
2A
100
AcDbVisualStyle
  2
2dWireframe
 70
     4
177
     2
291
     0
 71
     0
176
     1
 72
     2
176
     1
 73
     0
176
     1
 90
        0
176
     1
 40
-0.6
176
     1
 41
-30.0
176
     1
 62
     5
 63
     7
421
 16777215
176
     1
 74
     1
176
     1
 91
        4
176
     1
 64
     7
176
     1
 65
   257
176
     1
 75
     1
176
     1
175
     1
176
     1
 42
1.0
176
     1
 92
        0
176
     1
 66
   257
176
     1
 43
1.0
176
     1
 76
     1
176
     1
 77
     6
176
     1
 78
     2
176
     1
 67
     7
176
     1
 79
     5
176
     1
170
     0
176
     1
171
     0
176
     1
290
     0
176
     1
 93
        1
176
     1
 44
0.0
176
     1
173
     0
176
     1
  0
VISUALSTYLE
  5
31
102
{ACAD_REACTORS
330
2A
102
}
330
2A
100
AcDbVisualStyle
  2
3D Hidden
 70
     6
177
     2
291
     0
 71
     1
176
     1
 72
     2
176
     1
 73
     2
176
     1
 90
        0
176
     1
 40
-0.6
176
     1
 41
-30.0
176
     1
 62
     5
 63
     7
421
 16777215
176
     1
 74
     2
176
     1
 91
        2
176
     1
 64
     7
176
     1
 65
   257
176
     1
 75
     2
176
     1
175
     1
176
     1
 42
40.0
176
     1
 92
        0
176
     1
 66
   257
176
     1
 43
1.0
176
     1
 76
     1
176
     1
 77
     6
176
     1
 78
     2
176
     1
 67
     7
176
     1
 79
     3
176
     1
170
     0
176
     1
171
     0
176
     1
290
     0
176
     1
 93
        1
176
     1
 44
0.0
176
     1
173
     0
176
     1
  0
VISUALSTYLE
  5
30
102
{ACAD_REACTORS
330
2A
102
}
330
2A
100
AcDbVisualStyle
  2
3dWireframe
 70
     5
177
     2
291
     0
 71
     0
176
     1
 72
     2
176
     1
 73
     0
176
     1
 90
        0
176
     1
 40
-0.6
176
     1
 41
-30.0
176
     1
 62
     5
 63
     7
421
 16777215
176
     1
 74
     1
176
     1
 91
        4
176
     1
 64
     7
176
     1
 65
   257
176
     1
 75
     1
176
     1
175
     1
176
     1
 42
1.0
176
     1
 92
        0
176
     1
 66
   257
176
     1
 43
1.0
176
     1
 76
     1
176
     1
 77
     6
176
     1
 78
     2
176
     1
 67
     7
176
     1
 79
     5
176
     1
170
     0
176
     1
171
     0
176
     1
290
     0
176
     1
 93
        1
176
     1
 44
0.0
176
     1
173
     0
176
     1
  0
VISUALSTYLE
  5
32
102
{ACAD_REACTORS
330
2A
102
}
330
2A
100
AcDbVisualStyle
  2
Basic
 70
     7
177
     2
291
     1
 71
     1
176
     1
 72
     0
176
     1
 73
     1
176
     1
 90
        0
176
     1
 40
-0.6
176
     1
 41
-30.0
176
     1
 62
     5
 63
     7
421
 16777215
176
     1
 74
     0
176
     1
 91
        4
176
     1
 64
     7
176
     1
 65
   257
176
     1
 75
     1
176
     1
175
     1
176
     1
 42
1.0
176
     1
 92
        8
176
     1
 66
     7
176
     1
 43
1.0
176
     1
 76
     1
176
     1
 77
     6
176
     1
 78
     2
176
     1
 67
     7
176
     1
 79
     5
176
     1
170
     0
176
     1
171
     0
176
     1
290
     0
176
     1
 93
        1
176
     1
 44
0.0
176
     1
173
     0
176
     1
  0
VISUALSTYLE
  5
36
102
{ACAD_REACTORS
330
2A
102
}
330
2A
100
AcDbVisualStyle
  2
Brighten
 70
    12
177
     2
291
     1
 71
     2
176
     1
 72
     2
176
     1
 73
     0
176
     1
 90
        0
176
     1
 40
-0.6
176
     1
 41
-30.0
176
     1
 62
     5
 63
     7
421
 16777215
176
     1
 74
     1
176
     1
 91
        4
176
     1
 64
     7
176
     1
 65
   257
176
     1
 75
     1
176
     1
175
     1
176
     1
 42
1.0
176
     1
 92
        8
176
     1
 66
     7
176
     1
 43
1.0
176
     1
 76
     1
176
     1
 77
     6
176
     1
 78
     2
176
     1
 67
     7
176
     1
 79
     5
176
     1
170
     0
176
     1
171
     0
176
     1
290
     0
176
     1
 93
        1
176
     1
 44
50.0
176
     1
173
     0
176
     1
  0
VISUALSTYLE
  5
3A
102
{ACAD_REACTORS
330
2A
102
}
330
2A
100
AcDbVisualStyle
  2
ColorChange
 70
    16
177
     2
291
     1
 71
     2
176
     1
 72
     2
176
     1
 73
     3
176
     1
 90
        0
176
     1
 40
-0.6
176
     1
 41
-30.0
176
     1
 62
     5
 63
     8
421
  8421504
176
     1
 74
     1
176
     1
 91
        4
176
     1
 64
     7
176
     1
 65
   257
176
     1
 75
     1
176
     1
175
     1
176
     1
 42
1.0
176
     1
 92
        8
176
     1
 66
     8
424
  8421504
176
     1
 43
1.0
176
     1
 76
     1
176
     1
 77
     6
176
     1
 78
     2
176
     1
 67
     7
176
     1
 79
     5
176
     1
170
     0
176
     1
171
     0
176
     1
290
     0
176
     1
 93
        1
176
     1
 44
0.0
176
     1
173
     0
176
     1
  0
VISUALSTYLE
  5
34
102
{ACAD_REACTORS
330
2A
102
}
330
2A
100
AcDbVisualStyle
  2
Conceptual
 70
     9
177
     2
291
     0
 71
     3
176
     1
 72
     2
176
     1
 73
     0
176
     1
 90
        0
176
     1
 40
-0.6
176
     1
 41
-30.0
176
     1
 62
     5
 63
     7
421
 16777215
176
     1
 74
     2
176
     1
 91
        2
176
     1
 64
     7
176
     1
 65
   257
176
     1
 75
     1
176
     1
175
     1
176
     1
 42
40.0
176
     1
 92
        8
176
     1
 66
     7
176
     1
 43
1.0
176
     1
 76
     1
176
     1
 77
     6
176
     1
 78
     2
176
     1
 67
     7
176
     1
 79
     3
176
     1
170
     0
176
     1
171
     0
176
     1
290
     0
176
     1
 93
        1
176
     1
 44
0.0
176
     1
173
     0
176
     1
  0
VISUALSTYLE
  5
35
102
{ACAD_REACTORS
330
2A
102
}
330
2A
100
AcDbVisualStyle
  2
Dim
 70
    11
177
     2
291
     1
 71
     2
176
     1
 72
     2
176
     1
 73
     0
176
     1
 90
        0
176
     1
 40
-0.6
176
     1
 41
-30.0
176
     1
 62
     5
 63
     7
421
 16777215
176
     1
 74
     1
176
     1
 91
        4
176
     1
 64
     7
176
     1
 65
   257
176
     1
 75
     1
176
     1
175
     1
176
     1
 42
1.0
176
     1
 92
        8
176
     1
 66
     7
176
     1
 43
1.0
176
     1
 76
     1
176
     1
 77
     6
176
     1
 78
     2
176
     1
 67
     7
176
     1
 79
     5
176
     1
170
     0
176
     1
171
     0
176
     1
290
     0
176
     1
 93
        1
176
     1
 44
-50.0
176
     1
173
     0
176
     1
  0
VISUALSTYLE
  5
39
102
{ACAD_REACTORS
330
2A
102
}
330
2A
100
AcDbVisualStyle
  2
Facepattern
 70
    15
177
     2
291
     1
 71
     2
176
     1
 72
     2
176
     1
 73
     0
176
     1
 90
        0
176
     1
 40
-0.6
176
     1
 41
-30.0
176
     1
 62
     5
 63
     7
421
 16777215
176
     1
 74
     1
176
     1
 91
        4
176
     1
 64
     7
176
     1
 65
   257
176
     1
 75
     1
176
     1
175
     1
176
     1
 42
1.0
176
     1
 92
        8
176
     1
 66
     7
176
     1
 43
1.0
176
     1
 76
     1
176
     1
 77
     6
176
     1
 78
     2
176
     1
 67
     7
176
     1
 79
     5
176
     1
170
     0
176
     1
171
     0
176
     1
290
     0
176
     1
 93
        1
176
     1
 44
0.0
176
     1
173
     0
176
     1
  0
VISUALSTYLE
  5
2B
102
{ACAD_REACTORS
330
2A
102
}
330
2A
100
AcDbVisualStyle
  2
Flat
 70
     0
177
     2
291
     1
 71
     2
176
     1
 72
     1
176
     1
 73
     1
176
     1
 90
        2
176
     1
 40
-0.6
176
     1
 41
30.0
176
     1
 62
     5
 63
     7
421
 16777215
176
     1
 74
     0
176
     1
 91
        4
176
     1
 64
     7
176
     1
 65
   257
176
     1
 75
     1
176
     1
175
     1
176
     1
 42
1.0
176
     1
 92
        8
176
     1
 66
     7
176
     1
 43
1.0
176
     1
 76
     1
176
     1
 77
     6
176
     1
 78
     2
176
     1
 67
     7
176
     1
 79
     5
176
     1
170
     0
176
     1
171
     0
176
     1
290
     0
176
     1
 93
       13
176
     1
 44
0.0
176
     1
173
     0
176
     1
  0
VISUALSTYLE
  5
2C
102
{ACAD_REACTORS
330
2A
102
}
330
2A
100
AcDbVisualStyle
  2
FlatWithEdges
 70
     1
177
     2
291
     1
 71
     2
176
     1
 72
     1
176
     1
 73
     1
176
     1
 90
        2
176
     1
 40
-0.6
176
     1
 41
30.0
176
     1
 62
     5
 63
     7
421
 16777215
176
     1
 74
     1
176
     1
 91
        4
176
     1
 64
     7
176
     1
 65
   257
176
     1
 75
     1
176
     1
175
     1
176
     1
 42
1.0
176
     1
 92
        0
176
     1
 66
   257
176
     1
 43
1.0
176
     1
 76
     1
176
     1
 77
     6
176
     1
 78
     2
176
     1
 67
     7
176
     1
 79
     5
176
     1
170
     0
176
     1
171
     0
176
     1
290
     0
176
     1
 93
       13
176
     1
 44
0.0
176
     1
173
     0
176
     1
  0
VISUALSTYLE
  5
2D
102
{ACAD_REACTORS
330
2A
102
}
330
2A
100
AcDbVisualStyle
  2
Gouraud
 70
     2
177
     2
291
     1
 71
     2
176
     1
 72
     2
176
     1
 73
     1
176
     1
 90
        2
176
     1
 40
-0.6
176
     1
 41
30.0
176
     1
 62
     5
 63
     7
421
 16777215
176
     1
 74
     0
176
     1
 91
        4
176
     1
 64
     7
176
     1
 65
   257
176
     1
 75
     1
176
     1
175
     1
176
     1
 42
1.0
176
     1
 92
        0
176
     1
 66
     7
176
     1
 43
1.0
176
     1
 76
     1
176
     1
 77
     6
176
     1
 78
     2
176
     1
 67
     7
176
     1
 79
     5
176
     1
170
     0
176
     1
171
     0
176
     1
290
     0
176
     1
 93
       13
176
     1
 44
0.0
176
     1
173
     0
176
     1
  0
VISUALSTYLE
  5
2E
102
{ACAD_REACTORS
330
2A
102
}
330
2A
100
AcDbVisualStyle
  2
GouraudWithEdges
 70
     3
177
     2
291
     1
 71
     2
176
     1
 72
     2
176
     1
 73
     1
176
     1
 90
        2
176
     1
 40
-0.6
176
     1
 41
30.0
176
     1
 62
     5
 63
     7
421
 16777215
176
     1
 74
     1
176
     1
 91
        4
176
     1
 64
     7
176
     1
 65
   257
176
     1
 75
     1
176
     1
175
     1
176
     1
 42
1.0
176
     1
 92
        0
176
     1
 66
   257
176
     1
 43
1.0
176
     1
 76
     1
176
     1
 77
     6
176
     1
 78
     2
176
     1
 67
     7
176
     1
 79
     5
176
     1
170
     0
176
     1
171
     0
176
     1
290
     0
176
     1
 93
       13
176
     1
 44
0.0
176
     1
173
     0
176
     1
  0
VISUALSTYLE
  5
38
102
{ACAD_REACTORS
330
2A
102
}
330
2A
100
AcDbVisualStyle
  2
Linepattern
 70
    14
177
     2
291
     1
 71
     2
176
     1
 72
     2
176
     1
 73
     0
176
     1
 90
        0
176
     1
 40
-0.6
176
     1
 41
-30.0
176
     1
 62
     5
 63
     7
421
 16777215
176
     1
 74
     1
176
     1
 91
        4
176
     1
 64
     7
176
     1
 65
   257
176
     1
 75
     7
176
     1
175
     7
176
     1
 42
1.0
176
     1
 92
        8
176
     1
 66
     7
176
     1
 43
1.0
176
     1
 76
     1
176
     1
 77
     6
176
     1
 78
     2
176
     1
 67
     7
176
     1
 79
     5
176
     1
170
     0
176
     1
171
     0
176
     1
290
     0
176
     1
 93
        1
176
     1
 44
0.0
176
     1
173
     0
176
     1
  0
VISUALSTYLE
  5
33
102
{ACAD_REACTORS
330
2A
102
}
330
2A
100
AcDbVisualStyle
  2
Realistic
 70
     8
177
     2
291
     0
 71
     2
176
     1
 72
     2
176
     1
 73
     0
176
     1
 90
        0
176
     1
 40
-0.6
176
     1
 41
-30.0
176
     1
 62
     5
 63
     7
421
 16777215
176
     1
 74
     1
176
     1
 91
        0
176
     1
 64
     7
176
     1
 65
   257
176
     1
 75
     1
176
     1
175
     1
176
     1
 42
1.0
176
     1
 92
        8
176
     1
 66
     8
424
  7895160
176
     1
 43
1.0
176
     1
 76
     1
176
     1
 77
     6
176
     1
 78
     2
176
     1
 67
     7
176
     1
 79
     5
176
     1
170
     0
176
     1
171
     0
176
     1
290
     0
176
     1
 93
       13
176
     1
 44
0.0
176
     1
173
     0
176
     1
  0
VISUALSTYLE
  5
37
102
{ACAD_REACTORS
330
2A
102
}
330
2A
100
AcDbVisualStyle
  2
Thicken
 70
    13
177
     2
291
     1
 71
     2
176
     1
 72
     2
176
     1
 73
     0
176
     1
 90
        0
176
     1
 40
-0.6
176
     1
 41
-30.0
176
     1
 62
     5
 63
     7
421
 16777215
176
     1
 74
     1
176
     1
 91
        4
176
     1
 64
     7
176
     1
 65
   257
176
     1
 75
     1
176
     1
175
     1
176
     1
 42
1.0
176
     1
 92
       12
176
     1
 66
     7
176
     1
 43
1.0
176
     1
 76
     1
176
     1
 77
     6
176
     1
 78
     2
176
     1
 67
     7
176
     1
 79
     5
176
     1
170
     0
176
     1
171
     0
176
     1
290
     0
176
     1
 93
        1
176
     1
 44
0.0
176
     1
173
     0
176
     1
  0
ENDSEC
  0
EOF
