  0
SECTION
  2
HEADER
  9
$ACADVER
  1
AC1024
  9
$ACADMAINTVER
 70
     6
  9
$DWGCODEPAGE
  3
ANSI_1252
  9
$INSBASE
 10
0.0
 20
0.0
 30
0.0
  9
$EXTMIN
 10
1.000000000000000E+20
 20
1.000000000000000E+20
 30
1.000000000000000E+20
  9
$EXTMAX
 10
-1.000000000000000E+20
 20
-1.000000000000000E+20
 30
-1.000000000000000E+20
  9
$LIMMIN
 10
0.0
 20
0.0
  9
$LIMMAX
 10
12.0
 20
9.0
  9
$ORTHOMODE
 70
     0
  9
$REGENMODE
 70
     1
  9
$FILLMODE
 70
     1
  9
$QTEXTMODE
 70
     0
  9
$MIRRTEXT
 70
     1
  9
$LTSCALE
 40
1.0
  9
$ATTMODE
 70
     1
  9
$TEXTSIZE
 40
0.2
  9
$TRACEWID
 40
0.05
  9
$TEXTSTYLE
  7
Standard
  9
$CLAYER
  8
0
  9
$CELTYPE
  6
ByLayer
  9
$CECOLOR
 62
   256
  9
$CELTSCALE
 40
1.0
  9
$DISPSILH
 70
     0
  9
$DIMSCALE
 40
1.0
  9
$DIMASZ
 40
0.18
  9
$DIMEXO
 40
0.0625
  9
$DIMDLI
 40
0.38
  9
$DIMRND
 40
0.0
  9
$DIMDLE
 40
0.0
  9
$DIMEXE
 40
0.18
  9
$DIMTP
 40
0.0
  9
$DIMTM
 40
0.0
  9
$DIMTXT
 40
0.18
  9
$DIMCEN
 40
0.09
  9
$DIMTSZ
 40
0.0
  9
$DIMTOL
 70
     0
  9
$DIMLIM
 70
     0
  9
$DIMTIH
 70
     1
  9
$DIMTOH
 70
     1
  9
$DIMSE1
 70
     0
  9
$DIMSE2
 70
     0
  9
$DIMTAD
 70
     0
  9
$DIMZIN
 70
     0
  9
$DIMBLK
  1

  9
$DIMASO
 70
     1
  9
$DIMSHO
 70
     1
  9
$DIMPOST
  1

  9
$DIMAPOST
  1

  9
$DIMALT
 70
     0
  9
$DIMALTD
 70
     2
  9
$DIMALTF
 40
25.4
  9
$DIMLFAC
 40
1.0
  9
$DIMTOFL
 70
     0
  9
$DIMTVP
 40
0.0
  9
$DIMTIX
 70
     0
  9
$DIMSOXD
 70
     0
  9
$DIMSAH
 70
     0
  9
$DIMBLK1
  1

  9
$DIMBLK2
  1

  9
$DIMSTYLE
  2
Standard
  9
$DIMCLRD
 70
     0
  9
$DIMCLRE
 70
     0
  9
$DIMCLRT
 70
     0
  9
$DIMTFAC
 40
1.0
  9
$DIMGAP
 40
0.09
  9
$DIMJUST
 70
     0
  9
$DIMSD1
 70
     0
  9
$DIMSD2
 70
     0
  9
$DIMTOLJ
 70
     1
  9
$DIMTZIN
 70
     0
  9
$DIMALTZ
 70
     0
  9
$DIMALTTZ
 70
     0
  9
$DIMUPT
 70
     0
  9
$DIMDEC
 70
     4
  9
$DIMTDEC
 70
     4
  9
$DIMALTU
 70
     2
  9
$DIMALTTD
 70
     2
  9
$DIMTXSTY
  7
Standard
  9
$DIMAUNIT
 70
     0
  9
$DIMADEC
 70
     0
  9
$DIMALTRND
 40
0.0
  9
$DIMAZIN
 70
     0
  9
$DIMDSEP
 70
    46
  9
$DIMATFIT
 70
     3
  9
$DIMFRAC
 70
     0
  9
$DIMLDRBLK
  1

  9
$DIMLUNIT
 70
     2
  9
$DIMLWD
 70
    -2
  9
$DIMLWE
 70
    -2
  9
$DIMTMOVE
 70
     0
  9
$DIMFXL
 40
1.0
  9
$DIMFXLON
 70
     0
  9
$DIMJOGANG
 40
0.7853981633974483
  9
$DIMTFILL
 70
     0
  9
$DIMTFILLCLR
 70
     0
  9
$DIMARCSYM
 70
     0
  9
$DIMLTYPE
  6

  9
$DIMLTEX1
  6

  9
$DIMLTEX2
  6

  9
$DIMTXTDIRECTION
 70
     0
  9
$LUNITS
 70
     2
  9
$LUPREC
 70
     4
  9
$SKETCHINC
 40
0.1
  9
$FILLETRAD
 40
0.5
  9
$AUNITS
 70
     0
  9
$AUPREC
 70
     0
  9
$MENU
  1
.
  9
$ELEVATION
 40
0.0
  9
$PELEVATION
 40
0.0
  9
$THICKNESS
 40
0.0
  9
$LIMCHECK
 70
     0
  9
$CHAMFERA
 40
0.5
  9
$CHAMFERB
 40
0.5
  9
$CHAMFERC
 40
1.0
  9
$CHAMFERD
 40
0.0
  9
$SKPOLY
 70
     0
  9
$TDCREATE
 40
2460223.931217523
  9
$TDUCREATE
 40
2460224.056217523
  9
$TDUPDATE
 40
2460223.931217847
  9
$TDUUPDATE
 40
2460224.056217847
  9
$TDINDWG
 40
0.0000000116
  9
$TDUSRTIMER
 40
0.0000000116
  9
$USRTIMER
 70
     1
  9
$ANGBASE
 50
0.0
  9
$ANGDIR
 70
     0
  9
$PDMODE
 70
     0
  9
$PDSIZE
 40
0.0
  9
$PLINEWID
 40
0.0
  9
$SPLFRAME
 70
     0
  9
$SPLINETYPE
 70
     6
  9
$SPLINESEGS
 70
     8
  9
$HANDSEED
  5
275
  9
$SURFTAB1
 70
     6
  9
$SURFTAB2
 70
     6
  9
$SURFTYPE
 70
     6
  9
$SURFU
 70
     6
  9
$SURFV
 70
     6
  9
$UCSBASE
  2

  9
$UCSNAME
  2

  9
$UCSORG
 10
0.0
 20
0.0
 30
0.0
  9
$UCSXDIR
 10
1.0
 20
0.0
 30
0.0
  9
$UCSYDIR
 10
0.0
 20
1.0
 30
0.0
  9
$UCSORTHOREF
  2

  9
$UCSORTHOVIEW
 70
     0
  9
$UCSORGTOP
 10
0.0
 20
0.0
 30
0.0
  9
$UCSORGBOTTOM
 10
0.0
 20
0.0
 30
0.0
  9
$UCSORGLEFT
 10
0.0
 20
0.0
 30
0.0
  9
$UCSORGRIGHT
 10
0.0
 20
0.0
 30
0.0
  9
$UCSORGFRONT
 10
0.0
 20
0.0
 30
0.0
  9
$UCSORGBACK
 10
0.0
 20
0.0
 30
0.0
  9
$PUCSBASE
  2

  9
$PUCSNAME
  2

  9
$PUCSORG
 10
0.0
 20
0.0
 30
0.0
  9
$PUCSXDIR
 10
1.0
 20
0.0
 30
0.0
  9
$PUCSYDIR
 10
0.0
 20
1.0
 30
0.0
  9
$PUCSORTHOREF
  2

  9
$PUCSORTHOVIEW
 70
     0
  9
$PUCSORGTOP
 10
0.0
 20
0.0
 30
0.0
  9
$PUCSORGBOTTOM
 10
0.0
 20
0.0
 30
0.0
  9
$PUCSORGLEFT
 10
0.0
 20
0.0
 30
0.0
  9
$PUCSORGRIGHT
 10
0.0
 20
0.0
 30
0.0
  9
$PUCSORGFRONT
 10
0.0
 20
0.0
 30
0.0
  9
$PUCSORGBACK
 10
0.0
 20
0.0
 30
0.0
  9
$USERI1
 70
     0
  9
$USERI2
 70
     0
  9
$USERI3
 70
     0
  9
$USERI4
 70
     0
  9
$USERI5
 70
     0
  9
$USERR1
 40
0.0
  9
$USERR2
 40
0.0
  9
$USERR3
 40
0.0
  9
$USERR4
 40
0.0
  9
$USERR5
 40
0.0
  9
$WORLDVIEW
 70
     1
  9
$SHADEDGE
 70
     3
  9
$SHADEDIF
 70
    70
  9
$TILEMODE
 70
     1
  9
$MAXACTVP
 70
    64
  9
$PINSBASE
 10
0.0
 20
0.0
 30
0.0
  9
$PLIMCHECK
 70
     0
  9
$PEXTMIN
 10
1.000000000000000E+20
 20
1.000000000000000E+20
 30
1.000000000000000E+20
  9
$PEXTMAX
 10
-1.000000000000000E+20
 20
-1.000000000000000E+20
 30
-1.000000000000000E+20
  9
$PLIMMIN
 10
0.0
 20
0.0
  9
$PLIMMAX
 10
12.0
 20
9.0
  9
$UNITMODE
 70
     0
  9
$VISRETAIN
 70
     1
  9
$PLINEGEN
 70
     0
  9
$PSLTSCALE
 70
     1
  9
$TREEDEPTH
 70
  3020
  9
$CMLSTYLE
  2
Standard
  9
$CMLJUST
 70
     0
  9
$CMLSCALE
 40
1.0
  9
$PROXYGRAPHICS
 70
     1
  9
$MEASUREMENT
 70
     0
  9
$CELWEIGHT
370
    -1
  9
$ENDCAPS
280
     0
  9
$JOINSTYLE
280
     0
  9
$LWDISPLAY
290
     1
  9
$INSUNITS
 70
     4
  9
$HYPERLINKBASE
  1

  9
$STYLESHEET
  1

  9
$XEDIT
290
     1
  9
$CEPSNTYPE
380
     0
  9
$PSTYLEMODE
290
     1
  9
$FINGERPRINTGUID
  2
{C768C168-F4CF-448A-A469-32EB139F3500}
  9
$VERSIONGUID
  2
{FAEB1C32-E019-11D5-929B-00C0DF256EC4}
  9
$EXTNAMES
290
     1
  9
$PSVPSCALE
 40
0.0
  9
$OLESTARTUP
290
     0
  9
$SORTENTS
280
   127
  9
$INDEXCTL
280
     0
  9
$HIDETEXT
280
     1
  9
$XCLIPFRAME
280
     2
  9
$HALOGAP
280
     0
  9
$OBSCOLOR
 70
   257
  9
$OBSLTYPE
280
     0
  9
$INTERSECTIONDISPLAY
280
     0
  9
$INTERSECTIONCOLOR
 70
   257
  9
$DIMASSOC
280
     2
  9
$PROJECTNAME
  1

  9
$CAMERADISPLAY
290
     0
  9
$LENSLENGTH
 40
50.0
  9
$CAMERAHEIGHT
 40
0.0
  9
$STEPSPERSEC
 40
2.0
  9
$STEPSIZE
 40
6.0
  9
$3DDWFPREC
 40
2.0
  9
$PSOLWIDTH
 40
0.25
  9
$PSOLHEIGHT
 40
4.0
  9
$LOFTANG1
 40
1.570796326794897
  9
$LOFTANG2
 40
1.570796326794897
  9
$LOFTMAG1
 40
0.0
  9
$LOFTMAG2
 40
0.0
  9
$LOFTPARAM
 70
     7
  9
$LOFTNORMALS
280
     1
  9
$LATITUDE
 40
37.795
  9
$LONGITUDE
 40
-122.394
  9
$NORTHDIRECTION
 40
0.0
  9
$TIMEZONE
 70
 -8000
  9
$LIGHTGLYPHDISPLAY
280
     1
  9
$TILEMODELIGHTSYNCH
280
     1
  9
$CMATERIAL
347
3C
  9
$SOLIDHIST
280
     1
  9
$SHOWHIST
280
     1
  9
$DWFFRAME
280
     2
  9
$DGNFRAME
280
     2
  9
$REALWORLDSCALE
290
     1
  9
$INTERFERECOLOR
 62
   256
  9
$CSHADOW
280
     0
  9
$SHADOWPLANELOCATION
 40
0.0
  0
ENDSEC
  0
SECTION
  2
CLASSES
  0
CLASS
  1
ACDBDICTIONARYWDFLT
  2
AcDbDictionaryWithDefault
  3
ObjectDBX Classes
 90
        0
 91
        4
280
     0
281
     0
  0
CLASS
  1
VISUALSTYLE
  2
AcDbVisualStyle
  3
ObjectDBX Classes
 90
     4095
 91
        4
280
     0
281
     0
  0
CLASS
  1
MATERIAL
  2
AcDbMaterial
  3
ObjectDBX Classes
 90
     1153
 91
        4
280
     0
281
     0
  0
CLASS
  1
SUN
  2
AcDbSun
  3
SCENEOE
 90
     1024
 91
        4
280
     0
281
     0
  0
ENDSEC
  0
SECTION
  2
TABLES
  0
TABLE
  2
VPORT
  5
8
330
0
100
AcDbSymbolTable
 70
     1
  0
VPORT
  5
29
330
8
100
AcDbSymbolTableRecord
100
AcDbViewportTableRecord
  2
*Active
 70
     0
 10
0.0
 20
0.0
 11
1.0
 21
1.0
 12
0.0
 22
0.0
 13
0.0
 23
0.0
 14
0.5
 24
0.5
 15
0.5
 25
0.5
 16
0.0
 26
0.0
 36
1.0
 17
689.9999998274917
 27
439.9999998900039
 37
0.0
 40
879.9999997800079
 41
1.568181818181785
 42
50.0
 43
0.0
 44
0.0
 50
0.0
 51
0.0
 71
     0
 72
   100
 73
     1
 74
     3
 75
     0
 76
     0
 77
     0
 78
     0
281
     0
 65
     1
110
0.0
120
0.0
130
0.0
111
1.0
121
0.0
131
0.0
112
0.0
122
1.0
132
0.0
 79
     0
146
0.0
 60
     3
 61
     5
292
     1
282
     1
141
0.0
142
0.0
 63
   250
361
3F
  0
ENDTAB
  0
TABLE
  2
LTYPE
  5
5
330
0
100
AcDbSymbolTable
 70
     1
  0
LTYPE
  5
14
330
5
100
AcDbSymbolTableRecord
100
AcDbLinetypeTableRecord
  2
ByBlock
 70
     0
  3

 72
    65
 73
     0
 40
0.0
  0
LTYPE
  5
15
330
5
100
AcDbSymbolTableRecord
100
AcDbLinetypeTableRecord
  2
ByLayer
 70
     0
  3

 72
    65
 73
     0
 40
0.0
  0
LTYPE
  5
16
330
5
100
AcDbSymbolTableRecord
100
AcDbLinetypeTableRecord
  2
Continuous
 70
     0
  3
Solid line
 72
    65
 73
     0
 40
0.0
  0
ENDTAB
  0
TABLE
  2
LAYER
  5
2
330
0
100
AcDbSymbolTable
 70
     1
  0
LAYER
  5
10
330
2
100
AcDbSymbolTableRecord
100
AcDbLayerTableRecord
  2
0
 70
     0
 62
     7
  6
Continuous
370
    -3
390
F
347
3E
  0
ENDTAB
  0
TABLE
  2
STYLE
  5
3
330
0
100
AcDbSymbolTable
 70
     1
  0
STYLE
  5
11
330
3
100
AcDbSymbolTableRecord
100
AcDbTextStyleTableRecord
  2
Standard
 70
     0
 40
0.0
 41
1.0
 50
0.0
 71
     0
 42
0.2
  3
txt
  4

  0
ENDTAB
  0
TABLE
  2
VIEW
  5
6
330
0
100
AcDbSymbolTable
 70
     0
  0
ENDTAB
  0
TABLE
  2
UCS
  5
7
330
0
100
AcDbSymbolTable
 70
     0
  0
ENDTAB
  0
TABLE
  2
APPID
  5
9
330
0
100
AcDbSymbolTable
 70
     1
  0
APPID
  5
12
330
9
100
AcDbSymbolTableRecord
100
AcDbRegAppTableRecord
  2
ACAD
 70
     0
  0
ENDTAB
  0
TABLE
  2
DIMSTYLE
  5
A
330
0
100
AcDbSymbolTable
 70
     1
100
AcDbDimStyleTable
  0
DIMSTYLE
105
27
330
A
100
AcDbSymbolTableRecord
100
AcDbDimStyleTableRecord
  2
Standard
 70
     0
178
     0
340
11
  0
ENDTAB
  0
TABLE
  2
BLOCK_RECORD
  5
1
330
0
100
AcDbSymbolTable
 70
    17
  0
BLOCK_RECORD
  5
1F
330
1
100
AcDbSymbolTableRecord
100
AcDbBlockTableRecord
  2
*Model_Space
340
22
 70
     0
280
     1
281
     0
  0
BLOCK_RECORD
  5
1B
330
1
100
AcDbSymbolTableRecord
100
AcDbBlockTableRecord
  2
*Paper_Space
340
1E
 70
     0
280
     1
281
     0
  0
BLOCK_RECORD
  5
23
330
1
100
AcDbSymbolTableRecord
100
AcDbBlockTableRecord
  2
*Paper_Space0
340
26
 70
     0
280
     1
281
     0
  0
BLOCK_RECORD
  5
40
330
1
100
AcDbSymbolTableRecord
100
AcDbBlockTableRecord
  2
block 2
340
0
102
{BLKREFS
331
41
102
}
 70
     0
280
     1
281
     0
  0
BLOCK_RECORD
  5
53
330
1
100
AcDbSymbolTableRecord
100
AcDbBlockTableRecord
  2
block 3
340
0
102
{BLKREFS
331
54
102
}
 70
     0
280
     1
281
     0
  0
BLOCK_RECORD
  5
69
330
1
100
AcDbSymbolTableRecord
100
AcDbBlockTableRecord
  2
block 4
340
0
102
{BLKREFS
331
6A
102
}
 70
     0
280
     1
281
     0
  0
BLOCK_RECORD
  5
7F
330
1
100
AcDbSymbolTableRecord
100
AcDbBlockTableRecord
  2
block 5
340
0
102
{BLKREFS
331
80
102
}
 70
     0
280
     1
281
     0
  0
BLOCK_RECORD
  5
84
330
1
100
AcDbSymbolTableRecord
100
AcDbBlockTableRecord
  2
block 6
340
0
102
{BLKREFS
331
85
102
}
 70
     0
280
     1
281
     0
  0
BLOCK_RECORD
  5
93
330
1
100
AcDbSymbolTableRecord
100
AcDbBlockTableRecord
  2
block 7
340
0
102
{BLKREFS
331
94
102
}
 70
     0
280
     1
281
     0
  0
BLOCK_RECORD
  5
A7
330
1
100
AcDbSymbolTableRecord
100
AcDbBlockTableRecord
  2
block 8
340
0
102
{BLKREFS
331
A8
102
}
 70
     0
280
     1
281
     0
  0
BLOCK_RECORD
  5
BA
330
1
100
AcDbSymbolTableRecord
100
AcDbBlockTableRecord
  2
block 9
340
0
102
{BLKREFS
331
BB
102
}
 70
     0
280
     1
281
     0
  0
BLOCK_RECORD
  5
11E
330
1
100
AcDbSymbolTableRecord
100
AcDbBlockTableRecord
  2
block 10
340
0
102
{BLKREFS
331
11F
102
}
 70
     0
280
     1
281
     0
  0
BLOCK_RECORD
  5
131
330
1
100
AcDbSymbolTableRecord
100
AcDbBlockTableRecord
  2
block 11
340
0
102
{BLKREFS
331
132
102
}
 70
     0
280
     1
281
     0
  0
BLOCK_RECORD
  5
147
330
1
100
AcDbSymbolTableRecord
100
AcDbBlockTableRecord
  2
block 12
340
0
102
{BLKREFS
331
148
102
}
 70
     0
280
     1
281
     0
  0
BLOCK_RECORD
  5
15D
330
1
100
AcDbSymbolTableRecord
100
AcDbBlockTableRecord
  2
block 13
340
0
102
{BLKREFS
331
15E
102
}
 70
     0
280
     1
281
     0
  0
BLOCK_RECORD
  5
162
330
1
100
AcDbSymbolTableRecord
100
AcDbBlockTableRecord
  2
block 14
340
0
102
{BLKREFS
331
163
102
}
 70
     0
280
     1
281
     0
  0
BLOCK_RECORD
  5
171
330
1
100
AcDbSymbolTableRecord
100
AcDbBlockTableRecord
  2
block 15
340
0
102
{BLKREFS
331
172
102
}
 70
     0
280
     1
281
     0
  0
BLOCK_RECORD
  5
185
330
1
100
AcDbSymbolTableRecord
100
AcDbBlockTableRecord
  2
block 16
340
0
102
{BLKREFS
331
186
102
}
 70
     0
280
     1
281
     0
  0
BLOCK_RECORD
  5
198
330
1
100
AcDbSymbolTableRecord
100
AcDbBlockTableRecord
  2
block 17
340
0
102
{BLKREFS
331
199
102
}
 70
     0
280
     1
281
     0
  0
ENDTAB
  0
ENDSEC
  0
SECTION
  2
BLOCKS
  0
BLOCK
  5
20
330
1F
100
AcDbEntity
  8
0
100
AcDbBlockBegin
  2
*Model_Space
 70
     0
 10
0.0
 20
0.0
 30
0.0
  3
*Model_Space
  1

  0
ENDBLK
  5
21
330
1F
100
AcDbEntity
  8
0
100
AcDbBlockEnd
  0
BLOCK
  5
1C
330
1B
100
AcDbEntity
 67
     1
  8
0
100
AcDbBlockBegin
  2
*Paper_Space
 70
     0
 10
0.0
 20
0.0
 30
0.0
  3
*Paper_Space
  1

  0
ENDBLK
  5
1D
330
1B
100
AcDbEntity
 67
     1
  8
0
100
AcDbBlockEnd
  0
BLOCK
  5
24
330
23
100
AcDbEntity
  8
0
100
AcDbBlockBegin
  2
*Paper_Space0
 70
     0
 10
0.0
 20
0.0
 30
0.0
  3
*Paper_Space0
  1

  0
ENDBLK
  5
25
330
23
100
AcDbEntity
  8
0
100
AcDbBlockEnd
  0
BLOCK
  5
42
330
40
100
AcDbEntity
  8
0
100
AcDbBlockBegin
  2
block 2
 70
     0
 10
0.0
 20
0.0
 30
0.0
  3
block 2
  1

  0
POLYLINE
  5
44
330
40
100
AcDbEntity
  8
0
 62
     7
370
    25
100
AcDb2dPolyline
 66
     1
 10
0.0
 20
0.0
 30
0.0
  0
VERTEX
  5
45
330
44
100
AcDbEntity
  8
0
 62
     7
370
    25
100
AcDbVertex
100
AcDb2dVertex
 10
708.1802013746043
 20
388.4753403434194
 30
0.0
  0
VERTEX
  5
46
330
44
100
AcDbEntity
  8
0
 62
     7
370
    25
100
AcDbVertex
100
AcDb2dVertex
 10
708.1802013746043
 20
386.2740104557319
 30
0.0
  0
VERTEX
  5
47
330
44
100
AcDbEntity
  8
0
 62
     7
370
    25
100
AcDbVertex
100
AcDb2dVertex
 10
707.4323572721437
 20
386.2740104557319
 30
0.0
  0
VERTEX
  5
48
330
44
100
AcDbEntity
  8
0
 62
     7
370
    25
100
AcDbVertex
100
AcDb2dVertex
 10
707.4323572721437
 20
387.7169025723416
 30
0.0
  0
VERTEX
  5
49
330
44
100
AcDbEntity
  8
0
 62
     7
370
    25
100
AcDbVertex
100
AcDb2dVertex
 10
706.6879582651683
 20
387.7169025723416
 30
0.0
  0
VERTEX
  5
4A
330
44
100
AcDbEntity
  8
0
 62
     7
370
    25
100
AcDbVertex
100
AcDb2dVertex
 10
706.6879582651683
 20
386.2740104557319
 30
0.0
  0
VERTEX
  5
4B
330
44
100
AcDbEntity
  8
0
 62
     7
370
    25
100
AcDbVertex
100
AcDb2dVertex
 10
705.9401141627077
 20
386.2740104557319
 30
0.0
  0
VERTEX
  5
4C
330
44
100
AcDbEntity
  8
0
 62
     7
370
    25
100
AcDbVertex
100
AcDb2dVertex
 10
705.9401141627077
 20
387.7169025723416
 30
0.0
  0
VERTEX
  5
4D
330
44
100
AcDbEntity
  8
0
 62
     7
370
    25
100
AcDbVertex
100
AcDb2dVertex
 10
704.9029251031797
 20
387.7169025723416
 30
0.0
  0
VERTEX
  5
4E
330
44
100
AcDbEntity
  8
0
 62
     7
370
    25
100
AcDbVertex
100
AcDb2dVertex
 10
704.9029251031797
 20
386.2740104557319
 30
0.0
  0
VERTEX
  5
4F
330
44
100
AcDbEntity
  8
0
 62
     7
370
    25
100
AcDbVertex
100
AcDb2dVertex
 10
704.1550379370256
 20
386.2740104557319
 30
0.0
  0
VERTEX
  5
50
330
44
100
AcDbEntity
  8
0
 62
     7
370
    25
100
AcDbVertex
100
AcDb2dVertex
 10
704.1550379370256
 20
388.4753403434194
 30
0.0
  0
VERTEX
  5
51
330
44
100
AcDbEntity
  8
0
 62
     7
370
    25
100
AcDbVertex
100
AcDb2dVertex
 10
708.1802013746043
 20
388.4753403434194
 30
0.0
  0
SEQEND
  5
52
330
44
100
AcDbEntity
  8
0
 62
     7
370
    25
  0
ENDBLK
  5
43
330
40
100
AcDbEntity
  8
0
100
AcDbBlockEnd
  0
BLOCK
  5
55
330
53
100
AcDbEntity
  8
0
100
AcDbBlockBegin
  2
block 3
 70
     0
 10
0.0
 20
0.0
 30
0.0
  3
block 3
  1

  0
POLYLINE
  5
57
330
53
100
AcDbEntity
  8
0
 62
     7
370
    25
100
AcDb2dPolyline
 66
     1
 10
0.0
 20
0.0
 30
0.0
  0
VERTEX
  5
58
330
57
100
AcDbEntity
  8
0
 62
     7
370
    25
100
AcDbVertex
100
AcDb2dVertex
 10
708.1802013746043
 20
384.323139009822
 30
0.0
  0
VERTEX
  5
59
330
57
100
AcDbEntity
  8
0
 62
     7
370
    25
100
AcDbVertex
100
AcDb2dVertex
 10
708.1802013746043
 20
383.54351390151
 30
0.0
  0
VERTEX
  5
5A
330
57
100
AcDbEntity
  8
0
 62
     7
370
    25
100
AcDbVertex
100
AcDb2dVertex
 10
704.1515067141531
 20
382.0019197992478
 30
0.0
  0
VERTEX
  5
5B
330
57
100
AcDbEntity
  8
0
 62
     7
370
    25
100
AcDbVertex
100
AcDb2dVertex
 10
704.1515067141531
 20
382.7991579582282
 30
0.0
  0
VERTEX
  5
5C
330
57
100
AcDbEntity
  8
0
 62
     7
370
    25
100
AcDbVertex
100
AcDb2dVertex
 10
704.980525878985
 20
383.1201977937599
 30
0.0
  0
VERTEX
  5
5D
330
57
100
AcDbEntity
  8
0
 62
     7
370
    25
100
AcDbVertex
100
AcDb2dVertex
 10
704.980525878985
 20
383.7763592926193
 30
0.0
  0
VERTEX
  5
5E
330
57
100
AcDbEntity
  8
0
 62
     7
370
    25
100
AcDbVertex
100
AcDb2dVertex
 10
705.7284130451391
 20
383.7763592926193
 30
0.0
  0
VERTEX
  5
5F
330
57
100
AcDbEntity
  8
0
 62
     7
370
    25
100
AcDbVertex
100
AcDb2dVertex
 10
705.7284130451391
 20
383.3883123498995
 30
0.0
  0
VERTEX
  5
60
330
57
100
AcDbEntity
  8
0
 62
     7
370
    25
100
AcDbVertex
100
AcDb2dVertex
 10
707.1112743729184
 20
383.9316039079234
 30
0.0
  0
VERTEX
  5
61
330
57
100
AcDbEntity
  8
0
 62
     7
370
    25
100
AcDbVertex
100
AcDb2dVertex
 10
705.7284130451391
 20
384.4713642430749
 30
0.0
  0
VERTEX
  5
62
330
57
100
AcDbEntity
  8
0
 62
     7
370
    25
100
AcDbVertex
100
AcDb2dVertex
 10
705.7284130451391
 20
384.0832742366615
 30
0.0
  0
VERTEX
  5
63
330
57
100
AcDbEntity
  8
0
 62
     7
370
    25
100
AcDbVertex
100
AcDb2dVertex
 10
704.980525878985
 20
384.0832742366615
 30
0.0
  0
VERTEX
  5
64
330
57
100
AcDbEntity
  8
0
 62
     7
370
    25
100
AcDbVertex
100
AcDb2dVertex
 10
704.980525878985
 20
384.7711736776787
 30
0.0
  0
VERTEX
  5
65
330
57
100
AcDbEntity
  8
0
 62
     7
370
    25
100
AcDbVertex
100
AcDb2dVertex
 10
704.1515067141531
 20
385.0992759589552
 30
0.0
  0
VERTEX
  5
66
330
57
100
AcDbEntity
  8
0
 62
     7
370
    25
100
AcDbVertex
100
AcDb2dVertex
 10
704.1515067141531
 20
385.8824753538332
 30
0.0
  0
VERTEX
  5
67
330
57
100
AcDbEntity
  8
0
 62
     7
370
    25
100
AcDbVertex
100
AcDb2dVertex
 10
708.1802013746043
 20
384.323139009822
 30
0.0
  0
SEQEND
  5
68
330
57
100
AcDbEntity
  8
0
 62
     7
370
    25
  0
ENDBLK
  5
56
330
53
100
AcDbEntity
  8
0
100
AcDbBlockEnd
  0
BLOCK
  5
6B
330
69
100
AcDbEntity
  8
0
100
AcDbBlockBegin
  2
block 4
 70
     0
 10
0.0
 20
0.0
 30
0.0
  3
block 4
  1

  0
POLYLINE
  5
6D
330
69
100
AcDbEntity
  8
0
 62
     7
370
    25
100
AcDb2dPolyline
 66
     1
 10
0.0
 20
0.0
 30
0.0
  0
VERTEX
  5
6E
330
6D
100
AcDbEntity
  8
0
 62
     7
370
    25
100
AcDbVertex
100
AcDb2dVertex
 10
708.1519946553188
 20
440.5277186669948
 30
0.0
  0
VERTEX
  5
6F
330
6D
100
AcDbEntity
  8
0
 62
     7
370
    25
100
AcDbVertex
100
AcDb2dVertex
 10
708.1519946553188
 20
434.0013297797375
 30
0.0
  0
VERTEX
  5
70
330
6D
100
AcDbEntity
  8
0
 62
     7
370
    25
100
AcDbVertex
100
AcDb2dVertex
 10
673.2834511663145
 20
422.5466456734432
 30
0.0
  0
VERTEX
  5
71
330
6D
100
AcDbEntity
  8
0
 62
     7
370
    25
100
AcDbVertex
100
AcDb2dVertex
 10
673.2834511663145
 20
427.735993002875
 30
0.0
  0
VERTEX
  5
72
330
6D
100
AcDbEntity
  8
0
 62
     7
370
    25
100
AcDbVertex
100
AcDb2dVertex
 10
680.8858295010025
 20
430.1701682816719
 30
0.0
  0
VERTEX
  5
73
330
6D
100
AcDbEntity
  8
0
 62
     7
370
    25
100
AcDbVertex
100
AcDb2dVertex
 10
680.8858295010025
 20
436.3578612190356
 30
0.0
  0
VERTEX
  5
74
330
6D
100
AcDbEntity
  8
0
 62
     7
370
    25
100
AcDbVertex
100
AcDb2dVertex
 10
685.1262252790223
 20
436.3578612190356
 30
0.0
  0
VERTEX
  5
75
330
6D
100
AcDbEntity
  8
0
 62
     7
370
    25
100
AcDbVertex
100
AcDb2dVertex
 10
685.1262252790223
 20
431.5354165587829
 30
0.0
  0
VERTEX
  5
76
330
6D
100
AcDbEntity
  8
0
 62
     7
370
    25
100
AcDbVertex
100
AcDb2dVertex
 10
703.7881352678464
 20
437.4515067808281
 30
0.0
  0
VERTEX
  5
77
330
6D
100
AcDbEntity
  8
0
 62
     7
370
    25
100
AcDbVertex
100
AcDb2dVertex
 10
685.1262252790223
 20
443.364065780001
 30
0.0
  0
VERTEX
  5
78
330
6D
100
AcDbEntity
  8
0
 62
     7
370
    25
100
AcDbVertex
100
AcDb2dVertex
 10
685.1262252790223
 20
438.5451092789271
 30
0.0
  0
VERTEX
  5
79
330
6D
100
AcDbEntity
  8
0
 62
     7
370
    25
100
AcDbVertex
100
AcDb2dVertex
 10
680.8858295010025
 20
438.5451092789271
 30
0.0
  0
VERTEX
  5
7A
330
6D
100
AcDbEntity
  8
0
 62
     7
370
    25
100
AcDbVertex
100
AcDb2dVertex
 10
680.8858295010025
 20
444.7257828342396
 30
0.0
  0
VERTEX
  5
7B
330
6D
100
AcDbEntity
  8
0
 62
     7
370
    25
100
AcDbVertex
100
AcDb2dVertex
 10
673.2834511663145
 20
447.1916960551943
 30
0.0
  0
VERTEX
  5
7C
330
6D
100
AcDbEntity
  8
0
 62
     7
370
    25
100
AcDbVertex
100
AcDb2dVertex
 10
673.2834511663145
 20
452.141135547772
 30
0.0
  0
VERTEX
  5
7D
330
6D
100
AcDbEntity
  8
0
 62
     7
370
    25
100
AcDbVertex
100
AcDb2dVertex
 10
708.1519946553188
 20
440.5277186669948
 30
0.0
  0
SEQEND
  5
7E
330
6D
100
AcDbEntity
  8
0
 62
     7
370
    25
  0
ENDBLK
  5
6C
330
69
100
AcDbEntity
  8
0
100
AcDbBlockEnd
  0
BLOCK
  5
81
330
7F
100
AcDbEntity
  8
0
100
AcDbBlockBegin
  2
block 5
 70
     0
 10
0.0
 20
0.0
 30
0.0
  3
block 5
  1

  0
SPLINE
  5
83
330
7F
100
AcDbEntity
  8
0
 62
     7
370
    25
100
AcDbSpline
210
0.0
220
0.0
230
1.0
 70
    11
 71
     3
 72
    77
 73
    73
 74
     0
 42
0.0000000001
 43
0.0000000001
 12
1.0
 22
0.0
 32
0.0
 13
1.0
 23
0.0
 33
0.0
 40
0.0
 40
0.0
 40
0.0
 40
0.0
 40
1.0
 40
1.0
 40
1.0
 40
2.0
 40
2.0
 40
2.0
 40
3.0
 40
3.0
 40
3.0
 40
4.0
 40
4.0
 40
4.0
 40
5.0
 40
5.0
 40
5.0
 40
6.0
 40
6.0
 40
6.0
 40
7.0
 40
7.0
 40
7.0
 40
8.0
 40
8.0
 40
8.0
 40
9.0
 40
9.0
 40
9.0
 40
10.0
 40
10.0
 40
10.0
 40
11.0
 40
11.0
 40
11.0
 40
12.0
 40
12.0
 40
12.0
 40
13.0
 40
13.0
 40
13.0
 40
14.0
 40
14.0
 40
14.0
 40
15.0
 40
15.0
 40
15.0
 40
16.0
 40
16.0
 40
16.0
 40
17.0
 40
17.0
 40
17.0
 40
18.0
 40
18.0
 40
18.0
 40
19.0
 40
19.0
 40
19.0
 40
20.0
 40
20.0
 40
20.0
 40
21.0
 40
21.0
 40
21.0
 40
22.0
 40
22.0
 40
22.0
 40
23.0
 40
23.0
 40
23.0
 40
24.0
 40
24.0
 40
24.0
 40
24.0
 10
695.4061318248464
 20
467.2047724933334
 30
0.0
 10
695.4061318248464
 20
467.2047724933334
 30
0.0
 10
698.3941492665907
 20
467.2047724933334
 30
0.0
 10
698.3941492665907
 20
467.2047724933334
 30
0.0
 10
698.3941492665907
 20
467.2047724933334
 30
0.0
 10
698.3800243751012
 20
465.15868722095
 30
0.0
 10
698.3800243751012
 20
465.15868722095
 30
0.0
 10
698.3800243751012
 20
465.15868722095
 30
0.0
 10
682.2122773902108
 20
465.15868722095
 30
0.0
 10
682.2122773902108
 20
465.15868722095
 30
0.0
 10
682.2122773902108
 20
465.15868722095
 30
0.0
 10
682.2122773902108
 20
467.2153661619505
 30
0.0
 10
682.2122773902108
 20
467.2153661619505
 30
0.0
 10
682.2122773902108
 20
467.2153661619505
 30
0.0
 10
684.992124937259
 20
467.2153661619505
 30
0.0
 10
684.992124937259
 20
467.2153661619505
 30
0.0
 10
683.9937793293271
 20
468.0126473846245
 30
0.0
 10
683.1753538331125
 20
469.0145242154287
 30
0.0
 10
682.5967500463647
 20
470.1539895471751
 30
0.0
 10
682.2580971601647
 20
470.8701387711714
 30
0.0
 10
682.025294832749
 20
471.6321077651215
 30
0.0
 10
681.9017881596027
 20
472.4153071599995
 30
0.0
 10
681.9017881596027
 20
472.4153071599995
 30
0.0
 10
683.8067967718652
 20
472.4153071599995
 30
0.0
 10
683.8067967718652
 20
472.4153071599995
 30
0.0
 10
683.9337916041902
 20
471.6568263252282
 30
0.0
 10
684.194843714585
 20
470.9265522097423
 30
0.0
 10
684.5758712752537
 20
470.2598401059594
 30
0.0
 10
685.1156316104051
 20
469.2720451029511
 30
0.0
 10
685.9234634380027
 20
468.4571077659153
 30
0.0
 10
686.9041959952662
 20
467.9033086666614
 30
0.0
 10
687.9166664946875
 20
467.3458922171479
 30
0.0
 10
689.0596630493063
 20
467.0636527695189
 30
0.0
 10
690.2167844954146
 20
467.0813088838808
 30
0.0
 10
691.966548492373
 20
467.0354460502334
 30
0.0
 10
693.6634302736328
 20
467.7092636634546
 30
0.0
 10
694.9052149412911
 20
468.9475171082406
 30
0.0
 10
696.1399371632046
 20
470.1328022099408
 30
0.0
 10
696.8207741584771
 20
471.7803329983744
 30
0.0
 10
696.7890362163192
 20
473.4912535437366
 30
0.0
 10
696.8066492669876
 20
475.7984339902084
 30
0.0
 10
695.5578021535846
 20
477.9292255478354
 30
0.0
 10
693.5363923776142
 20
479.0439723194751
 30
0.0
 10
691.5185138245163
 20
480.2081562113282
 30
0.0
 10
689.0314132663273
 20
480.2081562113282
 30
0.0
 10
687.0100034903569
 20
479.0439723194751
 30
0.0
 10
686.0046385003739
 20
478.4866419973488
 30
0.0
 10
685.1649826032314
 20
477.671704660313
 30
0.0
 10
684.5829337209984
 20
476.6839096573048
 30
0.0
 10
684.2019061603297
 20
476.0383418270625
 30
0.0
 10
683.9373228270625
 20
475.3292550488109
 30
0.0
 10
683.8067967718652
 20
474.5919615512739
 30
0.0
 10
683.8067967718652
 20
474.5919615512739
 30
0.0
 10
681.8524371667766
 20
474.5919615512739
 30
0.0
 10
681.8524371667766
 20
474.5919615512739
 30
0.0
 10
682.0605639977791
 20
476.4933958769704
 30
0.0
 10
682.9213641684624
 20
478.2643472111631
 30
0.0
 10
684.2936318276245
 20
479.6013887689886
 30
0.0
 10
685.8987879415896
 20
481.1959512143364
 30
0.0
 10
688.0789304920428
 20
482.074364435688
 30
0.0
 10
690.3437793277396
 20
482.0285016020406
 30
0.0
 10
692.5874408262022
 20
482.0602395441985
 30
0.0
 10
694.7464391031147
 20
481.1712326542298
 30
0.0
 10
696.3163260520495
 20
479.5696077631371
 30
0.0
 10
697.9285015480657
 20
478.028013660875
 30
0.0
 10
698.828059042958
 20
475.8830972117584
 30
0.0
 10
698.7963641644936
 20
473.6535606047854
 30
0.0
 10
698.813977215162
 20
472.3976941093312
 30
0.0
 10
698.5211871626093
 20
471.1559094416729
 30
0.0
 10
697.9496458216064
 20
470.0411196063396
 30
0.0
 10
697.335815933522
 20
468.9086736566444
 30
0.0
 10
696.4679963807876
 20
467.9350035451257
 30
0.0
 10
695.4061318248464
 20
467.2047724933334
 30
0.0
  0
ENDBLK
  5
82
330
7F
100
AcDbEntity
  8
0
100
AcDbBlockEnd
  0
BLOCK
  5
86
330
84
100
AcDbEntity
  8
0
100
AcDbBlockBegin
  2
block 6
 70
     0
 10
0.0
 20
0.0
 30
0.0
  3
block 6
  1

  0
POLYLINE
  5
88
330
84
100
AcDbEntity
  8
0
 62
     7
370
    25
100
AcDb2dPolyline
 66
     1
 10
0.0
 20
0.0
 30
0.0
  0
VERTEX
  5
89
330
88
100
AcDbEntity
  8
0
 62
     7
370
    25
100
AcDbVertex
100
AcDb2dVertex
 10
708.1802013746043
 20
391.2411491263651
 30
0.0
  0
VERTEX
  5
8A
330
88
100
AcDbEntity
  8
0
 62
     7
370
    25
100
AcDbVertex
100
AcDb2dVertex
 10
708.1802013746043
 20
389.0045070099537
 30
0.0
  0
VERTEX
  5
8B
330
88
100
AcDbEntity
  8
0
 62
     7
370
    25
100
AcDbVertex
100
AcDb2dVertex
 10
707.4323572721437
 20
389.0045070099537
 30
0.0
  0
VERTEX
  5
8C
330
88
100
AcDbEntity
  8
0
 62
     7
370
    25
100
AcDbVertex
100
AcDb2dVertex
 10
707.4323572721437
 20
389.7489060169291
 30
0.0
  0
VERTEX
  5
8D
330
88
100
AcDbEntity
  8
0
 62
     7
370
    25
100
AcDbVertex
100
AcDb2dVertex
 10
704.1621003827703
 20
389.7489060169291
 30
0.0
  0
VERTEX
  5
8E
330
88
100
AcDbEntity
  8
0
 62
     7
370
    25
100
AcDbVertex
100
AcDb2dVertex
 10
704.1621003827703
 20
390.5285311252412
 30
0.0
  0
VERTEX
  5
8F
330
88
100
AcDbEntity
  8
0
 62
     7
370
    25
100
AcDbVertex
100
AcDb2dVertex
 10
707.4323572721437
 20
390.5285311252412
 30
0.0
  0
VERTEX
  5
90
330
88
100
AcDbEntity
  8
0
 62
     7
370
    25
100
AcDbVertex
100
AcDb2dVertex
 10
707.4323572721437
 20
391.2446803492375
 30
0.0
  0
VERTEX
  5
91
330
88
100
AcDbEntity
  8
0
 62
     7
370
    25
100
AcDbVertex
100
AcDb2dVertex
 10
708.1802013746043
 20
391.2411491263651
 30
0.0
  0
SEQEND
  5
92
330
88
100
AcDbEntity
  8
0
 62
     7
370
    25
  0
ENDBLK
  5
87
330
84
100
AcDbEntity
  8
0
100
AcDbBlockEnd
  0
BLOCK
  5
95
330
93
100
AcDbEntity
  8
0
100
AcDbBlockBegin
  2
block 7
 70
     0
 10
0.0
 20
0.0
 30
0.0
  3
block 7
  1

  0
POLYLINE
  5
97
330
93
100
AcDbEntity
  8
0
 62
     7
370
    25
100
AcDb2dPolyline
 66
     1
 10
0.0
 20
0.0
 30
0.0
  0
VERTEX
  5
98
330
97
100
AcDbEntity
  8
0
 62
     7
370
    25
100
AcDbVertex
100
AcDb2dVertex
 10
708.1802013746043
 20
380.2591751843406
 30
0.0
  0
VERTEX
  5
99
330
97
100
AcDbEntity
  8
0
 62
     7
370
    25
100
AcDbVertex
100
AcDb2dVertex
 10
705.3685728217048
 20
379.3207742378521
 30
0.0
  0
VERTEX
  5
9A
330
97
100
AcDbEntity
  8
0
 62
     7
370
    25
100
AcDbVertex
100
AcDb2dVertex
 10
708.1802013746043
 20
378.3718226864401
 30
0.0
  0
VERTEX
  5
9B
330
97
100
AcDbEntity
  8
0
 62
     7
370
    25
100
AcDbVertex
100
AcDb2dVertex
 10
708.1802013746043
 20
377.6274236794647
 30
0.0
  0
VERTEX
  5
9C
330
97
100
AcDbEntity
  8
0
 62
     7
370
    25
100
AcDbVertex
100
AcDb2dVertex
 10
704.1515067141531
 20
376.9501179070646
 30
0.0
  0
VERTEX
  5
9D
330
97
100
AcDbEntity
  8
0
 62
     7
370
    25
100
AcDbVertex
100
AcDb2dVertex
 10
704.1515067141531
 20
377.6980050732187
 30
0.0
  0
VERTEX
  5
9E
330
97
100
AcDbEntity
  8
0
 62
     7
370
    25
100
AcDbVertex
100
AcDb2dVertex
 10
706.6879582651683
 20
378.1213642446624
 30
0.0
  0
VERTEX
  5
9F
330
97
100
AcDbEntity
  8
0
 62
     7
370
    25
100
AcDbVertex
100
AcDb2dVertex
 10
704.1444442684084
 20
378.982121351652
 30
0.0
  0
VERTEX
  5
A0
330
97
100
AcDbEntity
  8
0
 62
     7
370
    25
100
AcDbVertex
100
AcDb2dVertex
 10
704.1444442684084
 20
379.6594271240522
 30
0.0
  0
VERTEX
  5
A1
330
97
100
AcDbEntity
  8
0
 62
     7
370
    25
100
AcDbVertex
100
AcDb2dVertex
 10
706.6879582651683
 20
380.5096336261183
 30
0.0
  0
VERTEX
  5
A2
330
97
100
AcDbEntity
  8
0
 62
     7
370
    25
100
AcDbVertex
100
AcDb2dVertex
 10
704.1444442684084
 20
380.9470746253579
 30
0.0
  0
VERTEX
  5
A3
330
97
100
AcDbEntity
  8
0
 62
     7
370
    25
100
AcDbVertex
100
AcDb2dVertex
 10
704.1444442684084
 20
381.694961791512
 30
0.0
  0
VERTEX
  5
A4
330
97
100
AcDbEntity
  8
0
 62
     7
370
    25
100
AcDbVertex
100
AcDb2dVertex
 10
708.1802013746043
 20
381.0035311276224
 30
0.0
  0
VERTEX
  5
A5
330
97
100
AcDbEntity
  8
0
 62
     7
370
    25
100
AcDbVertex
100
AcDb2dVertex
 10
708.1802013746043
 20
380.2591751843406
 30
0.0
  0
SEQEND
  5
A6
330
97
100
AcDbEntity
  8
0
 62
     7
370
    25
  0
ENDBLK
  5
96
330
93
100
AcDbEntity
  8
0
100
AcDbBlockEnd
  0
BLOCK
  5
A9
330
A7
100
AcDbEntity
  8
0
100
AcDbBlockBegin
  2
block 8
 70
     0
 10
0.0
 20
0.0
 30
0.0
  3
block 8
  1

  0
POLYLINE
  5
AB
330
A7
100
AcDbEntity
  8
0
 62
     7
370
    25
100
AcDb2dPolyline
 66
     1
 10
0.0
 20
0.0
 30
0.0
  0
VERTEX
  5
AC
330
AB
100
AcDbEntity
  8
0
 62
     7
370
    25
100
AcDbVertex
100
AcDb2dVertex
 10
708.1519946553188
 20
417.6782951158496
 30
0.0
  0
VERTEX
  5
AD
330
AB
100
AcDbEntity
  8
0
 62
     7
370
    25
100
AcDbVertex
100
AcDb2dVertex
 10
708.1519946553188
 20
396.7550244505074
 30
0.0
  0
VERTEX
  5
AE
330
AB
100
AcDbEntity
  8
0
 62
     7
370
    25
100
AcDbVertex
100
AcDb2dVertex
 10
704.1515067141531
 20
396.7550244505074
 30
0.0
  0
VERTEX
  5
AF
330
AB
100
AcDbEntity
  8
0
 62
     7
370
    25
100
AcDbVertex
100
AcDb2dVertex
 10
704.1515067141531
 20
404.8089686759245
 30
0.0
  0
VERTEX
  5
B0
330
AB
100
AcDbEntity
  8
0
 62
     7
370
    25
100
AcDbVertex
100
AcDb2dVertex
 10
677.3368643868724
 20
404.8089686759245
 30
0.0
  0
VERTEX
  5
B1
330
AB
100
AcDbEntity
  8
0
 62
     7
370
    25
100
AcDbVertex
100
AcDb2dVertex
 10
677.3368643868724
 20
396.7550244505074
 30
0.0
  0
VERTEX
  5
B2
330
AB
100
AcDbEntity
  8
0
 62
     7
370
    25
100
AcDbVertex
100
AcDb2dVertex
 10
673.2834511663145
 20
396.7550244505074
 30
0.0
  0
VERTEX
  5
B3
330
AB
100
AcDbEntity
  8
0
 62
     7
370
    25
100
AcDbVertex
100
AcDb2dVertex
 10
673.2834511663145
 20
417.6782951158496
 30
0.0
  0
VERTEX
  5
B4
330
AB
100
AcDbEntity
  8
0
 62
     7
370
    25
100
AcDbVertex
100
AcDb2dVertex
 10
677.3368643868724
 20
417.6782951158496
 30
0.0
  0
VERTEX
  5
B5
330
AB
100
AcDbEntity
  8
0
 62
     7
370
    25
100
AcDbVertex
100
AcDb2dVertex
 10
677.3368643868724
 20
409.624393954126
 30
0.0
  0
VERTEX
  5
B6
330
AB
100
AcDbEntity
  8
0
 62
     7
370
    25
100
AcDbVertex
100
AcDb2dVertex
 10
704.1515067141531
 20
409.624393954126
 30
0.0
  0
VERTEX
  5
B7
330
AB
100
AcDbEntity
  8
0
 62
     7
370
    25
100
AcDbVertex
100
AcDb2dVertex
 10
704.1515067141531
 20
417.6782951158496
 30
0.0
  0
VERTEX
  5
B8
330
AB
100
AcDbEntity
  8
0
 62
     7
370
    25
100
AcDbVertex
100
AcDb2dVertex
 10
708.1519946553188
 20
417.6782951158496
 30
0.0
  0
SEQEND
  5
B9
330
AB
100
AcDbEntity
  8
0
 62
     7
370
    25
  0
ENDBLK
  5
AA
330
A7
100
AcDbEntity
  8
0
100
AcDbBlockEnd
  0
BLOCK
  5
BC
330
BA
100
AcDbEntity
  8
0
100
AcDbBlockBegin
  2
block 9
 70
     0
 10
0.0
 20
0.0
 30
0.0
  3
block 9
  1

  0
SPLINE
  5
BE
330
BA
100
AcDbEntity
  8
0
 62
     7
370
    25
100
AcDbSpline
210
0.0
220
0.0
230
1.0
 70
    11
 71
     3
 72
    44
 73
    40
 74
     0
 42
0.0000000001
 43
0.0000000001
 12
1.0
 22
0.0
 32
0.0
 13
1.0
 23
0.0
 33
0.0
 40
0.0
 40
0.0
 40
0.0
 40
0.0
 40
1.0
 40
1.0
 40
1.0
 40
2.0
 40
2.0
 40
2.0
 40
3.0
 40
3.0
 40
3.0
 40
4.0
 40
4.0
 40
4.0
 40
5.0
 40
5.0
 40
5.0
 40
6.0
 40
6.0
 40
6.0
 40
7.0
 40
7.0
 40
7.0
 40
8.0
 40
8.0
 40
8.0
 40
9.0
 40
9.0
 40
9.0
 40
10.0
 40
10.0
 40
10.0
 40
11.0
 40
11.0
 40
11.0
 40
12.0
 40
12.0
 40
12.0
 40
13.0
 40
13.0
 40
13.0
 40
13.0
 10
698.7963641644936
 20
454.9034131078453
 30
0.0
 10
698.7787080501317
 20
454.2472516089859
 30
0.0
 10
698.5881942697974
 20
453.6016837787437
 30
0.0
 10
698.2424789378526
 20
453.0372048834855
 30
0.0
 10
698.2424789378526
 20
453.0372048834855
 30
0.0
 10
696.4927149408942
 20
454.1273192224057
 30
0.0
 10
696.4927149408942
 20
454.1273192224057
 30
0.0
 10
696.6620413839943
 20
454.4800970000953
 30
0.0
 10
696.7572982741614
 20
454.8610814970704
 30
0.0
 10
696.7749113248298
 20
455.2491284397902
 30
0.0
 10
696.7502358284166
 20
456.0040780516891
 30
0.0
 10
696.4468090435532
 20
456.7202272756854
 30
0.0
 10
695.9176423770189
 20
457.2599445471434
 30
0.0
 10
695.1980049938437
 20
458.0043435541187
 30
0.0
 10
694.2772601617172
 20
458.522916552036
 30
0.0
 10
693.2682778214746
 20
458.7522307202729
 30
0.0
 10
692.3475760530416
 20
459.0026891620506
 30
0.0
 10
690.4813678286818
 20
459.1261527715032
 30
0.0
 10
687.6697392757823
 20
459.1261527715032
 30
0.0
 10
687.6697392757823
 20
459.1261527715032
 30
0.0
 10
682.2122773902108
 20
459.1261527715032
 30
0.0
 10
682.2122773902108
 20
459.1261527715032
 30
0.0
 10
682.2122773902108
 20
459.1261527715032
 30
0.0
 10
682.2122773902108
 20
461.2569443291302
 30
0.0
 10
682.2122773902108
 20
461.2569443291302
 30
0.0
 10
682.2122773902108
 20
461.2569443291302
 30
0.0
 10
698.3800243751012
 20
461.2534131062578
 30
0.0
 10
698.3800243751012
 20
461.2534131062578
 30
0.0
 10
698.3800243751012
 20
461.2534131062578
 30
0.0
 10
698.3800243751012
 20
459.1226215486308
 30
0.0
 10
698.3800243751012
 20
459.1226215486308
 30
0.0
 10
698.3800243751012
 20
459.1226215486308
 30
0.0
 10
696.0164304900584
 20
459.1226215486308
 30
0.0
 10
696.0164304900584
 20
459.1226215486308
 30
0.0
 10
696.838430272839
 20
458.5934548820965
 30
0.0
 10
697.5475170510906
 20
457.912617886824
 30
0.0
 10
698.1048904369104
 20
457.1118054412776
 30
0.0
 10
698.5493938818948
 20
456.4591751652906
 30
0.0
 10
698.7893017187489
 20
455.6936318847745
 30
0.0
 10
698.7963641644936
 20
454.9034131078453
 30
0.0
  0
SPLINE
  5
BF
330
BA
100
AcDbEntity
  8
0
 62
     7
370
    25
100
AcDbSpline
210
0.0
220
0.0
230
1.0
 70
    11
 71
     3
 72
    62
 73
    58
 74
     0
 42
0.0000000001
 43
0.0000000001
 12
1.0
 22
0.0
 32
0.0
 13
1.0
 23
0.0
 33
0.0
 40
0.0
 40
0.0
 40
0.0
 40
0.0
 40
1.0
 40
1.0
 40
1.0
 40
2.0
 40
2.0
 40
2.0
 40
3.0
 40
3.0
 40
3.0
 40
4.0
 40
4.0
 40
4.0
 40
5.0
 40
5.0
 40
5.0
 40
6.0
 40
6.0
 40
6.0
 40
7.0
 40
7.0
 40
7.0
 40
8.0
 40
8.0
 40
8.0
 40
9.0
 40
9.0
 40
9.0
 40
10.0
 40
10.0
 40
10.0
 40
11.0
 40
11.0
 40
11.0
 40
12.0
 40
12.0
 40
12.0
 40
13.0
 40
13.0
 40
13.0
 40
14.0
 40
14.0
 40
14.0
 40
15.0
 40
15.0
 40
15.0
 40
16.0
 40
16.0
 40
16.0
 40
17.0
 40
17.0
 40
17.0
 40
18.0
 40
18.0
 40
18.0
 40
19.0
 40
19.0
 40
19.0
 40
19.0
 10
698.7857704958765
 20
492.7352985421808
 30
0.0
 10
698.7893017187489
 20
491.6804964319844
 30
0.0
 10
698.6234634348277
 20
490.6327567675328
 30
0.0
 10
698.2918299306788
 20
489.630836873035
 30
0.0
 10
698.0131647696156
 20
488.7171975503468
 30
0.0
 10
697.5792549932485
 20
487.8598855388423
 30
0.0
 10
697.0148191616838
 20
487.0908540991475
 30
0.0
 10
696.47152760366
 20
486.3747048751511
 30
0.0
 10
695.7942218312598
 20
485.7749998785563
 30
0.0
 10
695.021616104999
 20
485.3163715420824
 30
0.0
 10
695.021616104999
 20
485.3163715420824
 30
0.0
 10
693.9950207140881
 20
486.9709217125672
 30
0.0
 10
693.9950207140881
 20
486.9709217125672
 30
0.0
 10
695.8541664927031
 20
488.3291075439334
 30
0.0
 10
696.9160310486443
 20
490.5198437630037
 30
0.0
 10
696.8348990499667
 20
492.8199617637308
 30
0.0
 10
696.8913124885377
 20
494.647369600188
 30
0.0
 10
696.2069442703928
 20
496.4218090935595
 30
0.0
 10
694.9334216605765
 20
497.7376633141507
 30
0.0
 10
693.741031049438
 20
499.0112289876604
 30
0.0
 10
692.0653366054125
 20
499.7203157659119
 30
0.0
 10
690.3191038313265
 20
499.6920659829329
 30
0.0
 10
689.1513887166011
 20
499.6955972058053
 30
0.0
 10
688.0013297162376
 20
499.3851941025843
 30
0.0
 10
686.9959216625609
 20
498.7925084880406
 30
0.0
 10
685.9728574945225
 20
498.2104165421141
 30
0.0
 10
685.1367758839459
 20
497.3567218808692
 30
0.0
 10
684.5758712752537
 20
496.3230640442135
 30
0.0
 10
683.9937793293271
 20
495.2435864376041
 30
0.0
 10
683.6974580539021
 20
494.0300084892312
 30
0.0
 10
683.715114168264
 20
492.8023056493689
 30
0.0
 10
683.6621458251783
 20
490.5198437630037
 30
0.0
 10
684.7098854896299
 20
488.3502948811677
 30
0.0
 10
686.5338051669082
 20
486.9709217125672
 30
0.0
 10
686.5338051669082
 20
486.9709217125672
 30
0.0
 10
685.4507532737329
 20
485.3163715420824
 30
0.0
 10
685.4507532737329
 20
485.3163715420824
 30
0.0
 10
684.2830381590074
 20
486.0925084912156
 30
0.0
 10
683.3446802762124
 20
487.1719860978251
 30
0.0
 10
682.7414440567452
 20
488.4349581027176
 30
0.0
 10
682.0781770484475
 20
489.8354755448589
 30
0.0
 10
681.7501178308646
 20
491.3700502650698
 30
0.0
 10
681.7818557730225
 20
492.915218653898
 30
0.0
 10
681.7818557730225
 20
495.4763887650198
 30
0.0
 10
682.5932188234924
 20
497.6001178769021
 30
0.0
 10
684.2124998289469
 20
499.2899372124171
 30
0.0
 10
685.7506057720302
 20
500.9373818734636
 30
0.0
 10
687.9131352718151
 20
501.8546385464114
 30
0.0
 10
690.1638592160224
 20
501.8087326490704
 30
0.0
 10
691.6984339362334
 20
501.8193263176876
 30
0.0
 10
693.2048019371589
 20
501.410135101427
 30
0.0
 10
694.5241873806225
 20
500.626935706549
 30
0.0
 10
695.8506352698308
 20
499.8508418211094
 30
0.0
 10
696.9407496087509
 20
498.7254583171589
 30
0.0
 10
697.6639182147985
 20
497.3672724857927
 30
0.0
 10
698.4259302724422
 20
495.9456107701108
 30
0.0
 10
698.8104459922896
 20
494.3510483247629
 30
0.0
 10
698.7857704958765
 20
492.7352985421808
 30
0.0
  0
SPLINE
  5
C0
330
BA
100
AcDbEntity
  8
0
 62
     7
370
    25
100
AcDbSpline
210
0.0
220
0.0
230
1.0
 70
    11
 71
     3
 72
    77
 73
    73
 74
     0
 42
0.0000000001
 43
0.0000000001
 12
1.0
 22
0.0
 32
0.0
 13
1.0
 23
0.0
 33
0.0
 40
0.0
 40
0.0
 40
0.0
 40
0.0
 40
1.0
 40
1.0
 40
1.0
 40
2.0
 40
2.0
 40
2.0
 40
3.0
 40
3.0
 40
3.0
 40
4.0
 40
4.0
 40
4.0
 40
5.0
 40
5.0
 40
5.0
 40
6.0
 40
6.0
 40
6.0
 40
7.0
 40
7.0
 40
7.0
 40
8.0
 40
8.0
 40
8.0
 40
9.0
 40
9.0
 40
9.0
 40
10.0
 40
10.0
 40
10.0
 40
11.0
 40
11.0
 40
11.0
 40
12.0
 40
12.0
 40
12.0
 40
13.0
 40
13.0
 40
13.0
 40
14.0
 40
14.0
 40
14.0
 40
15.0
 40
15.0
 40
15.0
 40
16.0
 40
16.0
 40
16.0
 40
17.0
 40
17.0
 40
17.0
 40
18.0
 40
18.0
 40
18.0
 40
19.0
 40
19.0
 40
19.0
 40
20.0
 40
20.0
 40
20.0
 40
21.0
 40
21.0
 40
21.0
 40
22.0
 40
22.0
 40
22.0
 40
23.0
 40
23.0
 40
23.0
 40
24.0
 40
24.0
 40
24.0
 40
24.0
 10
695.4061318248464
 20
467.2047724933334
 30
0.0
 10
695.4061318248464
 20
467.2047724933334
 30
0.0
 10
698.3941492665907
 20
467.2047724933334
 30
0.0
 10
698.3941492665907
 20
467.2047724933334
 30
0.0
 10
698.3941492665907
 20
467.2047724933334
 30
0.0
 10
698.3800243751012
 20
465.15868722095
 30
0.0
 10
698.3800243751012
 20
465.15868722095
 30
0.0
 10
698.3800243751012
 20
465.15868722095
 30
0.0
 10
682.2122773902108
 20
465.15868722095
 30
0.0
 10
682.2122773902108
 20
465.15868722095
 30
0.0
 10
682.2122773902108
 20
465.15868722095
 30
0.0
 10
682.2122773902108
 20
467.2153661619505
 30
0.0
 10
682.2122773902108
 20
467.2153661619505
 30
0.0
 10
682.2122773902108
 20
467.2153661619505
 30
0.0
 10
684.992124937259
 20
467.2153661619505
 30
0.0
 10
684.992124937259
 20
467.2153661619505
 30
0.0
 10
683.9937793293271
 20
468.0126473846245
 30
0.0
 10
683.1753538331125
 20
469.0145242154287
 30
0.0
 10
682.5967500463647
 20
470.1539895471751
 30
0.0
 10
682.2580971601647
 20
470.8701387711714
 30
0.0
 10
682.025294832749
 20
471.6321077651215
 30
0.0
 10
681.9017881596027
 20
472.4153071599995
 30
0.0
 10
681.9017881596027
 20
472.4153071599995
 30
0.0
 10
683.8067967718652
 20
472.4153071599995
 30
0.0
 10
683.8067967718652
 20
472.4153071599995
 30
0.0
 10
683.9337916041902
 20
471.6568263252282
 30
0.0
 10
684.194843714585
 20
470.9265522097423
 30
0.0
 10
684.5758712752537
 20
470.2598401059594
 30
0.0
 10
685.1156316104051
 20
469.2720451029511
 30
0.0
 10
685.9234634380027
 20
468.4571077659153
 30
0.0
 10
686.9041959952662
 20
467.9033086666614
 30
0.0
 10
687.9166664946875
 20
467.3458922171479
 30
0.0
 10
689.0596630493063
 20
467.0636527695189
 30
0.0
 10
690.2167844954146
 20
467.0813088838808
 30
0.0
 10
691.966548492373
 20
467.0354460502334
 30
0.0
 10
693.6634302736328
 20
467.7092636634546
 30
0.0
 10
694.9052149412911
 20
468.9475171082406
 30
0.0
 10
696.1399371632046
 20
470.1328022099408
 30
0.0
 10
696.8207741584771
 20
471.7803329983744
 30
0.0
 10
696.7890362163192
 20
473.4912535437366
 30
0.0
 10
696.8066492669876
 20
475.7984339902084
 30
0.0
 10
695.5578021535846
 20
477.9292255478354
 30
0.0
 10
693.5363923776142
 20
479.0439723194751
 30
0.0
 10
691.5185138245163
 20
480.2081562113282
 30
0.0
 10
689.0314132663273
 20
480.2081562113282
 30
0.0
 10
687.0100034903569
 20
479.0439723194751
 30
0.0
 10
686.0046385003739
 20
478.4866419973488
 30
0.0
 10
685.1649826032314
 20
477.671704660313
 30
0.0
 10
684.5829337209984
 20
476.6839096573048
 30
0.0
 10
684.2019061603297
 20
476.0383418270625
 30
0.0
 10
683.9373228270625
 20
475.3292550488109
 30
0.0
 10
683.8067967718652
 20
474.5919615512739
 30
0.0
 10
683.8067967718652
 20
474.5919615512739
 30
0.0
 10
681.8524371667766
 20
474.5919615512739
 30
0.0
 10
681.8524371667766
 20
474.5919615512739
 30
0.0
 10
682.0605639977791
 20
476.4933958769704
 30
0.0
 10
682.9213641684624
 20
478.2643472111631
 30
0.0
 10
684.2936318276245
 20
479.6013887689886
 30
0.0
 10
685.8987879415896
 20
481.1959512143364
 30
0.0
 10
688.0789304920428
 20
482.074364435688
 30
0.0
 10
690.3437793277396
 20
482.0285016020406
 30
0.0
 10
692.5874408262022
 20
482.0602395441985
 30
0.0
 10
694.7464391031147
 20
481.1712326542298
 30
0.0
 10
696.3163260520495
 20
479.5696077631371
 30
0.0
 10
697.9285015480657
 20
478.028013660875
 30
0.0
 10
698.828059042958
 20
475.8830972117584
 30
0.0
 10
698.7963641644936
 20
473.6535606047854
 30
0.0
 10
698.813977215162
 20
472.3976941093312
 30
0.0
 10
698.5211871626093
 20
471.1559094416729
 30
0.0
 10
697.9496458216064
 20
470.0411196063396
 30
0.0
 10
697.335815933522
 20
468.9086736566444
 30
0.0
 10
696.4679963807876
 20
467.9350035451257
 30
0.0
 10
695.4061318248464
 20
467.2047724933334
 30
0.0
  0
POLYLINE
  5
C1
330
BA
100
AcDbEntity
  8
0
 62
     7
370
    25
100
AcDb2dPolyline
 66
     1
 10
0.0
 20
0.0
 30
0.0
  0
VERTEX
  5
C2
330
C1
100
AcDbEntity
  8
0
 62
     7
370
    25
100
AcDbVertex
100
AcDb2dVertex
 10
708.1519946553188
 20
440.5277186669948
 30
0.0
  0
VERTEX
  5
C3
330
C1
100
AcDbEntity
  8
0
 62
     7
370
    25
100
AcDbVertex
100
AcDb2dVertex
 10
708.1519946553188
 20
434.0013297797375
 30
0.0
  0
VERTEX
  5
C4
330
C1
100
AcDbEntity
  8
0
 62
     7
370
    25
100
AcDbVertex
100
AcDb2dVertex
 10
673.2834511663145
 20
422.5466456734432
 30
0.0
  0
VERTEX
  5
C5
330
C1
100
AcDbEntity
  8
0
 62
     7
370
    25
100
AcDbVertex
100
AcDb2dVertex
 10
673.2834511663145
 20
427.735993002875
 30
0.0
  0
VERTEX
  5
C6
330
C1
100
AcDbEntity
  8
0
 62
     7
370
    25
100
AcDbVertex
100
AcDb2dVertex
 10
680.8858295010025
 20
430.1701682816719
 30
0.0
  0
VERTEX
  5
C7
330
C1
100
AcDbEntity
  8
0
 62
     7
370
    25
100
AcDbVertex
100
AcDb2dVertex
 10
680.8858295010025
 20
436.3578612190356
 30
0.0
  0
VERTEX
  5
C8
330
C1
100
AcDbEntity
  8
0
 62
     7
370
    25
100
AcDbVertex
100
AcDb2dVertex
 10
685.1262252790223
 20
436.3578612190356
 30
0.0
  0
VERTEX
  5
C9
330
C1
100
AcDbEntity
  8
0
 62
     7
370
    25
100
AcDbVertex
100
AcDb2dVertex
 10
685.1262252790223
 20
431.5354165587829
 30
0.0
  0
VERTEX
  5
CA
330
C1
100
AcDbEntity
  8
0
 62
     7
370
    25
100
AcDbVertex
100
AcDb2dVertex
 10
703.7881352678464
 20
437.4515067808281
 30
0.0
  0
VERTEX
  5
CB
330
C1
100
AcDbEntity
  8
0
 62
     7
370
    25
100
AcDbVertex
100
AcDb2dVertex
 10
685.1262252790223
 20
443.364065780001
 30
0.0
  0
VERTEX
  5
CC
330
C1
100
AcDbEntity
  8
0
 62
     7
370
    25
100
AcDbVertex
100
AcDb2dVertex
 10
685.1262252790223
 20
438.5451092789271
 30
0.0
  0
VERTEX
  5
CD
330
C1
100
AcDbEntity
  8
0
 62
     7
370
    25
100
AcDbVertex
100
AcDb2dVertex
 10
680.8858295010025
 20
438.5451092789271
 30
0.0
  0
VERTEX
  5
CE
330
C1
100
AcDbEntity
  8
0
 62
     7
370
    25
100
AcDbVertex
100
AcDb2dVertex
 10
680.8858295010025
 20
444.7257828342396
 30
0.0
  0
VERTEX
  5
CF
330
C1
100
AcDbEntity
  8
0
 62
     7
370
    25
100
AcDbVertex
100
AcDb2dVertex
 10
673.2834511663145
 20
447.1916960551943
 30
0.0
  0
VERTEX
  5
D0
330
C1
100
AcDbEntity
  8
0
 62
     7
370
    25
100
AcDbVertex
100
AcDb2dVertex
 10
673.2834511663145
 20
452.141135547772
 30
0.0
  0
VERTEX
  5
D1
330
C1
100
AcDbEntity
  8
0
 62
     7
370
    25
100
AcDbVertex
100
AcDb2dVertex
 10
708.1519946553188
 20
440.5277186669948
 30
0.0
  0
SEQEND
  5
D2
330
C1
100
AcDbEntity
  8
0
 62
     7
370
    25
  0
POLYLINE
  5
D3
330
BA
100
AcDbEntity
  8
0
 62
     7
370
    25
100
AcDb2dPolyline
 66
     1
 10
0.0
 20
0.0
 30
0.0
  0
VERTEX
  5
D4
330
D3
100
AcDbEntity
  8
0
 62
     7
370
    25
100
AcDbVertex
100
AcDb2dVertex
 10
708.1519946553188
 20
417.6782951158496
 30
0.0
  0
VERTEX
  5
D5
330
D3
100
AcDbEntity
  8
0
 62
     7
370
    25
100
AcDbVertex
100
AcDb2dVertex
 10
708.1519946553188
 20
396.7550244505074
 30
0.0
  0
VERTEX
  5
D6
330
D3
100
AcDbEntity
  8
0
 62
     7
370
    25
100
AcDbVertex
100
AcDb2dVertex
 10
704.1515067141531
 20
396.7550244505074
 30
0.0
  0
VERTEX
  5
D7
330
D3
100
AcDbEntity
  8
0
 62
     7
370
    25
100
AcDbVertex
100
AcDb2dVertex
 10
704.1515067141531
 20
404.8089686759245
 30
0.0
  0
VERTEX
  5
D8
330
D3
100
AcDbEntity
  8
0
 62
     7
370
    25
100
AcDbVertex
100
AcDb2dVertex
 10
677.3368643868724
 20
404.8089686759245
 30
0.0
  0
VERTEX
  5
D9
330
D3
100
AcDbEntity
  8
0
 62
     7
370
    25
100
AcDbVertex
100
AcDb2dVertex
 10
677.3368643868724
 20
396.7550244505074
 30
0.0
  0
VERTEX
  5
DA
330
D3
100
AcDbEntity
  8
0
 62
     7
370
    25
100
AcDbVertex
100
AcDb2dVertex
 10
673.2834511663145
 20
396.7550244505074
 30
0.0
  0
VERTEX
  5
DB
330
D3
100
AcDbEntity
  8
0
 62
     7
370
    25
100
AcDbVertex
100
AcDb2dVertex
 10
673.2834511663145
 20
417.6782951158496
 30
0.0
  0
VERTEX
  5
DC
330
D3
100
AcDbEntity
  8
0
 62
     7
370
    25
100
AcDbVertex
100
AcDb2dVertex
 10
677.3368643868724
 20
417.6782951158496
 30
0.0
  0
VERTEX
  5
DD
330
D3
100
AcDbEntity
  8
0
 62
     7
370
    25
100
AcDbVertex
100
AcDb2dVertex
 10
677.3368643868724
 20
409.624393954126
 30
0.0
  0
VERTEX
  5
DE
330
D3
100
AcDbEntity
  8
0
 62
     7
370
    25
100
AcDbVertex
100
AcDb2dVertex
 10
704.1515067141531
 20
409.624393954126
 30
0.0
  0
VERTEX
  5
DF
330
D3
100
AcDbEntity
  8
0
 62
     7
370
    25
100
AcDbVertex
100
AcDb2dVertex
 10
704.1515067141531
 20
417.6782951158496
 30
0.0
  0
VERTEX
  5
E0
330
D3
100
AcDbEntity
  8
0
 62
     7
370
    25
100
AcDbVertex
100
AcDb2dVertex
 10
708.1519946553188
 20
417.6782951158496
 30
0.0
  0
SEQEND
  5
E1
330
D3
100
AcDbEntity
  8
0
 62
     7
370
    25
  0
POLYLINE
  5
E2
330
BA
100
AcDbEntity
  8
0
 62
     7
370
    25
100
AcDb2dPolyline
 66
     1
 10
0.0
 20
0.0
 30
0.0
  0
VERTEX
  5
E3
330
E2
100
AcDbEntity
  8
0
 62
     7
370
    25
100
AcDbVertex
100
AcDb2dVertex
 10
708.1802013746043
 20
391.2411491263651
 30
0.0
  0
VERTEX
  5
E4
330
E2
100
AcDbEntity
  8
0
 62
     7
370
    25
100
AcDbVertex
100
AcDb2dVertex
 10
708.1802013746043
 20
389.0045070099537
 30
0.0
  0
VERTEX
  5
E5
330
E2
100
AcDbEntity
  8
0
 62
     7
370
    25
100
AcDbVertex
100
AcDb2dVertex
 10
707.4323572721437
 20
389.0045070099537
 30
0.0
  0
VERTEX
  5
E6
330
E2
100
AcDbEntity
  8
0
 62
     7
370
    25
100
AcDbVertex
100
AcDb2dVertex
 10
707.4323572721437
 20
389.7489060169291
 30
0.0
  0
VERTEX
  5
E7
330
E2
100
AcDbEntity
  8
0
 62
     7
370
    25
100
AcDbVertex
100
AcDb2dVertex
 10
704.1621003827703
 20
389.7489060169291
 30
0.0
  0
VERTEX
  5
E8
330
E2
100
AcDbEntity
  8
0
 62
     7
370
    25
100
AcDbVertex
100
AcDb2dVertex
 10
704.1621003827703
 20
390.5285311252412
 30
0.0
  0
VERTEX
  5
E9
330
E2
100
AcDbEntity
  8
0
 62
     7
370
    25
100
AcDbVertex
100
AcDb2dVertex
 10
707.4323572721437
 20
390.5285311252412
 30
0.0
  0
VERTEX
  5
EA
330
E2
100
AcDbEntity
  8
0
 62
     7
370
    25
100
AcDbVertex
100
AcDb2dVertex
 10
707.4323572721437
 20
391.2446803492375
 30
0.0
  0
VERTEX
  5
EB
330
E2
100
AcDbEntity
  8
0
 62
     7
370
    25
100
AcDbVertex
100
AcDb2dVertex
 10
708.1802013746043
 20
391.2411491263651
 30
0.0
  0
SEQEND
  5
EC
330
E2
100
AcDbEntity
  8
0
 62
     7
370
    25
  0
POLYLINE
  5
ED
330
BA
100
AcDbEntity
  8
0
 62
     7
370
    25
100
AcDb2dPolyline
 66
     1
 10
0.0
 20
0.0
 30
0.0
  0
VERTEX
  5
EE
330
ED
100
AcDbEntity
  8
0
 62
     7
370
    25
100
AcDbVertex
100
AcDb2dVertex
 10
708.1802013746043
 20
388.4753403434194
 30
0.0
  0
VERTEX
  5
EF
330
ED
100
AcDbEntity
  8
0
 62
     7
370
    25
100
AcDbVertex
100
AcDb2dVertex
 10
708.1802013746043
 20
386.2740104557319
 30
0.0
  0
VERTEX
  5
F0
330
ED
100
AcDbEntity
  8
0
 62
     7
370
    25
100
AcDbVertex
100
AcDb2dVertex
 10
707.4323572721437
 20
386.2740104557319
 30
0.0
  0
VERTEX
  5
F1
330
ED
100
AcDbEntity
  8
0
 62
     7
370
    25
100
AcDbVertex
100
AcDb2dVertex
 10
707.4323572721437
 20
387.7169025723416
 30
0.0
  0
VERTEX
  5
F2
330
ED
100
AcDbEntity
  8
0
 62
     7
370
    25
100
AcDbVertex
100
AcDb2dVertex
 10
706.6879582651683
 20
387.7169025723416
 30
0.0
  0
VERTEX
  5
F3
330
ED
100
AcDbEntity
  8
0
 62
     7
370
    25
100
AcDbVertex
100
AcDb2dVertex
 10
706.6879582651683
 20
386.2740104557319
 30
0.0
  0
VERTEX
  5
F4
330
ED
100
AcDbEntity
  8
0
 62
     7
370
    25
100
AcDbVertex
100
AcDb2dVertex
 10
705.9401141627077
 20
386.2740104557319
 30
0.0
  0
VERTEX
  5
F5
330
ED
100
AcDbEntity
  8
0
 62
     7
370
    25
100
AcDbVertex
100
AcDb2dVertex
 10
705.9401141627077
 20
387.7169025723416
 30
0.0
  0
VERTEX
  5
F6
330
ED
100
AcDbEntity
  8
0
 62
     7
370
    25
100
AcDbVertex
100
AcDb2dVertex
 10
704.9029251031797
 20
387.7169025723416
 30
0.0
  0
VERTEX
  5
F7
330
ED
100
AcDbEntity
  8
0
 62
     7
370
    25
100
AcDbVertex
100
AcDb2dVertex
 10
704.9029251031797
 20
386.2740104557319
 30
0.0
  0
VERTEX
  5
F8
330
ED
100
AcDbEntity
  8
0
 62
     7
370
    25
100
AcDbVertex
100
AcDb2dVertex
 10
704.1550379370256
 20
386.2740104557319
 30
0.0
  0
VERTEX
  5
F9
330
ED
100
AcDbEntity
  8
0
 62
     7
370
    25
100
AcDbVertex
100
AcDb2dVertex
 10
704.1550379370256
 20
388.4753403434194
 30
0.0
  0
VERTEX
  5
FA
330
ED
100
AcDbEntity
  8
0
 62
     7
370
    25
100
AcDbVertex
100
AcDb2dVertex
 10
708.1802013746043
 20
388.4753403434194
 30
0.0
  0
SEQEND
  5
FB
330
ED
100
AcDbEntity
  8
0
 62
     7
370
    25
  0
POLYLINE
  5
FC
330
BA
100
AcDbEntity
  8
0
 62
     7
370
    25
100
AcDb2dPolyline
 66
     1
 10
0.0
 20
0.0
 30
0.0
  0
VERTEX
  5
FD
330
FC
100
AcDbEntity
  8
0
 62
     7
370
    25
100
AcDbVertex
100
AcDb2dVertex
 10
708.1802013746043
 20
384.323139009822
 30
0.0
  0
VERTEX
  5
FE
330
FC
100
AcDbEntity
  8
0
 62
     7
370
    25
100
AcDbVertex
100
AcDb2dVertex
 10
708.1802013746043
 20
383.54351390151
 30
0.0
  0
VERTEX
  5
FF
330
FC
100
AcDbEntity
  8
0
 62
     7
370
    25
100
AcDbVertex
100
AcDb2dVertex
 10
704.1515067141531
 20
382.0019197992478
 30
0.0
  0
VERTEX
  5
100
330
FC
100
AcDbEntity
  8
0
 62
     7
370
    25
100
AcDbVertex
100
AcDb2dVertex
 10
704.1515067141531
 20
382.7991579582282
 30
0.0
  0
VERTEX
  5
101
330
FC
100
AcDbEntity
  8
0
 62
     7
370
    25
100
AcDbVertex
100
AcDb2dVertex
 10
704.980525878985
 20
383.1201977937599
 30
0.0
  0
VERTEX
  5
102
330
FC
100
AcDbEntity
  8
0
 62
     7
370
    25
100
AcDbVertex
100
AcDb2dVertex
 10
704.980525878985
 20
383.7763592926193
 30
0.0
  0
VERTEX
  5
103
330
FC
100
AcDbEntity
  8
0
 62
     7
370
    25
100
AcDbVertex
100
AcDb2dVertex
 10
705.7284130451391
 20
383.7763592926193
 30
0.0
  0
VERTEX
  5
104
330
FC
100
AcDbEntity
  8
0
 62
     7
370
    25
100
AcDbVertex
100
AcDb2dVertex
 10
705.7284130451391
 20
383.3883123498995
 30
0.0
  0
VERTEX
  5
105
330
FC
100
AcDbEntity
  8
0
 62
     7
370
    25
100
AcDbVertex
100
AcDb2dVertex
 10
707.1112743729184
 20
383.9316039079234
 30
0.0
  0
VERTEX
  5
106
330
FC
100
AcDbEntity
  8
0
 62
     7
370
    25
100
AcDbVertex
100
AcDb2dVertex
 10
705.7284130451391
 20
384.4713642430749
 30
0.0
  0
VERTEX
  5
107
330
FC
100
AcDbEntity
  8
0
 62
     7
370
    25
100
AcDbVertex
100
AcDb2dVertex
 10
705.7284130451391
 20
384.0832742366615
 30
0.0
  0
VERTEX
  5
108
330
FC
100
AcDbEntity
  8
0
 62
     7
370
    25
100
AcDbVertex
100
AcDb2dVertex
 10
704.980525878985
 20
384.0832742366615
 30
0.0
  0
VERTEX
  5
109
330
FC
100
AcDbEntity
  8
0
 62
     7
370
    25
100
AcDbVertex
100
AcDb2dVertex
 10
704.980525878985
 20
384.7711736776787
 30
0.0
  0
VERTEX
  5
10A
330
FC
100
AcDbEntity
  8
0
 62
     7
370
    25
100
AcDbVertex
100
AcDb2dVertex
 10
704.1515067141531
 20
385.0992759589552
 30
0.0
  0
VERTEX
  5
10B
330
FC
100
AcDbEntity
  8
0
 62
     7
370
    25
100
AcDbVertex
100
AcDb2dVertex
 10
704.1515067141531
 20
385.8824753538332
 30
0.0
  0
VERTEX
  5
10C
330
FC
100
AcDbEntity
  8
0
 62
     7
370
    25
100
AcDbVertex
100
AcDb2dVertex
 10
708.1802013746043
 20
384.323139009822
 30
0.0
  0
SEQEND
  5
10D
330
FC
100
AcDbEntity
  8
0
 62
     7
370
    25
  0
POLYLINE
  5
10E
330
BA
100
AcDbEntity
  8
0
 62
     7
370
    25
100
AcDb2dPolyline
 66
     1
 10
0.0
 20
0.0
 30
0.0
  0
VERTEX
  5
10F
330
10E
100
AcDbEntity
  8
0
 62
     7
370
    25
100
AcDbVertex
100
AcDb2dVertex
 10
708.1802013746043
 20
380.2591751843406
 30
0.0
  0
VERTEX
  5
110
330
10E
100
AcDbEntity
  8
0
 62
     7
370
    25
100
AcDbVertex
100
AcDb2dVertex
 10
705.3685728217048
 20
379.3207742378521
 30
0.0
  0
VERTEX
  5
111
330
10E
100
AcDbEntity
  8
0
 62
     7
370
    25
100
AcDbVertex
100
AcDb2dVertex
 10
708.1802013746043
 20
378.3718226864401
 30
0.0
  0
VERTEX
  5
112
330
10E
100
AcDbEntity
  8
0
 62
     7
370
    25
100
AcDbVertex
100
AcDb2dVertex
 10
708.1802013746043
 20
377.6274236794647
 30
0.0
  0
VERTEX
  5
113
330
10E
100
AcDbEntity
  8
0
 62
     7
370
    25
100
AcDbVertex
100
AcDb2dVertex
 10
704.1515067141531
 20
376.9501179070646
 30
0.0
  0
VERTEX
  5
114
330
10E
100
AcDbEntity
  8
0
 62
     7
370
    25
100
AcDbVertex
100
AcDb2dVertex
 10
704.1515067141531
 20
377.6980050732187
 30
0.0
  0
VERTEX
  5
115
330
10E
100
AcDbEntity
  8
0
 62
     7
370
    25
100
AcDbVertex
100
AcDb2dVertex
 10
706.6879582651683
 20
378.1213642446624
 30
0.0
  0
VERTEX
  5
116
330
10E
100
AcDbEntity
  8
0
 62
     7
370
    25
100
AcDbVertex
100
AcDb2dVertex
 10
704.1444442684084
 20
378.982121351652
 30
0.0
  0
VERTEX
  5
117
330
10E
100
AcDbEntity
  8
0
 62
     7
370
    25
100
AcDbVertex
100
AcDb2dVertex
 10
704.1444442684084
 20
379.6594271240522
 30
0.0
  0
VERTEX
  5
118
330
10E
100
AcDbEntity
  8
0
 62
     7
370
    25
100
AcDbVertex
100
AcDb2dVertex
 10
706.6879582651683
 20
380.5096336261183
 30
0.0
  0
VERTEX
  5
119
330
10E
100
AcDbEntity
  8
0
 62
     7
370
    25
100
AcDbVertex
100
AcDb2dVertex
 10
704.1444442684084
 20
380.9470746253579
 30
0.0
  0
VERTEX
  5
11A
330
10E
100
AcDbEntity
  8
0
 62
     7
370
    25
100
AcDbVertex
100
AcDb2dVertex
 10
704.1444442684084
 20
381.694961791512
 30
0.0
  0
VERTEX
  5
11B
330
10E
100
AcDbEntity
  8
0
 62
     7
370
    25
100
AcDbVertex
100
AcDb2dVertex
 10
708.1802013746043
 20
381.0035311276224
 30
0.0
  0
VERTEX
  5
11C
330
10E
100
AcDbEntity
  8
0
 62
     7
370
    25
100
AcDbVertex
100
AcDb2dVertex
 10
708.1802013746043
 20
380.2591751843406
 30
0.0
  0
SEQEND
  5
11D
330
10E
100
AcDbEntity
  8
0
 62
     7
370
    25
  0
ENDBLK
  5
BD
330
BA
100
AcDbEntity
  8
0
100
AcDbBlockEnd
  0
BLOCK
  5
120
330
11E
100
AcDbEntity
  8
0
100
AcDbBlockBegin
  2
block 10
 70
     0
 10
0.0
 20
0.0
 30
0.0
  3
block 10
  1

  0
POLYLINE
  5
122
330
11E
100
AcDbEntity
  8
0
 62
     7
370
    25
100
AcDb2dPolyline
 66
     1
 10
0.0
 20
0.0
 30
0.0
  0
VERTEX
  5
123
330
122
100
AcDbEntity
  8
0
 62
     7
370
    25
100
AcDbVertex
100
AcDb2dVertex
 10
708.1802013746043
 20
388.4753403434194
 30
0.0
  0
VERTEX
  5
124
330
122
100
AcDbEntity
  8
0
 62
     7
370
    25
100
AcDbVertex
100
AcDb2dVertex
 10
708.1802013746043
 20
386.2740104557319
 30
0.0
  0
VERTEX
  5
125
330
122
100
AcDbEntity
  8
0
 62
     7
370
    25
100
AcDbVertex
100
AcDb2dVertex
 10
707.4323572721437
 20
386.2740104557319
 30
0.0
  0
VERTEX
  5
126
330
122
100
AcDbEntity
  8
0
 62
     7
370
    25
100
AcDbVertex
100
AcDb2dVertex
 10
707.4323572721437
 20
387.7169025723416
 30
0.0
  0
VERTEX
  5
127
330
122
100
AcDbEntity
  8
0
 62
     7
370
    25
100
AcDbVertex
100
AcDb2dVertex
 10
706.6879582651683
 20
387.7169025723416
 30
0.0
  0
VERTEX
  5
128
330
122
100
AcDbEntity
  8
0
 62
     7
370
    25
100
AcDbVertex
100
AcDb2dVertex
 10
706.6879582651683
 20
386.2740104557319
 30
0.0
  0
VERTEX
  5
129
330
122
100
AcDbEntity
  8
0
 62
     7
370
    25
100
AcDbVertex
100
AcDb2dVertex
 10
705.9401141627077
 20
386.2740104557319
 30
0.0
  0
VERTEX
  5
12A
330
122
100
AcDbEntity
  8
0
 62
     7
370
    25
100
AcDbVertex
100
AcDb2dVertex
 10
705.9401141627077
 20
387.7169025723416
 30
0.0
  0
VERTEX
  5
12B
330
122
100
AcDbEntity
  8
0
 62
     7
370
    25
100
AcDbVertex
100
AcDb2dVertex
 10
704.9029251031797
 20
387.7169025723416
 30
0.0
  0
VERTEX
  5
12C
330
122
100
AcDbEntity
  8
0
 62
     7
370
    25
100
AcDbVertex
100
AcDb2dVertex
 10
704.9029251031797
 20
386.2740104557319
 30
0.0
  0
VERTEX
  5
12D
330
122
100
AcDbEntity
  8
0
 62
     7
370
    25
100
AcDbVertex
100
AcDb2dVertex
 10
704.1550379370256
 20
386.2740104557319
 30
0.0
  0
VERTEX
  5
12E
330
122
100
AcDbEntity
  8
0
 62
     7
370
    25
100
AcDbVertex
100
AcDb2dVertex
 10
704.1550379370256
 20
388.4753403434194
 30
0.0
  0
VERTEX
  5
12F
330
122
100
AcDbEntity
  8
0
 62
     7
370
    25
100
AcDbVertex
100
AcDb2dVertex
 10
708.1802013746043
 20
388.4753403434194
 30
0.0
  0
SEQEND
  5
130
330
122
100
AcDbEntity
  8
0
 62
     7
370
    25
  0
ENDBLK
  5
121
330
11E
100
AcDbEntity
  8
0
100
AcDbBlockEnd
  0
BLOCK
  5
133
330
131
100
AcDbEntity
  8
0
100
AcDbBlockBegin
  2
block 11
 70
     0
 10
0.0
 20
0.0
 30
0.0
  3
block 11
  1

  0
POLYLINE
  5
135
330
131
100
AcDbEntity
  8
0
 62
     7
370
    25
100
AcDb2dPolyline
 66
     1
 10
0.0
 20
0.0
 30
0.0
  0
VERTEX
  5
136
330
135
100
AcDbEntity
  8
0
 62
     7
370
    25
100
AcDbVertex
100
AcDb2dVertex
 10
708.1802013746043
 20
384.323139009822
 30
0.0
  0
VERTEX
  5
137
330
135
100
AcDbEntity
  8
0
 62
     7
370
    25
100
AcDbVertex
100
AcDb2dVertex
 10
708.1802013746043
 20
383.54351390151
 30
0.0
  0
VERTEX
  5
138
330
135
100
AcDbEntity
  8
0
 62
     7
370
    25
100
AcDbVertex
100
AcDb2dVertex
 10
704.1515067141531
 20
382.0019197992478
 30
0.0
  0
VERTEX
  5
139
330
135
100
AcDbEntity
  8
0
 62
     7
370
    25
100
AcDbVertex
100
AcDb2dVertex
 10
704.1515067141531
 20
382.7991579582282
 30
0.0
  0
VERTEX
  5
13A
330
135
100
AcDbEntity
  8
0
 62
     7
370
    25
100
AcDbVertex
100
AcDb2dVertex
 10
704.980525878985
 20
383.1201977937599
 30
0.0
  0
VERTEX
  5
13B
330
135
100
AcDbEntity
  8
0
 62
     7
370
    25
100
AcDbVertex
100
AcDb2dVertex
 10
704.980525878985
 20
383.7763592926193
 30
0.0
  0
VERTEX
  5
13C
330
135
100
AcDbEntity
  8
0
 62
     7
370
    25
100
AcDbVertex
100
AcDb2dVertex
 10
705.7284130451391
 20
383.7763592926193
 30
0.0
  0
VERTEX
  5
13D
330
135
100
AcDbEntity
  8
0
 62
     7
370
    25
100
AcDbVertex
100
AcDb2dVertex
 10
705.7284130451391
 20
383.3883123498995
 30
0.0
  0
VERTEX
  5
13E
330
135
100
AcDbEntity
  8
0
 62
     7
370
    25
100
AcDbVertex
100
AcDb2dVertex
 10
707.1112743729184
 20
383.9316039079234
 30
0.0
  0
VERTEX
  5
13F
330
135
100
AcDbEntity
  8
0
 62
     7
370
    25
100
AcDbVertex
100
AcDb2dVertex
 10
705.7284130451391
 20
384.4713642430749
 30
0.0
  0
VERTEX
  5
140
330
135
100
AcDbEntity
  8
0
 62
     7
370
    25
100
AcDbVertex
100
AcDb2dVertex
 10
705.7284130451391
 20
384.0832742366615
 30
0.0
  0
VERTEX
  5
141
330
135
100
AcDbEntity
  8
0
 62
     7
370
    25
100
AcDbVertex
100
AcDb2dVertex
 10
704.980525878985
 20
384.0832742366615
 30
0.0
  0
VERTEX
  5
142
330
135
100
AcDbEntity
  8
0
 62
     7
370
    25
100
AcDbVertex
100
AcDb2dVertex
 10
704.980525878985
 20
384.7711736776787
 30
0.0
  0
VERTEX
  5
143
330
135
100
AcDbEntity
  8
0
 62
     7
370
    25
100
AcDbVertex
100
AcDb2dVertex
 10
704.1515067141531
 20
385.0992759589552
 30
0.0
  0
VERTEX
  5
144
330
135
100
AcDbEntity
  8
0
 62
     7
370
    25
100
AcDbVertex
100
AcDb2dVertex
 10
704.1515067141531
 20
385.8824753538332
 30
0.0
  0
VERTEX
  5
145
330
135
100
AcDbEntity
  8
0
 62
     7
370
    25
100
AcDbVertex
100
AcDb2dVertex
 10
708.1802013746043
 20
384.323139009822
 30
0.0
  0
SEQEND
  5
146
330
135
100
AcDbEntity
  8
0
 62
     7
370
    25
  0
ENDBLK
  5
134
330
131
100
AcDbEntity
  8
0
100
AcDbBlockEnd
  0
BLOCK
  5
149
330
147
100
AcDbEntity
  8
0
100
AcDbBlockBegin
  2
block 12
 70
     0
 10
0.0
 20
0.0
 30
0.0
  3
block 12
  1

  0
POLYLINE
  5
14B
330
147
100
AcDbEntity
  8
0
 62
     7
370
    25
100
AcDb2dPolyline
 66
     1
 10
0.0
 20
0.0
 30
0.0
  0
VERTEX
  5
14C
330
14B
100
AcDbEntity
  8
0
 62
     7
370
    25
100
AcDbVertex
100
AcDb2dVertex
 10
708.1519946553188
 20
440.5277186669948
 30
0.0
  0
VERTEX
  5
14D
330
14B
100
AcDbEntity
  8
0
 62
     7
370
    25
100
AcDbVertex
100
AcDb2dVertex
 10
708.1519946553188
 20
434.0013297797375
 30
0.0
  0
VERTEX
  5
14E
330
14B
100
AcDbEntity
  8
0
 62
     7
370
    25
100
AcDbVertex
100
AcDb2dVertex
 10
673.2834511663145
 20
422.5466456734432
 30
0.0
  0
VERTEX
  5
14F
330
14B
100
AcDbEntity
  8
0
 62
     7
370
    25
100
AcDbVertex
100
AcDb2dVertex
 10
673.2834511663145
 20
427.735993002875
 30
0.0
  0
VERTEX
  5
150
330
14B
100
AcDbEntity
  8
0
 62
     7
370
    25
100
AcDbVertex
100
AcDb2dVertex
 10
680.8858295010025
 20
430.1701682816719
 30
0.0
  0
VERTEX
  5
151
330
14B
100
AcDbEntity
  8
0
 62
     7
370
    25
100
AcDbVertex
100
AcDb2dVertex
 10
680.8858295010025
 20
436.3578612190356
 30
0.0
  0
VERTEX
  5
152
330
14B
100
AcDbEntity
  8
0
 62
     7
370
    25
100
AcDbVertex
100
AcDb2dVertex
 10
685.1262252790223
 20
436.3578612190356
 30
0.0
  0
VERTEX
  5
153
330
14B
100
AcDbEntity
  8
0
 62
     7
370
    25
100
AcDbVertex
100
AcDb2dVertex
 10
685.1262252790223
 20
431.5354165587829
 30
0.0
  0
VERTEX
  5
154
330
14B
100
AcDbEntity
  8
0
 62
     7
370
    25
100
AcDbVertex
100
AcDb2dVertex
 10
703.7881352678464
 20
437.4515067808281
 30
0.0
  0
VERTEX
  5
155
330
14B
100
AcDbEntity
  8
0
 62
     7
370
    25
100
AcDbVertex
100
AcDb2dVertex
 10
685.1262252790223
 20
443.364065780001
 30
0.0
  0
VERTEX
  5
156
330
14B
100
AcDbEntity
  8
0
 62
     7
370
    25
100
AcDbVertex
100
AcDb2dVertex
 10
685.1262252790223
 20
438.5451092789271
 30
0.0
  0
VERTEX
  5
157
330
14B
100
AcDbEntity
  8
0
 62
     7
370
    25
100
AcDbVertex
100
AcDb2dVertex
 10
680.8858295010025
 20
438.5451092789271
 30
0.0
  0
VERTEX
  5
158
330
14B
100
AcDbEntity
  8
0
 62
     7
370
    25
100
AcDbVertex
100
AcDb2dVertex
 10
680.8858295010025
 20
444.7257828342396
 30
0.0
  0
VERTEX
  5
159
330
14B
100
AcDbEntity
  8
0
 62
     7
370
    25
100
AcDbVertex
100
AcDb2dVertex
 10
673.2834511663145
 20
447.1916960551943
 30
0.0
  0
VERTEX
  5
15A
330
14B
100
AcDbEntity
  8
0
 62
     7
370
    25
100
AcDbVertex
100
AcDb2dVertex
 10
673.2834511663145
 20
452.141135547772
 30
0.0
  0
VERTEX
  5
15B
330
14B
100
AcDbEntity
  8
0
 62
     7
370
    25
100
AcDbVertex
100
AcDb2dVertex
 10
708.1519946553188
 20
440.5277186669948
 30
0.0
  0
SEQEND
  5
15C
330
14B
100
AcDbEntity
  8
0
 62
     7
370
    25
  0
ENDBLK
  5
14A
330
147
100
AcDbEntity
  8
0
100
AcDbBlockEnd
  0
BLOCK
  5
15F
330
15D
100
AcDbEntity
  8
0
100
AcDbBlockBegin
  2
block 13
 70
     0
 10
0.0
 20
0.0
 30
0.0
  3
block 13
  1

  0
SPLINE
  5
161
330
15D
100
AcDbEntity
  8
0
 62
     7
370
    25
100
AcDbSpline
210
0.0
220
0.0
230
1.0
 70
    11
 71
     3
 72
    77
 73
    73
 74
     0
 42
0.0000000001
 43
0.0000000001
 12
1.0
 22
0.0
 32
0.0
 13
1.0
 23
0.0
 33
0.0
 40
0.0
 40
0.0
 40
0.0
 40
0.0
 40
1.0
 40
1.0
 40
1.0
 40
2.0
 40
2.0
 40
2.0
 40
3.0
 40
3.0
 40
3.0
 40
4.0
 40
4.0
 40
4.0
 40
5.0
 40
5.0
 40
5.0
 40
6.0
 40
6.0
 40
6.0
 40
7.0
 40
7.0
 40
7.0
 40
8.0
 40
8.0
 40
8.0
 40
9.0
 40
9.0
 40
9.0
 40
10.0
 40
10.0
 40
10.0
 40
11.0
 40
11.0
 40
11.0
 40
12.0
 40
12.0
 40
12.0
 40
13.0
 40
13.0
 40
13.0
 40
14.0
 40
14.0
 40
14.0
 40
15.0
 40
15.0
 40
15.0
 40
16.0
 40
16.0
 40
16.0
 40
17.0
 40
17.0
 40
17.0
 40
18.0
 40
18.0
 40
18.0
 40
19.0
 40
19.0
 40
19.0
 40
20.0
 40
20.0
 40
20.0
 40
21.0
 40
21.0
 40
21.0
 40
22.0
 40
22.0
 40
22.0
 40
23.0
 40
23.0
 40
23.0
 40
24.0
 40
24.0
 40
24.0
 40
24.0
 10
695.4061318248464
 20
467.2047724933334
 30
0.0
 10
695.4061318248464
 20
467.2047724933334
 30
0.0
 10
698.3941492665907
 20
467.2047724933334
 30
0.0
 10
698.3941492665907
 20
467.2047724933334
 30
0.0
 10
698.3941492665907
 20
467.2047724933334
 30
0.0
 10
698.3800243751012
 20
465.15868722095
 30
0.0
 10
698.3800243751012
 20
465.15868722095
 30
0.0
 10
698.3800243751012
 20
465.15868722095
 30
0.0
 10
682.2122773902108
 20
465.15868722095
 30
0.0
 10
682.2122773902108
 20
465.15868722095
 30
0.0
 10
682.2122773902108
 20
465.15868722095
 30
0.0
 10
682.2122773902108
 20
467.2153661619505
 30
0.0
 10
682.2122773902108
 20
467.2153661619505
 30
0.0
 10
682.2122773902108
 20
467.2153661619505
 30
0.0
 10
684.992124937259
 20
467.2153661619505
 30
0.0
 10
684.992124937259
 20
467.2153661619505
 30
0.0
 10
683.9937793293271
 20
468.0126473846245
 30
0.0
 10
683.1753538331125
 20
469.0145242154287
 30
0.0
 10
682.5967500463647
 20
470.1539895471751
 30
0.0
 10
682.2580971601647
 20
470.8701387711714
 30
0.0
 10
682.025294832749
 20
471.6321077651215
 30
0.0
 10
681.9017881596027
 20
472.4153071599995
 30
0.0
 10
681.9017881596027
 20
472.4153071599995
 30
0.0
 10
683.8067967718652
 20
472.4153071599995
 30
0.0
 10
683.8067967718652
 20
472.4153071599995
 30
0.0
 10
683.9337916041902
 20
471.6568263252282
 30
0.0
 10
684.194843714585
 20
470.9265522097423
 30
0.0
 10
684.5758712752537
 20
470.2598401059594
 30
0.0
 10
685.1156316104051
 20
469.2720451029511
 30
0.0
 10
685.9234634380027
 20
468.4571077659153
 30
0.0
 10
686.9041959952662
 20
467.9033086666614
 30
0.0
 10
687.9166664946875
 20
467.3458922171479
 30
0.0
 10
689.0596630493063
 20
467.0636527695189
 30
0.0
 10
690.2167844954146
 20
467.0813088838808
 30
0.0
 10
691.966548492373
 20
467.0354460502334
 30
0.0
 10
693.6634302736328
 20
467.7092636634546
 30
0.0
 10
694.9052149412911
 20
468.9475171082406
 30
0.0
 10
696.1399371632046
 20
470.1328022099408
 30
0.0
 10
696.8207741584771
 20
471.7803329983744
 30
0.0
 10
696.7890362163192
 20
473.4912535437366
 30
0.0
 10
696.8066492669876
 20
475.7984339902084
 30
0.0
 10
695.5578021535846
 20
477.9292255478354
 30
0.0
 10
693.5363923776142
 20
479.0439723194751
 30
0.0
 10
691.5185138245163
 20
480.2081562113282
 30
0.0
 10
689.0314132663273
 20
480.2081562113282
 30
0.0
 10
687.0100034903569
 20
479.0439723194751
 30
0.0
 10
686.0046385003739
 20
478.4866419973488
 30
0.0
 10
685.1649826032314
 20
477.671704660313
 30
0.0
 10
684.5829337209984
 20
476.6839096573048
 30
0.0
 10
684.2019061603297
 20
476.0383418270625
 30
0.0
 10
683.9373228270625
 20
475.3292550488109
 30
0.0
 10
683.8067967718652
 20
474.5919615512739
 30
0.0
 10
683.8067967718652
 20
474.5919615512739
 30
0.0
 10
681.8524371667766
 20
474.5919615512739
 30
0.0
 10
681.8524371667766
 20
474.5919615512739
 30
0.0
 10
682.0605639977791
 20
476.4933958769704
 30
0.0
 10
682.9213641684624
 20
478.2643472111631
 30
0.0
 10
684.2936318276245
 20
479.6013887689886
 30
0.0
 10
685.8987879415896
 20
481.1959512143364
 30
0.0
 10
688.0789304920428
 20
482.074364435688
 30
0.0
 10
690.3437793277396
 20
482.0285016020406
 30
0.0
 10
692.5874408262022
 20
482.0602395441985
 30
0.0
 10
694.7464391031147
 20
481.1712326542298
 30
0.0
 10
696.3163260520495
 20
479.5696077631371
 30
0.0
 10
697.9285015480657
 20
478.028013660875
 30
0.0
 10
698.828059042958
 20
475.8830972117584
 30
0.0
 10
698.7963641644936
 20
473.6535606047854
 30
0.0
 10
698.813977215162
 20
472.3976941093312
 30
0.0
 10
698.5211871626093
 20
471.1559094416729
 30
0.0
 10
697.9496458216064
 20
470.0411196063396
 30
0.0
 10
697.335815933522
 20
468.9086736566444
 30
0.0
 10
696.4679963807876
 20
467.9350035451257
 30
0.0
 10
695.4061318248464
 20
467.2047724933334
 30
0.0
  0
ENDBLK
  5
160
330
15D
100
AcDbEntity
  8
0
100
AcDbBlockEnd
  0
BLOCK
  5
164
330
162
100
AcDbEntity
  8
0
100
AcDbBlockBegin
  2
block 14
 70
     0
 10
0.0
 20
0.0
 30
0.0
  3
block 14
  1

  0
POLYLINE
  5
166
330
162
100
AcDbEntity
  8
0
 62
     7
370
    25
100
AcDb2dPolyline
 66
     1
 10
0.0
 20
0.0
 30
0.0
  0
VERTEX
  5
167
330
166
100
AcDbEntity
  8
0
 62
     7
370
    25
100
AcDbVertex
100
AcDb2dVertex
 10
708.1802013746043
 20
391.2411491263651
 30
0.0
  0
VERTEX
  5
168
330
166
100
AcDbEntity
  8
0
 62
     7
370
    25
100
AcDbVertex
100
AcDb2dVertex
 10
708.1802013746043
 20
389.0045070099537
 30
0.0
  0
VERTEX
  5
169
330
166
100
AcDbEntity
  8
0
 62
     7
370
    25
100
AcDbVertex
100
AcDb2dVertex
 10
707.4323572721437
 20
389.0045070099537
 30
0.0
  0
VERTEX
  5
16A
330
166
100
AcDbEntity
  8
0
 62
     7
370
    25
100
AcDbVertex
100
AcDb2dVertex
 10
707.4323572721437
 20
389.7489060169291
 30
0.0
  0
VERTEX
  5
16B
330
166
100
AcDbEntity
  8
0
 62
     7
370
    25
100
AcDbVertex
100
AcDb2dVertex
 10
704.1621003827703
 20
389.7489060169291
 30
0.0
  0
VERTEX
  5
16C
330
166
100
AcDbEntity
  8
0
 62
     7
370
    25
100
AcDbVertex
100
AcDb2dVertex
 10
704.1621003827703
 20
390.5285311252412
 30
0.0
  0
VERTEX
  5
16D
330
166
100
AcDbEntity
  8
0
 62
     7
370
    25
100
AcDbVertex
100
AcDb2dVertex
 10
707.4323572721437
 20
390.5285311252412
 30
0.0
  0
VERTEX
  5
16E
330
166
100
AcDbEntity
  8
0
 62
     7
370
    25
100
AcDbVertex
100
AcDb2dVertex
 10
707.4323572721437
 20
391.2446803492375
 30
0.0
  0
VERTEX
  5
16F
330
166
100
AcDbEntity
  8
0
 62
     7
370
    25
100
AcDbVertex
100
AcDb2dVertex
 10
708.1802013746043
 20
391.2411491263651
 30
0.0
  0
SEQEND
  5
170
330
166
100
AcDbEntity
  8
0
 62
     7
370
    25
  0
ENDBLK
  5
165
330
162
100
AcDbEntity
  8
0
100
AcDbBlockEnd
  0
BLOCK
  5
173
330
171
100
AcDbEntity
  8
0
100
AcDbBlockBegin
  2
block 15
 70
     0
 10
0.0
 20
0.0
 30
0.0
  3
block 15
  1

  0
POLYLINE
  5
175
330
171
100
AcDbEntity
  8
0
 62
     7
370
    25
100
AcDb2dPolyline
 66
     1
 10
0.0
 20
0.0
 30
0.0
  0
VERTEX
  5
176
330
175
100
AcDbEntity
  8
0
 62
     7
370
    25
100
AcDbVertex
100
AcDb2dVertex
 10
708.1802013746043
 20
380.2591751843406
 30
0.0
  0
VERTEX
  5
177
330
175
100
AcDbEntity
  8
0
 62
     7
370
    25
100
AcDbVertex
100
AcDb2dVertex
 10
705.3685728217048
 20
379.3207742378521
 30
0.0
  0
VERTEX
  5
178
330
175
100
AcDbEntity
  8
0
 62
     7
370
    25
100
AcDbVertex
100
AcDb2dVertex
 10
708.1802013746043
 20
378.3718226864401
 30
0.0
  0
VERTEX
  5
179
330
175
100
AcDbEntity
  8
0
 62
     7
370
    25
100
AcDbVertex
100
AcDb2dVertex
 10
708.1802013746043
 20
377.6274236794647
 30
0.0
  0
VERTEX
  5
17A
330
175
100
AcDbEntity
  8
0
 62
     7
370
    25
100
AcDbVertex
100
AcDb2dVertex
 10
704.1515067141531
 20
376.9501179070646
 30
0.0
  0
VERTEX
  5
17B
330
175
100
AcDbEntity
  8
0
 62
     7
370
    25
100
AcDbVertex
100
AcDb2dVertex
 10
704.1515067141531
 20
377.6980050732187
 30
0.0
  0
VERTEX
  5
17C
330
175
100
AcDbEntity
  8
0
 62
     7
370
    25
100
AcDbVertex
100
AcDb2dVertex
 10
706.6879582651683
 20
378.1213642446624
 30
0.0
  0
VERTEX
  5
17D
330
175
100
AcDbEntity
  8
0
 62
     7
370
    25
100
AcDbVertex
100
AcDb2dVertex
 10
704.1444442684084
 20
378.982121351652
 30
0.0
  0
VERTEX
  5
17E
330
175
100
AcDbEntity
  8
0
 62
     7
370
    25
100
AcDbVertex
100
AcDb2dVertex
 10
704.1444442684084
 20
379.6594271240522
 30
0.0
  0
VERTEX
  5
17F
330
175
100
AcDbEntity
  8
0
 62
     7
370
    25
100
AcDbVertex
100
AcDb2dVertex
 10
706.6879582651683
 20
380.5096336261183
 30
0.0
  0
VERTEX
  5
180
330
175
100
AcDbEntity
  8
0
 62
     7
370
    25
100
AcDbVertex
100
AcDb2dVertex
 10
704.1444442684084
 20
380.9470746253579
 30
0.0
  0
VERTEX
  5
181
330
175
100
AcDbEntity
  8
0
 62
     7
370
    25
100
AcDbVertex
100
AcDb2dVertex
 10
704.1444442684084
 20
381.694961791512
 30
0.0
  0
VERTEX
  5
182
330
175
100
AcDbEntity
  8
0
 62
     7
370
    25
100
AcDbVertex
100
AcDb2dVertex
 10
708.1802013746043
 20
381.0035311276224
 30
0.0
  0
VERTEX
  5
183
330
175
100
AcDbEntity
  8
0
 62
     7
370
    25
100
AcDbVertex
100
AcDb2dVertex
 10
708.1802013746043
 20
380.2591751843406
 30
0.0
  0
SEQEND
  5
184
330
175
100
AcDbEntity
  8
0
 62
     7
370
    25
  0
ENDBLK
  5
174
330
171
100
AcDbEntity
  8
0
100
AcDbBlockEnd
  0
BLOCK
  5
187
330
185
100
AcDbEntity
  8
0
100
AcDbBlockBegin
  2
block 16
 70
     0
 10
0.0
 20
0.0
 30
0.0
  3
block 16
  1

  0
POLYLINE
  5
189
330
185
100
AcDbEntity
  8
0
 62
     7
370
    25
100
AcDb2dPolyline
 66
     1
 10
0.0
 20
0.0
 30
0.0
  0
VERTEX
  5
18A
330
189
100
AcDbEntity
  8
0
 62
     7
370
    25
100
AcDbVertex
100
AcDb2dVertex
 10
708.1519946553188
 20
417.6782951158496
 30
0.0
  0
VERTEX
  5
18B
330
189
100
AcDbEntity
  8
0
 62
     7
370
    25
100
AcDbVertex
100
AcDb2dVertex
 10
708.1519946553188
 20
396.7550244505074
 30
0.0
  0
VERTEX
  5
18C
330
189
100
AcDbEntity
  8
0
 62
     7
370
    25
100
AcDbVertex
100
AcDb2dVertex
 10
704.1515067141531
 20
396.7550244505074
 30
0.0
  0
VERTEX
  5
18D
330
189
100
AcDbEntity
  8
0
 62
     7
370
    25
100
AcDbVertex
100
AcDb2dVertex
 10
704.1515067141531
 20
404.8089686759245
 30
0.0
  0
VERTEX
  5
18E
330
189
100
AcDbEntity
  8
0
 62
     7
370
    25
100
AcDbVertex
100
AcDb2dVertex
 10
677.3368643868724
 20
404.8089686759245
 30
0.0
  0
VERTEX
  5
18F
330
189
100
AcDbEntity
  8
0
 62
     7
370
    25
100
AcDbVertex
100
AcDb2dVertex
 10
677.3368643868724
 20
396.7550244505074
 30
0.0
  0
VERTEX
  5
190
330
189
100
AcDbEntity
  8
0
 62
     7
370
    25
100
AcDbVertex
100
AcDb2dVertex
 10
673.2834511663145
 20
396.7550244505074
 30
0.0
  0
VERTEX
  5
191
330
189
100
AcDbEntity
  8
0
 62
     7
370
    25
100
AcDbVertex
100
AcDb2dVertex
 10
673.2834511663145
 20
417.6782951158496
 30
0.0
  0
VERTEX
  5
192
330
189
100
AcDbEntity
  8
0
 62
     7
370
    25
100
AcDbVertex
100
AcDb2dVertex
 10
677.3368643868724
 20
417.6782951158496
 30
0.0
  0
VERTEX
  5
193
330
189
100
AcDbEntity
  8
0
 62
     7
370
    25
100
AcDbVertex
100
AcDb2dVertex
 10
677.3368643868724
 20
409.624393954126
 30
0.0
  0
VERTEX
  5
194
330
189
100
AcDbEntity
  8
0
 62
     7
370
    25
100
AcDbVertex
100
AcDb2dVertex
 10
704.1515067141531
 20
409.624393954126
 30
0.0
  0
VERTEX
  5
195
330
189
100
AcDbEntity
  8
0
 62
     7
370
    25
100
AcDbVertex
100
AcDb2dVertex
 10
704.1515067141531
 20
417.6782951158496
 30
0.0
  0
VERTEX
  5
196
330
189
100
AcDbEntity
  8
0
 62
     7
370
    25
100
AcDbVertex
100
AcDb2dVertex
 10
708.1519946553188
 20
417.6782951158496
 30
0.0
  0
SEQEND
  5
197
330
189
100
AcDbEntity
  8
0
 62
     7
370
    25
  0
ENDBLK
  5
188
330
185
100
AcDbEntity
  8
0
100
AcDbBlockEnd
  0
BLOCK
  5
19A
330
198
100
AcDbEntity
  8
0
100
AcDbBlockBegin
  2
block 17
 70
     0
 10
0.0
 20
0.0
 30
0.0
  3
block 17
  1

  0
POLYLINE
  5
19C
330
198
100
AcDbEntity
  8
0
 62
     7
370
    25
100
AcDb2dPolyline
 66
     1
 10
0.0
 20
0.0
 30
0.0
  0
VERTEX
  5
19D
330
19C
100
AcDbEntity
  8
0
 62
     7
370
    25
100
AcDbVertex
100
AcDb2dVertex
 10
767.7784584669096
 20
472.2459807168995
 30
0.0
  0
VERTEX
  5
19E
330
19C
100
AcDbEntity
  8
0
 62
     7
370
    25
100
AcDbVertex
100
AcDb2dVertex
 10
767.7784584669096
 20
496.9122184358848
 30
0.0
  0
VERTEX
  5
19F
330
19C
100
AcDbEntity
  8
0
 62
     7
370
    25
100
AcDbVertex
100
AcDb2dVertex
 10
764.7798473565481
 20
496.9122184358848
 30
0.0
  0
VERTEX
  5
1A0
330
19C
100
AcDbEntity
  8
0
 62
     7
370
    25
100
AcDbVertex
100
AcDb2dVertex
 10
764.7798473565481
 20
516.9147012054068
 30
0.0
  0
VERTEX
  5
1A1
330
19C
100
AcDbEntity
  8
0
 62
     7
370
    25
100
AcDbVertex
100
AcDb2dVertex
 10
615.639553679098
 20
516.9147012054068
 30
0.0
  0
VERTEX
  5
1A2
330
19C
100
AcDbEntity
  8
0
 62
     7
370
    25
100
AcDbVertex
100
AcDb2dVertex
 10
615.639553679098
 20
496.9122184358848
 30
0.0
  0
VERTEX
  5
1A3
330
19C
100
AcDbEntity
  8
0
 62
     7
370
    25
100
AcDbVertex
100
AcDb2dVertex
 10
612.6409425687365
 20
496.9122184358848
 30
0.0
  0
VERTEX
  5
1A4
330
19C
100
AcDbEntity
  8
0
 62
     7
370
    25
100
AcDbVertex
100
AcDb2dVertex
 10
612.6409425687365
 20
472.2459807168995
 30
0.0
  0
VERTEX
  5
1A5
330
19C
100
AcDbEntity
  8
0
 62
     7
370
    25
100
AcDbVertex
100
AcDb2dVertex
 10
615.639553679098
 20
472.2459807168995
 30
0.0
  0
VERTEX
  5
1A6
330
19C
100
AcDbEntity
  8
0
 62
     7
370
    25
100
AcDbVertex
100
AcDb2dVertex
 10
615.639553679098
 20
407.5817968409214
 30
0.0
  0
VERTEX
  5
1A7
330
19C
100
AcDbEntity
  8
0
 62
     7
370
    25
100
AcDbVertex
100
AcDb2dVertex
 10
612.6409425687365
 20
407.5817968409214
 30
0.0
  0
VERTEX
  5
1A8
330
19C
100
AcDbEntity
  8
0
 62
     7
370
    25
100
AcDbVertex
100
AcDb2dVertex
 10
612.6409425687365
 20
382.915559121936
 30
0.0
  0
VERTEX
  5
1A9
330
19C
100
AcDbEntity
  8
0
 62
     7
370
    25
100
AcDbVertex
100
AcDb2dVertex
 10
615.639553679098
 20
382.915559121936
 30
0.0
  0
VERTEX
  5
1AA
330
19C
100
AcDbEntity
  8
0
 62
     7
370
    25
100
AcDbVertex
100
AcDb2dVertex
 10
615.639553679098
 20
362.9130763524141
 30
0.0
  0
VERTEX
  5
1AB
330
19C
100
AcDbEntity
  8
0
 62
     7
370
    25
100
AcDbVertex
100
AcDb2dVertex
 10
764.7798473565481
 20
362.9130763524141
 30
0.0
  0
VERTEX
  5
1AC
330
19C
100
AcDbEntity
  8
0
 62
     7
370
    25
100
AcDbVertex
100
AcDb2dVertex
 10
764.7798473565481
 20
382.915559121936
 30
0.0
  0
VERTEX
  5
1AD
330
19C
100
AcDbEntity
  8
0
 62
     7
370
    25
100
AcDbVertex
100
AcDb2dVertex
 10
767.7784584669096
 20
382.915559121936
 30
0.0
  0
VERTEX
  5
1AE
330
19C
100
AcDbEntity
  8
0
 62
     7
370
    25
100
AcDbVertex
100
AcDb2dVertex
 10
767.7784584669096
 20
407.5817968409214
 30
0.0
  0
VERTEX
  5
1AF
330
19C
100
AcDbEntity
  8
0
 62
     7
370
    25
100
AcDbVertex
100
AcDb2dVertex
 10
764.7798473565481
 20
407.5817968409214
 30
0.0
  0
VERTEX
  5
1B0
330
19C
100
AcDbEntity
  8
0
 62
     7
370
    25
100
AcDbVertex
100
AcDb2dVertex
 10
764.7798473565481
 20
472.2459807168995
 30
0.0
  0
VERTEX
  5
1B1
330
19C
100
AcDbEntity
  8
0
 62
     7
370
    25
100
AcDbVertex
100
AcDb2dVertex
 10
767.7784584669096
 20
472.2459807168995
 30
0.0
  0
SEQEND
  5
1B2
330
19C
100
AcDbEntity
  8
0
 62
     7
370
    25
  0
SPLINE
  5
1B3
330
198
100
AcDbEntity
  8
0
 62
     7
370
    25
100
AcDbSpline
210
0.0
220
0.0
230
1.0
 70
    11
 71
     3
 72
    44
 73
    40
 74
     0
 42
0.0000000001
 43
0.0000000001
 12
1.0
 22
0.0
 32
0.0
 13
1.0
 23
0.0
 33
0.0
 40
0.0
 40
0.0
 40
0.0
 40
0.0
 40
1.0
 40
1.0
 40
1.0
 40
2.0
 40
2.0
 40
2.0
 40
3.0
 40
3.0
 40
3.0
 40
4.0
 40
4.0
 40
4.0
 40
5.0
 40
5.0
 40
5.0
 40
6.0
 40
6.0
 40
6.0
 40
7.0
 40
7.0
 40
7.0
 40
8.0
 40
8.0
 40
8.0
 40
9.0
 40
9.0
 40
9.0
 40
10.0
 40
10.0
 40
10.0
 40
11.0
 40
11.0
 40
11.0
 40
12.0
 40
12.0
 40
12.0
 40
13.0
 40
13.0
 40
13.0
 40
13.0
 10
695.9176423770189
 20
457.2599445471434
 30
0.0
 10
695.1980049938437
 20
458.0043435541187
 30
0.0
 10
694.2772601617172
 20
458.522916552036
 30
0.0
 10
693.2682778214746
 20
458.7522307202729
 30
0.0
 10
692.3475760530416
 20
459.0026891620506
 30
0.0
 10
690.4813678286818
 20
459.1261527715032
 30
0.0
 10
687.6697392757823
 20
459.1261527715032
 30
0.0
 10
687.6697392757823
 20
459.1261527715032
 30
0.0
 10
682.2122773902108
 20
459.1261527715032
 30
0.0
 10
682.2122773902108
 20
459.1261527715032
 30
0.0
 10
682.2122773902108
 20
459.1261527715032
 30
0.0
 10
682.2122773902108
 20
461.2569443291302
 30
0.0
 10
682.2122773902108
 20
461.2569443291302
 30
0.0
 10
682.2122773902108
 20
461.2569443291302
 30
0.0
 10
698.3800243751012
 20
461.2534131062578
 30
0.0
 10
698.3800243751012
 20
461.2534131062578
 30
0.0
 10
698.3800243751012
 20
461.2534131062578
 30
0.0
 10
698.3800243751012
 20
459.1226215486308
 30
0.0
 10
698.3800243751012
 20
459.1226215486308
 30
0.0
 10
698.3800243751012
 20
459.1226215486308
 30
0.0
 10
696.0164304900584
 20
459.1226215486308
 30
0.0
 10
696.0164304900584
 20
459.1226215486308
 30
0.0
 10
696.838430272839
 20
458.5934548820965
 30
0.0
 10
697.5475170510906
 20
457.912617886824
 30
0.0
 10
698.1048904369104
 20
457.1118054412776
 30
0.0
 10
698.5493938818948
 20
456.4591751652906
 30
0.0
 10
698.7893017187489
 20
455.6936318847745
 30
0.0
 10
698.7963641644936
 20
454.9034131078453
 30
0.0
 10
698.7787080501317
 20
454.2472516089859
 30
0.0
 10
698.5881942697974
 20
453.6016837787437
 30
0.0
 10
698.2424789378526
 20
453.0372048834855
 30
0.0
 10
698.2424789378526
 20
453.0372048834855
 30
0.0
 10
696.4927149408942
 20
454.1273192224057
 30
0.0
 10
696.4927149408942
 20
454.1273192224057
 30
0.0
 10
696.6620413839943
 20
454.4800970000953
 30
0.0
 10
696.7572982741614
 20
454.8610814970704
 30
0.0
 10
696.7749113248298
 20
455.2491284397902
 30
0.0
 10
696.7502358284166
 20
456.0040780516891
 30
0.0
 10
696.4468090435532
 20
456.7202272756854
 30
0.0
 10
695.9176423770189
 20
457.2599445471434
 30
0.0
  0
SPLINE
  5
1B4
330
198
100
AcDbEntity
  8
0
 62
     7
370
    25
100
AcDbSpline
210
0.0
220
0.0
230
1.0
 70
    11
 71
     3
 72
    77
 73
    73
 74
     0
 42
0.0000000001
 43
0.0000000001
 12
1.0
 22
0.0
 32
0.0
 13
1.0
 23
0.0
 33
0.0
 40
0.0
 40
0.0
 40
0.0
 40
0.0
 40
1.0
 40
1.0
 40
1.0
 40
2.0
 40
2.0
 40
2.0
 40
3.0
 40
3.0
 40
3.0
 40
4.0
 40
4.0
 40
4.0
 40
5.0
 40
5.0
 40
5.0
 40
6.0
 40
6.0
 40
6.0
 40
7.0
 40
7.0
 40
7.0
 40
8.0
 40
8.0
 40
8.0
 40
9.0
 40
9.0
 40
9.0
 40
10.0
 40
10.0
 40
10.0
 40
11.0
 40
11.0
 40
11.0
 40
12.0
 40
12.0
 40
12.0
 40
13.0
 40
13.0
 40
13.0
 40
14.0
 40
14.0
 40
14.0
 40
15.0
 40
15.0
 40
15.0
 40
16.0
 40
16.0
 40
16.0
 40
17.0
 40
17.0
 40
17.0
 40
18.0
 40
18.0
 40
18.0
 40
19.0
 40
19.0
 40
19.0
 40
20.0
 40
20.0
 40
20.0
 40
21.0
 40
21.0
 40
21.0
 40
22.0
 40
22.0
 40
22.0
 40
23.0
 40
23.0
 40
23.0
 40
24.0
 40
24.0
 40
24.0
 40
24.0
 10
698.3941492665907
 20
467.2047724933334
 30
0.0
 10
698.3941492665907
 20
467.2047724933334
 30
0.0
 10
698.3800243751012
 20
465.15868722095
 30
0.0
 10
698.3800243751012
 20
465.15868722095
 30
0.0
 10
698.3800243751012
 20
465.15868722095
 30
0.0
 10
682.2122773902108
 20
465.15868722095
 30
0.0
 10
682.2122773902108
 20
465.15868722095
 30
0.0
 10
682.2122773902108
 20
465.15868722095
 30
0.0
 10
682.2122773902108
 20
467.2153661619505
 30
0.0
 10
682.2122773902108
 20
467.2153661619505
 30
0.0
 10
682.2122773902108
 20
467.2153661619505
 30
0.0
 10
684.992124937259
 20
467.2153661619505
 30
0.0
 10
684.992124937259
 20
467.2153661619505
 30
0.0
 10
683.9937793293271
 20
468.0126473846245
 30
0.0
 10
683.1753538331125
 20
469.0145242154287
 30
0.0
 10
682.5967500463647
 20
470.1539895471751
 30
0.0
 10
682.2580971601647
 20
470.8701387711714
 30
0.0
 10
682.025294832749
 20
471.6321077651215
 30
0.0
 10
681.9017881596027
 20
472.4153071599995
 30
0.0
 10
681.9017881596027
 20
472.4153071599995
 30
0.0
 10
683.8067967718652
 20
472.4153071599995
 30
0.0
 10
683.8067967718652
 20
472.4153071599995
 30
0.0
 10
683.9337916041902
 20
471.6568263252282
 30
0.0
 10
684.194843714585
 20
470.9265522097423
 30
0.0
 10
684.5758712752537
 20
470.2598401059594
 30
0.0
 10
685.1156316104051
 20
469.2720451029511
 30
0.0
 10
685.9234634380027
 20
468.4571077659153
 30
0.0
 10
686.9041959952662
 20
467.9033086666614
 30
0.0
 10
687.9166664946875
 20
467.3458922171479
 30
0.0
 10
689.0596630493063
 20
467.0636527695189
 30
0.0
 10
690.2167844954146
 20
467.0813088838808
 30
0.0
 10
691.966548492373
 20
467.0354460502334
 30
0.0
 10
693.6634302736328
 20
467.7092636634546
 30
0.0
 10
694.9052149412911
 20
468.9475171082406
 30
0.0
 10
696.1399371632046
 20
470.1328022099408
 30
0.0
 10
696.8207741584771
 20
471.7803329983744
 30
0.0
 10
696.7890362163192
 20
473.4912535437366
 30
0.0
 10
696.8066492669876
 20
475.7984339902084
 30
0.0
 10
695.5578021535846
 20
477.9292255478354
 30
0.0
 10
693.5363923776142
 20
479.0439723194751
 30
0.0
 10
691.5185138245163
 20
480.2081562113282
 30
0.0
 10
689.0314132663273
 20
480.2081562113282
 30
0.0
 10
687.0100034903569
 20
479.0439723194751
 30
0.0
 10
686.0046385003739
 20
478.4866419973488
 30
0.0
 10
685.1649826032314
 20
477.671704660313
 30
0.0
 10
684.5829337209984
 20
476.6839096573048
 30
0.0
 10
684.2019061603297
 20
476.0383418270625
 30
0.0
 10
683.9373228270625
 20
475.3292550488109
 30
0.0
 10
683.8067967718652
 20
474.5919615512739
 30
0.0
 10
683.8067967718652
 20
474.5919615512739
 30
0.0
 10
681.8524371667766
 20
474.5919615512739
 30
0.0
 10
681.8524371667766
 20
474.5919615512739
 30
0.0
 10
682.0605639977791
 20
476.4933958769704
 30
0.0
 10
682.9213641684624
 20
478.2643472111631
 30
0.0
 10
684.2936318276245
 20
479.6013887689886
 30
0.0
 10
685.8987879415896
 20
481.1959512143364
 30
0.0
 10
688.0789304920428
 20
482.074364435688
 30
0.0
 10
690.3437793277396
 20
482.0285016020406
 30
0.0
 10
692.5874408262022
 20
482.0602395441985
 30
0.0
 10
694.7464391031147
 20
481.1712326542298
 30
0.0
 10
696.3163260520495
 20
479.5696077631371
 30
0.0
 10
697.9285015480657
 20
478.028013660875
 30
0.0
 10
698.828059042958
 20
475.8830972117584
 30
0.0
 10
698.7963641644936
 20
473.6535606047854
 30
0.0
 10
698.813977215162
 20
472.3976941093312
 30
0.0
 10
698.5211871626093
 20
471.1559094416729
 30
0.0
 10
697.9496458216064
 20
470.0411196063396
 30
0.0
 10
697.335815933522
 20
468.9086736566444
 30
0.0
 10
696.4679963807876
 20
467.9350035451257
 30
0.0
 10
695.4061318248464
 20
467.2047724933334
 30
0.0
 10
695.4061318248464
 20
467.2047724933334
 30
0.0
 10
698.3941492665907
 20
467.2047724933334
 30
0.0
 10
698.3941492665907
 20
467.2047724933334
 30
0.0
  0
SPLINE
  5
1B5
330
198
100
AcDbEntity
  8
0
 62
     7
370
    25
100
AcDbSpline
210
0.0
220
0.0
230
1.0
 70
    11
 71
     3
 72
    62
 73
    58
 74
     0
 42
0.0000000001
 43
0.0000000001
 12
1.0
 22
0.0
 32
0.0
 13
1.0
 23
0.0
 33
0.0
 40
0.0
 40
0.0
 40
0.0
 40
0.0
 40
1.0
 40
1.0
 40
1.0
 40
2.0
 40
2.0
 40
2.0
 40
3.0
 40
3.0
 40
3.0
 40
4.0
 40
4.0
 40
4.0
 40
5.0
 40
5.0
 40
5.0
 40
6.0
 40
6.0
 40
6.0
 40
7.0
 40
7.0
 40
7.0
 40
8.0
 40
8.0
 40
8.0
 40
9.0
 40
9.0
 40
9.0
 40
10.0
 40
10.0
 40
10.0
 40
11.0
 40
11.0
 40
11.0
 40
12.0
 40
12.0
 40
12.0
 40
13.0
 40
13.0
 40
13.0
 40
14.0
 40
14.0
 40
14.0
 40
15.0
 40
15.0
 40
15.0
 40
16.0
 40
16.0
 40
16.0
 40
17.0
 40
17.0
 40
17.0
 40
18.0
 40
18.0
 40
18.0
 40
19.0
 40
19.0
 40
19.0
 40
19.0
 10
684.2124998289469
 20
499.2899372124171
 30
0.0
 10
685.7506057720302
 20
500.9373818734636
 30
0.0
 10
687.9131352718151
 20
501.8546385464114
 30
0.0
 10
690.1638592160224
 20
501.8087326490704
 30
0.0
 10
691.6984339362334
 20
501.8193263176876
 30
0.0
 10
693.2048019371589
 20
501.410135101427
 30
0.0
 10
694.5241873806225
 20
500.626935706549
 30
0.0
 10
695.8506352698308
 20
499.8508418211094
 30
0.0
 10
696.9407496087509
 20
498.7254583171589
 30
0.0
 10
697.6639182147985
 20
497.3672724857927
 30
0.0
 10
698.4259302724422
 20
495.9456107701108
 30
0.0
 10
698.8104459922896
 20
494.3510483247629
 30
0.0
 10
698.7857704958765
 20
492.7352985421808
 30
0.0
 10
698.7893017187489
 20
491.6804964319844
 30
0.0
 10
698.6234634348277
 20
490.6327567675328
 30
0.0
 10
698.2918299306788
 20
489.630836873035
 30
0.0
 10
698.0131647696156
 20
488.7171975503468
 30
0.0
 10
697.5792549932485
 20
487.8598855388423
 30
0.0
 10
697.0148191616838
 20
487.0908540991475
 30
0.0
 10
696.47152760366
 20
486.3747048751511
 30
0.0
 10
695.7942218312598
 20
485.7749998785563
 30
0.0
 10
695.021616104999
 20
485.3163715420824
 30
0.0
 10
695.021616104999
 20
485.3163715420824
 30
0.0
 10
693.9950207140881
 20
486.9709217125672
 30
0.0
 10
693.9950207140881
 20
486.9709217125672
 30
0.0
 10
695.8541664927031
 20
488.3291075439334
 30
0.0
 10
696.9160310486443
 20
490.5198437630037
 30
0.0
 10
696.8348990499667
 20
492.8199617637308
 30
0.0
 10
696.8913124885377
 20
494.647369600188
 30
0.0
 10
696.2069442703928
 20
496.4218090935595
 30
0.0
 10
694.9334216605765
 20
497.7376633141507
 30
0.0
 10
693.741031049438
 20
499.0112289876604
 30
0.0
 10
692.0653366054125
 20
499.7203157659119
 30
0.0
 10
690.3191038313265
 20
499.6920659829329
 30
0.0
 10
689.1513887166011
 20
499.6955972058053
 30
0.0
 10
688.0013297162376
 20
499.3851941025843
 30
0.0
 10
686.9959216625609
 20
498.7925084880406
 30
0.0
 10
685.9728574945225
 20
498.2104165421141
 30
0.0
 10
685.1367758839459
 20
497.3567218808692
 30
0.0
 10
684.5758712752537
 20
496.3230640442135
 30
0.0
 10
683.9937793293271
 20
495.2435864376041
 30
0.0
 10
683.6974580539021
 20
494.0300084892312
 30
0.0
 10
683.715114168264
 20
492.8023056493689
 30
0.0
 10
683.6621458251783
 20
490.5198437630037
 30
0.0
 10
684.7098854896299
 20
488.3502948811677
 30
0.0
 10
686.5338051669082
 20
486.9709217125672
 30
0.0
 10
686.5338051669082
 20
486.9709217125672
 30
0.0
 10
685.4507532737329
 20
485.3163715420824
 30
0.0
 10
685.4507532737329
 20
485.3163715420824
 30
0.0
 10
684.2830381590074
 20
486.0925084912156
 30
0.0
 10
683.3446802762124
 20
487.1719860978251
 30
0.0
 10
682.7414440567452
 20
488.4349581027176
 30
0.0
 10
682.0781770484475
 20
489.8354755448589
 30
0.0
 10
681.7501178308646
 20
491.3700502650698
 30
0.0
 10
681.7818557730225
 20
492.915218653898
 30
0.0
 10
681.7818557730225
 20
495.4763887650198
 30
0.0
 10
682.5932188234924
 20
497.6001178769021
 30
0.0
 10
684.2124998289469
 20
499.2899372124171
 30
0.0
  0
POLYLINE
  5
1B6
330
198
100
AcDbEntity
  8
0
 62
     7
370
    25
100
AcDb2dPolyline
 66
     1
 10
0.0
 20
0.0
 30
0.0
  0
VERTEX
  5
1B7
330
1B6
100
AcDbEntity
  8
0
 62
     7
370
    25
100
AcDbVertex
100
AcDb2dVertex
 10
673.2834511663145
 20
427.735993002875
 30
0.0
  0
VERTEX
  5
1B8
330
1B6
100
AcDbEntity
  8
0
 62
     7
370
    25
100
AcDbVertex
100
AcDb2dVertex
 10
680.8858295010025
 20
430.1701682816719
 30
0.0
  0
VERTEX
  5
1B9
330
1B6
100
AcDbEntity
  8
0
 62
     7
370
    25
100
AcDbVertex
100
AcDb2dVertex
 10
680.8858295010025
 20
436.3578612190356
 30
0.0
  0
VERTEX
  5
1BA
330
1B6
100
AcDbEntity
  8
0
 62
     7
370
    25
100
AcDbVertex
100
AcDb2dVertex
 10
685.1262252790223
 20
436.3578612190356
 30
0.0
  0
VERTEX
  5
1BB
330
1B6
100
AcDbEntity
  8
0
 62
     7
370
    25
100
AcDbVertex
100
AcDb2dVertex
 10
685.1262252790223
 20
431.5354165587829
 30
0.0
  0
VERTEX
  5
1BC
330
1B6
100
AcDbEntity
  8
0
 62
     7
370
    25
100
AcDbVertex
100
AcDb2dVertex
 10
703.7881352678464
 20
437.4515067808281
 30
0.0
  0
VERTEX
  5
1BD
330
1B6
100
AcDbEntity
  8
0
 62
     7
370
    25
100
AcDbVertex
100
AcDb2dVertex
 10
685.1262252790223
 20
443.364065780001
 30
0.0
  0
VERTEX
  5
1BE
330
1B6
100
AcDbEntity
  8
0
 62
     7
370
    25
100
AcDbVertex
100
AcDb2dVertex
 10
685.1262252790223
 20
438.5451092789271
 30
0.0
  0
VERTEX
  5
1BF
330
1B6
100
AcDbEntity
  8
0
 62
     7
370
    25
100
AcDbVertex
100
AcDb2dVertex
 10
680.8858295010025
 20
438.5451092789271
 30
0.0
  0
VERTEX
  5
1C0
330
1B6
100
AcDbEntity
  8
0
 62
     7
370
    25
100
AcDbVertex
100
AcDb2dVertex
 10
680.8858295010025
 20
444.7257828342396
 30
0.0
  0
VERTEX
  5
1C1
330
1B6
100
AcDbEntity
  8
0
 62
     7
370
    25
100
AcDbVertex
100
AcDb2dVertex
 10
673.2834511663145
 20
447.1916960551943
 30
0.0
  0
VERTEX
  5
1C2
330
1B6
100
AcDbEntity
  8
0
 62
     7
370
    25
100
AcDbVertex
100
AcDb2dVertex
 10
673.2834511663145
 20
452.141135547772
 30
0.0
  0
VERTEX
  5
1C3
330
1B6
100
AcDbEntity
  8
0
 62
     7
370
    25
100
AcDbVertex
100
AcDb2dVertex
 10
708.1519946553188
 20
440.5277186669948
 30
0.0
  0
VERTEX
  5
1C4
330
1B6
100
AcDbEntity
  8
0
 62
     7
370
    25
100
AcDbVertex
100
AcDb2dVertex
 10
708.1519946553188
 20
434.0013297797375
 30
0.0
  0
VERTEX
  5
1C5
330
1B6
100
AcDbEntity
  8
0
 62
     7
370
    25
100
AcDbVertex
100
AcDb2dVertex
 10
673.2834511663145
 20
422.5466456734432
 30
0.0
  0
VERTEX
  5
1C6
330
1B6
100
AcDbEntity
  8
0
 62
     7
370
    25
100
AcDbVertex
100
AcDb2dVertex
 10
673.2834511663145
 20
427.735993002875
 30
0.0
  0
SEQEND
  5
1C7
330
1B6
100
AcDbEntity
  8
0
 62
     7
370
    25
  0
POLYLINE
  5
1C8
330
198
100
AcDbEntity
  8
0
 62
     7
370
    25
100
AcDb2dPolyline
 66
     1
 10
0.0
 20
0.0
 30
0.0
  0
VERTEX
  5
1C9
330
1C8
100
AcDbEntity
  8
0
 62
     7
370
    25
100
AcDbVertex
100
AcDb2dVertex
 10
677.3368643868724
 20
396.7550244505074
 30
0.0
  0
VERTEX
  5
1CA
330
1C8
100
AcDbEntity
  8
0
 62
     7
370
    25
100
AcDbVertex
100
AcDb2dVertex
 10
673.2834511663145
 20
396.7550244505074
 30
0.0
  0
VERTEX
  5
1CB
330
1C8
100
AcDbEntity
  8
0
 62
     7
370
    25
100
AcDbVertex
100
AcDb2dVertex
 10
673.2834511663145
 20
417.6782951158496
 30
0.0
  0
VERTEX
  5
1CC
330
1C8
100
AcDbEntity
  8
0
 62
     7
370
    25
100
AcDbVertex
100
AcDb2dVertex
 10
677.3368643868724
 20
417.6782951158496
 30
0.0
  0
VERTEX
  5
1CD
330
1C8
100
AcDbEntity
  8
0
 62
     7
370
    25
100
AcDbVertex
100
AcDb2dVertex
 10
677.3368643868724
 20
409.624393954126
 30
0.0
  0
VERTEX
  5
1CE
330
1C8
100
AcDbEntity
  8
0
 62
     7
370
    25
100
AcDbVertex
100
AcDb2dVertex
 10
704.1515067141531
 20
409.624393954126
 30
0.0
  0
VERTEX
  5
1CF
330
1C8
100
AcDbEntity
  8
0
 62
     7
370
    25
100
AcDbVertex
100
AcDb2dVertex
 10
704.1515067141531
 20
417.6782951158496
 30
0.0
  0
VERTEX
  5
1D0
330
1C8
100
AcDbEntity
  8
0
 62
     7
370
    25
100
AcDbVertex
100
AcDb2dVertex
 10
708.1519946553188
 20
417.6782951158496
 30
0.0
  0
VERTEX
  5
1D1
330
1C8
100
AcDbEntity
  8
0
 62
     7
370
    25
100
AcDbVertex
100
AcDb2dVertex
 10
708.1519946553188
 20
396.7550244505074
 30
0.0
  0
VERTEX
  5
1D2
330
1C8
100
AcDbEntity
  8
0
 62
     7
370
    25
100
AcDbVertex
100
AcDb2dVertex
 10
704.1515067141531
 20
396.7550244505074
 30
0.0
  0
VERTEX
  5
1D3
330
1C8
100
AcDbEntity
  8
0
 62
     7
370
    25
100
AcDbVertex
100
AcDb2dVertex
 10
704.1515067141531
 20
404.8089686759245
 30
0.0
  0
VERTEX
  5
1D4
330
1C8
100
AcDbEntity
  8
0
 62
     7
370
    25
100
AcDbVertex
100
AcDb2dVertex
 10
677.3368643868724
 20
404.8089686759245
 30
0.0
  0
VERTEX
  5
1D5
330
1C8
100
AcDbEntity
  8
0
 62
     7
370
    25
100
AcDbVertex
100
AcDb2dVertex
 10
677.3368643868724
 20
396.7550244505074
 30
0.0
  0
SEQEND
  5
1D6
330
1C8
100
AcDbEntity
  8
0
 62
     7
370
    25
  0
POLYLINE
  5
1D7
330
198
100
AcDbEntity
  8
0
 62
     7
370
    25
100
AcDb2dPolyline
 66
     1
 10
0.0
 20
0.0
 30
0.0
  0
VERTEX
  5
1D8
330
1D7
100
AcDbEntity
  8
0
 62
     7
370
    25
100
AcDbVertex
100
AcDb2dVertex
 10
708.1802013746043
 20
380.2591751843406
 30
0.0
  0
VERTEX
  5
1D9
330
1D7
100
AcDbEntity
  8
0
 62
     7
370
    25
100
AcDbVertex
100
AcDb2dVertex
 10
705.3685728217048
 20
379.3207742378521
 30
0.0
  0
VERTEX
  5
1DA
330
1D7
100
AcDbEntity
  8
0
 62
     7
370
    25
100
AcDbVertex
100
AcDb2dVertex
 10
708.1802013746043
 20
378.3718226864401
 30
0.0
  0
VERTEX
  5
1DB
330
1D7
100
AcDbEntity
  8
0
 62
     7
370
    25
100
AcDbVertex
100
AcDb2dVertex
 10
708.1802013746043
 20
377.6274236794647
 30
0.0
  0
VERTEX
  5
1DC
330
1D7
100
AcDbEntity
  8
0
 62
     7
370
    25
100
AcDbVertex
100
AcDb2dVertex
 10
704.1515067141531
 20
376.9501179070646
 30
0.0
  0
VERTEX
  5
1DD
330
1D7
100
AcDbEntity
  8
0
 62
     7
370
    25
100
AcDbVertex
100
AcDb2dVertex
 10
704.1515067141531
 20
377.6980050732187
 30
0.0
  0
VERTEX
  5
1DE
330
1D7
100
AcDbEntity
  8
0
 62
     7
370
    25
100
AcDbVertex
100
AcDb2dVertex
 10
706.6879582651683
 20
378.1213642446624
 30
0.0
  0
VERTEX
  5
1DF
330
1D7
100
AcDbEntity
  8
0
 62
     7
370
    25
100
AcDbVertex
100
AcDb2dVertex
 10
704.1444442684084
 20
378.982121351652
 30
0.0
  0
VERTEX
  5
1E0
330
1D7
100
AcDbEntity
  8
0
 62
     7
370
    25
100
AcDbVertex
100
AcDb2dVertex
 10
704.1444442684084
 20
379.6594271240522
 30
0.0
  0
VERTEX
  5
1E1
330
1D7
100
AcDbEntity
  8
0
 62
     7
370
    25
100
AcDbVertex
100
AcDb2dVertex
 10
706.6879582651683
 20
380.5096336261183
 30
0.0
  0
VERTEX
  5
1E2
330
1D7
100
AcDbEntity
  8
0
 62
     7
370
    25
100
AcDbVertex
100
AcDb2dVertex
 10
704.1444442684084
 20
380.9470746253579
 30
0.0
  0
VERTEX
  5
1E3
330
1D7
100
AcDbEntity
  8
0
 62
     7
370
    25
100
AcDbVertex
100
AcDb2dVertex
 10
704.1444442684084
 20
381.694961791512
 30
0.0
  0
VERTEX
  5
1E4
330
1D7
100
AcDbEntity
  8
0
 62
     7
370
    25
100
AcDbVertex
100
AcDb2dVertex
 10
708.1802013746043
 20
381.0035311276224
 30
0.0
  0
VERTEX
  5
1E5
330
1D7
100
AcDbEntity
  8
0
 62
     7
370
    25
100
AcDbVertex
100
AcDb2dVertex
 10
708.1802013746043
 20
380.2591751843406
 30
0.0
  0
SEQEND
  5
1E6
330
1D7
100
AcDbEntity
  8
0
 62
     7
370
    25
  0
POLYLINE
  5
1E7
330
198
100
AcDbEntity
  8
0
 62
     7
370
    25
100
AcDb2dPolyline
 66
     1
 10
0.0
 20
0.0
 30
0.0
  0
VERTEX
  5
1E8
330
1E7
100
AcDbEntity
  8
0
 62
     7
370
    25
100
AcDbVertex
100
AcDb2dVertex
 10
708.1802013746043
 20
383.54351390151
 30
0.0
  0
VERTEX
  5
1E9
330
1E7
100
AcDbEntity
  8
0
 62
     7
370
    25
100
AcDbVertex
100
AcDb2dVertex
 10
704.1515067141531
 20
382.0019197992478
 30
0.0
  0
VERTEX
  5
1EA
330
1E7
100
AcDbEntity
  8
0
 62
     7
370
    25
100
AcDbVertex
100
AcDb2dVertex
 10
704.1515067141531
 20
382.7991579582282
 30
0.0
  0
VERTEX
  5
1EB
330
1E7
100
AcDbEntity
  8
0
 62
     7
370
    25
100
AcDbVertex
100
AcDb2dVertex
 10
704.980525878985
 20
383.1201977937599
 30
0.0
  0
VERTEX
  5
1EC
330
1E7
100
AcDbEntity
  8
0
 62
     7
370
    25
100
AcDbVertex
100
AcDb2dVertex
 10
704.980525878985
 20
383.7763592926193
 30
0.0
  0
VERTEX
  5
1ED
330
1E7
100
AcDbEntity
  8
0
 62
     7
370
    25
100
AcDbVertex
100
AcDb2dVertex
 10
705.7284130451391
 20
383.7763592926193
 30
0.0
  0
VERTEX
  5
1EE
330
1E7
100
AcDbEntity
  8
0
 62
     7
370
    25
100
AcDbVertex
100
AcDb2dVertex
 10
705.7284130451391
 20
383.3883123498995
 30
0.0
  0
VERTEX
  5
1EF
330
1E7
100
AcDbEntity
  8
0
 62
     7
370
    25
100
AcDbVertex
100
AcDb2dVertex
 10
707.1112743729184
 20
383.9316039079234
 30
0.0
  0
VERTEX
  5
1F0
330
1E7
100
AcDbEntity
  8
0
 62
     7
370
    25
100
AcDbVertex
100
AcDb2dVertex
 10
705.7284130451391
 20
384.4713642430749
 30
0.0
  0
VERTEX
  5
1F1
330
1E7
100
AcDbEntity
  8
0
 62
     7
370
    25
100
AcDbVertex
100
AcDb2dVertex
 10
705.7284130451391
 20
384.0832742366615
 30
0.0
  0
VERTEX
  5
1F2
330
1E7
100
AcDbEntity
  8
0
 62
     7
370
    25
100
AcDbVertex
100
AcDb2dVertex
 10
704.980525878985
 20
384.0832742366615
 30
0.0
  0
VERTEX
  5
1F3
330
1E7
100
AcDbEntity
  8
0
 62
     7
370
    25
100
AcDbVertex
100
AcDb2dVertex
 10
704.980525878985
 20
384.7711736776787
 30
0.0
  0
VERTEX
  5
1F4
330
1E7
100
AcDbEntity
  8
0
 62
     7
370
    25
100
AcDbVertex
100
AcDb2dVertex
 10
704.1515067141531
 20
385.0992759589552
 30
0.0
  0
VERTEX
  5
1F5
330
1E7
100
AcDbEntity
  8
0
 62
     7
370
    25
100
AcDbVertex
100
AcDb2dVertex
 10
704.1515067141531
 20
385.8824753538332
 30
0.0
  0
VERTEX
  5
1F6
330
1E7
100
AcDbEntity
  8
0
 62
     7
370
    25
100
AcDbVertex
100
AcDb2dVertex
 10
708.1802013746043
 20
384.323139009822
 30
0.0
  0
VERTEX
  5
1F7
330
1E7
100
AcDbEntity
  8
0
 62
     7
370
    25
100
AcDbVertex
100
AcDb2dVertex
 10
708.1802013746043
 20
383.54351390151
 30
0.0
  0
SEQEND
  5
1F8
330
1E7
100
AcDbEntity
  8
0
 62
     7
370
    25
  0
POLYLINE
  5
1F9
330
198
100
AcDbEntity
  8
0
 62
     7
370
    25
100
AcDb2dPolyline
 66
     1
 10
0.0
 20
0.0
 30
0.0
  0
VERTEX
  5
1FA
330
1F9
100
AcDbEntity
  8
0
 62
     7
370
    25
100
AcDbVertex
100
AcDb2dVertex
 10
708.1802013746043
 20
386.2740104557319
 30
0.0
  0
VERTEX
  5
1FB
330
1F9
100
AcDbEntity
  8
0
 62
     7
370
    25
100
AcDbVertex
100
AcDb2dVertex
 10
707.4323572721437
 20
386.2740104557319
 30
0.0
  0
VERTEX
  5
1FC
330
1F9
100
AcDbEntity
  8
0
 62
     7
370
    25
100
AcDbVertex
100
AcDb2dVertex
 10
707.4323572721437
 20
387.7169025723416
 30
0.0
  0
VERTEX
  5
1FD
330
1F9
100
AcDbEntity
  8
0
 62
     7
370
    25
100
AcDbVertex
100
AcDb2dVertex
 10
706.6879582651683
 20
387.7169025723416
 30
0.0
  0
VERTEX
  5
1FE
330
1F9
100
AcDbEntity
  8
0
 62
     7
370
    25
100
AcDbVertex
100
AcDb2dVertex
 10
706.6879582651683
 20
386.2740104557319
 30
0.0
  0
VERTEX
  5
1FF
330
1F9
100
AcDbEntity
  8
0
 62
     7
370
    25
100
AcDbVertex
100
AcDb2dVertex
 10
705.9401141627077
 20
386.2740104557319
 30
0.0
  0
VERTEX
  5
200
330
1F9
100
AcDbEntity
  8
0
 62
     7
370
    25
100
AcDbVertex
100
AcDb2dVertex
 10
705.9401141627077
 20
387.7169025723416
 30
0.0
  0
VERTEX
  5
201
330
1F9
100
AcDbEntity
  8
0
 62
     7
370
    25
100
AcDbVertex
100
AcDb2dVertex
 10
704.9029251031797
 20
387.7169025723416
 30
0.0
  0
VERTEX
  5
202
330
1F9
100
AcDbEntity
  8
0
 62
     7
370
    25
100
AcDbVertex
100
AcDb2dVertex
 10
704.9029251031797
 20
386.2740104557319
 30
0.0
  0
VERTEX
  5
203
330
1F9
100
AcDbEntity
  8
0
 62
     7
370
    25
100
AcDbVertex
100
AcDb2dVertex
 10
704.1550379370256
 20
386.2740104557319
 30
0.0
  0
VERTEX
  5
204
330
1F9
100
AcDbEntity
  8
0
 62
     7
370
    25
100
AcDbVertex
100
AcDb2dVertex
 10
704.1550379370256
 20
388.4753403434194
 30
0.0
  0
VERTEX
  5
205
330
1F9
100
AcDbEntity
  8
0
 62
     7
370
    25
100
AcDbVertex
100
AcDb2dVertex
 10
708.1802013746043
 20
388.4753403434194
 30
0.0
  0
VERTEX
  5
206
330
1F9
100
AcDbEntity
  8
0
 62
     7
370
    25
100
AcDbVertex
100
AcDb2dVertex
 10
708.1802013746043
 20
386.2740104557319
 30
0.0
  0
SEQEND
  5
207
330
1F9
100
AcDbEntity
  8
0
 62
     7
370
    25
  0
POLYLINE
  5
208
330
198
100
AcDbEntity
  8
0
 62
     7
370
    25
100
AcDb2dPolyline
 66
     1
 10
0.0
 20
0.0
 30
0.0
  0
VERTEX
  5
209
330
208
100
AcDbEntity
  8
0
 62
     7
370
    25
100
AcDbVertex
100
AcDb2dVertex
 10
708.1802013746043
 20
389.0045070099537
 30
0.0
  0
VERTEX
  5
20A
330
208
100
AcDbEntity
  8
0
 62
     7
370
    25
100
AcDbVertex
100
AcDb2dVertex
 10
707.4323572721437
 20
389.0045070099537
 30
0.0
  0
VERTEX
  5
20B
330
208
100
AcDbEntity
  8
0
 62
     7
370
    25
100
AcDbVertex
100
AcDb2dVertex
 10
707.4323572721437
 20
389.7489060169291
 30
0.0
  0
VERTEX
  5
20C
330
208
100
AcDbEntity
  8
0
 62
     7
370
    25
100
AcDbVertex
100
AcDb2dVertex
 10
704.1621003827703
 20
389.7489060169291
 30
0.0
  0
VERTEX
  5
20D
330
208
100
AcDbEntity
  8
0
 62
     7
370
    25
100
AcDbVertex
100
AcDb2dVertex
 10
704.1621003827703
 20
390.5285311252412
 30
0.0
  0
VERTEX
  5
20E
330
208
100
AcDbEntity
  8
0
 62
     7
370
    25
100
AcDbVertex
100
AcDb2dVertex
 10
707.4323572721437
 20
390.5285311252412
 30
0.0
  0
VERTEX
  5
20F
330
208
100
AcDbEntity
  8
0
 62
     7
370
    25
100
AcDbVertex
100
AcDb2dVertex
 10
707.4323572721437
 20
391.2446803492375
 30
0.0
  0
VERTEX
  5
210
330
208
100
AcDbEntity
  8
0
 62
     7
370
    25
100
AcDbVertex
100
AcDb2dVertex
 10
708.1802013746043
 20
391.2411491263651
 30
0.0
  0
VERTEX
  5
211
330
208
100
AcDbEntity
  8
0
 62
     7
370
    25
100
AcDbVertex
100
AcDb2dVertex
 10
708.1802013746043
 20
389.0045070099537
 30
0.0
  0
SEQEND
  5
212
330
208
100
AcDbEntity
  8
0
 62
     7
370
    25
  0
SPLINE
  5
213
330
198
100
AcDbEntity
  8
0
 62
     7
370
    25
100
AcDbSpline
210
0.0
220
0.0
230
1.0
 70
    11
 71
     3
 72
    44
 73
    40
 74
     0
 42
0.0000000001
 43
0.0000000001
 12
1.0
 22
0.0
 32
0.0
 13
1.0
 23
0.0
 33
0.0
 40
0.0
 40
0.0
 40
0.0
 40
0.0
 40
1.0
 40
1.0
 40
1.0
 40
2.0
 40
2.0
 40
2.0
 40
3.0
 40
3.0
 40
3.0
 40
4.0
 40
4.0
 40
4.0
 40
5.0
 40
5.0
 40
5.0
 40
6.0
 40
6.0
 40
6.0
 40
7.0
 40
7.0
 40
7.0
 40
8.0
 40
8.0
 40
8.0
 40
9.0
 40
9.0
 40
9.0
 40
10.0
 40
10.0
 40
10.0
 40
11.0
 40
11.0
 40
11.0
 40
12.0
 40
12.0
 40
12.0
 40
13.0
 40
13.0
 40
13.0
 40
13.0
 10
698.7963641644936
 20
454.9034131078453
 30
0.0
 10
698.7787080501317
 20
454.2472516089859
 30
0.0
 10
698.5881942697974
 20
453.6016837787437
 30
0.0
 10
698.2424789378526
 20
453.0372048834855
 30
0.0
 10
698.2424789378526
 20
453.0372048834855
 30
0.0
 10
696.4927149408942
 20
454.1273192224057
 30
0.0
 10
696.4927149408942
 20
454.1273192224057
 30
0.0
 10
696.6620413839943
 20
454.4800970000953
 30
0.0
 10
696.7572982741614
 20
454.8610814970704
 30
0.0
 10
696.7749113248298
 20
455.2491284397902
 30
0.0
 10
696.7502358284166
 20
456.0040780516891
 30
0.0
 10
696.4468090435532
 20
456.7202272756854
 30
0.0
 10
695.9176423770189
 20
457.2599445471434
 30
0.0
 10
695.1980049938437
 20
458.0043435541187
 30
0.0
 10
694.2772601617172
 20
458.522916552036
 30
0.0
 10
693.2682778214746
 20
458.7522307202729
 30
0.0
 10
692.3475760530416
 20
459.0026891620506
 30
0.0
 10
690.4813678286818
 20
459.1261527715032
 30
0.0
 10
687.6697392757823
 20
459.1261527715032
 30
0.0
 10
687.6697392757823
 20
459.1261527715032
 30
0.0
 10
682.2122773902108
 20
459.1261527715032
 30
0.0
 10
682.2122773902108
 20
459.1261527715032
 30
0.0
 10
682.2122773902108
 20
459.1261527715032
 30
0.0
 10
682.2122773902108
 20
461.2569443291302
 30
0.0
 10
682.2122773902108
 20
461.2569443291302
 30
0.0
 10
682.2122773902108
 20
461.2569443291302
 30
0.0
 10
698.3800243751012
 20
461.2534131062578
 30
0.0
 10
698.3800243751012
 20
461.2534131062578
 30
0.0
 10
698.3800243751012
 20
461.2534131062578
 30
0.0
 10
698.3800243751012
 20
459.1226215486308
 30
0.0
 10
698.3800243751012
 20
459.1226215486308
 30
0.0
 10
698.3800243751012
 20
459.1226215486308
 30
0.0
 10
696.0164304900584
 20
459.1226215486308
 30
0.0
 10
696.0164304900584
 20
459.1226215486308
 30
0.0
 10
696.838430272839
 20
458.5934548820965
 30
0.0
 10
697.5475170510906
 20
457.912617886824
 30
0.0
 10
698.1048904369104
 20
457.1118054412776
 30
0.0
 10
698.5493938818948
 20
456.4591751652906
 30
0.0
 10
698.7893017187489
 20
455.6936318847745
 30
0.0
 10
698.7963641644936
 20
454.9034131078453
 30
0.0
  0
SPLINE
  5
214
330
198
100
AcDbEntity
  8
0
 62
     7
370
    25
100
AcDbSpline
210
0.0
220
0.0
230
1.0
 70
    11
 71
     3
 72
    62
 73
    58
 74
     0
 42
0.0000000001
 43
0.0000000001
 12
1.0
 22
0.0
 32
0.0
 13
1.0
 23
0.0
 33
0.0
 40
0.0
 40
0.0
 40
0.0
 40
0.0
 40
1.0
 40
1.0
 40
1.0
 40
2.0
 40
2.0
 40
2.0
 40
3.0
 40
3.0
 40
3.0
 40
4.0
 40
4.0
 40
4.0
 40
5.0
 40
5.0
 40
5.0
 40
6.0
 40
6.0
 40
6.0
 40
7.0
 40
7.0
 40
7.0
 40
8.0
 40
8.0
 40
8.0
 40
9.0
 40
9.0
 40
9.0
 40
10.0
 40
10.0
 40
10.0
 40
11.0
 40
11.0
 40
11.0
 40
12.0
 40
12.0
 40
12.0
 40
13.0
 40
13.0
 40
13.0
 40
14.0
 40
14.0
 40
14.0
 40
15.0
 40
15.0
 40
15.0
 40
16.0
 40
16.0
 40
16.0
 40
17.0
 40
17.0
 40
17.0
 40
18.0
 40
18.0
 40
18.0
 40
19.0
 40
19.0
 40
19.0
 40
19.0
 10
698.7857704958765
 20
492.7352985421808
 30
0.0
 10
698.7893017187489
 20
491.6804964319844
 30
0.0
 10
698.6234634348277
 20
490.6327567675328
 30
0.0
 10
698.2918299306788
 20
489.630836873035
 30
0.0
 10
698.0131647696156
 20
488.7171975503468
 30
0.0
 10
697.5792549932485
 20
487.8598855388423
 30
0.0
 10
697.0148191616838
 20
487.0908540991475
 30
0.0
 10
696.47152760366
 20
486.3747048751511
 30
0.0
 10
695.7942218312598
 20
485.7749998785563
 30
0.0
 10
695.021616104999
 20
485.3163715420824
 30
0.0
 10
695.021616104999
 20
485.3163715420824
 30
0.0
 10
693.9950207140881
 20
486.9709217125672
 30
0.0
 10
693.9950207140881
 20
486.9709217125672
 30
0.0
 10
695.8541664927031
 20
488.3291075439334
 30
0.0
 10
696.9160310486443
 20
490.5198437630037
 30
0.0
 10
696.8348990499667
 20
492.8199617637308
 30
0.0
 10
696.8913124885377
 20
494.647369600188
 30
0.0
 10
696.2069442703928
 20
496.4218090935595
 30
0.0
 10
694.9334216605765
 20
497.7376633141507
 30
0.0
 10
693.741031049438
 20
499.0112289876604
 30
0.0
 10
692.0653366054125
 20
499.7203157659119
 30
0.0
 10
690.3191038313265
 20
499.6920659829329
 30
0.0
 10
689.1513887166011
 20
499.6955972058053
 30
0.0
 10
688.0013297162376
 20
499.3851941025843
 30
0.0
 10
686.9959216625609
 20
498.7925084880406
 30
0.0
 10
685.9728574945225
 20
498.2104165421141
 30
0.0
 10
685.1367758839459
 20
497.3567218808692
 30
0.0
 10
684.5758712752537
 20
496.3230640442135
 30
0.0
 10
683.9937793293271
 20
495.2435864376041
 30
0.0
 10
683.6974580539021
 20
494.0300084892312
 30
0.0
 10
683.715114168264
 20
492.8023056493689
 30
0.0
 10
683.6621458251783
 20
490.5198437630037
 30
0.0
 10
684.7098854896299
 20
488.3502948811677
 30
0.0
 10
686.5338051669082
 20
486.9709217125672
 30
0.0
 10
686.5338051669082
 20
486.9709217125672
 30
0.0
 10
685.4507532737329
 20
485.3163715420824
 30
0.0
 10
685.4507532737329
 20
485.3163715420824
 30
0.0
 10
684.2830381590074
 20
486.0925084912156
 30
0.0
 10
683.3446802762124
 20
487.1719860978251
 30
0.0
 10
682.7414440567452
 20
488.4349581027176
 30
0.0
 10
682.0781770484475
 20
489.8354755448589
 30
0.0
 10
681.7501178308646
 20
491.3700502650698
 30
0.0
 10
681.7818557730225
 20
492.915218653898
 30
0.0
 10
681.7818557730225
 20
495.4763887650198
 30
0.0
 10
682.5932188234924
 20
497.6001178769021
 30
0.0
 10
684.2124998289469
 20
499.2899372124171
 30
0.0
 10
685.7506057720302
 20
500.9373818734636
 30
0.0
 10
687.9131352718151
 20
501.8546385464114
 30
0.0
 10
690.1638592160224
 20
501.8087326490704
 30
0.0
 10
691.6984339362334
 20
501.8193263176876
 30
0.0
 10
693.2048019371589
 20
501.410135101427
 30
0.0
 10
694.5241873806225
 20
500.626935706549
 30
0.0
 10
695.8506352698308
 20
499.8508418211094
 30
0.0
 10
696.9407496087509
 20
498.7254583171589
 30
0.0
 10
697.6639182147985
 20
497.3672724857927
 30
0.0
 10
698.4259302724422
 20
495.9456107701108
 30
0.0
 10
698.8104459922896
 20
494.3510483247629
 30
0.0
 10
698.7857704958765
 20
492.7352985421808
 30
0.0
  0
SPLINE
  5
215
330
198
100
AcDbEntity
  8
0
 62
     7
370
    25
100
AcDbSpline
210
0.0
220
0.0
230
1.0
 70
    11
 71
     3
 72
    77
 73
    73
 74
     0
 42
0.0000000001
 43
0.0000000001
 12
1.0
 22
0.0
 32
0.0
 13
1.0
 23
0.0
 33
0.0
 40
0.0
 40
0.0
 40
0.0
 40
0.0
 40
1.0
 40
1.0
 40
1.0
 40
2.0
 40
2.0
 40
2.0
 40
3.0
 40
3.0
 40
3.0
 40
4.0
 40
4.0
 40
4.0
 40
5.0
 40
5.0
 40
5.0
 40
6.0
 40
6.0
 40
6.0
 40
7.0
 40
7.0
 40
7.0
 40
8.0
 40
8.0
 40
8.0
 40
9.0
 40
9.0
 40
9.0
 40
10.0
 40
10.0
 40
10.0
 40
11.0
 40
11.0
 40
11.0
 40
12.0
 40
12.0
 40
12.0
 40
13.0
 40
13.0
 40
13.0
 40
14.0
 40
14.0
 40
14.0
 40
15.0
 40
15.0
 40
15.0
 40
16.0
 40
16.0
 40
16.0
 40
17.0
 40
17.0
 40
17.0
 40
18.0
 40
18.0
 40
18.0
 40
19.0
 40
19.0
 40
19.0
 40
20.0
 40
20.0
 40
20.0
 40
21.0
 40
21.0
 40
21.0
 40
22.0
 40
22.0
 40
22.0
 40
23.0
 40
23.0
 40
23.0
 40
24.0
 40
24.0
 40
24.0
 40
24.0
 10
695.4061318248464
 20
467.2047724933334
 30
0.0
 10
695.4061318248464
 20
467.2047724933334
 30
0.0
 10
698.3941492665907
 20
467.2047724933334
 30
0.0
 10
698.3941492665907
 20
467.2047724933334
 30
0.0
 10
698.3941492665907
 20
467.2047724933334
 30
0.0
 10
698.3800243751012
 20
465.15868722095
 30
0.0
 10
698.3800243751012
 20
465.15868722095
 30
0.0
 10
698.3800243751012
 20
465.15868722095
 30
0.0
 10
682.2122773902108
 20
465.15868722095
 30
0.0
 10
682.2122773902108
 20
465.15868722095
 30
0.0
 10
682.2122773902108
 20
465.15868722095
 30
0.0
 10
682.2122773902108
 20
467.2153661619505
 30
0.0
 10
682.2122773902108
 20
467.2153661619505
 30
0.0
 10
682.2122773902108
 20
467.2153661619505
 30
0.0
 10
684.992124937259
 20
467.2153661619505
 30
0.0
 10
684.992124937259
 20
467.2153661619505
 30
0.0
 10
683.9937793293271
 20
468.0126473846245
 30
0.0
 10
683.1753538331125
 20
469.0145242154287
 30
0.0
 10
682.5967500463647
 20
470.1539895471751
 30
0.0
 10
682.2580971601647
 20
470.8701387711714
 30
0.0
 10
682.025294832749
 20
471.6321077651215
 30
0.0
 10
681.9017881596027
 20
472.4153071599995
 30
0.0
 10
681.9017881596027
 20
472.4153071599995
 30
0.0
 10
683.8067967718652
 20
472.4153071599995
 30
0.0
 10
683.8067967718652
 20
472.4153071599995
 30
0.0
 10
683.9337916041902
 20
471.6568263252282
 30
0.0
 10
684.194843714585
 20
470.9265522097423
 30
0.0
 10
684.5758712752537
 20
470.2598401059594
 30
0.0
 10
685.1156316104051
 20
469.2720451029511
 30
0.0
 10
685.9234634380027
 20
468.4571077659153
 30
0.0
 10
686.9041959952662
 20
467.9033086666614
 30
0.0
 10
687.9166664946875
 20
467.3458922171479
 30
0.0
 10
689.0596630493063
 20
467.0636527695189
 30
0.0
 10
690.2167844954146
 20
467.0813088838808
 30
0.0
 10
691.966548492373
 20
467.0354460502334
 30
0.0
 10
693.6634302736328
 20
467.7092636634546
 30
0.0
 10
694.9052149412911
 20
468.9475171082406
 30
0.0
 10
696.1399371632046
 20
470.1328022099408
 30
0.0
 10
696.8207741584771
 20
471.7803329983744
 30
0.0
 10
696.7890362163192
 20
473.4912535437366
 30
0.0
 10
696.8066492669876
 20
475.7984339902084
 30
0.0
 10
695.5578021535846
 20
477.9292255478354
 30
0.0
 10
693.5363923776142
 20
479.0439723194751
 30
0.0
 10
691.5185138245163
 20
480.2081562113282
 30
0.0
 10
689.0314132663273
 20
480.2081562113282
 30
0.0
 10
687.0100034903569
 20
479.0439723194751
 30
0.0
 10
686.0046385003739
 20
478.4866419973488
 30
0.0
 10
685.1649826032314
 20
477.671704660313
 30
0.0
 10
684.5829337209984
 20
476.6839096573048
 30
0.0
 10
684.2019061603297
 20
476.0383418270625
 30
0.0
 10
683.9373228270625
 20
475.3292550488109
 30
0.0
 10
683.8067967718652
 20
474.5919615512739
 30
0.0
 10
683.8067967718652
 20
474.5919615512739
 30
0.0
 10
681.8524371667766
 20
474.5919615512739
 30
0.0
 10
681.8524371667766
 20
474.5919615512739
 30
0.0
 10
682.0605639977791
 20
476.4933958769704
 30
0.0
 10
682.9213641684624
 20
478.2643472111631
 30
0.0
 10
684.2936318276245
 20
479.6013887689886
 30
0.0
 10
685.8987879415896
 20
481.1959512143364
 30
0.0
 10
688.0789304920428
 20
482.074364435688
 30
0.0
 10
690.3437793277396
 20
482.0285016020406
 30
0.0
 10
692.5874408262022
 20
482.0602395441985
 30
0.0
 10
694.7464391031147
 20
481.1712326542298
 30
0.0
 10
696.3163260520495
 20
479.5696077631371
 30
0.0
 10
697.9285015480657
 20
478.028013660875
 30
0.0
 10
698.828059042958
 20
475.8830972117584
 30
0.0
 10
698.7963641644936
 20
473.6535606047854
 30
0.0
 10
698.813977215162
 20
472.3976941093312
 30
0.0
 10
698.5211871626093
 20
471.1559094416729
 30
0.0
 10
697.9496458216064
 20
470.0411196063396
 30
0.0
 10
697.335815933522
 20
468.9086736566444
 30
0.0
 10
696.4679963807876
 20
467.9350035451257
 30
0.0
 10
695.4061318248464
 20
467.2047724933334
 30
0.0
  0
POLYLINE
  5
216
330
198
100
AcDbEntity
  8
0
 62
     7
370
    25
100
AcDb2dPolyline
 66
     1
 10
0.0
 20
0.0
 30
0.0
  0
VERTEX
  5
217
330
216
100
AcDbEntity
  8
0
 62
     7
370
    25
100
AcDbVertex
100
AcDb2dVertex
 10
708.1519946553188
 20
440.5277186669948
 30
0.0
  0
VERTEX
  5
218
330
216
100
AcDbEntity
  8
0
 62
     7
370
    25
100
AcDbVertex
100
AcDb2dVertex
 10
708.1519946553188
 20
434.0013297797375
 30
0.0
  0
VERTEX
  5
219
330
216
100
AcDbEntity
  8
0
 62
     7
370
    25
100
AcDbVertex
100
AcDb2dVertex
 10
673.2834511663145
 20
422.5466456734432
 30
0.0
  0
VERTEX
  5
21A
330
216
100
AcDbEntity
  8
0
 62
     7
370
    25
100
AcDbVertex
100
AcDb2dVertex
 10
673.2834511663145
 20
427.735993002875
 30
0.0
  0
VERTEX
  5
21B
330
216
100
AcDbEntity
  8
0
 62
     7
370
    25
100
AcDbVertex
100
AcDb2dVertex
 10
680.8858295010025
 20
430.1701682816719
 30
0.0
  0
VERTEX
  5
21C
330
216
100
AcDbEntity
  8
0
 62
     7
370
    25
100
AcDbVertex
100
AcDb2dVertex
 10
680.8858295010025
 20
436.3578612190356
 30
0.0
  0
VERTEX
  5
21D
330
216
100
AcDbEntity
  8
0
 62
     7
370
    25
100
AcDbVertex
100
AcDb2dVertex
 10
685.1262252790223
 20
436.3578612190356
 30
0.0
  0
VERTEX
  5
21E
330
216
100
AcDbEntity
  8
0
 62
     7
370
    25
100
AcDbVertex
100
AcDb2dVertex
 10
685.1262252790223
 20
431.5354165587829
 30
0.0
  0
VERTEX
  5
21F
330
216
100
AcDbEntity
  8
0
 62
     7
370
    25
100
AcDbVertex
100
AcDb2dVertex
 10
703.7881352678464
 20
437.4515067808281
 30
0.0
  0
VERTEX
  5
220
330
216
100
AcDbEntity
  8
0
 62
     7
370
    25
100
AcDbVertex
100
AcDb2dVertex
 10
685.1262252790223
 20
443.364065780001
 30
0.0
  0
VERTEX
  5
221
330
216
100
AcDbEntity
  8
0
 62
     7
370
    25
100
AcDbVertex
100
AcDb2dVertex
 10
685.1262252790223
 20
438.5451092789271
 30
0.0
  0
VERTEX
  5
222
330
216
100
AcDbEntity
  8
0
 62
     7
370
    25
100
AcDbVertex
100
AcDb2dVertex
 10
680.8858295010025
 20
438.5451092789271
 30
0.0
  0
VERTEX
  5
223
330
216
100
AcDbEntity
  8
0
 62
     7
370
    25
100
AcDbVertex
100
AcDb2dVertex
 10
680.8858295010025
 20
444.7257828342396
 30
0.0
  0
VERTEX
  5
224
330
216
100
AcDbEntity
  8
0
 62
     7
370
    25
100
AcDbVertex
100
AcDb2dVertex
 10
673.2834511663145
 20
447.1916960551943
 30
0.0
  0
VERTEX
  5
225
330
216
100
AcDbEntity
  8
0
 62
     7
370
    25
100
AcDbVertex
100
AcDb2dVertex
 10
673.2834511663145
 20
452.141135547772
 30
0.0
  0
VERTEX
  5
226
330
216
100
AcDbEntity
  8
0
 62
     7
370
    25
100
AcDbVertex
100
AcDb2dVertex
 10
708.1519946553188
 20
440.5277186669948
 30
0.0
  0
SEQEND
  5
227
330
216
100
AcDbEntity
  8
0
 62
     7
370
    25
  0
POLYLINE
  5
228
330
198
100
AcDbEntity
  8
0
 62
     7
370
    25
100
AcDb2dPolyline
 66
     1
 10
0.0
 20
0.0
 30
0.0
  0
VERTEX
  5
229
330
228
100
AcDbEntity
  8
0
 62
     7
370
    25
100
AcDbVertex
100
AcDb2dVertex
 10
708.1519946553188
 20
417.6782951158496
 30
0.0
  0
VERTEX
  5
22A
330
228
100
AcDbEntity
  8
0
 62
     7
370
    25
100
AcDbVertex
100
AcDb2dVertex
 10
708.1519946553188
 20
396.7550244505074
 30
0.0
  0
VERTEX
  5
22B
330
228
100
AcDbEntity
  8
0
 62
     7
370
    25
100
AcDbVertex
100
AcDb2dVertex
 10
704.1515067141531
 20
396.7550244505074
 30
0.0
  0
VERTEX
  5
22C
330
228
100
AcDbEntity
  8
0
 62
     7
370
    25
100
AcDbVertex
100
AcDb2dVertex
 10
704.1515067141531
 20
404.8089686759245
 30
0.0
  0
VERTEX
  5
22D
330
228
100
AcDbEntity
  8
0
 62
     7
370
    25
100
AcDbVertex
100
AcDb2dVertex
 10
677.3368643868724
 20
404.8089686759245
 30
0.0
  0
VERTEX
  5
22E
330
228
100
AcDbEntity
  8
0
 62
     7
370
    25
100
AcDbVertex
100
AcDb2dVertex
 10
677.3368643868724
 20
396.7550244505074
 30
0.0
  0
VERTEX
  5
22F
330
228
100
AcDbEntity
  8
0
 62
     7
370
    25
100
AcDbVertex
100
AcDb2dVertex
 10
673.2834511663145
 20
396.7550244505074
 30
0.0
  0
VERTEX
  5
230
330
228
100
AcDbEntity
  8
0
 62
     7
370
    25
100
AcDbVertex
100
AcDb2dVertex
 10
673.2834511663145
 20
417.6782951158496
 30
0.0
  0
VERTEX
  5
231
330
228
100
AcDbEntity
  8
0
 62
     7
370
    25
100
AcDbVertex
100
AcDb2dVertex
 10
677.3368643868724
 20
417.6782951158496
 30
0.0
  0
VERTEX
  5
232
330
228
100
AcDbEntity
  8
0
 62
     7
370
    25
100
AcDbVertex
100
AcDb2dVertex
 10
677.3368643868724
 20
409.624393954126
 30
0.0
  0
VERTEX
  5
233
330
228
100
AcDbEntity
  8
0
 62
     7
370
    25
100
AcDbVertex
100
AcDb2dVertex
 10
704.1515067141531
 20
409.624393954126
 30
0.0
  0
VERTEX
  5
234
330
228
100
AcDbEntity
  8
0
 62
     7
370
    25
100
AcDbVertex
100
AcDb2dVertex
 10
704.1515067141531
 20
417.6782951158496
 30
0.0
  0
VERTEX
  5
235
330
228
100
AcDbEntity
  8
0
 62
     7
370
    25
100
AcDbVertex
100
AcDb2dVertex
 10
708.1519946553188
 20
417.6782951158496
 30
0.0
  0
SEQEND
  5
236
330
228
100
AcDbEntity
  8
0
 62
     7
370
    25
  0
POLYLINE
  5
237
330
198
100
AcDbEntity
  8
0
 62
     7
370
    25
100
AcDb2dPolyline
 66
     1
 10
0.0
 20
0.0
 30
0.0
  0
VERTEX
  5
238
330
237
100
AcDbEntity
  8
0
 62
     7
370
    25
100
AcDbVertex
100
AcDb2dVertex
 10
708.1802013746043
 20
391.2411491263651
 30
0.0
  0
VERTEX
  5
239
330
237
100
AcDbEntity
  8
0
 62
     7
370
    25
100
AcDbVertex
100
AcDb2dVertex
 10
708.1802013746043
 20
389.0045070099537
 30
0.0
  0
VERTEX
  5
23A
330
237
100
AcDbEntity
  8
0
 62
     7
370
    25
100
AcDbVertex
100
AcDb2dVertex
 10
707.4323572721437
 20
389.0045070099537
 30
0.0
  0
VERTEX
  5
23B
330
237
100
AcDbEntity
  8
0
 62
     7
370
    25
100
AcDbVertex
100
AcDb2dVertex
 10
707.4323572721437
 20
389.7489060169291
 30
0.0
  0
VERTEX
  5
23C
330
237
100
AcDbEntity
  8
0
 62
     7
370
    25
100
AcDbVertex
100
AcDb2dVertex
 10
704.1621003827703
 20
389.7489060169291
 30
0.0
  0
VERTEX
  5
23D
330
237
100
AcDbEntity
  8
0
 62
     7
370
    25
100
AcDbVertex
100
AcDb2dVertex
 10
704.1621003827703
 20
390.5285311252412
 30
0.0
  0
VERTEX
  5
23E
330
237
100
AcDbEntity
  8
0
 62
     7
370
    25
100
AcDbVertex
100
AcDb2dVertex
 10
707.4323572721437
 20
390.5285311252412
 30
0.0
  0
VERTEX
  5
23F
330
237
100
AcDbEntity
  8
0
 62
     7
370
    25
100
AcDbVertex
100
AcDb2dVertex
 10
707.4323572721437
 20
391.2446803492375
 30
0.0
  0
VERTEX
  5
240
330
237
100
AcDbEntity
  8
0
 62
     7
370
    25
100
AcDbVertex
100
AcDb2dVertex
 10
708.1802013746043
 20
391.2411491263651
 30
0.0
  0
SEQEND
  5
241
330
237
100
AcDbEntity
  8
0
 62
     7
370
    25
  0
POLYLINE
  5
242
330
198
100
AcDbEntity
  8
0
 62
     7
370
    25
100
AcDb2dPolyline
 66
     1
 10
0.0
 20
0.0
 30
0.0
  0
VERTEX
  5
243
330
242
100
AcDbEntity
  8
0
 62
     7
370
    25
100
AcDbVertex
100
AcDb2dVertex
 10
708.1802013746043
 20
388.4753403434194
 30
0.0
  0
VERTEX
  5
244
330
242
100
AcDbEntity
  8
0
 62
     7
370
    25
100
AcDbVertex
100
AcDb2dVertex
 10
708.1802013746043
 20
386.2740104557319
 30
0.0
  0
VERTEX
  5
245
330
242
100
AcDbEntity
  8
0
 62
     7
370
    25
100
AcDbVertex
100
AcDb2dVertex
 10
707.4323572721437
 20
386.2740104557319
 30
0.0
  0
VERTEX
  5
246
330
242
100
AcDbEntity
  8
0
 62
     7
370
    25
100
AcDbVertex
100
AcDb2dVertex
 10
707.4323572721437
 20
387.7169025723416
 30
0.0
  0
VERTEX
  5
247
330
242
100
AcDbEntity
  8
0
 62
     7
370
    25
100
AcDbVertex
100
AcDb2dVertex
 10
706.6879582651683
 20
387.7169025723416
 30
0.0
  0
VERTEX
  5
248
330
242
100
AcDbEntity
  8
0
 62
     7
370
    25
100
AcDbVertex
100
AcDb2dVertex
 10
706.6879582651683
 20
386.2740104557319
 30
0.0
  0
VERTEX
  5
249
330
242
100
AcDbEntity
  8
0
 62
     7
370
    25
100
AcDbVertex
100
AcDb2dVertex
 10
705.9401141627077
 20
386.2740104557319
 30
0.0
  0
VERTEX
  5
24A
330
242
100
AcDbEntity
  8
0
 62
     7
370
    25
100
AcDbVertex
100
AcDb2dVertex
 10
705.9401141627077
 20
387.7169025723416
 30
0.0
  0
VERTEX
  5
24B
330
242
100
AcDbEntity
  8
0
 62
     7
370
    25
100
AcDbVertex
100
AcDb2dVertex
 10
704.9029251031797
 20
387.7169025723416
 30
0.0
  0
VERTEX
  5
24C
330
242
100
AcDbEntity
  8
0
 62
     7
370
    25
100
AcDbVertex
100
AcDb2dVertex
 10
704.9029251031797
 20
386.2740104557319
 30
0.0
  0
VERTEX
  5
24D
330
242
100
AcDbEntity
  8
0
 62
     7
370
    25
100
AcDbVertex
100
AcDb2dVertex
 10
704.1550379370256
 20
386.2740104557319
 30
0.0
  0
VERTEX
  5
24E
330
242
100
AcDbEntity
  8
0
 62
     7
370
    25
100
AcDbVertex
100
AcDb2dVertex
 10
704.1550379370256
 20
388.4753403434194
 30
0.0
  0
VERTEX
  5
24F
330
242
100
AcDbEntity
  8
0
 62
     7
370
    25
100
AcDbVertex
100
AcDb2dVertex
 10
708.1802013746043
 20
388.4753403434194
 30
0.0
  0
SEQEND
  5
250
330
242
100
AcDbEntity
  8
0
 62
     7
370
    25
  0
POLYLINE
  5
251
330
198
100
AcDbEntity
  8
0
 62
     7
370
    25
100
AcDb2dPolyline
 66
     1
 10
0.0
 20
0.0
 30
0.0
  0
VERTEX
  5
252
330
251
100
AcDbEntity
  8
0
 62
     7
370
    25
100
AcDbVertex
100
AcDb2dVertex
 10
708.1802013746043
 20
384.323139009822
 30
0.0
  0
VERTEX
  5
253
330
251
100
AcDbEntity
  8
0
 62
     7
370
    25
100
AcDbVertex
100
AcDb2dVertex
 10
708.1802013746043
 20
383.54351390151
 30
0.0
  0
VERTEX
  5
254
330
251
100
AcDbEntity
  8
0
 62
     7
370
    25
100
AcDbVertex
100
AcDb2dVertex
 10
704.1515067141531
 20
382.0019197992478
 30
0.0
  0
VERTEX
  5
255
330
251
100
AcDbEntity
  8
0
 62
     7
370
    25
100
AcDbVertex
100
AcDb2dVertex
 10
704.1515067141531
 20
382.7991579582282
 30
0.0
  0
VERTEX
  5
256
330
251
100
AcDbEntity
  8
0
 62
     7
370
    25
100
AcDbVertex
100
AcDb2dVertex
 10
704.980525878985
 20
383.1201977937599
 30
0.0
  0
VERTEX
  5
257
330
251
100
AcDbEntity
  8
0
 62
     7
370
    25
100
AcDbVertex
100
AcDb2dVertex
 10
704.980525878985
 20
383.7763592926193
 30
0.0
  0
VERTEX
  5
258
330
251
100
AcDbEntity
  8
0
 62
     7
370
    25
100
AcDbVertex
100
AcDb2dVertex
 10
705.7284130451391
 20
383.7763592926193
 30
0.0
  0
VERTEX
  5
259
330
251
100
AcDbEntity
  8
0
 62
     7
370
    25
100
AcDbVertex
100
AcDb2dVertex
 10
705.7284130451391
 20
383.3883123498995
 30
0.0
  0
VERTEX
  5
25A
330
251
100
AcDbEntity
  8
0
 62
     7
370
    25
100
AcDbVertex
100
AcDb2dVertex
 10
707.1112743729184
 20
383.9316039079234
 30
0.0
  0
VERTEX
  5
25B
330
251
100
AcDbEntity
  8
0
 62
     7
370
    25
100
AcDbVertex
100
AcDb2dVertex
 10
705.7284130451391
 20
384.4713642430749
 30
0.0
  0
VERTEX
  5
25C
330
251
100
AcDbEntity
  8
0
 62
     7
370
    25
100
AcDbVertex
100
AcDb2dVertex
 10
705.7284130451391
 20
384.0832742366615
 30
0.0
  0
VERTEX
  5
25D
330
251
100
AcDbEntity
  8
0
 62
     7
370
    25
100
AcDbVertex
100
AcDb2dVertex
 10
704.980525878985
 20
384.0832742366615
 30
0.0
  0
VERTEX
  5
25E
330
251
100
AcDbEntity
  8
0
 62
     7
370
    25
100
AcDbVertex
100
AcDb2dVertex
 10
704.980525878985
 20
384.7711736776787
 30
0.0
  0
VERTEX
  5
25F
330
251
100
AcDbEntity
  8
0
 62
     7
370
    25
100
AcDbVertex
100
AcDb2dVertex
 10
704.1515067141531
 20
385.0992759589552
 30
0.0
  0
VERTEX
  5
260
330
251
100
AcDbEntity
  8
0
 62
     7
370
    25
100
AcDbVertex
100
AcDb2dVertex
 10
704.1515067141531
 20
385.8824753538332
 30
0.0
  0
VERTEX
  5
261
330
251
100
AcDbEntity
  8
0
 62
     7
370
    25
100
AcDbVertex
100
AcDb2dVertex
 10
708.1802013746043
 20
384.323139009822
 30
0.0
  0
SEQEND
  5
262
330
251
100
AcDbEntity
  8
0
 62
     7
370
    25
  0
POLYLINE
  5
263
330
198
100
AcDbEntity
  8
0
 62
     7
370
    25
100
AcDb2dPolyline
 66
     1
 10
0.0
 20
0.0
 30
0.0
  0
VERTEX
  5
264
330
263
100
AcDbEntity
  8
0
 62
     7
370
    25
100
AcDbVertex
100
AcDb2dVertex
 10
708.1802013746043
 20
380.2591751843406
 30
0.0
  0
VERTEX
  5
265
330
263
100
AcDbEntity
  8
0
 62
     7
370
    25
100
AcDbVertex
100
AcDb2dVertex
 10
705.3685728217048
 20
379.3207742378521
 30
0.0
  0
VERTEX
  5
266
330
263
100
AcDbEntity
  8
0
 62
     7
370
    25
100
AcDbVertex
100
AcDb2dVertex
 10
708.1802013746043
 20
378.3718226864401
 30
0.0
  0
VERTEX
  5
267
330
263
100
AcDbEntity
  8
0
 62
     7
370
    25
100
AcDbVertex
100
AcDb2dVertex
 10
708.1802013746043
 20
377.6274236794647
 30
0.0
  0
VERTEX
  5
268
330
263
100
AcDbEntity
  8
0
 62
     7
370
    25
100
AcDbVertex
100
AcDb2dVertex
 10
704.1515067141531
 20
376.9501179070646
 30
0.0
  0
VERTEX
  5
269
330
263
100
AcDbEntity
  8
0
 62
     7
370
    25
100
AcDbVertex
100
AcDb2dVertex
 10
704.1515067141531
 20
377.6980050732187
 30
0.0
  0
VERTEX
  5
26A
330
263
100
AcDbEntity
  8
0
 62
     7
370
    25
100
AcDbVertex
100
AcDb2dVertex
 10
706.6879582651683
 20
378.1213642446624
 30
0.0
  0
VERTEX
  5
26B
330
263
100
AcDbEntity
  8
0
 62
     7
370
    25
100
AcDbVertex
100
AcDb2dVertex
 10
704.1444442684084
 20
378.982121351652
 30
0.0
  0
VERTEX
  5
26C
330
263
100
AcDbEntity
  8
0
 62
     7
370
    25
100
AcDbVertex
100
AcDb2dVertex
 10
704.1444442684084
 20
379.6594271240522
 30
0.0
  0
VERTEX
  5
26D
330
263
100
AcDbEntity
  8
0
 62
     7
370
    25
100
AcDbVertex
100
AcDb2dVertex
 10
706.6879582651683
 20
380.5096336261183
 30
0.0
  0
VERTEX
  5
26E
330
263
100
AcDbEntity
  8
0
 62
     7
370
    25
100
AcDbVertex
100
AcDb2dVertex
 10
704.1444442684084
 20
380.9470746253579
 30
0.0
  0
VERTEX
  5
26F
330
263
100
AcDbEntity
  8
0
 62
     7
370
    25
100
AcDbVertex
100
AcDb2dVertex
 10
704.1444442684084
 20
381.694961791512
 30
0.0
  0
VERTEX
  5
270
330
263
100
AcDbEntity
  8
0
 62
     7
370
    25
100
AcDbVertex
100
AcDb2dVertex
 10
708.1802013746043
 20
381.0035311276224
 30
0.0
  0
VERTEX
  5
271
330
263
100
AcDbEntity
  8
0
 62
     7
370
    25
100
AcDbVertex
100
AcDb2dVertex
 10
708.1802013746043
 20
380.2591751843406
 30
0.0
  0
SEQEND
  5
272
330
263
100
AcDbEntity
  8
0
 62
     7
370
    25
  0
ENDBLK
  5
19B
330
198
100
AcDbEntity
  8
0
100
AcDbBlockEnd
  0
ENDSEC
  0
SECTION
  2
ENTITIES
  0
INSERT
  5
41
330
1F
100
AcDbEntity
  8
0
100
AcDbBlockReference
  2
block 2
 10
0.0
 20
0.0
 30
0.0
  0
INSERT
  5
54
330
1F
100
AcDbEntity
  8
0
100
AcDbBlockReference
  2
block 3
 10
0.0
 20
0.0
 30
0.0
  0
INSERT
  5
6A
330
1F
100
AcDbEntity
  8
0
100
AcDbBlockReference
  2
block 4
 10
0.0
 20
0.0
 30
0.0
  0
INSERT
  5
80
330
1F
100
AcDbEntity
  8
0
100
AcDbBlockReference
  2
block 5
 10
0.0
 20
0.0
 30
0.0
  0
INSERT
  5
85
330
1F
100
AcDbEntity
  8
0
100
AcDbBlockReference
  2
block 6
 10
0.0
 20
0.0
 30
0.0
  0
INSERT
  5
94
330
1F
100
AcDbEntity
  8
0
100
AcDbBlockReference
  2
block 7
 10
0.0
 20
0.0
 30
0.0
  0
INSERT
  5
A8
330
1F
100
AcDbEntity
  8
0
100
AcDbBlockReference
  2
block 8
 10
0.0
 20
0.0
 30
0.0
  0
INSERT
  5
BB
330
1F
100
AcDbEntity
  8
0
100
AcDbBlockReference
  2
block 9
 10
0.0
 20
0.0
 30
0.0
  0
INSERT
  5
11F
330
1F
100
AcDbEntity
  8
0
100
AcDbBlockReference
  2
block 10
 10
0.0
 20
0.0
 30
0.0
  0
INSERT
  5
132
330
1F
100
AcDbEntity
  8
0
100
AcDbBlockReference
  2
block 11
 10
0.0
 20
0.0
 30
0.0
  0
INSERT
  5
148
330
1F
100
AcDbEntity
  8
0
100
AcDbBlockReference
  2
block 12
 10
0.0
 20
0.0
 30
0.0
  0
INSERT
  5
15E
330
1F
100
AcDbEntity
  8
0
100
AcDbBlockReference
  2
block 13
 10
0.0
 20
0.0
 30
0.0
  0
INSERT
  5
163
330
1F
100
AcDbEntity
  8
0
100
AcDbBlockReference
  2
block 14
 10
0.0
 20
0.0
 30
0.0
  0
INSERT
  5
172
330
1F
100
AcDbEntity
  8
0
100
AcDbBlockReference
  2
block 15
 10
0.0
 20
0.0
 30
0.0
  0
INSERT
  5
186
330
1F
100
AcDbEntity
  8
0
100
AcDbBlockReference
  2
block 16
 10
0.0
 20
0.0
 30
0.0
  0
INSERT
  5
199
330
1F
100
AcDbEntity
  8
0
100
AcDbBlockReference
  2
block 17
 10
0.0
 20
0.0
 30
0.0
  0
ENDSEC
  0
SECTION
  2
OBJECTS
  0
DICTIONARY
  5
C
330
0
100
AcDbDictionary
281
     1
  3
ACAD_GROUP
350
D
  3
ACAD_LAYOUT
350
1A
  3
ACAD_MATERIAL
350
3B
  3
ACAD_MLEADERSTYLE
350
274
  3
ACAD_MLINESTYLE
350
17
  3
ACAD_PLOTSETTINGS
350
19
  3
ACAD_PLOTSTYLENAME
350
E
  3
ACAD_TABLESTYLE
350
273
  3
ACAD_VISUALSTYLE
350
2A
  0
SUN
  5
3F
330
29
100
AcDbSun
 90
        1
290
     0
 63
     7
421
 16777215
 40
1.0
291
     1
 91
  2455826
 92
 54000000
292
     0
 70
     2
 71
   256
280
     1
  0
DICTIONARY
  5
D
102
{ACAD_REACTORS
330
C
102
}
330
C
100
AcDbDictionary
281
     1
  0
DICTIONARY
  5
1A
102
{ACAD_REACTORS
330
C
102
}
330
C
100
AcDbDictionary
281
     1
  3
Layout1
350
1E
  3
Layout2
350
26
  3
Model
350
22
  0
DICTIONARY
  5
3B
102
{ACAD_REACTORS
330
C
102
}
330
C
100
AcDbDictionary
281
     1
  3
ByBlock
350
3D
  3
ByLayer
350
3C
  3
Global
350
3E
  0
DICTIONARY
  5
274
102
{ACAD_REACTORS
330
C
102
}
330
C
100
AcDbDictionary
281
     1
  0
DICTIONARY
  5
17
102
{ACAD_REACTORS
330
C
102
}
330
C
100
AcDbDictionary
281
     1
  3
Standard
350
18
  0
DICTIONARY
  5
19
102
{ACAD_REACTORS
330
C
102
}
330
C
100
AcDbDictionary
281
     1
  0
ACDBDICTIONARYWDFLT
  5
E
102
{ACAD_REACTORS
330
C
102
}
330
C
100
AcDbDictionary
281
     1
  3
Normal
350
F
100
AcDbDictionaryWithDefault
340
F
  0
DICTIONARY
  5
273
102
{ACAD_REACTORS
330
C
102
}
330
C
100
AcDbDictionary
281
     1
  0
DICTIONARY
  5
2A
102
{ACAD_REACTORS
330
C
102
}
330
C
100
AcDbDictionary
281
     1
  3
2dWireframe
350
2F
  3
3D Hidden
350
31
  3
3dWireframe
350
30
  3
Basic
350
32
  3
Brighten
350
36
  3
ColorChange
350
3A
  3
Conceptual
350
34
  3
Dim
350
35
  3
Facepattern
350
39
  3
Flat
350
2B
  3
FlatWithEdges
350
2C
  3
Gouraud
350
2D
  3
GouraudWithEdges
350
2E
  3
Linepattern
350
38
  3
Realistic
350
33
  3
Thicken
350
37
  0
LAYOUT
  5
1E
102
{ACAD_REACTORS
330
1A
102
}
330
1A
100
AcDbPlotSettings
  1

  2
none_device
  4

  6

 40
0.0
 41
0.0
 42
0.0
 43
0.0
 44
0.0
 45
0.0
 46
0.0
 47
0.0
 48
0.0
 49
0.0
140
0.0
141
0.0
142
1.0
143
1.0
 70
   688
 72
     0
 73
     0
 74
     5
  7

 75
    16
 76
     0
 77
     2
 78
   300
147
1.0
148
0.0
149
0.0
100
AcDbLayout
  1
Layout1
 70
     1
 71
     1
 10
0.0
 20
0.0
 11
12.0
 21
9.0
 12
0.0
 22
0.0
 32
0.0
 14
1.000000000000000E+20
 24
1.000000000000000E+20
 34
1.000000000000000E+20
 15
-1.000000000000000E+20
 25
-1.000000000000000E+20
 35
-1.000000000000000E+20
146
0.0
 13
0.0
 23
0.0
 33
0.0
 16
1.0
 26
0.0
 36
0.0
 17
0.0
 27
1.0
 37
0.0
 76
     0
330
1B
  0
LAYOUT
  5
26
102
{ACAD_REACTORS
330
1A
102
}
330
1A
100
AcDbPlotSettings
  1

  2
none_device
  4

  6

 40
0.0
 41
0.0
 42
0.0
 43
0.0
 44
0.0
 45
0.0
 46
0.0
 47
0.0
 48
0.0
 49
0.0
140
0.0
141
0.0
142
1.0
143
1.0
 70
   688
 72
     0
 73
     0
 74
     5
  7

 75
    16
 76
     0
 77
     2
 78
   300
147
1.0
148
0.0
149
0.0
100
AcDbLayout
  1
Layout2
 70
     1
 71
     2
 10
0.0
 20
0.0
 11
0.0
 21
0.0
 12
0.0
 22
0.0
 32
0.0
 14
0.0
 24
0.0
 34
0.0
 15
0.0
 25
0.0
 35
0.0
146
0.0
 13
0.0
 23
0.0
 33
0.0
 16
1.0
 26
0.0
 36
0.0
 17
0.0
 27
1.0
 37
0.0
 76
     0
330
23
  0
LAYOUT
  5
22
102
{ACAD_REACTORS
330
1A
102
}
330
1A
100
AcDbPlotSettings
  1

  2
none_device
  4

  6

 40
0.0
 41
0.0
 42
0.0
 43
0.0
 44
0.0
 45
0.0
 46
0.0
 47
0.0
 48
0.0
 49
0.0
140
0.0
141
0.0
142
1.0
143
1.0
 70
  1712
 72
     0
 73
     0
 74
     0
  7

 75
     0
 76
     0
 77
     2
 78
   300
147
1.0
148
0.0
149
0.0
100
AcDbLayout
  1
Model
 70
     1
 71
     0
 10
0.0
 20
0.0
 11
12.0
 21
9.0
 12
0.0
 22
0.0
 32
0.0
 14
1.000000000000000E+20
 24
1.000000000000000E+20
 34
1.000000000000000E+20
 15
-1.000000000000000E+20
 25
-1.000000000000000E+20
 35
-1.000000000000000E+20
146
0.0
 13
0.0
 23
0.0
 33
0.0
 16
1.0
 26
0.0
 36
0.0
 17
0.0
 27
1.0
 37
0.0
 76
     0
330
1F
331
29
  0
MATERIAL
  5
3D
102
{ACAD_REACTORS
330
3B
102
}
330
3B
100
AcDbMaterial
  1
ByBlock
 72
     1
 94
      127
  0
MATERIAL
  5
3C
102
{ACAD_REACTORS
330
3B
102
}
330
3B
100
AcDbMaterial
  1
ByLayer
 72
     1
 94
      127
  0
MATERIAL
  5
3E
102
{ACAD_REACTORS
330
3B
102
}
330
3B
100
AcDbMaterial
  1
Global
 72
     1
 94
      127
  0
MLINESTYLE
  5
18
102
{ACAD_REACTORS
330
17
102
}
330
17
100
AcDbMlineStyle
  2
Standard
 70
     0
  3

 62
   256
 51
90.0
 52
90.0
 71
     2
 49
0.5
 62
   256
  6
BYLAYER
 49
-0.5
 62
   256
  6
BYLAYER
  0
ACDBPLACEHOLDER
  5
F
102
{ACAD_REACTORS
330
E
102
}
330
E
  0
VISUALSTYLE
  5
2F
102
{ACAD_REACTORS
330
2A
102
}
330
2A
100
AcDbVisualStyle
  2
2dWireframe
 70
     4
177
     2
291
     0
 71
     0
176
     1
 72
     2
176
     1
 73
     0
176
     1
 90
        0
176
     1
 40
-0.6
176
     1
 41
-30.0
176
     1
 62
     5
 63
     7
421
 16777215
176
     1
 74
     1
176
     1
 91
        4
176
     1
 64
     7
176
     1
 65
   257
176
     1
 75
     1
176
     1
175
     1
176
     1
 42
1.0
176
     1
 92
        0
176
     1
 66
   257
176
     1
 43
1.0
176
     1
 76
     1
176
     1
 77
     6
176
     1
 78
     2
176
     1
 67
     7
176
     1
 79
     5
176
     1
170
     0
176
     1
171
     0
176
     1
290
     0
176
     1
 93
        1
176
     1
 44
0.0
176
     1
173
     0
176
     1
  0
VISUALSTYLE
  5
31
102
{ACAD_REACTORS
330
2A
102
}
330
2A
100
AcDbVisualStyle
  2
3D Hidden
 70
     6
177
     2
291
     0
 71
     1
176
     1
 72
     2
176
     1
 73
     2
176
     1
 90
        0
176
     1
 40
-0.6
176
     1
 41
-30.0
176
     1
 62
     5
 63
     7
421
 16777215
176
     1
 74
     2
176
     1
 91
        2
176
     1
 64
     7
176
     1
 65
   257
176
     1
 75
     2
176
     1
175
     1
176
     1
 42
40.0
176
     1
 92
        0
176
     1
 66
   257
176
     1
 43
1.0
176
     1
 76
     1
176
     1
 77
     6
176
     1
 78
     2
176
     1
 67
     7
176
     1
 79
     3
176
     1
170
     0
176
     1
171
     0
176
     1
290
     0
176
     1
 93
        1
176
     1
 44
0.0
176
     1
173
     0
176
     1
  0
VISUALSTYLE
  5
30
102
{ACAD_REACTORS
330
2A
102
}
330
2A
100
AcDbVisualStyle
  2
3dWireframe
 70
     5
177
     2
291
     0
 71
     0
176
     1
 72
     2
176
     1
 73
     0
176
     1
 90
        0
176
     1
 40
-0.6
176
     1
 41
-30.0
176
     1
 62
     5
 63
     7
421
 16777215
176
     1
 74
     1
176
     1
 91
        4
176
     1
 64
     7
176
     1
 65
   257
176
     1
 75
     1
176
     1
175
     1
176
     1
 42
1.0
176
     1
 92
        0
176
     1
 66
   257
176
     1
 43
1.0
176
     1
 76
     1
176
     1
 77
     6
176
     1
 78
     2
176
     1
 67
     7
176
     1
 79
     5
176
     1
170
     0
176
     1
171
     0
176
     1
290
     0
176
     1
 93
        1
176
     1
 44
0.0
176
     1
173
     0
176
     1
  0
VISUALSTYLE
  5
32
102
{ACAD_REACTORS
330
2A
102
}
330
2A
100
AcDbVisualStyle
  2
Basic
 70
     7
177
     2
291
     1
 71
     1
176
     1
 72
     0
176
     1
 73
     1
176
     1
 90
        0
176
     1
 40
-0.6
176
     1
 41
-30.0
176
     1
 62
     5
 63
     7
421
 16777215
176
     1
 74
     0
176
     1
 91
        4
176
     1
 64
     7
176
     1
 65
   257
176
     1
 75
     1
176
     1
175
     1
176
     1
 42
1.0
176
     1
 92
        8
176
     1
 66
     7
176
     1
 43
1.0
176
     1
 76
     1
176
     1
 77
     6
176
     1
 78
     2
176
     1
 67
     7
176
     1
 79
     5
176
     1
170
     0
176
     1
171
     0
176
     1
290
     0
176
     1
 93
        1
176
     1
 44
0.0
176
     1
173
     0
176
     1
  0
VISUALSTYLE
  5
36
102
{ACAD_REACTORS
330
2A
102
}
330
2A
100
AcDbVisualStyle
  2
Brighten
 70
    12
177
     2
291
     1
 71
     2
176
     1
 72
     2
176
     1
 73
     0
176
     1
 90
        0
176
     1
 40
-0.6
176
     1
 41
-30.0
176
     1
 62
     5
 63
     7
421
 16777215
176
     1
 74
     1
176
     1
 91
        4
176
     1
 64
     7
176
     1
 65
   257
176
     1
 75
     1
176
     1
175
     1
176
     1
 42
1.0
176
     1
 92
        8
176
     1
 66
     7
176
     1
 43
1.0
176
     1
 76
     1
176
     1
 77
     6
176
     1
 78
     2
176
     1
 67
     7
176
     1
 79
     5
176
     1
170
     0
176
     1
171
     0
176
     1
290
     0
176
     1
 93
        1
176
     1
 44
50.0
176
     1
173
     0
176
     1
  0
VISUALSTYLE
  5
3A
102
{ACAD_REACTORS
330
2A
102
}
330
2A
100
AcDbVisualStyle
  2
ColorChange
 70
    16
177
     2
291
     1
 71
     2
176
     1
 72
     2
176
     1
 73
     3
176
     1
 90
        0
176
     1
 40
-0.6
176
     1
 41
-30.0
176
     1
 62
     5
 63
     8
421
  8421504
176
     1
 74
     1
176
     1
 91
        4
176
     1
 64
     7
176
     1
 65
   257
176
     1
 75
     1
176
     1
175
     1
176
     1
 42
1.0
176
     1
 92
        8
176
     1
 66
     8
424
  8421504
176
     1
 43
1.0
176
     1
 76
     1
176
     1
 77
     6
176
     1
 78
     2
176
     1
 67
     7
176
     1
 79
     5
176
     1
170
     0
176
     1
171
     0
176
     1
290
     0
176
     1
 93
        1
176
     1
 44
0.0
176
     1
173
     0
176
     1
  0
VISUALSTYLE
  5
34
102
{ACAD_REACTORS
330
2A
102
}
330
2A
100
AcDbVisualStyle
  2
Conceptual
 70
     9
177
     2
291
     0
 71
     3
176
     1
 72
     2
176
     1
 73
     0
176
     1
 90
        0
176
     1
 40
-0.6
176
     1
 41
-30.0
176
     1
 62
     5
 63
     7
421
 16777215
176
     1
 74
     2
176
     1
 91
        2
176
     1
 64
     7
176
     1
 65
   257
176
     1
 75
     1
176
     1
175
     1
176
     1
 42
40.0
176
     1
 92
        8
176
     1
 66
     7
176
     1
 43
1.0
176
     1
 76
     1
176
     1
 77
     6
176
     1
 78
     2
176
     1
 67
     7
176
     1
 79
     3
176
     1
170
     0
176
     1
171
     0
176
     1
290
     0
176
     1
 93
        1
176
     1
 44
0.0
176
     1
173
     0
176
     1
  0
VISUALSTYLE
  5
35
102
{ACAD_REACTORS
330
2A
102
}
330
2A
100
AcDbVisualStyle
  2
Dim
 70
    11
177
     2
291
     1
 71
     2
176
     1
 72
     2
176
     1
 73
     0
176
     1
 90
        0
176
     1
 40
-0.6
176
     1
 41
-30.0
176
     1
 62
     5
 63
     7
421
 16777215
176
     1
 74
     1
176
     1
 91
        4
176
     1
 64
     7
176
     1
 65
   257
176
     1
 75
     1
176
     1
175
     1
176
     1
 42
1.0
176
     1
 92
        8
176
     1
 66
     7
176
     1
 43
1.0
176
     1
 76
     1
176
     1
 77
     6
176
     1
 78
     2
176
     1
 67
     7
176
     1
 79
     5
176
     1
170
     0
176
     1
171
     0
176
     1
290
     0
176
     1
 93
        1
176
     1
 44
-50.0
176
     1
173
     0
176
     1
  0
VISUALSTYLE
  5
39
102
{ACAD_REACTORS
330
2A
102
}
330
2A
100
AcDbVisualStyle
  2
Facepattern
 70
    15
177
     2
291
     1
 71
     2
176
     1
 72
     2
176
     1
 73
     0
176
     1
 90
        0
176
     1
 40
-0.6
176
     1
 41
-30.0
176
     1
 62
     5
 63
     7
421
 16777215
176
     1
 74
     1
176
     1
 91
        4
176
     1
 64
     7
176
     1
 65
   257
176
     1
 75
     1
176
     1
175
     1
176
     1
 42
1.0
176
     1
 92
        8
176
     1
 66
     7
176
     1
 43
1.0
176
     1
 76
     1
176
     1
 77
     6
176
     1
 78
     2
176
     1
 67
     7
176
     1
 79
     5
176
     1
170
     0
176
     1
171
     0
176
     1
290
     0
176
     1
 93
        1
176
     1
 44
0.0
176
     1
173
     0
176
     1
  0
VISUALSTYLE
  5
2B
102
{ACAD_REACTORS
330
2A
102
}
330
2A
100
AcDbVisualStyle
  2
Flat
 70
     0
177
     2
291
     1
 71
     2
176
     1
 72
     1
176
     1
 73
     1
176
     1
 90
        2
176
     1
 40
-0.6
176
     1
 41
30.0
176
     1
 62
     5
 63
     7
421
 16777215
176
     1
 74
     0
176
     1
 91
        4
176
     1
 64
     7
176
     1
 65
   257
176
     1
 75
     1
176
     1
175
     1
176
     1
 42
1.0
176
     1
 92
        8
176
     1
 66
     7
176
     1
 43
1.0
176
     1
 76
     1
176
     1
 77
     6
176
     1
 78
     2
176
     1
 67
     7
176
     1
 79
     5
176
     1
170
     0
176
     1
171
     0
176
     1
290
     0
176
     1
 93
       13
176
     1
 44
0.0
176
     1
173
     0
176
     1
  0
VISUALSTYLE
  5
2C
102
{ACAD_REACTORS
330
2A
102
}
330
2A
100
AcDbVisualStyle
  2
FlatWithEdges
 70
     1
177
     2
291
     1
 71
     2
176
     1
 72
     1
176
     1
 73
     1
176
     1
 90
        2
176
     1
 40
-0.6
176
     1
 41
30.0
176
     1
 62
     5
 63
     7
421
 16777215
176
     1
 74
     1
176
     1
 91
        4
176
     1
 64
     7
176
     1
 65
   257
176
     1
 75
     1
176
     1
175
     1
176
     1
 42
1.0
176
     1
 92
        0
176
     1
 66
   257
176
     1
 43
1.0
176
     1
 76
     1
176
     1
 77
     6
176
     1
 78
     2
176
     1
 67
     7
176
     1
 79
     5
176
     1
170
     0
176
     1
171
     0
176
     1
290
     0
176
     1
 93
       13
176
     1
 44
0.0
176
     1
173
     0
176
     1
  0
VISUALSTYLE
  5
2D
102
{ACAD_REACTORS
330
2A
102
}
330
2A
100
AcDbVisualStyle
  2
Gouraud
 70
     2
177
     2
291
     1
 71
     2
176
     1
 72
     2
176
     1
 73
     1
176
     1
 90
        2
176
     1
 40
-0.6
176
     1
 41
30.0
176
     1
 62
     5
 63
     7
421
 16777215
176
     1
 74
     0
176
     1
 91
        4
176
     1
 64
     7
176
     1
 65
   257
176
     1
 75
     1
176
     1
175
     1
176
     1
 42
1.0
176
     1
 92
        0
176
     1
 66
     7
176
     1
 43
1.0
176
     1
 76
     1
176
     1
 77
     6
176
     1
 78
     2
176
     1
 67
     7
176
     1
 79
     5
176
     1
170
     0
176
     1
171
     0
176
     1
290
     0
176
     1
 93
       13
176
     1
 44
0.0
176
     1
173
     0
176
     1
  0
VISUALSTYLE
  5
2E
102
{ACAD_REACTORS
330
2A
102
}
330
2A
100
AcDbVisualStyle
  2
GouraudWithEdges
 70
     3
177
     2
291
     1
 71
     2
176
     1
 72
     2
176
     1
 73
     1
176
     1
 90
        2
176
     1
 40
-0.6
176
     1
 41
30.0
176
     1
 62
     5
 63
     7
421
 16777215
176
     1
 74
     1
176
     1
 91
        4
176
     1
 64
     7
176
     1
 65
   257
176
     1
 75
     1
176
     1
175
     1
176
     1
 42
1.0
176
     1
 92
        0
176
     1
 66
   257
176
     1
 43
1.0
176
     1
 76
     1
176
     1
 77
     6
176
     1
 78
     2
176
     1
 67
     7
176
     1
 79
     5
176
     1
170
     0
176
     1
171
     0
176
     1
290
     0
176
     1
 93
       13
176
     1
 44
0.0
176
     1
173
     0
176
     1
  0
VISUALSTYLE
  5
38
102
{ACAD_REACTORS
330
2A
102
}
330
2A
100
AcDbVisualStyle
  2
Linepattern
 70
    14
177
     2
291
     1
 71
     2
176
     1
 72
     2
176
     1
 73
     0
176
     1
 90
        0
176
     1
 40
-0.6
176
     1
 41
-30.0
176
     1
 62
     5
 63
     7
421
 16777215
176
     1
 74
     1
176
     1
 91
        4
176
     1
 64
     7
176
     1
 65
   257
176
     1
 75
     7
176
     1
175
     7
176
     1
 42
1.0
176
     1
 92
        8
176
     1
 66
     7
176
     1
 43
1.0
176
     1
 76
     1
176
     1
 77
     6
176
     1
 78
     2
176
     1
 67
     7
176
     1
 79
     5
176
     1
170
     0
176
     1
171
     0
176
     1
290
     0
176
     1
 93
        1
176
     1
 44
0.0
176
     1
173
     0
176
     1
  0
VISUALSTYLE
  5
33
102
{ACAD_REACTORS
330
2A
102
}
330
2A
100
AcDbVisualStyle
  2
Realistic
 70
     8
177
     2
291
     0
 71
     2
176
     1
 72
     2
176
     1
 73
     0
176
     1
 90
        0
176
     1
 40
-0.6
176
     1
 41
-30.0
176
     1
 62
     5
 63
     7
421
 16777215
176
     1
 74
     1
176
     1
 91
        0
176
     1
 64
     7
176
     1
 65
   257
176
     1
 75
     1
176
     1
175
     1
176
     1
 42
1.0
176
     1
 92
        8
176
     1
 66
     8
424
  7895160
176
     1
 43
1.0
176
     1
 76
     1
176
     1
 77
     6
176
     1
 78
     2
176
     1
 67
     7
176
     1
 79
     5
176
     1
170
     0
176
     1
171
     0
176
     1
290
     0
176
     1
 93
       13
176
     1
 44
0.0
176
     1
173
     0
176
     1
  0
VISUALSTYLE
  5
37
102
{ACAD_REACTORS
330
2A
102
}
330
2A
100
AcDbVisualStyle
  2
Thicken
 70
    13
177
     2
291
     1
 71
     2
176
     1
 72
     2
176
     1
 73
     0
176
     1
 90
        0
176
     1
 40
-0.6
176
     1
 41
-30.0
176
     1
 62
     5
 63
     7
421
 16777215
176
     1
 74
     1
176
     1
 91
        4
176
     1
 64
     7
176
     1
 65
   257
176
     1
 75
     1
176
     1
175
     1
176
     1
 42
1.0
176
     1
 92
       12
176
     1
 66
     7
176
     1
 43
1.0
176
     1
 76
     1
176
     1
 77
     6
176
     1
 78
     2
176
     1
 67
     7
176
     1
 79
     5
176
     1
170
     0
176
     1
171
     0
176
     1
290
     0
176
     1
 93
        1
176
     1
 44
0.0
176
     1
173
     0
176
     1
  0
ENDSEC
  0
EOF
