0
SECTION
2
HEADER
9
$INSUNITS
70
4
9
$ACADVER
1
AC1014
9
$HANDSEED
5
FFFF
0
ENDSEC
0
SECTION
2
TABLES
0
TABLE
2
VPORT
5
8
100
AcDbSymbolTable
0
ENDTAB
0
TABLE
2
LTYPE
5
5
100
AcDbSymbolTable
0
LTYPE
5
14
100
AcDbSymbolTableRecord
100
AcDbLinetypeTableRecord
2
BYBLOCK
70
0
0
LTYPE
5
15
100
AcDbSymbolTableRecord
100
AcDbLinetypeTableRecord
2
BYLAYER
70
0
0
ENDTAB
0
TABLE
2
LAYER
5
2
100
AcDbSymbolTable
70
2
0
LAYER
5
50
100
AcDbSymbolTableRecord
100
AcDbLayerTableRecord
2
0
70
0
6
CONTINUOUS
0
ENDTAB
0
TABLE
2
STYLE
5
3
100
AcDbSymbolTable
70
1
0
STYLE
5
11
100
AcDbSymbolTableRecord
100
AcDbTextStyleTableRecord
2
STANDARD
70
0
0
ENDTAB
0
TABLE
2
VIEW
5
6
100
AcDbSymbolTable
70
0
0
ENDTAB
0
TABLE
2
UCS
5
7
100
AcDbSymbolTable
70
0
0
ENDTAB
0
TABLE
2
APPID
5
9
100
AcDbSymbolTable
70
2
0
APPID
5
12
100
AcDbSymbolTableRecord
100
AcDbRegAppTableRecord
2
ACAD
70
0
0
ENDTAB
0
TABLE
2
DIMSTYLE
5
A
100
AcDbSymbolTable
70
1
0
ENDTAB
0
TABLE
2
BLOCK_RECORD
5
1
100
AcDbSymbolTable
70
1
0
BLOCK_RECORD
5
1F
100
AcDbSymbolTableRecord
100
AcDbBlockTableRecord
2
*MODEL_SPACE
0
BLOCK_RECORD
5
1B
100
AcDbSymbolTableRecord
100
AcDbBlockTableRecord
2
*PAPER_SPACE
0
ENDTAB
0
ENDSEC
0
SECTION
2
BLOCKS
0
BLOCK
5
20
100
AcDbEntity
100
AcDbBlockBegin
2
*MODEL_SPACE
0
ENDBLK
5
21
100
AcDbEntity
100
AcDbBlockEnd
0
BLOCK
5
1C
100
AcDbEntity
100
AcDbBlockBegin
2
*PAPER_SPACE
0
ENDBLK
5
1D
100
AcDbEntity
100
AcDbBlockEnd
0
ENDSEC
0
SECTION
2
ENTITIES
0
LWPOLYLINE
5
100
100
AcDbEntity
8
0
100
AcDbPolyline
90
36
70
1
43
0.0
10
152.87848356497759
20
28.416966079284979
10
155.87848356497756
20
28.416966079285004
10
155.87848356497756
20
48.416966079285004
10
152.87848356497756
20
48.416966079285004
10
152.87848356497759
20
56.416966079284983
10
132.87854616346812
20
56.416966079284983
10
132.87854616346812
20
53.416966079284983
10
109.83187949680146
20
53.41696607928499
10
109.83187949680146
20
56.41696607928499
10
89.831879496801463
20
56.41696607928499
10
89.831879496801463
20
53.41696607928499
10
66.785212830134796
20
53.41696607928499
10
66.785212830134796
20
56.41696607928499
10
46.785212830134796
20
56.416966079285004
10
46.785212830134796
20
53.416966079285004
10
23.738546163468133
20
53.416966079285004
10
23.738546163468133
20
56.416966079285004
10
3.7385461634681416
20
56.416966079285004
10
3.7385461634681327
20
48.416966079285004
10
0.73854616346813451
20
48.416966079285004
10
0.73854616346813451
20
28.416966079285004
10
3.7385461634681372
20
28.416966079285004
10
3.7385461634681367
20
25.416966079285
10
23.738546163468129
20
25.416966079285
10
23.738546163468129
20
28.416966079284997
10
46.785212830134782
20
28.416966079284993
10
46.785212830134782
20
25.416966079285
10
66.785212830134796
20
25.41696607928499
10
66.785212830134796
20
28.416966079284993
10
89.831879496801463
20
28.41696607928499
10
89.831879496801463
20
25.41696607928499
10
109.83187949680146
20
25.41696607928499
10
109.83187949680146
20
28.41696607928499
10
132.87854616346812
20
28.416966079284983
10
132.87854616346812
20
25.416966079284983
10
152.87848356497759
20
25.416966079284983
0
LWPOLYLINE
5
101
100
AcDbEntity
8
0
100
AcDbPolyline
90
36
70
1
43
0.0
10
152.87848356497759
20
28.416966079285004
10
152.87848356497759
20
25.41696607928499
10
132.87854616346812
20
25.41696607928499
10
132.87854616346812
20
28.41696607928499
10
109.83187949680146
20
28.416966079285004
10
109.83187949680146
20
25.41696607928499
10
89.831879496801491
20
25.416966079285
10
89.831879496801463
20
28.416966079284993
10
66.785212830134796
20
28.416966079284997
10
66.785212830134796
20
25.416966079285
10
46.785212830134796
20
25.416966079285
10
46.785212830134796
20
28.416966079284997
10
23.738546163468136
20
28.416966079285004
10
23.738546163468136
20
25.416966079285
10
3.7385461634681505
20
25.416966079285007
10
3.7385461634681372
20
28.416966079285007
10
0.73854616346813451
20
28.416966079285004
10
0.73854616346813451
20
48.416966079285004
10
3.7385461634681327
20
48.416966079285004
10
3.7385461634681416
20
56.416966079285011
10
23.73854616346815
20
56.416966079285011
10
23.738546163468143
20
53.416966079285004
10
46.78521283013481
20
53.416966079285004
10
46.785212830134803
20
56.416966079285004
10
66.78521283013481
20
56.416966079285004
10
66.785212830134796
20
53.416966079285004
10
89.831879496801463
20
53.416966079285004
10
89.831879496801463
20
56.416966079285004
10
109.83187949680149
20
56.416966079285004
10
109.83187949680146
20
53.41696607928499
10
132.87854616346812
20
53.41696607928499
10
132.87854616346812
20
56.41696607928499
10
152.87848356497759
20
56.41696607928499
10
152.87848356497756
20
48.416966079285004
10
155.87848356497756
20
48.416966079285004
10
155.87848356497756
20
28.416966079285004
0
ENDSEC
0
SECTION
2
OBJECTS
0
DICTIONARY
5
C
100
AcDbDictionary
3
ACAD_GROUP
350
D
3
ACAD_MLINESTYLE
350
17
0
DICTIONARY
5
D
100
AcDbDictionary
0
DICTIONARY
5
1A
330
C
100
AcDbDictionary
0
DICTIONARY
5
17
100
AcDbDictionary
0
ENDSEC
0
EOF
